<?xml version="1.0" encoding="UTF-8"?>
<!DOCTYPE svg PUBLIC "-//W3C//DTD SVG 1.1//EN" "http://www.w3.org/Graphics/SVG/1.1/DTD/svg11.dtd">
<svg xmlns="http://www.w3.org/2000/svg" style="background: transparent; background-color: transparent; color-scheme: light dark;" xmlns:xlink="http://www.w3.org/1999/xlink" version="1.1" width="301px" height="113px" viewBox="-0.5 -0.5 301 113"><defs/><g><g data-cell-id="0"><g data-cell-id="1"><g data-cell-id="wA9FqI98lm-z4scQnuff-53"/><g data-cell-id="wA9FqI98lm-z4scQnuff-7"><g><rect x="10" y="82" width="280" height="20" rx="10" ry="10" fill="none" stroke="none" pointer-events="all"/><path d="M 12.22 84.82 C 12.22 84.82 12.22 84.82 12.22 84.82 M 12.22 84.82 C 12.22 84.82 12.22 84.82 12.22 84.82 M 10.65 92.73 C 13.03 88.25 14.5 87.25 19.83 82.16 M 10.65 92.73 C 12.16 89.15 15.55 87.63 19.83 82.16 M 12.35 96.86 C 11.92 90.9 15.57 93.97 22.85 84.79 M 12.35 96.86 C 13.36 95.3 17.87 91.66 22.85 84.79 M 14.06 101 C 17.61 91.42 24.95 92.22 28.49 84.39 M 14.06 101 C 18.42 94.89 22 89.76 28.49 84.39 M 18.39 102.11 C 21.83 100.98 23.03 96.18 33.48 84.75 M 18.39 102.11 C 21.78 96 27.28 90.56 33.48 84.75 M 22.07 103.98 C 26.76 99.81 37.74 86.63 39.12 84.36 M 22.07 103.98 C 28.35 96.13 33.71 89.69 39.12 84.36 M 27.71 103.59 C 35.24 99.98 36.08 88.24 44.11 84.72 M 27.71 103.59 C 30.32 100.18 36.13 93.13 44.11 84.72 M 32.7 103.95 C 38.8 93.88 45.85 94.24 49.75 84.32 M 32.7 103.95 C 39.26 95.63 44.8 87.74 49.75 84.32 M 38.34 103.55 C 44.95 98.68 52.69 91.31 54.74 84.68 M 38.34 103.55 C 46.28 95.02 50.43 88.44 54.74 84.68 M 43.33 103.91 C 49.59 98.57 47.72 94.74 60.38 84.29 M 43.33 103.91 C 46.13 97.57 51.85 95.85 60.38 84.29 M 48.97 103.52 C 54.14 103.4 53.91 91.77 65.37 84.65 M 48.97 103.52 C 54.59 97.15 57.19 93.34 65.37 84.65 M 53.96 103.88 C 64.71 99.1 69.59 89.45 71.01 84.26 M 53.96 103.88 C 58.02 98.95 61.08 94.26 71.01 84.26 M 58.94 104.24 C 60.96 96.54 64.05 98.19 76 84.62 M 58.94 104.24 C 64.56 98.62 67.73 94.51 76 84.62 M 64.59 103.84 C 68.81 100.23 76.76 93.3 80.99 84.98 M 64.59 103.84 C 71.81 96.52 75.36 91.38 80.99 84.98 M 69.57 104.2 C 74.61 98.19 81.28 91.73 86.63 84.58 M 69.57 104.2 C 73.2 100.52 78.02 95.32 86.63 84.58 M 75.22 103.81 C 77.96 95.19 79.75 93.56 91.62 84.94 M 75.22 103.81 C 81.73 95.71 89.07 89.88 91.62 84.94 M 80.2 104.17 C 88.38 98.35 90.3 92.39 97.26 84.55 M 80.2 104.17 C 87.14 96.73 92.64 88.66 97.26 84.55 M 85.85 103.77 C 92.16 99.42 95.42 94.39 102.25 84.91 M 85.85 103.77 C 93.3 97.12 98.59 88.75 102.25 84.91 M 90.83 104.13 C 96.85 100.48 102.52 92.84 107.89 84.51 M 90.83 104.13 C 95.24 97.41 104.04 91.15 107.89 84.51 M 96.48 103.74 C 99.26 95.99 109 87.35 112.88 84.87 M 96.48 103.74 C 99.99 97.67 106.61 93.21 112.88 84.87 M 101.46 104.1 C 106.94 99.49 107.26 94.53 118.52 84.48 M 101.46 104.1 C 109.04 98.13 112.63 90.29 118.52 84.48 M 107.11 103.71 C 116.77 93.89 120.52 88.25 123.51 84.84 M 107.11 103.71 C 113.61 95.93 119.96 91.13 123.51 84.84 M 112.09 104.07 C 119.12 101.65 120.98 93.31 129.15 84.44 M 112.09 104.07 C 118.1 98.52 122.11 92.97 129.15 84.44 M 117.74 103.67 C 123.58 94.02 127.59 92.89 134.14 84.8 M 117.74 103.67 C 124.65 95.02 128.53 88.37 134.14 84.8 M 122.72 104.03 C 124.97 97.18 133.99 94.18 139.78 84.41 M 122.72 104.03 C 128.05 98.96 134.08 92.23 139.78 84.41 M 128.37 103.64 C 137.7 98.54 144.17 88.67 144.77 84.77 M 128.37 103.64 C 134.96 98.36 139.31 88.03 144.77 84.77 M 133.35 104 C 141.1 93.77 142.61 90.74 150.41 84.37 M 133.35 104 C 138.07 99.78 142.15 92.19 150.41 84.37 M 139 103.6 C 143.24 98.64 151.18 91.83 155.4 84.73 M 139 103.6 C 141.1 100.37 149 94.17 155.4 84.73 M 143.98 103.96 C 146.37 96.36 152.17 90.99 161.04 84.34 M 143.98 103.96 C 148.64 96.82 153.9 94.07 161.04 84.34 M 149.63 103.57 C 153.97 102.07 160.41 93.56 166.03 84.7 M 149.63 103.57 C 153.25 95.78 157.65 92.1 166.03 84.7 M 154.61 103.93 C 163.3 99.44 164.03 91.7 171.67 84.31 M 154.61 103.93 C 159.65 98.61 166.2 90.99 171.67 84.31 M 160.26 103.53 C 166.53 97.41 166.03 90.15 176.66 84.67 M 160.26 103.53 C 166.81 97.4 170.2 94.87 176.66 84.67 M 165.24 103.89 C 168.25 95.27 173.35 88.44 182.3 84.27 M 165.24 103.89 C 168.43 100.3 175.76 92.04 182.3 84.27 M 170.89 103.5 C 174.41 98.04 177.62 92.58 187.29 84.63 M 170.89 103.5 C 173.97 98.16 178.89 92.43 187.29 84.63 M 175.87 103.86 C 180.58 96.45 182.09 92.41 192.93 84.24 M 175.87 103.86 C 181.93 98.66 189.03 91.35 192.93 84.24 M 180.86 104.22 C 189.62 94.83 194.35 85.55 197.92 84.6 M 180.86 104.22 C 185.21 100.07 188.62 93.73 197.92 84.6 M 186.5 103.82 C 192.17 93.73 195.2 86.39 202.91 84.96 M 186.5 103.82 C 191.11 97.84 199.83 91.94 202.91 84.96 M 191.49 104.18 C 200.35 102.35 202.78 91.8 208.55 84.56 M 191.49 104.18 C 194.04 98.66 198.03 94.35 208.55 84.56 M 197.13 103.79 C 202.54 98.97 208.25 92.41 213.54 84.92 M 197.13 103.79 C 202.9 98.09 206.79 91.49 213.54 84.92 M 202.12 104.15 C 202.45 96.5 207.4 91.39 219.18 84.53 M 202.12 104.15 C 206.8 95.84 212.71 89.93 219.18 84.53 M 207.76 103.75 C 214.08 94.41 216.42 89.06 224.17 84.89 M 207.76 103.75 C 215.26 98.52 221.21 88.81 224.17 84.89 M 212.75 104.12 C 215.3 94.98 222.5 88.36 229.81 84.49 M 212.75 104.12 C 217.76 96.56 226.41 91.6 229.81 84.49 M 218.39 103.72 C 225.51 100.12 232.42 87.72 234.8 84.85 M 218.39 103.72 C 222.14 95.94 228.03 91.26 234.8 84.85 M 223.38 104.08 C 232.04 94.66 236.91 90.01 240.44 84.46 M 223.38 104.08 C 228.49 97.95 237.19 89.13 240.44 84.46 M 229.02 103.69 C 230.35 98.37 239.94 94.64 245.43 84.82 M 229.02 103.69 C 236.56 94.67 240.9 91.38 245.43 84.82 M 234.01 104.05 C 236.43 102.24 247.35 95.67 251.07 84.42 M 234.01 104.05 C 239.24 98.11 242.22 97.48 251.07 84.42 M 239.65 103.65 C 246.83 95.56 246.25 92.04 256.06 84.78 M 239.65 103.65 C 243.24 98.83 247.36 92.36 256.06 84.78 M 244.64 104.01 C 252.25 101.88 253.52 94.42 261.7 84.39 M 244.64 104.01 C 250.76 100.02 254.93 95.1 261.7 84.39 M 250.28 103.62 C 256.75 103.54 254.33 92.29 266.69 84.75 M 250.28 103.62 C 253.28 98.98 258.2 93.73 266.69 84.75 M 255.27 103.98 C 260.45 97.3 267.37 96.88 272.33 84.35 M 255.27 103.98 C 262.06 98.23 264.68 92.04 272.33 84.35 M 260.91 103.58 C 264.59 99.86 266.15 96.82 277.32 84.71 M 260.91 103.58 C 267.02 97.6 270.93 90.05 277.32 84.71 M 265.9 103.94 C 273.97 93.67 279.8 87.4 282.96 84.32 M 265.9 103.94 C 269.83 97.38 275.45 94.97 282.96 84.32 M 271.54 103.55 C 277.12 103.13 281.4 97.04 287.95 84.68 M 271.54 103.55 C 275.81 96.99 281.1 88.9 287.95 84.68 M 276.53 103.91 C 276.36 101.72 282.07 99.17 289 89.57 M 276.53 103.91 C 281.94 97.16 284.25 95.5 289 89.57 M 282.17 103.51 C 282.89 100.87 287.3 101.28 291.36 92.95 M 282.17 103.51 C 284.83 100.54 285.66 96.82 291.36 92.95" fill="none" stroke="#b1ddf0" stroke-width="0.5" stroke-linejoin="round" stroke-linecap="round" stroke-miterlimit="10" pointer-events="all" style="stroke: rgb(177, 221, 240);"/></g></g><g data-cell-id="wA9FqI98lm-z4scQnuff-9"><g><ellipse cx="150" cy="92" rx="10" ry="10" fill="none" stroke="none" pointer-events="all"/><path d="M 159.04 83.72 C 160.68 85.25 161.99 88.58 161.55 91.19 C 161.11 93.8 157.92 97.94 156.41 99.38 C 154.9 100.81 154.42 99.84 152.5 99.81 C 150.58 99.77 146.57 99.75 144.9 99.18 C 143.23 98.62 143.1 98.19 142.47 96.43 C 141.85 94.67 140.94 91 141.16 88.63 C 141.39 86.25 142.19 83.37 143.81 82.15 C 145.43 80.94 148.04 79.93 150.88 81.34 C 153.72 82.75 159.65 87.45 160.84 90.61 C 162.02 93.77 158.41 100.21 157.99 100.29" fill="#ffffff" stroke="none" pointer-events="all" style="fill: light-dark(#ffffff, var(--ge-dark-color, #121212));"/><path d="M 150.31 82.52 C 151.78 82.65 151.87 83.96 153.71 84.91 C 155.56 85.87 160.27 86.32 161.39 88.28 C 162.5 90.23 161.47 94.62 160.4 96.67 C 159.32 98.73 156.92 99.5 154.94 100.59 C 152.95 101.69 150.48 103.93 148.48 103.26 C 146.48 102.58 144.46 98.74 142.96 96.53 C 141.46 94.31 139.77 91.92 139.48 89.96 C 139.19 88.01 139.08 86.13 141.22 84.81 C 143.36 83.49 149.29 81.66 152.31 82.03 C 155.32 82.41 159.39 86.94 159.31 87.05" fill="none" stroke="#666666" stroke-linejoin="round" stroke-linecap="round" stroke-miterlimit="10" pointer-events="all" style="stroke: rgb(102, 102, 102);"/></g></g><g data-cell-id="wA9FqI98lm-z4scQnuff-11"><g><ellipse cx="30" cy="92" rx="10" ry="10" fill="none" stroke="none" pointer-events="all"/><path d="M 25.13 84.39 C 26.88 83.43 28.48 83.35 30.44 83.56 C 32.39 83.77 34.96 83.93 36.87 85.65 C 38.78 87.37 42.13 91.4 41.9 93.87 C 41.67 96.34 37.08 99.38 35.48 100.48 C 33.88 101.59 34.4 100.37 32.29 100.52 C 30.18 100.66 24.9 102.17 22.82 101.37 C 20.75 100.58 20.21 97.72 19.85 95.75 C 19.5 93.77 18.71 91.51 20.68 89.53 C 22.65 87.55 29.15 84.61 31.68 83.87 C 34.2 83.12 35.9 85.08 35.81 85.04" fill="#ffffff" stroke="none" pointer-events="all" style="fill: light-dark(#ffffff, var(--ge-dark-color, #121212));"/><path d="M 35.37 83.75 C 36.99 84.78 38.29 87.3 39.06 89.81 C 39.82 92.32 40.79 96.64 39.97 98.81 C 39.16 100.99 36.46 102.43 34.17 102.87 C 31.87 103.31 28.52 102.25 26.19 101.46 C 23.87 100.67 21.45 100.33 20.2 98.13 C 18.95 95.92 17.79 90.3 18.69 88.24 C 19.59 86.17 23.67 86.87 25.62 85.73 C 27.58 84.6 28 80.62 30.43 81.42 C 32.86 82.22 38.49 88.17 40.21 90.52 C 41.92 92.87 41.17 95.83 40.73 95.52" fill="none" stroke="#666666" stroke-linejoin="round" stroke-linecap="round" stroke-miterlimit="10" pointer-events="all" style="stroke: rgb(102, 102, 102);"/></g></g><g data-cell-id="wA9FqI98lm-z4scQnuff-12"><g><ellipse cx="70" cy="92" rx="10" ry="10" fill="none" stroke="none" pointer-events="all"/><path d="M 70.38 84 C 72.36 84.29 77.04 85.83 78.53 87.51 C 80.02 89.2 79.42 92.26 79.34 94.13 C 79.26 96 79.66 97.42 78.07 98.74 C 76.48 100.05 71.86 101.48 69.81 102.03 C 67.75 102.58 67.27 103.2 65.74 102.03 C 64.2 100.87 61.21 97.14 60.6 95.03 C 59.98 92.92 61.05 91.12 62.04 89.37 C 63.03 87.61 64.15 84.74 66.53 84.47 C 68.92 84.21 74.02 86.45 76.37 87.77 C 78.71 89.09 80.42 92.81 80.63 92.4" fill="#ffffff" stroke="none" pointer-events="all" style="fill: light-dark(#ffffff, var(--ge-dark-color, #121212));"/><path d="M 72.2 81.81 C 74.12 82.4 76.55 85.93 78.15 87.54 C 79.75 89.14 81.93 89.9 81.78 91.42 C 81.63 92.95 79.25 95.11 77.26 96.68 C 75.27 98.25 72.13 100.29 69.82 100.84 C 67.51 101.38 64.79 101.07 63.41 99.96 C 62.04 98.85 61.78 95.8 61.57 94.18 C 61.36 92.56 61.32 91.75 62.15 90.25 C 62.98 88.74 63.9 85.64 66.55 85.15 C 69.2 84.65 75.73 86.08 78.04 87.25 C 80.35 88.43 80.78 92.43 80.41 92.19" fill="none" stroke="#666666" stroke-linejoin="round" stroke-linecap="round" stroke-miterlimit="10" pointer-events="all" style="stroke: rgb(102, 102, 102);"/></g></g><g data-cell-id="wA9FqI98lm-z4scQnuff-13"><g><ellipse cx="110" cy="92" rx="10" ry="10" fill="none" stroke="none" pointer-events="all"/><path d="M 118.64 84 C 119.93 86.07 119.26 91.79 119.04 94.19 C 118.82 96.58 118.66 97.32 117.31 98.38 C 115.96 99.44 113.23 100.43 110.94 100.55 C 108.65 100.67 105.12 99.9 103.57 99.11 C 102.02 98.31 101.77 97.73 101.62 95.77 C 101.47 93.81 102.21 89.2 102.67 87.36 C 103.12 85.52 103.07 85.39 104.37 84.73 C 105.67 84.08 108.13 82.92 110.45 83.43 C 112.76 83.93 117.08 86.82 118.27 87.77 C 119.45 88.73 117.58 89.22 117.53 89.16" fill="#ffffff" stroke="none" pointer-events="all" style="fill: light-dark(#ffffff, var(--ge-dark-color, #121212));"/><path d="M 108.53 82.44 C 110.9 81.87 113.8 81.99 115.21 82.92 C 116.62 83.85 116.44 86.35 116.96 88 C 117.49 89.64 118.35 90.5 118.37 92.78 C 118.38 95.05 118.76 99.83 117.03 101.63 C 115.3 103.42 110.31 103.94 107.96 103.54 C 105.61 103.15 104.07 101.24 102.92 99.27 C 101.78 97.29 101.62 93.71 101.12 91.69 C 100.62 89.67 98.56 88.52 99.94 87.16 C 101.33 85.8 107.32 84.53 109.43 83.53 C 111.54 82.53 112.81 81.32 112.61 81.17" fill="none" stroke="#666666" stroke-linejoin="round" stroke-linecap="round" stroke-miterlimit="10" pointer-events="all" style="stroke: rgb(102, 102, 102);"/></g></g><g data-cell-id="wA9FqI98lm-z4scQnuff-17"><g><ellipse cx="190" cy="92" rx="10" ry="10" fill="none" stroke="none" pointer-events="all"/><path d="M 185.65 82.39 C 187.35 81.08 192.5 80.79 194.33 81.53 C 196.16 82.28 195.91 84.58 196.63 86.85 C 197.35 89.11 198.67 92.88 198.66 95.13 C 198.66 97.37 197.86 99.03 196.61 100.33 C 195.35 101.62 193.11 103.13 191.12 102.89 C 189.14 102.66 186.82 100.65 184.71 98.94 C 182.6 97.23 179.12 94.52 178.45 92.64 C 177.79 90.75 179.22 89.57 180.72 87.62 C 182.22 85.66 185.42 81.46 187.46 80.92 C 189.49 80.37 192.5 84.2 192.95 84.35" fill="#ffffff" stroke="none" pointer-events="all" style="fill: light-dark(#ffffff, var(--ge-dark-color, #121212));"/><path d="M 185.61 83.78 C 186.94 83.22 189.24 83.96 191.35 84.26 C 193.47 84.55 197.2 83.78 198.3 85.55 C 199.4 87.32 198.37 92.35 197.93 94.87 C 197.5 97.39 196.81 99.78 195.69 100.67 C 194.57 101.56 192.9 100.49 191.2 100.22 C 189.49 99.95 187.42 100.15 185.44 99.08 C 183.45 98.01 180.2 96.04 179.28 93.8 C 178.36 91.56 178.06 87.81 179.9 85.62 C 181.74 83.43 188.42 81.28 190.31 80.63 C 192.21 79.99 191.27 81.14 191.26 81.73" fill="none" stroke="#666666" stroke-linejoin="round" stroke-linecap="round" stroke-miterlimit="10" pointer-events="all" style="stroke: rgb(102, 102, 102);"/></g></g><g data-cell-id="wA9FqI98lm-z4scQnuff-18"><g><ellipse cx="230" cy="92" rx="10" ry="10" fill="none" stroke="none" pointer-events="all"/><path d="M 234.95 82.69 C 236.73 83.32 237.44 83.92 238.02 86.05 C 238.59 88.18 238.39 93.21 238.42 95.49 C 238.45 97.76 239.5 98.73 238.21 99.69 C 236.91 100.65 232.89 101.23 230.65 101.24 C 228.41 101.25 226.7 101.25 224.77 99.74 C 222.83 98.24 219.63 94.44 219.06 92.21 C 218.49 89.97 220 87.85 221.33 86.33 C 222.66 84.81 224.41 83.47 227.06 83.07 C 229.71 82.66 235.43 82.69 237.21 83.91 C 239 85.13 237.71 89.93 237.78 90.39" fill="#ffffff" stroke="none" pointer-events="all" style="fill: light-dark(#ffffff, var(--ge-dark-color, #121212));"/><path d="M 223.01 87.19 C 224.23 85.73 225.45 83.05 227.44 82.46 C 229.43 81.87 232.82 82.98 234.93 83.66 C 237.04 84.33 239.09 84.58 240.09 86.5 C 241.1 88.43 241.68 92.83 240.94 95.21 C 240.21 97.6 237.74 99.72 235.7 100.82 C 233.65 101.93 231.09 102.2 228.67 101.85 C 226.25 101.49 222.64 100.14 221.18 98.68 C 219.72 97.22 218.47 96.05 219.9 93.08 C 221.32 90.12 227.25 82.64 229.75 80.9 C 232.24 79.17 234.83 82.07 234.87 82.67" fill="none" stroke="#666666" stroke-linejoin="round" stroke-linecap="round" stroke-miterlimit="10" pointer-events="all" style="stroke: rgb(102, 102, 102);"/></g></g><g data-cell-id="wA9FqI98lm-z4scQnuff-19"><g><ellipse cx="270" cy="92" rx="10" ry="10" fill="none" stroke="none" pointer-events="all"/><path d="M 261.98 87.06 C 263.45 85.3 267.24 82.64 269.09 81.93 C 270.93 81.23 271.32 82.1 273.04 82.84 C 274.75 83.58 278.13 84.18 279.37 86.39 C 280.61 88.59 280.88 93.97 280.48 96.07 C 280.08 98.18 278.71 97.82 276.97 99.02 C 275.24 100.22 272.06 103.32 270.07 103.27 C 268.08 103.22 266.38 100.38 265.04 98.73 C 263.69 97.08 261.46 95.78 262.01 93.38 C 262.56 90.99 266.43 86.37 268.35 84.36 C 270.27 82.35 273.53 81.78 273.53 81.32" fill="#ffffff" stroke="none" pointer-events="all" style="fill: light-dark(#ffffff, var(--ge-dark-color, #121212));"/><path d="M 273.73 85.06 C 275.54 85.47 279.32 86.08 280.37 87.55 C 281.42 89.02 281.02 91.81 280.03 93.87 C 279.03 95.93 276.43 98.74 274.4 99.91 C 272.36 101.08 269.88 101.43 267.81 100.89 C 265.75 100.36 263.58 98.13 262.02 96.71 C 260.46 95.29 258.67 94.25 258.44 92.38 C 258.2 90.52 258.76 87.4 260.63 85.53 C 262.49 83.66 266.26 80.52 269.61 81.16 C 272.95 81.8 279.61 86.21 280.68 89.36 C 281.74 92.51 276.11 99.55 276.01 100.03" fill="none" stroke="#666666" stroke-linejoin="round" stroke-linecap="round" stroke-miterlimit="10" pointer-events="all" style="stroke: rgb(102, 102, 102);"/></g></g><g data-cell-id="wA9FqI98lm-z4scQnuff-32"><g><path d="M 278 75 Q 300 75 300 91 Q 300 107 293.5 107 Q 287 107 287 107.5 Q 287 108 288.37 108" fill="none" stroke="#000000" stroke-linejoin="round" stroke-linecap="round" stroke-miterlimit="10" pointer-events="stroke" style="stroke: light-dark(rgb(0, 0, 0), rgb(255, 255, 255));"/><path d="M 283.12 108 L 283.1 107.96 L 284.47 107.2 L 285.8 106.37 L 287.34 105.94 L 288.6 104.97 L 290.12 104.5 L 290.35 104.61 L 289.63 105.13 L 289.13 105.76 L 289.25 106.69 L 288.94 107.41 L 288.37 108 L 288.14 107.89 L 288.54 108.61 L 289.33 109.53 L 289.36 110.07 L 289.67 110.75 L 290.12 111.5 L 290.26 111.79 L 288.67 110.71 L 287.41 110.29 L 286.06 109.68 L 284.55 108.77 L 283.12 108 Z Z" fill="#000000" stroke="#000000" stroke-linejoin="round" stroke-linecap="round" stroke-miterlimit="10" pointer-events="all" style="fill: light-dark(rgb(0, 0, 0), rgb(255, 255, 255)); stroke: light-dark(rgb(0, 0, 0), rgb(255, 255, 255));"/></g></g><g data-cell-id="wA9FqI98lm-z4scQnuff-42"/><g data-cell-id="wA9FqI98lm-z4scQnuff-43"/><g data-cell-id="wA9FqI98lm-z4scQnuff-44"/><g data-cell-id="wA9FqI98lm-z4scQnuff-45"/><g data-cell-id="wA9FqI98lm-z4scQnuff-46"/><g data-cell-id="wA9FqI98lm-z4scQnuff-47"/><g data-cell-id="wA9FqI98lm-z4scQnuff-48"/><g data-cell-id="wA9FqI98lm-z4scQnuff-49"/><g data-cell-id="wA9FqI98lm-z4scQnuff-50"/><g data-cell-id="wA9FqI98lm-z4scQnuff-54"/><g data-cell-id="wA9FqI98lm-z4scQnuff-55"/><g data-cell-id="wA9FqI98lm-z4scQnuff-40"/><g data-cell-id="wA9FqI98lm-z4scQnuff-67"/><g data-cell-id="wA9FqI98lm-z4scQnuff-71"/><g data-cell-id="wA9FqI98lm-z4scQnuff-72"/><g data-cell-id="wA9FqI98lm-z4scQnuff-73"/><g data-cell-id="wA9FqI98lm-z4scQnuff-74"/><g data-cell-id="wA9FqI98lm-z4scQnuff-96"/><g data-cell-id="wA9FqI98lm-z4scQnuff-97"/><g data-cell-id="wA9FqI98lm-z4scQnuff-98"/><g data-cell-id="wA9FqI98lm-z4scQnuff-99"/><g data-cell-id="wA9FqI98lm-z4scQnuff-100"/><g data-cell-id="remplace"><g data-cell-id="wA9FqI98lm-z4scQnuff-83"/><g data-cell-id="wA9FqI98lm-z4scQnuff-90"><g data-cell-id="wA9FqI98lm-z4scQnuff-84"/><g data-cell-id="wA9FqI98lm-z4scQnuff-85"/><g data-cell-id="wA9FqI98lm-z4scQnuff-86"/><g data-cell-id="wA9FqI98lm-z4scQnuff-87"/><g data-cell-id="wA9FqI98lm-z4scQnuff-88"/><g data-cell-id="wA9FqI98lm-z4scQnuff-89"/></g><g data-cell-id="wA9FqI98lm-z4scQnuff-94"/></g><g data-cell-id="wA9FqI98lm-z4scQnuff-103"><g data-cell-id="wA9FqI98lm-z4scQnuff-80"/><g data-cell-id="wA9FqI98lm-z4scQnuff-101"/></g><g data-cell-id="bidon1"><g/><g data-cell-id="wA9FqI98lm-z4scQnuff-24"><g><rect x="200" y="2" width="60" height="80" fill="none" stroke="none" pointer-events="all"/><path d="M 200.2 1.77 C 200.2 1.77 200.2 1.77 200.2 1.77 M 200.2 1.77 C 200.2 1.77 200.2 1.77 200.2 1.77 M 199.93 8.17 C 201.23 5.9 203.98 5.04 205.18 2.14 M 199.93 8.17 C 201.48 6.53 204.57 4.39 205.18 2.14 M 199.67 14.57 C 205.27 12 204.03 7.33 210.83 1.74 M 199.67 14.57 C 202.22 10.11 204.41 7.22 210.83 1.74 M 200.07 20.21 C 202.73 11.62 208.62 5.16 215.81 2.1 M 200.07 20.21 C 206.31 13.18 209.87 7.03 215.81 2.1 M 199.81 26.61 C 202.84 21.8 210.26 16.71 221.46 1.71 M 199.81 26.61 C 206.83 20.58 216.36 9.02 221.46 1.71 M 200.2 32.25 C 213.51 20.06 221.83 10.38 226.44 2.07 M 200.2 32.25 C 206.4 23.6 212.81 16.14 226.44 2.07 M 199.94 38.65 C 211.05 26.74 225.88 11.33 232.09 1.67 M 199.94 38.65 C 207.84 32.09 211.61 24.6 232.09 1.67 M 199.68 45.05 C 211.23 28.91 222.87 11.41 237.07 2.03 M 199.68 45.05 C 207.25 35.17 213.62 28.49 237.07 2.03 M 200.07 50.69 C 207.57 41.59 214.12 28.6 242.72 1.64 M 200.07 50.69 C 215.23 32.04 230.86 16.94 242.72 1.64 M 199.81 57.09 C 207.1 48.88 215.97 33.76 247.7 2 M 199.81 57.09 C 214.52 40.29 230.21 23.69 247.7 2 M 200.21 62.73 C 209.26 47.96 228.9 33.55 252.69 2.36 M 200.21 62.73 C 222.91 40.25 242.16 14.03 252.69 2.36 M 199.94 69.13 C 218.8 48.12 239.99 28.58 258.33 1.96 M 199.94 69.13 C 216.73 50.62 232.22 30.28 258.33 1.96 M 199.68 75.53 C 217.39 53.48 235.21 29.81 260.7 5.34 M 199.68 75.53 C 213.95 56.86 228.02 42.41 260.7 5.34 M 200.08 81.17 C 221.75 58.52 240.77 35.33 260.43 11.74 M 200.08 81.17 C 216.52 57.92 239.23 39.06 260.43 11.74 M 204.41 82.29 C 214.91 70.4 227.5 59.67 260.83 17.38 M 204.41 82.29 C 219.75 61.61 238.44 44.67 260.83 17.38 M 209.39 82.65 C 221.78 62.04 237.15 45.6 260.57 23.78 M 209.39 82.65 C 224.72 66.32 240.92 44.45 260.57 23.78 M 215.04 82.25 C 229.48 68.99 239.08 59.57 260.31 30.18 M 215.04 82.25 C 227.06 65.51 241.99 48.62 260.31 30.18 M 220.03 82.61 C 234.08 66.67 251.96 49.34 260.7 35.82 M 220.03 82.61 C 231.75 69.6 238.2 58.1 260.7 35.82 M 225.67 82.22 C 231.99 70.21 246.6 60.7 260.44 42.22 M 225.67 82.22 C 235.39 71.93 245.08 58.6 260.44 42.22 M 230.66 82.58 C 239.04 68.88 250.62 58.41 260.83 47.86 M 230.66 82.58 C 237.03 74.49 245.06 63.53 260.83 47.86 M 236.3 82.18 C 247.95 72.45 252.02 60 260.57 54.26 M 236.3 82.18 C 242.35 75.01 249.71 64.23 260.57 54.26 M 241.29 82.54 C 250.57 74.72 253.83 69.81 260.31 60.66 M 241.29 82.54 C 247.49 75.66 250.35 70.52 260.31 60.66 M 246.93 82.15 C 251.07 77.74 256.06 71.7 260.71 66.3 M 246.93 82.15 C 249.29 77.19 254.48 71.93 260.71 66.3 M 251.92 82.51 C 252.15 80.25 258.16 79.18 260.44 72.7 M 251.92 82.51 C 254.83 78.73 256.55 77.88 260.44 72.7 M 257.56 82.11 C 258.95 79.96 260.24 79.07 260.84 78.34 M 257.56 82.11 C 258.36 80.76 259.69 79.94 260.84 78.34" fill="none" stroke="#bac8d3" stroke-width="0.5" stroke-linejoin="round" stroke-linecap="round" stroke-miterlimit="10" pointer-events="all" style="stroke: rgb(186, 200, 211);"/><path d="M 200 2 C 216.85 -1.86 239.9 2.21 260 2 M 200 2 C 218.32 1.75 233.25 0.05 260 2 M 260 2 C 257.82 29.48 259.58 57.85 260 82 M 260 2 C 260.01 31.5 262.62 58.36 260 82 M 260 82 C 235.56 78.53 215.69 80.67 200 82 M 260 82 C 238.24 80.19 220.28 82.84 200 82 M 200 82 C 197.73 52.55 195.79 19.52 200 2 M 200 82 C 198.09 57.65 198.02 34.77 200 2" fill="none" stroke="#23445d" stroke-linejoin="round" stroke-linecap="round" stroke-miterlimit="10" pointer-events="all" style="stroke: rgb(35, 68, 93);"/></g></g><g data-cell-id="wA9FqI98lm-z4scQnuff-25"><g><path d="M 200 2 L 260 2" fill="none" stroke="none" pointer-events="stroke"/><path d="M 200 2 C 222.57 5.03 235.27 1.5 260 2 M 200 2 C 221.04 1.45 243.44 2.19 260 2" fill="none" stroke="#23445d" stroke-width="4" stroke-linejoin="round" stroke-linecap="round" stroke-miterlimit="10" pointer-events="stroke" style="stroke: rgb(35, 68, 93);"/></g></g><g data-cell-id="wA9FqI98lm-z4scQnuff-26"><g><path d="M 200 82 L 260 82" fill="none" stroke="none" pointer-events="stroke"/><path d="M 200 82 C 220.28 81.51 238.63 78.38 260 82 M 200 82 C 215.75 83.55 229.62 82.73 260 82" fill="none" stroke="#23445d" stroke-width="4" stroke-linejoin="round" stroke-linecap="round" stroke-miterlimit="10" pointer-events="stroke" style="stroke: rgb(35, 68, 93);"/></g></g><g data-cell-id="wA9FqI98lm-z4scQnuff-65"><g><path d="M 206.9 76 L 206.9 8" fill="none" stroke="none" pointer-events="stroke"/><path d="M 206.9 76 C 207.61 55.2 204.9 30.95 206.9 8 M 206.9 76 C 207.93 57.45 207.23 36.51 206.9 8" fill="none" stroke="#cccccc" stroke-width="4" stroke-linejoin="round" stroke-linecap="round" stroke-miterlimit="10" pointer-events="stroke" style="stroke: rgb(204, 204, 204);"/></g></g><g data-cell-id="wA9FqI98lm-z4scQnuff-66"><g><path d="M 252.9 76 L 252.9 8" fill="none" stroke="none" pointer-events="stroke"/><path d="M 252.9 76 C 251.09 53.13 254.03 29.28 252.9 8 M 252.9 76 C 252.14 52.98 254.59 25.58 252.9 8" fill="none" stroke="#ffffff" stroke-width="4" stroke-linejoin="round" stroke-linecap="round" stroke-miterlimit="10" pointer-events="stroke" style="stroke: rgb(255, 255, 255);"/></g></g><g data-cell-id="wA9FqI98lm-z4scQnuff-27"><g><path d="M 200 42 L 260 42" fill="none" stroke="none" pointer-events="stroke"/><path d="M 200 42 C 218 40.4 241.99 45.66 260 42 M 200 42 C 218.46 43.26 235.8 40.87 260 42" fill="none" stroke="#23445d" stroke-width="4" stroke-linejoin="round" stroke-linecap="round" stroke-miterlimit="10" pointer-events="stroke" style="stroke: rgb(35, 68, 93);"/></g></g></g><g data-cell-id="bidon2"><g/><g data-cell-id="wA9FqI98lm-z4scQnuff-20"><g><rect x="110" y="2" width="60" height="80" fill="none" stroke="none" pointer-events="all"/><path d="M 110.23 1.74 C 110.23 1.74 110.23 1.74 110.23 1.74 M 110.23 1.74 C 110.23 1.74 110.23 1.74 110.23 1.74 M 109.96 8.14 C 110.28 7.38 114 4.65 115.21 2.1 M 109.96 8.14 C 111.19 6.15 112.93 4.27 115.21 2.1 M 109.7 14.54 C 112.08 9.59 112.8 9.6 120.86 1.71 M 109.7 14.54 C 115.63 9.85 117.08 3.41 120.86 1.71 M 110.1 20.18 C 110.27 12.4 120.76 13.82 125.84 2.07 M 110.1 20.18 C 114.4 17.14 118.78 12.21 125.84 2.07 M 109.84 26.58 C 118.91 15.72 123.27 8.18 131.49 1.67 M 109.84 26.58 C 114.73 18.5 120.78 13.2 131.49 1.67 M 110.23 32.22 C 114.93 26.43 120.88 15.32 136.47 2.03 M 110.23 32.22 C 118.97 24.55 126.38 16.1 136.47 2.03 M 109.97 38.62 C 120.49 29.08 128.55 10.4 142.12 1.64 M 109.97 38.62 C 123.45 23.14 135.06 11.31 142.12 1.64 M 109.71 45.02 C 119.69 37.77 132.49 21.29 147.1 2 M 109.71 45.02 C 116.79 36.38 127.49 26.55 147.1 2 M 110.1 50.66 C 125.05 36.21 143.41 17.01 152.09 2.36 M 110.1 50.66 C 123.37 38.6 134.46 21.89 152.09 2.36 M 109.84 57.06 C 120.32 45.09 127.36 36.15 157.73 1.96 M 109.84 57.06 C 123.6 40.75 135.45 26.56 157.73 1.96 M 110.24 62.7 C 125.31 41.91 151.14 15.26 162.72 2.32 M 110.24 62.7 C 123.07 48.31 135.15 37.45 162.72 2.32 M 109.97 69.1 C 129.39 43.81 158.21 17.98 168.36 1.93 M 109.97 69.1 C 130.04 40.85 153.65 16.07 168.36 1.93 M 109.71 75.5 C 127.71 54 146.23 39.09 172.04 3.8 M 109.71 75.5 C 122.71 59.48 138.59 45.16 172.04 3.8 M 110.11 81.14 C 128.47 60.36 152.55 40.38 171.78 10.2 M 110.11 81.14 C 134.19 53.18 155.07 23.96 171.78 10.2 M 112.47 84.52 C 126.09 66.76 147.92 44.79 172.17 15.84 M 112.47 84.52 C 128.72 65.75 144.93 46.46 172.17 15.84 M 118.11 84.12 C 141.8 59.33 155.6 40.98 171.91 22.24 M 118.11 84.12 C 130.31 70.59 142.42 56.84 171.91 22.24 M 123.1 84.48 C 134.84 71.82 147.06 62.22 172.3 27.88 M 123.1 84.48 C 134.58 71.02 146.61 57.14 172.3 27.88 M 128.74 84.09 C 141.63 69.36 160.99 49.25 172.04 34.28 M 128.74 84.09 C 145.03 62.58 161.48 46.25 172.04 34.28 M 133.73 84.45 C 143.46 70.83 157.82 54.71 171.78 40.68 M 133.73 84.45 C 147.25 69.96 158.43 55.4 171.78 40.68 M 139.37 84.05 C 153.69 73.73 160.18 55.07 172.18 46.32 M 139.37 84.05 C 146.29 74.86 151.71 68.31 172.18 46.32 M 144.36 84.41 C 150.02 71.89 165.71 66.35 171.91 52.72 M 144.36 84.41 C 149.27 75.2 156.88 67.53 171.91 52.72 M 150 84.02 C 154.61 74.35 164.65 70.88 172.31 58.36 M 150 84.02 C 153.68 79.98 160.22 74.44 172.31 58.36 M 154.99 84.38 C 160.73 80.06 167.68 67.3 172.05 64.76 M 154.99 84.38 C 159.48 80.93 161.21 75.2 172.05 64.76 M 160.63 83.98 C 162.19 80.84 165.76 80.43 171.79 71.15 M 160.63 83.98 C 163.51 79.81 170.13 73.84 171.79 71.15 M 165.62 84.34 C 168.78 81.08 167.44 80.27 172.18 76.8 M 165.62 84.34 C 168.36 81.4 169.36 79.53 172.18 76.8" fill="none" stroke="#bac8d3" stroke-width="0.5" stroke-linejoin="round" stroke-linecap="round" stroke-miterlimit="10" pointer-events="all" style="stroke: rgb(186, 200, 211);"/><path d="M 110 2 C 127.99 -0.59 152.46 1.88 170 2 M 110 2 C 121.48 0.53 134.52 1.1 170 2 M 170 2 C 169.1 16.86 171.98 36.65 170 82 M 170 2 C 171.06 21.26 170.5 41.78 170 82 M 170 82 C 145.2 79.02 128.27 85.17 110 82 M 170 82 C 148.12 84.51 123.79 84.06 110 82 M 110 82 C 113.8 65.74 107.63 47.27 110 2 M 110 82 C 110.42 58.79 109.01 33.67 110 2" fill="none" stroke="#23445d" stroke-linejoin="round" stroke-linecap="round" stroke-miterlimit="10" pointer-events="all" style="stroke: rgb(35, 68, 93);"/></g></g><g data-cell-id="wA9FqI98lm-z4scQnuff-21"><g><path d="M 110 2 L 170 2" fill="none" stroke="none" pointer-events="stroke"/><path d="M 110 2 C 125.71 3.89 147.82 -1.24 170 2 M 110 2 C 128.19 0.24 144.71 3.24 170 2" fill="none" stroke="#23445d" stroke-width="4" stroke-linejoin="round" stroke-linecap="round" stroke-miterlimit="10" pointer-events="stroke" style="stroke: rgb(35, 68, 93);"/></g></g><g data-cell-id="wA9FqI98lm-z4scQnuff-22"><g><path d="M 110 82 L 170 82" fill="none" stroke="none" pointer-events="stroke"/><path d="M 110 82 C 131.42 82.77 151.18 86.05 170 82 M 110 82 C 130.9 79.94 150.89 81.38 170 82" fill="none" stroke="#23445d" stroke-width="4" stroke-linejoin="round" stroke-linecap="round" stroke-miterlimit="10" pointer-events="stroke" style="stroke: rgb(35, 68, 93);"/></g></g><g data-cell-id="wA9FqI98lm-z4scQnuff-63"><g><path d="M 116.9 75.67 L 116.9 7.67" fill="none" stroke="none" pointer-events="stroke"/><path d="M 116.9 75.67 C 111.92 51.02 113.92 33.97 116.9 7.67 M 116.9 75.67 C 114.79 52.46 115.79 26.83 116.9 7.67" fill="none" stroke="#cccccc" stroke-width="4" stroke-linejoin="round" stroke-linecap="round" stroke-miterlimit="10" pointer-events="stroke" style="stroke: rgb(204, 204, 204);"/></g></g><g data-cell-id="wA9FqI98lm-z4scQnuff-64"><g><path d="M 162.9 75.67 L 162.9 7.67" fill="none" stroke="none" pointer-events="stroke"/><path d="M 162.9 75.67 C 166.12 56.94 165.77 32.3 162.9 7.67 M 162.9 75.67 C 163 61.59 163.15 47.11 162.9 7.67" fill="none" stroke="#ffffff" stroke-width="4" stroke-linejoin="round" stroke-linecap="round" stroke-miterlimit="10" pointer-events="stroke" style="stroke: rgb(255, 255, 255);"/></g></g><g data-cell-id="wA9FqI98lm-z4scQnuff-23"><g><path d="M 110 42 L 170 42" fill="none" stroke="none" pointer-events="stroke"/><path d="M 110 42 C 129.14 39.26 146.54 42.93 170 42 M 110 42 C 121.61 42.04 137.07 41.92 170 42" fill="none" stroke="#23445d" stroke-width="4" stroke-linejoin="round" stroke-linecap="round" stroke-miterlimit="10" pointer-events="stroke" style="stroke: rgb(35, 68, 93);"/></g></g></g><g data-cell-id="bidon3"><g/><g data-cell-id="wA9FqI98lm-z4scQnuff-2"><g><rect x="20" y="1.67" width="60" height="80" fill="none" stroke="none" pointer-events="all"/><path d="M 20.09 1.56 C 20.09 1.56 20.09 1.56 20.09 1.56 M 20.09 1.56 C 20.09 1.56 20.09 1.56 20.09 1.56 M 19.83 7.96 C 21.66 6.82 23.8 4.27 25.08 1.92 M 19.83 7.96 C 22.17 5.47 23.92 3.55 25.08 1.92 M 20.22 13.61 C 21.57 11.87 28.12 8.8 30.72 1.53 M 20.22 13.61 C 23.47 9.71 28.94 5.33 30.72 1.53 M 19.96 20 C 25.19 15.47 32.85 11.38 35.71 1.89 M 19.96 20 C 24.67 15.79 31.23 8.64 35.71 1.89 M 19.7 26.4 C 25.32 21.53 34.84 14.71 41.35 1.5 M 19.7 26.4 C 27.51 15.39 33.58 8.77 41.35 1.5 M 20.1 32.04 C 27.36 23.77 35.26 10.8 46.34 1.86 M 20.1 32.04 C 27.46 23.99 33.58 16.97 46.34 1.86 M 19.84 38.44 C 32.05 24.64 43.47 14.69 51.98 1.46 M 19.84 38.44 C 30.26 24.05 40.96 12.23 51.98 1.46 M 20.23 44.08 C 31.4 34.34 46.45 19.52 56.97 1.82 M 20.23 44.08 C 31.21 27.84 43.14 16.55 56.97 1.82 M 19.97 50.48 C 38.14 34.02 53.26 14.39 62.61 1.43 M 19.97 50.48 C 30.81 37.55 36.68 26.58 62.61 1.43 M 19.71 56.88 C 31.29 35.19 51.63 21.17 67.6 1.79 M 19.71 56.88 C 35.45 41.08 49.64 22.79 67.6 1.79 M 20.1 62.52 C 39.37 37.25 58.92 14.24 73.24 1.39 M 20.1 62.52 C 36.7 45.18 50.08 27.84 73.24 1.39 M 19.84 68.92 C 37.13 44.44 59.28 31.06 78.23 1.75 M 19.84 68.92 C 40 44.69 57 22.07 78.23 1.75 M 20.23 74.56 C 43.1 49.81 63.57 28.45 80.59 5.13 M 20.23 74.56 C 38.96 53.88 59 32.36 80.59 5.13 M 19.97 80.96 C 38.66 61.68 57.47 37.42 80.33 11.53 M 19.97 80.96 C 41.03 59.45 62.06 34 80.33 11.53 M 24.3 82.08 C 43 62.17 67.7 36.44 80.73 17.17 M 24.3 82.08 C 34.39 66.92 46.11 53.04 80.73 17.17 M 29.95 81.68 C 46.09 63.99 65.15 43.83 80.46 23.57 M 29.95 81.68 C 45.37 64.64 65.35 42.62 80.46 23.57 M 34.93 82.04 C 45.22 67.81 63.08 48.89 80.86 29.21 M 34.93 82.04 C 51.6 62.76 67.69 43.95 80.86 29.21 M 40.58 81.65 C 49.09 72.41 62.54 59.69 80.6 35.61 M 40.58 81.65 C 51.92 69.75 62.7 54.78 80.6 35.61 M 45.56 82.01 C 53.96 74.86 62.05 60.19 80.34 42.01 M 45.56 82.01 C 57.72 68.08 70.32 53.98 80.34 42.01 M 50.55 82.37 C 55.91 77.89 64.3 63.95 80.73 47.65 M 50.55 82.37 C 57.7 76.13 64.35 64.52 80.73 47.65 M 56.19 81.97 C 60.76 76.73 66.41 72.15 80.47 54.05 M 56.19 81.97 C 64.68 72.71 71.08 64.71 80.47 54.05 M 61.18 82.33 C 64.45 74.15 78.12 66.96 80.86 59.69 M 61.18 82.33 C 70.76 73.53 76.6 65.41 80.86 59.69 M 66.82 81.94 C 71.47 73.58 77.94 68.07 80.6 66.09 M 66.82 81.94 C 72.69 75.39 77.86 69.8 80.6 66.09 M 71.81 82.3 C 75.2 79.22 73.99 76.05 80.34 72.49 M 71.81 82.3 C 72.62 79.96 75.43 77.01 80.34 72.49 M 77.45 81.9 C 78.54 80.5 78.76 79.37 80.73 78.13 M 77.45 81.9 C 78.39 81.32 79.42 80.39 80.73 78.13" fill="none" stroke="#bac8d3" stroke-width="0.5" stroke-linejoin="round" stroke-linecap="round" stroke-miterlimit="10" pointer-events="all" style="stroke: rgb(186, 200, 211);"/><path d="M 20 1.67 C 44.25 0.71 69.84 2.75 80 1.67 M 20 1.67 C 37.59 -0.63 54.44 1.55 80 1.67 M 80 1.67 C 77.11 22.29 77.64 50.84 80 81.67 M 80 1.67 C 78.17 23.23 81.44 41.05 80 81.67 M 80 81.67 C 67.96 83.78 53.07 78.3 20 81.67 M 80 81.67 C 58.47 83.16 35.35 80.4 20 81.67 M 20 81.67 C 22.01 58.9 19.14 29.1 20 1.67 M 20 81.67 C 19.91 64.46 22.83 48.07 20 1.67" fill="none" stroke="#23445d" stroke-linejoin="round" stroke-linecap="round" stroke-miterlimit="10" pointer-events="all" style="stroke: rgb(35, 68, 93);"/></g></g><g data-cell-id="wA9FqI98lm-z4scQnuff-4"><g><path d="M 20 1.67 L 80 1.67" fill="none" stroke="none" pointer-events="stroke"/><path d="M 20 1.67 C 39.68 4.08 68.56 -1.08 80 1.67 M 20 1.67 C 35.01 1.18 46.81 0.23 80 1.67" fill="none" stroke="#23445d" stroke-width="4" stroke-linejoin="round" stroke-linecap="round" stroke-miterlimit="10" pointer-events="stroke" style="stroke: rgb(35, 68, 93);"/></g></g><g data-cell-id="wA9FqI98lm-z4scQnuff-5"><g><path d="M 20 81.67 L 80 81.67" fill="none" stroke="none" pointer-events="stroke"/><path d="M 20 81.67 C 45.39 80.56 63.93 83.8 80 81.67 M 20 81.67 C 37.73 80.88 56.99 82.37 80 81.67" fill="none" stroke="#23445d" stroke-width="4" stroke-linejoin="round" stroke-linecap="round" stroke-miterlimit="10" pointer-events="stroke" style="stroke: rgb(35, 68, 93);"/></g></g><g data-cell-id="wA9FqI98lm-z4scQnuff-57"><g><path d="M 26 76 L 26 8" fill="none" stroke="none" pointer-events="stroke"/><path d="M 26 76 C 27.53 51.3 29.09 31.5 26 8 M 26 76 C 25.53 63.04 25.45 49.41 26 8" fill="none" stroke="#cccccc" stroke-width="4" stroke-linejoin="round" stroke-linecap="round" stroke-miterlimit="10" pointer-events="stroke" style="stroke: rgb(204, 204, 204);"/></g></g><g data-cell-id="wA9FqI98lm-z4scQnuff-58"><g><path d="M 72 76 L 72 8" fill="none" stroke="none" pointer-events="stroke"/><path d="M 72 76 C 71.01 57.23 70.22 29.83 72 8 M 72 76 C 73.74 58.57 72.81 38.48 72 8" fill="none" stroke="#ffffff" stroke-width="4" stroke-linejoin="round" stroke-linecap="round" stroke-miterlimit="10" pointer-events="stroke" style="stroke: rgb(255, 255, 255);"/></g></g><g data-cell-id="wA9FqI98lm-z4scQnuff-6"><g><path d="M 20 41.67 L 80 41.67" fill="none" stroke="none" pointer-events="stroke"/><path d="M 20 41.67 C 43.11 39.45 67.29 43.08 80 41.67 M 20 41.67 C 40.44 42.99 63.17 42.91 80 41.67" fill="none" stroke="#23445d" stroke-width="4" stroke-linejoin="round" stroke-linecap="round" stroke-miterlimit="10" pointer-events="stroke" style="stroke: rgb(35, 68, 93);"/></g></g></g><g data-cell-id="wA9FqI98lm-z4scQnuff-51"><g><path d="M 22 108.5 Q 0 108.52 0 90.76 Q 0 73 21.5 73 Q 43 73 44.63 73" fill="none" stroke="#000000" stroke-linejoin="round" stroke-linecap="round" stroke-miterlimit="10" pointer-events="stroke" style="stroke: light-dark(rgb(0, 0, 0), rgb(255, 255, 255));"/><path d="M 49.88 73 L 49.82 72.88 L 48.39 73.52 L 46.99 74.22 L 45.62 74.98 L 44.39 76.02 L 42.88 76.5 L 43.06 76.59 L 42.98 75.68 L 43.58 75.1 L 43.75 74.31 L 44.02 73.57 L 44.63 73 L 44.43 72.9 L 44.49 72.4 L 44.12 71.7 L 43.61 70.91 L 43.25 70.21 L 42.88 69.5 L 43.03 69.8 L 44.31 70.25 L 45.6 70.73 L 47.02 71.47 L 48.47 72.29 L 49.88 73 Z Z" fill="#000000" stroke="#000000" stroke-linejoin="round" stroke-linecap="round" stroke-miterlimit="10" pointer-events="all" style="fill: light-dark(rgb(0, 0, 0), rgb(255, 255, 255)); stroke: light-dark(rgb(0, 0, 0), rgb(255, 255, 255));"/></g></g><g data-cell-id="wA9FqI98lm-z4scQnuff-16"><g><rect x="10" y="82" width="280" height="20" rx="10" ry="10" fill="none" stroke="none" pointer-events="all"/><path d="M 20 82 C 104.18 85.23 188.51 85.64 280 82 M 20 82 C 72.62 79.04 127.33 78.76 280 82 M 280 82 C 288.58 82.68 286.96 87.41 290 92 M 280 82 C 286.81 79.62 285.98 84.22 290 92 M 290 92 C 290 92 290 92 290 92 M 290 92 C 290 92 290 92 290 92 M 290 92 C 291.09 97.38 283.66 99.35 280 102 M 290 92 C 293.4 102.93 286.64 99.14 280 102 M 280 102 C 207.41 103.1 129.25 105 20 102 M 280 102 C 221.71 102.99 162 103.2 20 102 M 20 102 C 14.49 104.2 8.42 102.39 10 92 M 20 102 C 13.51 102.81 10.43 97.16 10 92 M 10 92 C 10 92 10 92 10 92 M 10 92 C 10 92 10 92 10 92 M 10 92 C 12.89 82.98 14.34 85.02 20 82 M 10 92 C 8.68 89.6 14.01 86.49 20 82" fill="none" stroke="#10739e" stroke-linejoin="round" stroke-linecap="round" stroke-miterlimit="10" pointer-events="all" style="stroke: rgb(16, 115, 158);"/></g></g></g></g></g></svg>