<?xml version="1.0" encoding="UTF-8"?>
<!DOCTYPE svg PUBLIC "-//W3C//DTD SVG 1.1//EN" "http://www.w3.org/Graphics/SVG/1.1/DTD/svg11.dtd">
<svg xmlns="http://www.w3.org/2000/svg" style="background: transparent; background-color: transparent; color-scheme: light dark;" xmlns:xlink="http://www.w3.org/1999/xlink" version="1.1" width="375px" height="247px" viewBox="-0.5 -0.5 375 247"><defs/><g><g data-cell-id="0"><g data-cell-id="1"><g data-cell-id="wA9FqI98lm-z4scQnuff-53"/><g data-cell-id="wA9FqI98lm-z4scQnuff-7"/><g data-cell-id="wA9FqI98lm-z4scQnuff-9"/><g data-cell-id="wA9FqI98lm-z4scQnuff-11"/><g data-cell-id="wA9FqI98lm-z4scQnuff-12"/><g data-cell-id="wA9FqI98lm-z4scQnuff-13"/><g data-cell-id="wA9FqI98lm-z4scQnuff-17"/><g data-cell-id="wA9FqI98lm-z4scQnuff-18"/><g data-cell-id="wA9FqI98lm-z4scQnuff-19"/><g data-cell-id="wA9FqI98lm-z4scQnuff-32"/><g data-cell-id="wA9FqI98lm-z4scQnuff-42"/><g data-cell-id="wA9FqI98lm-z4scQnuff-43"/><g data-cell-id="wA9FqI98lm-z4scQnuff-44"/><g data-cell-id="wA9FqI98lm-z4scQnuff-45"/><g data-cell-id="wA9FqI98lm-z4scQnuff-46"/><g data-cell-id="wA9FqI98lm-z4scQnuff-47"/><g data-cell-id="wA9FqI98lm-z4scQnuff-48"/><g data-cell-id="wA9FqI98lm-z4scQnuff-49"/><g data-cell-id="wA9FqI98lm-z4scQnuff-50"/><g data-cell-id="wA9FqI98lm-z4scQnuff-54"/><g data-cell-id="wA9FqI98lm-z4scQnuff-55"/><g data-cell-id="wA9FqI98lm-z4scQnuff-40"/><g data-cell-id="wA9FqI98lm-z4scQnuff-67"/><g data-cell-id="wA9FqI98lm-z4scQnuff-71"/><g data-cell-id="wA9FqI98lm-z4scQnuff-72"/><g data-cell-id="wA9FqI98lm-z4scQnuff-73"/><g data-cell-id="wA9FqI98lm-z4scQnuff-74"/><g data-cell-id="wA9FqI98lm-z4scQnuff-96"><g><rect x="264" y="205" width="110" height="40" fill="none" stroke="none" pointer-events="all"/><path d="M 263.8 205.23 C 263.8 205.23 263.8 205.23 263.8 205.23 M 263.8 205.23 C 263.8 205.23 263.8 205.23 263.8 205.23 M 264.2 210.87 C 266.18 208.92 265.59 206.78 269.45 204.83 M 264.2 210.87 C 266.68 208.6 268.18 207.28 269.45 204.83 M 263.94 217.27 C 268.35 214.16 272.48 208.87 274.43 205.19 M 263.94 217.27 C 268.54 211.82 271.72 210.44 274.43 205.19 M 263.67 223.67 C 268.79 219.7 280.19 205.14 280.08 204.8 M 263.67 223.67 C 267.73 219.04 274.83 212.92 280.08 204.8 M 264.07 229.31 C 270.01 220.88 278.88 210.38 285.06 205.16 M 264.07 229.31 C 273.95 218.87 277.94 209.97 285.06 205.16 M 263.81 235.71 C 267.56 227.87 273.76 220.49 290.71 204.76 M 263.81 235.71 C 270.88 229.16 275.28 220.12 290.71 204.76 M 264.2 241.35 C 276.26 226.95 283.03 214.6 295.69 205.12 M 264.2 241.35 C 272.82 234.78 279.22 225.98 295.69 205.12 M 265.25 246.24 C 282.05 232.68 293.36 215.15 301.34 204.73 M 265.25 246.24 C 273.12 234.98 282.56 227.15 301.34 204.73 M 270.9 245.84 C 284.84 227.89 294.76 216.84 306.32 205.09 M 270.9 245.84 C 281.94 231.97 297.17 214.38 306.32 205.09 M 275.88 246.2 C 289.58 232.55 298.53 220.79 311.97 204.69 M 275.88 246.2 C 286.63 236.11 296.53 223.55 311.97 204.69 M 281.53 245.81 C 296.55 233.65 304.35 218.93 316.95 205.05 M 281.53 245.81 C 293.66 230.15 308.77 214.03 316.95 205.05 M 286.51 246.17 C 298.26 232.99 311.1 215.07 322.6 204.66 M 286.51 246.17 C 299.04 232.56 312.29 215.35 322.6 204.66 M 291.5 246.53 C 302.95 232.69 313.1 227.33 327.58 205.02 M 291.5 246.53 C 301.67 236.3 310.57 222.56 327.58 205.02 M 297.14 246.13 C 309.45 229.1 322.38 216.82 333.23 204.63 M 297.14 246.13 C 311.9 232.23 325.76 214.78 333.23 204.63 M 302.13 246.49 C 312.06 234.81 322.72 222.32 338.21 204.99 M 302.13 246.49 C 311.96 234.17 319.66 225.35 338.21 204.99 M 307.77 246.1 C 319.8 234.51 337.36 211.81 343.2 205.35 M 307.77 246.1 C 314.96 238.3 324.82 228.91 343.2 205.35 M 312.76 246.46 C 323.23 236.45 340.77 220.7 348.84 204.95 M 312.76 246.46 C 324.59 228.34 338.79 213.47 348.84 204.95 M 318.4 246.07 C 324.62 234.85 336.27 221.4 353.83 205.31 M 318.4 246.07 C 328.39 232.18 338.86 221.46 353.83 205.31 M 323.39 246.43 C 335.05 235.4 336.29 231.64 359.47 204.92 M 323.39 246.43 C 335.91 231.03 350.89 216.14 359.47 204.92 M 329.03 246.03 C 338.1 236.52 351.94 220.87 364.46 205.28 M 329.03 246.03 C 341.9 230.78 353.55 216.63 364.46 205.28 M 334.02 246.39 C 343.67 229.9 358.68 218.14 370.1 204.88 M 334.02 246.39 C 344.57 231.58 357.65 216.48 370.1 204.88 M 339.66 246 C 353.9 233.49 365.4 213.7 374.43 206 M 339.66 246 C 351.12 234.1 363.88 217 374.43 206 M 344.65 246.36 C 353.86 236.58 364.58 219.78 374.83 211.64 M 344.65 246.36 C 353.14 235.92 362.23 226.15 374.83 211.64 M 350.29 245.96 C 356.22 234.68 366.23 225.56 374.57 218.04 M 350.29 245.96 C 360.01 237.25 369.71 223.53 374.57 218.04 M 355.28 246.32 C 363.24 241.66 361.02 233.82 374.96 223.68 M 355.28 246.32 C 360.04 241.54 364.95 234.07 374.96 223.68 M 360.92 245.93 C 363.06 239.65 371.58 235.37 374.7 230.08 M 360.92 245.93 C 365.5 241.45 371.93 235.01 374.7 230.08 M 365.91 246.29 C 369.25 245.18 367.92 242.71 374.44 236.48 M 365.91 246.29 C 368.76 242.94 371.55 238.39 374.44 236.48 M 371.55 245.89 C 372.15 244.12 372.27 243.66 374.83 242.12 M 371.55 245.89 C 372.78 245.06 373.64 244.47 374.83 242.12" fill="none" stroke="#fad9d5" stroke-width="0.5" stroke-linejoin="round" stroke-linecap="round" stroke-miterlimit="10" pointer-events="all" style="stroke: rgb(250, 217, 213);"/><path d="M 264 205 C 300.69 204.5 336.57 207.85 374 205 M 264 205 C 293.17 205.94 321.13 205.82 374 205 M 374 205 C 375.1 213.26 373.83 222.64 374 245 M 374 205 C 374.04 218.14 373.62 234.23 374 245 M 374 245 C 329.99 243.25 295.58 245.92 264 245 M 374 245 C 339.82 243.87 309.75 243.21 264 245 M 264 245 C 262.84 228.89 261.28 210.53 264 205 M 264 245 C 263.24 233.67 264.11 221.93 264 205" fill="none" stroke="#ae4132" stroke-linejoin="round" stroke-linecap="round" stroke-miterlimit="10" pointer-events="all" style="stroke: rgb(174, 65, 50);"/></g></g><g data-cell-id="wA9FqI98lm-z4scQnuff-97"><g><rect x="84" y="155" width="110" height="40" fill="none" stroke="none" pointer-events="all"/><path d="M 84.04 154.96 C 84.04 154.96 84.04 154.96 84.04 154.96 M 84.04 154.96 C 84.04 154.96 84.04 154.96 84.04 154.96 M 83.77 161.36 C 84.08 161.62 85.39 160.26 89.02 155.32 M 83.77 161.36 C 86.25 159.58 87.83 157.3 89.02 155.32 M 84.17 167 C 88.98 166.05 91.04 158.07 94.67 154.92 M 84.17 167 C 87.45 163.12 88.69 162.37 94.67 154.92 M 83.91 173.4 C 89.62 167.34 90.04 164.91 99.65 155.29 M 83.91 173.4 C 89.26 167.15 94.98 162.95 99.65 155.29 M 84.3 179.04 C 91.22 172.68 95.83 167.97 105.3 154.89 M 84.3 179.04 C 90.42 169.91 97.21 163.66 105.3 154.89 M 84.04 185.44 C 96.06 176.17 104.65 160.77 110.28 155.25 M 84.04 185.44 C 92.55 176.32 100.86 167.2 110.28 155.25 M 83.78 191.84 C 89.49 182.77 98.55 168.85 115.93 154.86 M 83.78 191.84 C 93.96 180.1 102.36 167.68 115.93 154.86 M 86.14 195.22 C 95.18 184.42 104.44 175.26 120.91 155.22 M 86.14 195.22 C 96.67 179.97 110.98 166.22 120.91 155.22 M 91.13 195.58 C 97.93 187.43 103.59 173.75 126.56 154.82 M 91.13 195.58 C 100.96 186 107.85 176.12 126.56 154.82 M 96.77 195.18 C 100.85 185.23 108.21 176.3 131.54 155.18 M 96.77 195.18 C 108.29 185.38 116.79 173.63 131.54 155.18 M 101.76 195.54 C 115.74 180.7 126.07 164.33 137.19 154.79 M 101.76 195.54 C 109.02 185.46 116.14 178.46 137.19 154.79 M 107.4 195.15 C 120.43 186.76 125.57 174.47 142.17 155.15 M 107.4 195.15 C 115.71 183.65 128.33 170.4 142.17 155.15 M 112.39 195.51 C 119.05 184.67 128.65 175.56 147.82 154.75 M 112.39 195.51 C 123.38 182.89 129.58 171.4 147.82 154.75 M 117.38 195.87 C 128.4 179.15 141.81 162.37 152.8 155.11 M 117.38 195.87 C 129.71 185.32 138.59 171.11 152.8 155.11 M 123.02 195.47 C 133.61 178.95 142.26 168.62 158.45 154.72 M 123.02 195.47 C 131.97 187.35 141.18 177.22 158.45 154.72 M 128.01 195.83 C 135.82 186.45 142.69 171.78 163.43 155.08 M 128.01 195.83 C 137.81 186.53 148.26 172.3 163.43 155.08 M 133.65 195.44 C 148.93 181.27 163.53 159.59 169.08 154.68 M 133.65 195.44 C 141.38 183.93 149.8 177.66 169.08 154.68 M 138.64 195.8 C 145.59 182.8 155.31 179.84 174.06 155.04 M 138.64 195.8 C 146.74 185.2 154.36 179.24 174.06 155.04 M 144.28 195.4 C 159.72 181.25 170.45 168.88 179.71 154.65 M 144.28 195.4 C 153.16 186.38 162.25 174.84 179.71 154.65 M 149.27 195.76 C 162.08 185.25 165.58 171.49 184.69 155.01 M 149.27 195.76 C 155.06 188.68 161.23 178.34 184.69 155.01 M 154.91 195.37 C 162.44 187.4 172.88 172.12 189.68 155.37 M 154.91 195.37 C 162.6 186.53 175.06 172.74 189.68 155.37 M 159.9 195.73 C 169.46 184 174.73 181.39 194.67 155.73 M 159.9 195.73 C 172.09 182.13 184.27 169.74 194.67 155.73 M 165.54 195.33 C 171.2 185.2 180.59 179.35 195.06 161.37 M 165.54 195.33 C 172.96 186.33 177.15 181.85 195.06 161.37 M 170.53 195.69 C 172.37 189.09 181.37 182.3 194.8 167.77 M 170.53 195.69 C 175.96 186.04 183.79 179.57 194.8 167.77 M 176.17 195.3 C 182.54 189.35 187.08 182.11 194.54 174.17 M 176.17 195.3 C 181.77 189.24 183.14 185.32 194.54 174.17 M 181.16 195.66 C 183.8 192.25 189.2 187.91 194.93 179.81 M 181.16 195.66 C 185.02 191.3 188.69 187.95 194.93 179.81 M 186.8 195.27 C 188.44 190.31 191.42 190.32 194.67 186.21 M 186.8 195.27 C 189.99 192.81 192.15 188.98 194.67 186.21 M 191.79 195.63 C 192.14 194.91 194.27 193.92 195.07 191.85 M 191.79 195.63 C 193.06 193.98 194.28 193.16 195.07 191.85" fill="none" stroke="#fad9d5" stroke-width="0.5" stroke-linejoin="round" stroke-linecap="round" stroke-miterlimit="10" pointer-events="all" style="stroke: rgb(250, 217, 213);"/><path d="M 84 155 C 118.41 149.78 151.93 153.53 194 155 M 84 155 C 119.49 155.04 158.51 153.35 194 155 M 194 155 C 193.77 169.01 190.22 177.13 194 195 M 194 155 C 192.64 166.69 194.01 181.35 194 195 M 194 195 C 161 191.5 118.78 189.18 84 195 M 194 195 C 157.81 194.59 121.28 195.71 84 195 M 84 195 C 80.4 181.22 87.91 168.85 84 155 M 84 195 C 85.39 185.45 86.58 175.33 84 155" fill="none" stroke="#ae4132" stroke-linejoin="round" stroke-linecap="round" stroke-miterlimit="10" pointer-events="all" style="stroke: rgb(174, 65, 50);"/></g></g><g data-cell-id="wA9FqI98lm-z4scQnuff-98"><g><rect x="200.63" y="155" width="110" height="40" fill="none" stroke="none" pointer-events="all"/><path d="M 200.33 155.35 C 200.33 155.35 200.33 155.35 200.33 155.35 M 200.33 155.35 C 200.33 155.35 200.33 155.35 200.33 155.35 M 200.72 160.99 C 203.59 159.06 204.65 157.26 205.97 154.95 M 200.72 160.99 C 202.96 159.71 203.01 158.07 205.97 154.95 M 200.46 167.39 C 206.15 162.2 206.15 157.92 210.96 155.31 M 200.46 167.39 C 204.52 162.23 209.1 159.71 210.96 155.31 M 200.85 173.03 C 207.43 172.58 205.13 166 216.6 154.92 M 200.85 173.03 C 207.7 164.94 212.21 158.44 216.6 154.92 M 200.59 179.43 C 205.66 171.14 218.21 159.4 221.59 155.28 M 200.59 179.43 C 206.94 171.61 212.54 164.01 221.59 155.28 M 200.33 185.83 C 207.75 171.64 221.87 161.82 227.23 154.89 M 200.33 185.83 C 209.44 173.69 218.03 164.06 227.23 154.89 M 200.73 191.47 C 209.2 186.87 212.2 171.78 232.22 155.25 M 200.73 191.47 C 209.75 182.3 213.44 173.98 232.22 155.25 M 202.43 195.61 C 212.98 186.78 227.84 169.21 237.86 154.85 M 202.43 195.61 C 213.15 183.79 221.86 171.59 237.86 154.85 M 208.08 195.21 C 214.64 187.53 230.92 171.29 242.85 155.21 M 208.08 195.21 C 217.96 182.02 227.38 171.92 242.85 155.21 M 213.06 195.57 C 224.69 180.67 237.99 165.87 248.49 154.82 M 213.06 195.57 C 220.27 185.48 231.87 173.96 248.49 154.82 M 218.71 195.18 C 230.76 187.42 236.38 177.75 253.48 155.18 M 218.71 195.18 C 228.01 184.12 238.05 174.28 253.48 155.18 M 223.69 195.54 C 228.97 184.65 234.99 177.33 259.12 154.78 M 223.69 195.54 C 230.03 185.45 238.64 179.43 259.12 154.78 M 229.34 195.14 C 240.81 185.9 249.85 173.06 264.11 155.14 M 229.34 195.14 C 238.76 184.15 250.25 170.92 264.11 155.14 M 234.32 195.5 C 244.32 178.82 258.45 165.27 269.75 154.75 M 234.32 195.5 C 244.48 184.03 252.63 176.78 269.75 154.75 M 239.31 195.86 C 252.38 182.28 267.19 165.91 274.74 155.11 M 239.31 195.86 C 249.9 186.33 256.79 174.72 274.74 155.11 M 244.95 195.47 C 255.65 181.55 266.9 166.77 280.38 154.71 M 244.95 195.47 C 259.01 180.65 270.05 165.59 280.38 154.71 M 249.94 195.83 C 261.55 185.39 266.34 173.68 285.37 155.07 M 249.94 195.83 C 259.27 181.07 273.22 170.96 285.37 155.07 M 255.58 195.43 C 270.36 180.5 285.23 163.88 291.01 154.68 M 255.58 195.43 C 268.89 181.4 276.76 168.04 291.01 154.68 M 260.57 195.79 C 274.48 186.5 279.76 173.51 296 155.04 M 260.57 195.79 C 271.5 182.14 282.03 169.52 296 155.04 M 266.21 195.4 C 280.23 175.73 296.49 163.72 301.64 154.64 M 266.21 195.4 C 277.65 184.34 285.42 173.65 301.64 154.64 M 271.2 195.76 C 284.2 180.94 297.7 169.38 306.63 155 M 271.2 195.76 C 283.68 180.06 299.19 162.76 306.63 155 M 276.84 195.36 C 287.09 183.04 293.08 181.58 311.61 155.36 M 276.84 195.36 C 287.38 178.67 302.97 167 311.61 155.36 M 281.83 195.72 C 290.09 184.97 304.29 167.01 311.35 161.76 M 281.83 195.72 C 290.29 185.15 303.68 174.95 311.35 161.76 M 287.47 195.33 C 296.77 188.08 301.39 178.28 311.09 168.16 M 287.47 195.33 C 292.5 187.92 298.31 184.86 311.09 168.16 M 292.46 195.69 C 297.79 187.11 309.63 179.83 311.49 173.8 M 292.46 195.69 C 295.37 191.86 301.63 186.99 311.49 173.8 M 298.1 195.29 C 301.02 186.49 311.05 182.36 311.22 180.2 M 298.1 195.29 C 300.46 192.1 303.95 188.87 311.22 180.2 M 303.09 195.65 C 308.5 191.57 311.09 188.87 311.62 185.84 M 303.09 195.65 C 304.54 193.69 306.43 189.94 311.62 185.84 M 308.73 195.26 C 310.43 193.93 310.53 192.72 311.36 192.24 M 308.73 195.26 C 309.27 194.7 310.01 194.47 311.36 192.24" fill="none" stroke="#fad9d5" stroke-width="0.5" stroke-linejoin="round" stroke-linecap="round" stroke-miterlimit="10" pointer-events="all" style="stroke: rgb(250, 217, 213);"/><path d="M 200.63 155 C 232.75 157.46 271.93 153.62 310.63 155 M 200.63 155 C 224.43 154.54 244.52 155.29 310.63 155 M 310.63 155 C 310.66 166.76 312.84 181.62 310.63 195 M 310.63 155 C 311.86 165.24 311.03 178.47 310.63 195 M 310.63 195 C 280.65 194.16 246.61 194.83 200.63 195 M 310.63 195 C 268.42 195.31 225.45 194.2 200.63 195 M 200.63 195 C 202.6 183.55 203.16 177.17 200.63 155 M 200.63 195 C 198.56 179.22 200.09 162.73 200.63 155" fill="none" stroke="#ae4132" stroke-linejoin="round" stroke-linecap="round" stroke-miterlimit="10" pointer-events="all" style="stroke: rgb(174, 65, 50);"/></g></g><g data-cell-id="wA9FqI98lm-z4scQnuff-99"><g><rect x="144" y="205" width="110" height="40" fill="none" stroke="none" pointer-events="all"/><path d="M 144.28 204.68 C 144.28 204.68 144.28 204.68 144.28 204.68 M 144.28 204.68 C 144.28 204.68 144.28 204.68 144.28 204.68 M 144.02 211.08 C 145.21 208.37 148.17 207.34 149.27 205.04 M 144.02 211.08 C 146.01 210.07 146.14 207.47 149.27 205.04 M 143.76 217.47 C 143.94 214.25 148.55 206.83 154.91 204.64 M 143.76 217.47 C 146.67 213.65 149.47 211.65 154.91 204.64 M 144.15 223.12 C 146.75 216.65 152.87 210.28 159.9 205 M 144.15 223.12 C 148.48 217.18 155.78 208.38 159.9 205 M 143.89 229.52 C 149.94 224.12 158.23 218.18 164.88 205.36 M 143.89 229.52 C 151.43 223.84 155.85 214.9 164.88 205.36 M 144.28 235.16 C 154.59 225.7 165.74 214.04 170.53 204.97 M 144.28 235.16 C 153.55 225.58 165.98 211.93 170.53 204.97 M 144.02 241.56 C 153.72 227.24 165.13 211.54 175.51 205.33 M 144.02 241.56 C 154.41 230.2 163.89 218.5 175.51 205.33 M 145.73 245.69 C 156 231.02 176.29 213.2 181.16 204.94 M 145.73 245.69 C 152.41 235 163.27 228.61 181.16 204.94 M 151.37 245.3 C 165.84 229.92 176.9 218.94 186.14 205.3 M 151.37 245.3 C 161.47 229.69 177.59 215.21 186.14 205.3 M 156.36 245.66 C 166.69 234.11 178.71 221.77 191.79 204.9 M 156.36 245.66 C 164.7 235.47 175.24 224.37 191.79 204.9 M 162 245.26 C 172.95 228.28 181.07 217.02 196.77 205.26 M 162 245.26 C 173.49 231.67 182.6 222.83 196.77 205.26 M 166.99 245.62 C 179.41 230.89 193.22 220.59 202.42 204.87 M 166.99 245.62 C 176.62 231.59 192.12 216.87 202.42 204.87 M 172.63 245.23 C 179.49 230.77 196.14 221.99 207.4 205.23 M 172.63 245.23 C 183.07 231.64 192.03 220.46 207.4 205.23 M 177.62 245.59 C 194.59 228.95 201.44 210.61 213.05 204.83 M 177.62 245.59 C 192.69 229.05 203.19 216.6 213.05 204.83 M 183.26 245.19 C 196.95 234.8 209.69 220.67 218.03 205.19 M 183.26 245.19 C 192.94 234.46 201.33 225.56 218.03 205.19 M 188.25 245.55 C 196.37 233.84 204.93 227.09 223.68 204.8 M 188.25 245.55 C 195.47 237.37 204.01 225.64 223.68 204.8 M 193.89 245.16 C 202.35 230.52 212.22 220.86 228.66 205.16 M 193.89 245.16 C 204.58 227.44 219.82 213.79 228.66 205.16 M 198.88 245.52 C 214.39 227.39 219.34 213.25 234.31 204.76 M 198.88 245.52 C 206.3 234.78 215.33 226.17 234.31 204.76 M 204.52 245.12 C 215.14 239.43 214.84 225.98 239.29 205.12 M 204.52 245.12 C 211.9 239.13 220.65 229.75 239.29 205.12 M 209.51 245.48 C 217.65 232.81 231.57 214.7 244.94 204.73 M 209.51 245.48 C 220.96 230.44 230.33 219.41 244.94 204.73 M 214.5 245.84 C 225.73 239.1 227.04 223.59 249.92 205.09 M 214.5 245.84 C 224.51 234.21 235.81 221.77 249.92 205.09 M 220.14 245.45 C 224.67 232.52 239.38 224.22 254.91 205.45 M 220.14 245.45 C 233.02 231.06 244.02 216.1 254.91 205.45 M 225.13 245.81 C 230.08 234.41 243.18 227.13 254.65 211.85 M 225.13 245.81 C 231.36 237.64 240.06 228.5 254.65 211.85 M 230.77 245.41 C 236.19 234.59 240 234.88 255.04 217.49 M 230.77 245.41 C 236.5 235.31 245.43 225.76 255.04 217.49 M 235.76 245.77 C 244.03 239.91 243.18 237.21 254.78 223.89 M 235.76 245.77 C 243.62 235.19 250.45 229.16 254.78 223.89 M 241.4 245.38 C 245.42 238.92 252.32 234.75 254.52 230.28 M 241.4 245.38 C 246.4 239.17 249.86 235.89 254.52 230.28 M 246.39 245.74 C 248.53 244.57 248.78 241.11 254.92 235.93 M 246.39 245.74 C 250.14 242.51 253.29 239.79 254.92 235.93 M 252.03 245.34 C 253.01 243.75 254.19 244.33 254.65 242.33 M 252.03 245.34 C 252.72 244.83 253.75 243.63 254.65 242.33" fill="none" stroke="#fad9d5" stroke-width="0.5" stroke-linejoin="round" stroke-linecap="round" stroke-miterlimit="10" pointer-events="all" style="stroke: rgb(250, 217, 213);"/><path d="M 144 205 C 181.84 207.14 218.66 203.7 254 205 M 144 205 C 174.11 203.64 205.27 206.83 254 205 M 254 205 C 252.7 222.51 252.6 236.11 254 245 M 254 205 C 253.83 217.78 254.8 225.59 254 245 M 254 245 C 227.03 246.82 201.18 242.48 144 245 M 254 245 C 231.78 246.03 204.35 246.7 144 245 M 144 245 C 141.93 235.88 143.56 227.49 144 205 M 144 245 C 144.07 231 145.93 216.12 144 205" fill="none" stroke="#ae4132" stroke-linejoin="round" stroke-linecap="round" stroke-miterlimit="10" pointer-events="all" style="stroke: rgb(174, 65, 50);"/></g></g><g data-cell-id="wA9FqI98lm-z4scQnuff-100"><g><rect x="24" y="205" width="110" height="40" fill="none" stroke="none" pointer-events="all"/><path d="M 24.1 204.88 C 24.1 204.88 24.1 204.88 24.1 204.88 M 24.1 204.88 C 24.1 204.88 24.1 204.88 24.1 204.88 M 23.84 211.28 C 27.46 208.35 27.98 207.92 29.09 205.24 M 23.84 211.28 C 25.01 210.58 25.9 208.75 29.09 205.24 M 24.23 216.93 C 25.39 210.8 30.22 204.37 34.73 204.85 M 24.23 216.93 C 25.87 213.45 29.85 209.68 34.73 204.85 M 23.97 223.32 C 31.83 218.66 32.74 209.85 39.72 205.21 M 23.97 223.32 C 27.3 218.2 33.98 210.72 39.72 205.21 M 23.71 229.72 C 28.54 223.34 33.05 220.86 45.36 204.82 M 23.71 229.72 C 31.36 221.01 37.85 213.12 45.36 204.82 M 24.11 235.36 C 32.28 226.79 44.25 214.98 50.35 205.18 M 24.11 235.36 C 35 225.77 43.46 210.55 50.35 205.18 M 23.84 241.76 C 30.55 227.93 44.39 217.47 55.99 204.78 M 23.84 241.76 C 30.82 231.64 39.29 224.85 55.99 204.78 M 26.21 245.14 C 35.28 234.51 45.14 220.82 60.98 205.14 M 26.21 245.14 C 39.34 229.09 52.41 215.04 60.98 205.14 M 31.19 245.5 C 45.84 228.91 54.14 218.15 66.62 204.75 M 31.19 245.5 C 38.85 236.91 46.68 228.93 66.62 204.75 M 36.18 245.86 C 42.7 240.13 51.87 228.88 71.61 205.11 M 36.18 245.86 C 48.29 233.05 59.44 221.95 71.61 205.11 M 41.82 245.47 C 49.97 234.44 68.81 218.62 77.25 204.71 M 41.82 245.47 C 53.08 231.93 64.71 219.34 77.25 204.71 M 46.81 245.83 C 56.68 238.77 61.75 225.75 82.24 205.07 M 46.81 245.83 C 55.51 234.27 64.41 223.35 82.24 205.07 M 52.45 245.43 C 57.28 238.82 69.93 224.72 87.88 204.68 M 52.45 245.43 C 60.47 235.36 68.71 222.86 87.88 204.68 M 57.44 245.79 C 64.14 233.52 70.51 231.72 92.87 205.04 M 57.44 245.79 C 69.77 233.26 78.97 223.47 92.87 205.04 M 63.08 245.4 C 75.98 231.86 89.23 219.35 98.51 204.64 M 63.08 245.4 C 71.86 236.43 82.83 224.69 98.51 204.64 M 68.07 245.76 C 80.56 237.36 84.17 223.99 103.5 205 M 68.07 245.76 C 81.55 228.22 94.96 213.78 103.5 205 M 73.71 245.36 C 83.54 234.46 90.87 225.96 108.48 205.36 M 73.71 245.36 C 86.01 230.62 100.74 216.04 108.48 205.36 M 78.7 245.72 C 90.47 238.58 95.13 225.75 114.13 204.97 M 78.7 245.72 C 89.25 235.01 100.22 221.04 114.13 204.97 M 84.34 245.33 C 92.9 231.83 105.41 219.85 119.12 205.33 M 84.34 245.33 C 93.25 234.7 98.82 228.09 119.12 205.33 M 89.33 245.69 C 95.92 235.77 102.29 225.12 124.76 204.93 M 89.33 245.69 C 100.2 234.02 107.52 225.34 124.76 204.93 M 94.97 245.29 C 111.87 226.72 121.31 211.42 129.75 205.29 M 94.97 245.29 C 102.59 233.23 112.4 223.7 129.75 205.29 M 99.96 245.65 C 108.02 235.91 114.84 225.47 134.73 205.65 M 99.96 245.65 C 109.45 233 121.21 219.94 134.73 205.65 M 105.6 245.26 C 110.49 238.16 122.24 225.4 134.47 212.05 M 105.6 245.26 C 117.02 233.57 128.44 222.1 134.47 212.05 M 110.59 245.62 C 115.9 234.39 122.37 232.12 134.87 217.7 M 110.59 245.62 C 116.5 238.5 120.04 232.35 134.87 217.7 M 116.23 245.23 C 122.94 238.36 129.16 231.63 134.6 224.09 M 116.23 245.23 C 123.08 238.77 126.73 232.65 134.6 224.09 M 121.22 245.59 C 128.21 239.45 133.23 232.47 135 229.74 M 121.22 245.59 C 126.41 241.1 127.43 235.94 135 229.74 M 126.86 245.19 C 126.75 245.45 132.22 239.45 134.74 236.13 M 126.86 245.19 C 128.46 242.27 129.46 240.21 134.74 236.13 M 131.85 245.55 C 131.96 244.81 133.95 243.6 134.48 242.53 M 131.85 245.55 C 133 244.44 133.34 243.51 134.48 242.53" fill="none" stroke="#fad9d5" stroke-width="0.5" stroke-linejoin="round" stroke-linecap="round" stroke-miterlimit="10" pointer-events="all" style="stroke: rgb(250, 217, 213);"/><path d="M 24 205 C 53.73 199.84 82.81 200.7 134 205 M 24 205 C 67.4 206.73 110.81 203.76 134 205 M 134 205 C 133.87 214.52 135.63 235.64 134 245 M 134 205 C 133.22 219.92 133.62 234.74 134 245 M 134 245 C 94.82 249.11 48.24 246.58 24 245 M 134 245 C 103.4 246.15 76.01 247.74 24 245 M 24 245 C 23.76 234.68 23.48 223.06 24 205 M 24 245 C 23.8 233.93 24.31 220.59 24 205" fill="none" stroke="#ae4132" stroke-linejoin="round" stroke-linecap="round" stroke-miterlimit="10" pointer-events="all" style="stroke: rgb(174, 65, 50);"/></g></g><g data-cell-id="remplace"><g data-cell-id="wA9FqI98lm-z4scQnuff-83"/><g data-cell-id="wA9FqI98lm-z4scQnuff-90"><g data-cell-id="wA9FqI98lm-z4scQnuff-84"/><g data-cell-id="wA9FqI98lm-z4scQnuff-85"/><g data-cell-id="wA9FqI98lm-z4scQnuff-86"/><g data-cell-id="wA9FqI98lm-z4scQnuff-87"/><g data-cell-id="wA9FqI98lm-z4scQnuff-88"/><g data-cell-id="wA9FqI98lm-z4scQnuff-89"/></g><g data-cell-id="wA9FqI98lm-z4scQnuff-94"/></g><g data-cell-id="delta"><g/><g data-cell-id="wA9FqI98lm-z4scQnuff-80"><g><rect x="4" y="15" width="110" height="40" fill="none" stroke="none" transform="rotate(-17,59,35)" pointer-events="all"/><path d="M 3.92 15.09 C 3.92 15.09 3.92 15.09 3.92 15.09 M 3.92 15.09 C 3.92 15.09 3.92 15.09 3.92 15.09 M 4.32 20.73 C 5.44 18.88 7.32 19.11 9.56 14.7 M 4.32 20.73 C 5.39 18.19 7.91 16.15 9.56 14.7 M 4.05 27.13 C 4.18 22.59 12 22.66 14.55 15.06 M 4.05 27.13 C 6.89 22.78 10.34 17.12 14.55 15.06 M 3.79 33.53 C 13.45 24.84 17.6 22.9 20.19 14.66 M 3.79 33.53 C 8.42 28.09 14.11 21.79 20.19 14.66 M 4.19 39.17 C 13.27 28.84 16.64 25.18 25.18 15.02 M 4.19 39.17 C 8.45 36.07 15.08 30.8 25.18 15.02 M 3.93 45.57 C 9.3 38 17.7 33.61 30.82 14.63 M 3.93 45.57 C 14.4 35.48 19.82 25.72 30.82 14.63 M 4.32 51.21 C 12.66 40.09 20.53 31.59 35.81 14.99 M 4.32 51.21 C 15.04 36.4 27.43 24.41 35.81 14.99 M 5.37 56.1 C 11.82 46.79 25.78 36.47 40.8 15.35 M 5.37 56.1 C 18.84 39.79 29.38 26.72 40.8 15.35 M 10.36 56.46 C 26.05 40.94 33.83 26.95 46.44 14.95 M 10.36 56.46 C 19.5 43.82 30.69 32.49 46.44 14.95 M 16 56.07 C 26.88 45.65 28.19 40.82 51.43 15.31 M 16 56.07 C 27.97 41.48 43.99 25.48 51.43 15.31 M 20.99 56.43 C 25.96 45.51 32.87 41.68 57.07 14.92 M 20.99 56.43 C 29.89 46.04 40.31 32.93 57.07 14.92 M 26.63 56.03 C 33.26 48.95 39.82 41.93 62.06 15.28 M 26.63 56.03 C 40.93 41.35 54.02 22.73 62.06 15.28 M 31.62 56.39 C 40.48 45.9 46.91 34.37 67.7 14.88 M 31.62 56.39 C 40.99 43.72 50.34 33.99 67.7 14.88 M 37.26 56 C 54.24 36.79 63.45 25.52 72.69 15.24 M 37.26 56 C 47.44 43.28 56.09 34.59 72.69 15.24 M 42.25 56.36 C 52.47 46.84 62.34 33.13 78.33 14.85 M 42.25 56.36 C 53.89 42.78 65.81 28.38 78.33 14.85 M 47.89 55.96 C 58.26 44.04 74.83 23.3 83.32 15.21 M 47.89 55.96 C 59.96 43.41 71.14 30.54 83.32 15.21 M 52.88 56.32 C 64.7 45.9 77.79 33.33 88.96 14.82 M 52.88 56.32 C 63.07 45.23 69.19 34.67 88.96 14.82 M 58.52 55.93 C 75.17 38.57 85.53 22.22 93.95 15.18 M 58.52 55.93 C 71.61 40.51 84.98 24.14 93.95 15.18 M 63.51 56.29 C 77.95 37.82 91.83 26.49 99.59 14.78 M 63.51 56.29 C 76.19 43.65 88.27 30.18 99.59 14.78 M 69.15 55.9 C 77.63 46.62 92.83 34.63 104.58 15.14 M 69.15 55.9 C 79.97 43.59 87.25 32.59 104.58 15.14 M 74.14 56.26 C 81.7 45.36 92.84 38.9 110.22 14.75 M 74.14 56.26 C 82.88 45.49 90.41 37.53 110.22 14.75 M 79.78 55.86 C 92.22 42.41 107 27.56 114.55 15.86 M 79.78 55.86 C 93.68 39.6 106.09 24.01 114.55 15.86 M 84.77 56.22 C 93.76 42.25 110.83 32.47 114.95 21.5 M 84.77 56.22 C 94.81 44.69 103.35 36.08 114.95 21.5 M 90.41 55.83 C 94.88 49.68 104.99 35.63 114.69 27.9 M 90.41 55.83 C 95.11 47.06 104.48 42.28 114.69 27.9 M 95.4 56.19 C 99.12 49.82 110.68 44.74 114.42 34.3 M 95.4 56.19 C 100.4 49.34 109.72 39.95 114.42 34.3 M 101.04 55.79 C 103.23 53.64 110.24 47 114.82 39.94 M 101.04 55.79 C 102.82 52.34 108.71 46.68 114.82 39.94 M 106.03 56.15 C 111.36 53.39 110.74 50.51 114.56 46.34 M 106.03 56.15 C 106.76 53.54 108.42 53.28 114.56 46.34 M 111.02 56.51 C 111.28 54.24 112.79 52.31 114.95 51.98 M 111.02 56.51 C 112.27 55.06 113.47 54.78 114.95 51.98" fill="none" stroke="#b1ddf0" stroke-width="0.5" stroke-linejoin="round" stroke-linecap="round" stroke-miterlimit="10" transform="rotate(-17,59,35)" pointer-events="all" style="stroke: rgb(177, 221, 240);"/><path d="M 4 15 C 37.24 20.27 72.2 16.88 114 15 M 4 15 C 47.64 16.84 89.99 14.57 114 15 M 114 15 C 111.64 26.48 114.69 42.54 114 55 M 114 15 C 116.38 25.86 113.57 34.74 114 55 M 114 55 C 72.45 56.16 25.06 51.91 4 55 M 114 55 C 70.41 56.78 31.1 54.45 4 55 M 4 55 C 0.22 40.7 7.4 24.76 4 15 M 4 55 C 4.04 41.97 4.58 34.26 4 15" fill="none" stroke="#10739e" stroke-linejoin="round" stroke-linecap="round" stroke-miterlimit="10" transform="rotate(-17,59,35)" pointer-events="all" style="stroke: rgb(16, 115, 158);"/></g></g><g data-cell-id="wA9FqI98lm-z4scQnuff-101"><g><path d="M 170.7 45 L 214 66.44 L 170.7 87.88 L 170.7 77.93 C 128.34 77.93 94 112.44 94 155 C 94 99.74 128.34 54.95 170.7 54.95 Z" fill="none" stroke="none" transform="rotate(75,154,100)" pointer-events="all"/><path d="M 116.39 84.34 C 116.39 84.34 116.39 84.34 116.39 84.34 M 116.39 84.34 C 116.39 84.34 116.39 84.34 116.39 84.34 M 106.29 102.06 C 119.13 95.17 127.8 83.08 138.43 65.08 M 106.29 102.06 C 117.75 86.57 130.61 74.17 138.43 65.08 M 101.43 113.74 C 116.03 94.49 137.48 78.58 147.36 60.91 M 101.43 113.74 C 113.7 99.5 129.72 81.3 147.36 60.91 M 99.2 122.4 C 100.56 120.09 102.69 116.89 107.08 113.34 M 99.2 122.4 C 101.08 119.92 103.92 117.62 107.08 113.34 M 118.23 100.51 C 131.67 89.68 140.67 74.22 155.63 57.49 M 118.23 100.51 C 130.22 86.25 138.07 76.12 155.63 57.49 M 96.97 131.06 C 98.55 129.23 100.1 128.64 100.91 126.53 M 96.97 131.06 C 98.1 129.66 99.9 127.63 100.91 126.53 M 133.06 89.55 C 140.45 79.97 146.76 73.79 161.92 56.35 M 133.06 89.55 C 141.35 76.49 154.47 65.33 161.92 56.35 M 171.11 45.78 C 171.11 45.78 171.11 45.78 171.11 45.78 M 171.11 45.78 C 171.11 45.78 171.11 45.78 171.11 45.78 M 96.06 138.21 C 96.61 137.26 97.14 137.02 97.37 136.7 M 96.06 138.21 C 96.55 137.97 96.97 137.37 97.37 136.7 M 141.98 85.38 C 149.98 78.36 161.33 65.61 167.57 55.95 M 141.98 85.38 C 150.29 76.51 158.02 68.54 167.57 55.95 M 171.5 51.42 C 171.98 50.48 174.37 49.53 174.78 47.65 M 171.5 51.42 C 172.34 50.97 172.58 49.48 174.78 47.65 M 95.14 145.37 C 95.14 145.37 95.14 145.37 95.14 145.37 M 95.14 145.37 C 95.14 145.37 95.14 145.37 95.14 145.37 M 151.56 80.46 C 155.02 73.33 160.28 71.26 178.46 49.52 M 151.56 80.46 C 155.24 72 164.73 65.9 178.46 49.52 M 94.88 151.76 C 94.88 151.76 94.88 151.76 94.88 151.76 M 94.88 151.76 C 94.88 151.76 94.88 151.76 94.88 151.76 M 157.86 79.31 C 162.08 73.76 166.95 67.89 182.13 51.39 M 157.86 79.31 C 166.08 70.98 170.61 65.25 182.13 51.39 M 163.5 78.92 C 172.59 70.55 177.77 59.04 186.46 52.5 M 163.5 78.92 C 170.82 69.18 176.26 60.71 186.46 52.5 M 169.15 78.52 C 176.25 68.38 186.53 61.76 190.14 54.37 M 169.15 78.52 C 172.48 72.64 178.42 66.35 190.14 54.37 M 170.85 82.66 C 179.53 76.54 184.06 65.48 193.81 56.24 M 170.85 82.66 C 179.8 74.51 188.66 61.53 193.81 56.24 M 171.25 88.3 C 177.75 83.09 181.63 75.91 197.49 58.11 M 171.25 88.3 C 181.49 79.12 187.81 68.15 197.49 58.11 M 180.83 83.38 C 185.86 80.18 187.03 73.66 201.16 59.98 M 180.83 83.38 C 186.71 78.31 188.17 73.29 201.16 59.98 M 189.75 79.21 C 197.14 71.76 200.7 64.83 204.84 61.85 M 189.75 79.21 C 193.52 73.24 197.35 71.79 204.84 61.85 M 199.33 74.29 C 199.25 71.18 203.21 67.55 208.51 63.72 M 199.33 74.29 C 203.97 71.42 208.12 66.98 208.51 63.72 M 208.25 70.12 C 208.54 67.49 211.4 66.64 212.19 65.59 M 208.25 70.12 C 209.75 68.53 211.79 66.8 212.19 65.59" fill="none" stroke="#bac8d3" stroke-width="0.5" stroke-linejoin="round" stroke-linecap="round" stroke-miterlimit="10" transform="rotate(75,154,100)" pointer-events="all" style="stroke: rgb(186, 200, 211);"/><path d="M 170.7 45 C 179.64 53.21 196.24 60.29 214 66.44 M 170.7 45 C 180.91 52.04 195.67 57.21 214 66.44 M 214 66.44 C 196.53 74.21 180 79.22 170.7 87.88 M 214 66.44 C 197.35 72.87 184.9 79.99 170.7 87.88 M 170.7 87.88 C 171.32 83.48 170.81 80.34 170.7 77.93 M 170.7 87.88 C 171.12 85.14 171.07 81.78 170.7 77.93 M 170.7 77.93 C 124.57 75.94 92.34 109.36 94 155 M 170.7 77.93 C 128.62 75.29 97.27 110.04 94 155 M 94 155 C 92.82 96.67 131.74 56.18 170.7 54.95 M 94 155 C 90.67 97 124.28 53.23 170.7 54.95 M 170.7 54.95 C 170.12 51 169.79 49.11 170.7 45 M 170.7 54.95 C 170.93 53.64 169.78 51.34 170.7 45" fill="none" stroke="#23445d" stroke-linejoin="round" stroke-linecap="round" stroke-miterlimit="10" transform="rotate(75,154,100)" pointer-events="all" style="stroke: rgb(35, 68, 93);"/></g></g></g><g data-cell-id="bidon1"><g data-cell-id="wA9FqI98lm-z4scQnuff-24"/><g data-cell-id="wA9FqI98lm-z4scQnuff-25"/><g data-cell-id="wA9FqI98lm-z4scQnuff-26"/><g data-cell-id="wA9FqI98lm-z4scQnuff-65"/><g data-cell-id="wA9FqI98lm-z4scQnuff-66"/><g data-cell-id="wA9FqI98lm-z4scQnuff-27"/></g><g data-cell-id="bidon2"><g data-cell-id="wA9FqI98lm-z4scQnuff-20"/><g data-cell-id="wA9FqI98lm-z4scQnuff-21"/><g data-cell-id="wA9FqI98lm-z4scQnuff-22"/><g data-cell-id="wA9FqI98lm-z4scQnuff-63"/><g data-cell-id="wA9FqI98lm-z4scQnuff-64"/><g data-cell-id="wA9FqI98lm-z4scQnuff-23"/></g><g data-cell-id="bidon3"><g data-cell-id="wA9FqI98lm-z4scQnuff-2"/><g data-cell-id="wA9FqI98lm-z4scQnuff-4"/><g data-cell-id="wA9FqI98lm-z4scQnuff-5"/><g data-cell-id="wA9FqI98lm-z4scQnuff-57"/><g data-cell-id="wA9FqI98lm-z4scQnuff-58"/><g data-cell-id="wA9FqI98lm-z4scQnuff-6"/></g><g data-cell-id="wA9FqI98lm-z4scQnuff-51"/><g data-cell-id="wA9FqI98lm-z4scQnuff-16"/></g></g></g></svg>