<?xml version="1.0" encoding="UTF-8"?>
<!DOCTYPE svg PUBLIC "-//W3C//DTD SVG 1.1//EN" "http://www.w3.org/Graphics/SVG/1.1/DTD/svg11.dtd">
<svg xmlns="http://www.w3.org/2000/svg" style="background: transparent; background-color: transparent; color-scheme: light dark;" xmlns:xlink="http://www.w3.org/1999/xlink" version="1.1" width="121px" height="121px" viewBox="-0.5 -0.5 121 121"><defs/><g><g data-cell-id="0"><g data-cell-id="1"><g data-cell-id="i9p8nEKsTRmqQ2FdOexW-2"><g><path d="M 0 15 C 0 6.72 26.86 0 60 0 C 75.91 0 91.17 1.58 102.43 4.39 C 113.68 7.21 120 11.02 120 15 L 120 105 C 120 113.28 93.14 120 60 120 C 26.86 120 0 113.28 0 105 Z" fill="none" stroke="none" pointer-events="all"/><path d="M 120 15 C 120 23.28 93.14 30 60 30 C 26.86 30 0 23.28 0 15" fill="none" stroke="none" pointer-events="all"/><path d="M 2.82 10.4 C 2.82 10.4 2.82 10.4 2.82 10.4 M 2.82 10.4 C 2.82 10.4 2.82 10.4 2.82 10.4 M 2.56 16.8 C 5.83 14.63 8.39 10.38 11.09 6.99 M 2.56 16.8 C 3.86 13.5 7.67 11.62 11.09 6.99 M 2.3 23.2 C 3.24 20.78 10.86 14.05 17.39 5.84 M 2.3 23.2 C 4.53 17.33 9.44 15.14 17.39 5.84 M 2.03 29.59 C 5.92 21.81 13.77 10.83 23.03 5.44 M 2.03 29.59 C 8.6 22.74 12.82 14.87 23.03 5.44 M 2.43 35.24 C 6.08 27.95 16.88 22.83 29.33 4.29 M 2.43 35.24 C 11.17 24.47 22.34 13.64 29.33 4.29 M 2.17 41.63 C 12.53 24.82 31.9 8.6 35.63 3.14 M 2.17 41.63 C 13.83 25.15 26.42 13.94 35.63 3.14 M 2.56 47.28 C 20.09 31.04 29.19 12.05 41.93 2 M 2.56 47.28 C 18.78 28.45 32.09 13.43 41.93 2 M 2.3 53.68 C 14.89 39.57 24.51 25.87 48.23 0.85 M 2.3 53.68 C 16.57 39.66 25.76 25.95 48.23 0.85 M 2.04 60.07 C 21.98 40.78 35.77 16.05 53.21 1.21 M 2.04 60.07 C 16.77 42.11 31.65 27.55 53.21 1.21 M 2.43 65.72 C 16.51 52.76 23.56 36.39 58.2 1.57 M 2.43 65.72 C 15.69 50.99 25.04 38.08 58.2 1.57 M 2.17 72.11 C 22.23 48.93 34.15 32.93 63.84 1.17 M 2.17 72.11 C 24.26 48.65 41.66 27.5 63.84 1.17 M 2.57 77.76 C 19.12 66.26 33.19 49.57 68.83 1.53 M 2.57 77.76 C 16.15 58.16 34.57 42.84 68.83 1.53 M 2.31 84.16 C 25.78 59.17 45.37 34.6 73.82 1.89 M 2.31 84.16 C 27.95 53.68 54.33 25.19 73.82 1.89 M 2.04 90.55 C 24.57 67.84 46.95 38.34 78.8 2.25 M 2.04 90.55 C 24.3 67.5 45.05 45.91 78.8 2.25 M 2.44 96.2 C 25.22 73.36 42.98 44.85 83.79 2.61 M 2.44 96.2 C 24.97 67.53 52.61 37.63 83.79 2.61 M 0.21 104.86 C 34.21 69.22 64.13 34.47 88.78 2.97 M 0.21 104.86 C 25.88 77.89 49.22 50.69 88.78 2.97 M 1.92 108.99 C 18.3 87.89 42.77 66.71 93.76 3.33 M 1.92 108.99 C 34.05 69.64 64.76 35.78 93.76 3.33 M 4.94 111.62 C 33.72 74.38 66.12 41.5 98.1 4.45 M 4.94 111.62 C 40.76 69.36 77.09 29.03 98.1 4.45 M 9.27 112.73 C 45.15 70.07 81.7 29.37 102.43 5.56 M 9.27 112.73 C 32.55 87.22 54.24 59.33 102.43 5.56 M 12.94 114.6 C 34.83 88.41 52.91 69.92 106.1 7.43 M 12.94 114.6 C 45.59 79.78 74.85 39.66 106.1 7.43 M 17.27 115.72 C 37.11 85.45 57.69 64.77 110.43 8.55 M 17.27 115.72 C 49.39 84.14 79.21 49.92 110.43 8.55 M 21.6 116.83 C 58.19 79.67 92.6 36.69 114.76 9.66 M 21.6 116.83 C 52.2 84.38 81.66 51.97 114.76 9.66 M 25.28 118.7 C 52.72 87.17 89.21 51.55 118.44 11.53 M 25.28 118.7 C 41.74 98.44 60.92 77.24 118.44 11.53 M 29.61 119.81 C 52.33 92.14 75.18 69.65 120.14 15.66 M 29.61 119.81 C 45.22 97.73 66.3 76.29 120.14 15.66 M 34.6 120.17 C 62.29 88.93 79.87 61.53 120.54 21.31 M 34.6 120.17 C 57.62 93 82.77 63.23 120.54 21.31 M 39.58 120.53 C 60.01 92.75 81.37 69.46 120.28 27.71 M 39.58 120.53 C 69.36 89.94 96.64 58.98 120.28 27.71 M 44.57 120.89 C 72.16 88.22 108.26 48.91 120.02 34.1 M 44.57 120.89 C 68.98 90.51 91.27 62.48 120.02 34.1 M 49.56 121.25 C 77.78 91.64 96.82 59.9 120.41 39.75 M 49.56 121.25 C 70.58 100.74 92.25 74.97 120.41 39.75 M 54.54 121.61 C 72.91 98.6 84.56 82.1 120.15 46.14 M 54.54 121.61 C 80.75 94.89 102.52 66.08 120.15 46.14 M 60.84 120.47 C 85.64 90.26 103.58 67.26 119.89 52.54 M 60.84 120.47 C 80.32 99.81 95.62 78.61 119.89 52.54 M 66.49 120.07 C 84.97 97.62 101.57 78.63 119.63 58.94 M 66.49 120.07 C 81.72 102.64 97.85 86.65 119.63 58.94 M 72.13 119.68 C 84.13 102.09 104.6 79.96 120.02 64.58 M 72.13 119.68 C 90.5 99.76 106.21 78.97 120.02 64.58 M 77.77 119.28 C 92.92 103.94 105.83 83.49 119.76 70.98 M 77.77 119.28 C 87.57 106.2 96.13 94.91 119.76 70.98 M 83.42 118.89 C 97.11 101.11 106.82 89.24 119.5 77.38 M 83.42 118.89 C 95.16 104.65 106.12 92.14 119.5 77.38 M 89.06 118.49 C 92.97 113.7 100.44 103.94 119.24 83.78 M 89.06 118.49 C 101.28 106.25 111.5 95.16 119.24 83.78 M 94.7 118.1 C 98.63 113.11 107.55 100.04 119.63 89.42 M 94.7 118.1 C 101.72 108.3 112.02 100.91 119.63 89.42 M 101 116.95 C 105.11 112.43 113.87 100.12 119.37 95.82 M 101 116.95 C 105 112.19 110.91 105.06 119.37 95.82 M 107.96 115.04 C 111.62 109.26 114.55 107.14 119.11 102.21 M 107.96 115.04 C 111 111.11 112.56 109.65 119.11 102.21" fill="none" stroke="#ffe6cc" stroke-width="0.5" stroke-linejoin="round" stroke-linecap="round" stroke-miterlimit="10" pointer-events="all" style="stroke: rgb(255, 230, 204);"/><path d="M 0 15 C -1.01 5.76 26.28 -1.88 60 0 M 0 15 C 3.16 6.5 24.34 -2.42 60 0 M 60 0 C 95.94 -2.92 117.68 5.41 120 15 M 60 0 C 89.12 -2.07 124.36 10.1 120 15 M 120 15 C 121.23 38.88 116.21 65.12 120 105 M 120 15 C 121.8 37.65 122.61 57.42 120 105 M 120 105 C 118.74 114.05 92.13 117.44 60 120 M 120 105 C 120.59 109.12 93.09 122.59 60 120 M 60 120 C 23.85 123 2.63 112.83 0 105 M 60 120 C 31.03 119.28 3.26 111.16 0 105 M 0 105 C 3.28 74.9 -0.56 52.9 0 15 M 0 105 C -0.83 82.13 0.84 56.56 0 15" fill="none" stroke="#d79b00" stroke-linejoin="round" stroke-linecap="round" stroke-miterlimit="10" pointer-events="all" style="stroke: rgb(215, 155, 0);"/><path d="M 120 15 C 118.99 22.32 92.56 28.12 60 30 M 120 15 C 123.16 23.06 90.62 27.58 60 30 M 60 30 C 29.66 27.08 -2.32 21.97 0 15 M 60 30 C 22.84 27.93 4.36 26.66 0 15" fill="none" stroke="#d79b00" stroke-linejoin="round" stroke-linecap="round" stroke-miterlimit="10" pointer-events="all" style="stroke: rgb(215, 155, 0);"/></g></g><g data-cell-id="ZrQ-OFwv8r7vI2tQvjiG-1"><g><rect x="25" y="40" width="70" height="70" fill="none" stroke="none" pointer-events="all"/><path d="M 60 97.92 C 50.53 95.99 44.47 88.97 41.96 77.06 C 40.95 72.24 40.7 67.54 40.74 63.79 L 77.13 80.59 C 74.23 90.35 68.49 96.19 60 97.92 M 60 54.97 C 63.53 57.68 69.52 60.76 79.21 61.88 C 79.36 65.94 79.22 71.54 78 77.25 C 77.97 77.35 77.95 77.45 77.92 77.56 L 43.19 61.53 C 51.46 60.21 56.78 57.45 60 54.97 M 80.83 58.95 C 70.14 57.95 64.15 54.52 61 51.82 C 60.43 51.33 59.57 51.33 59 51.82 C 55.85 54.52 49.85 57.95 39.16 58.95 C 38.4 59.02 37.81 59.64 37.77 60.4 C 37.53 64.62 37.55 71.04 38.95 77.7 C 41.76 91.06 48.74 98.9 59.71 101 C 59.81 101.02 59.9 101.03 60 101.03 C 60.1 101.03 60.19 101.02 60.29 101 C 71.2 98.91 78.17 91.13 81.01 77.89 C 82.44 71.21 82.46 64.69 82.23 60.4 C 82.19 59.64 81.59 59.02 80.83 58.95 M 60 105.13 C 31.5 100.22 33.47 63.24 34.15 55.88 C 50.34 55.01 57.35 49.2 60 46.02 C 62.65 49.2 69.66 55.01 85.85 55.88 C 86.53 63.24 88.5 100.22 60 105.13 M 88.77 54.19 C 88.67 53.44 88.04 52.88 87.29 52.86 C 66.25 52.11 61.44 42.73 61.4 42.65 C 61.14 42.12 60.6 41.77 60.01 41.77 L 60 41.77 C 59.41 41.77 58.87 42.11 58.61 42.64 C 58.56 42.73 53.75 52.11 32.71 52.86 C 31.96 52.88 31.33 53.44 31.23 54.19 C 31.17 54.67 25 102.49 59.75 108.21 C 59.83 108.23 59.92 108.23 60 108.23 C 60.08 108.23 60.17 108.23 60.25 108.21 C 95 102.49 88.83 54.67 88.77 54.19" fill="#336600" stroke="none" pointer-events="all" style="fill: rgb(51, 102, 0);"/></g></g></g></g></g></svg>