<?xml version="1.0" encoding="UTF-8"?>
<!-- Do not edit this file with editors other than draw.io -->
<!DOCTYPE svg PUBLIC "-//W3C//DTD SVG 1.1//EN" "http://www.w3.org/Graphics/SVG/1.1/DTD/svg11.dtd">
<svg xmlns="http://www.w3.org/2000/svg" style="background: transparent; background-color: transparent; color-scheme: light dark;" xmlns:xlink="http://www.w3.org/1999/xlink" version="1.1" width="362px" height="202px" viewBox="-0.5 -0.5 362 202" content="&lt;mxfile host=&quot;Electron&quot; agent=&quot;Mozilla/5.0 (X11; Linux x86_64) AppleWebKit/537.36 (KHTML, like Gecko) draw.io/28.2.5 Chrome/138.0.7204.251 Electron/37.6.1 Safari/537.36&quot; version=&quot;28.2.5&quot; scale=&quot;1&quot; border=&quot;0&quot;&gt;&#10;  &lt;diagram name=&quot;Page-1&quot; id=&quot;0GCqKBPGP164npvmmsRP&quot;&gt;&#10;    &lt;mxGraphModel dx=&quot;1360&quot; dy=&quot;963&quot; grid=&quot;1&quot; gridSize=&quot;10&quot; guides=&quot;1&quot; tooltips=&quot;1&quot; connect=&quot;1&quot; arrows=&quot;1&quot; fold=&quot;1&quot; page=&quot;1&quot; pageScale=&quot;1&quot; pageWidth=&quot;850&quot; pageHeight=&quot;1100&quot; math=&quot;0&quot; shadow=&quot;0&quot;&gt;&#10;      &lt;root&gt;&#10;        &lt;mxCell id=&quot;0&quot; /&gt;&#10;        &lt;mxCell id=&quot;1&quot; parent=&quot;0&quot; /&gt;&#10;        &lt;mxCell id=&quot;2&quot; value=&quot;&quot; style=&quot;html=1;verticalLabelPosition=bottom;align=center;labelBackgroundColor=#ffffff;verticalAlign=top;strokeWidth=2;strokeColor=#4D4D4D;shadow=0;dashed=0;shape=mxgraph.ios7.icons.cloud;sketch=1;curveFitting=1;jiggle=2;fillColor=#E6E6E6;&quot; vertex=&quot;1&quot; parent=&quot;1&quot;&gt;&#10;          &lt;mxGeometry x=&quot;80&quot; y=&quot;120&quot; width=&quot;360&quot; height=&quot;200&quot; as=&quot;geometry&quot; /&gt;&#10;        &lt;/mxCell&gt;&#10;        &lt;mxCell id=&quot;3&quot; value=&quot;&quot; style=&quot;shape=datastore;whiteSpace=wrap;html=1;fillColor=#d80073;strokeColor=#A50040;sketch=1;curveFitting=1;jiggle=2;fontColor=#ffffff;&quot; vertex=&quot;1&quot; parent=&quot;1&quot;&gt;&#10;          &lt;mxGeometry x=&quot;120&quot; y=&quot;230&quot; width=&quot;64.62&quot; height=&quot;70&quot; as=&quot;geometry&quot; /&gt;&#10;        &lt;/mxCell&gt;&#10;        &lt;mxCell id=&quot;4&quot; value=&quot;&quot; style=&quot;shape=datastore;whiteSpace=wrap;html=1;fillColor=#60a917;strokeColor=#2D7600;sketch=1;curveFitting=1;jiggle=2;fontColor=#ffffff;&quot; vertex=&quot;1&quot; parent=&quot;1&quot;&gt;&#10;          &lt;mxGeometry x=&quot;210&quot; y=&quot;180&quot; width=&quot;120&quot; height=&quot;130&quot; as=&quot;geometry&quot; /&gt;&#10;        &lt;/mxCell&gt;&#10;        &lt;mxCell id=&quot;5&quot; value=&quot;&quot; style=&quot;shape=datastore;whiteSpace=wrap;html=1;fillColor=#1ba1e2;strokeColor=#006EAF;sketch=1;curveFitting=1;jiggle=2;fontColor=#ffffff;&quot; vertex=&quot;1&quot; parent=&quot;1&quot;&gt;&#10;          &lt;mxGeometry x=&quot;340&quot; y=&quot;220&quot; width=&quot;55.38&quot; height=&quot;60&quot; as=&quot;geometry&quot; /&gt;&#10;        &lt;/mxCell&gt;&#10;      &lt;/root&gt;&#10;    &lt;/mxGraphModel&gt;&#10;  &lt;/diagram&gt;&#10;&lt;/mxfile&gt;&#10;"><defs/><g><g data-cell-id="0"><g data-cell-id="1"><g data-cell-id="82fFCfV9gluU0MP9ZeDP-1"><g><path d="M 314.8 201 C 341.78 197.58 361.03 171.74 357.79 143.28 C 354.56 114.82 330.06 94.51 303.07 97.93 C 302.77 55.41 274.51 18.82 235.1 9.91 C 195.68 1.01 155.69 22.17 138.9 60.82 C 126.46 45.81 106.69 40.15 88.76 46.45 C 70.83 52.76 58.23 69.8 56.82 89.68 C 27.67 88.54 3.17 112.54 2.09 143.28 C 1.02 174.02 23.77 199.86 52.91 201 Z" fill="none" stroke="none" pointer-events="all"/><path d="M 22.71 101.19 C 22.71 101.19 22.71 101.19 22.71 101.19 M 22.71 101.19 C 22.71 101.19 22.71 101.19 22.71 101.19 M 3.81 135.12 C 10.75 128.31 22.47 116.53 41.21 92.1 M 3.81 135.12 C 13.61 122.8 26.57 108.89 41.21 92.1 M 71.39 57.38 C 71.39 57.38 71.39 57.38 71.39 57.38 M 71.39 57.38 C 71.39 57.38 71.39 57.38 71.39 57.38 M 3.29 147.91 C 12.48 135.53 26.92 120.98 53.15 90.56 M 3.29 147.91 C 16.47 129.63 34.1 114.95 53.15 90.56 M 59.71 83.01 C 69.79 74.05 83.54 58.24 91.86 46.03 M 59.71 83.01 C 67.63 73.23 79.83 60.93 91.86 46.03 M 4.08 159.2 C 31.73 127.75 62.69 95.45 103.8 44.48 M 4.08 159.2 C 42.47 115.71 78.8 74.02 103.8 44.48 M 7.49 167.47 C 49.49 115.3 89.6 75.11 113.12 45.96 M 7.49 167.47 C 38.91 128.31 70.64 92.44 113.12 45.96 M 10.91 175.73 C 47.26 141.84 74.32 103.05 121.12 48.94 M 10.91 175.73 C 37.54 147.62 63.76 117.12 121.12 48.94 M 16.29 181.74 C 46.74 148.59 80.03 113.42 129.13 51.93 M 16.29 181.74 C 59.76 132.71 100.02 83.92 129.13 51.93 M 21.67 187.74 C 59.04 140.28 95.2 98.04 135.17 57.18 M 21.67 187.74 C 43.82 158.56 67.2 129.53 135.17 57.18 M 27.71 192.99 C 62.89 156.46 98.72 110.13 180.57 17.14 M 27.71 192.99 C 65.08 150 101.27 107.7 180.57 17.14 M 35.71 195.97 C 75.27 147.88 115.38 96.3 195.14 12.58 M 35.71 195.97 C 83.34 146.35 126.93 94.2 195.14 12.58 M 43.06 199.71 C 96.05 136.26 147.67 75.09 209.05 8.77 M 43.06 199.71 C 92.7 140.35 144.47 83.11 209.05 8.77 M 53.69 199.68 C 89.77 163.41 122.21 122.02 219.02 9.49 M 53.69 199.68 C 111.62 132.91 168.36 68.16 219.02 9.49 M 63.67 200.4 C 108.4 145.8 157.72 92.39 228.99 10.21 M 63.67 200.4 C 102.84 154.8 144.25 109.59 228.99 10.21 M 74.3 200.36 C 110.66 154.46 153.18 112.17 238.31 11.69 M 74.3 200.36 C 112.03 157.42 148.65 116.64 238.31 11.69 M 84.93 200.33 C 136.56 141.45 194.28 80.32 246.32 14.67 M 84.93 200.33 C 121.57 159.39 155.32 118.62 246.32 14.67 M 95.56 200.29 C 146.02 146.78 195.82 91.33 253.67 18.41 M 95.56 200.29 C 133.62 158 172.82 111.34 253.67 18.41 M 106.19 200.26 C 153.76 149.12 198.18 97.29 261.67 21.39 M 106.19 200.26 C 170.55 129.39 230.23 58.77 261.67 21.39 M 116.82 200.23 C 167.4 150.3 213.27 95.79 267.71 26.64 M 116.82 200.23 C 155.66 153.89 194.92 106.16 267.71 26.64 M 127.45 200.19 C 180.36 142.53 224.8 88.02 273.75 31.89 M 127.45 200.19 C 167.37 155.19 203.76 110.58 273.75 31.89 M 138.08 200.16 C 168.25 161.08 200.25 131.02 279.79 37.14 M 138.08 200.16 C 171.43 158 207.57 120.48 279.79 37.14 M 148.05 200.88 C 200.08 141.78 255.86 78.87 285.17 43.14 M 148.05 200.88 C 195.87 149.97 243.1 94.04 285.17 43.14 M 158.68 200.84 C 202.75 148.47 245.83 92.19 289.24 50.66 M 158.68 200.84 C 188.44 163.64 220.81 124.91 289.24 50.66 M 169.31 200.81 C 215.53 148.64 256.32 101.31 293.31 58.17 M 169.31 200.81 C 203.14 167.06 231.91 132.64 293.31 58.17 M 179.94 200.77 C 215.96 155.18 247.56 118.39 297.38 65.68 M 179.94 200.77 C 211.52 162.88 247.24 123.7 297.38 65.68 M 190.57 200.74 C 220.67 166.48 249.49 129.89 299.48 75.46 M 190.57 200.74 C 209.37 174.49 231.16 151.1 299.48 75.46 M 201.2 200.7 C 220.48 177.32 240.15 152.76 300.92 85.99 M 201.2 200.7 C 224.07 175.6 248.14 147.85 300.92 85.99 M 211.83 200.67 C 246.28 158.92 284.15 119.08 303.02 95.77 M 211.83 200.67 C 245.76 164.97 279.86 126.7 303.02 95.77 M 222.46 200.64 C 251.51 167.45 279.56 135.21 311.03 98.75 M 222.46 200.64 C 247.86 169.5 278.44 133.97 311.03 98.75 M 232.44 201.36 C 253.79 172.92 277.22 152.86 321 99.47 M 232.44 201.36 C 257.83 174.9 283.26 144.08 321 99.47 M 243.07 201.32 C 272.81 165.4 302.66 139.35 329.01 102.45 M 243.07 201.32 C 266.37 176.35 288.52 149.29 329.01 102.45 M 253.7 201.29 C 287.47 169.29 316 130.49 335.7 106.95 M 253.7 201.29 C 276.23 177.44 296.25 151.18 335.7 106.95 M 264.33 201.25 C 288.45 170.97 314.76 143.4 341.74 112.2 M 264.33 201.25 C 292.06 167.09 317.72 137.16 341.74 112.2 M 274.96 201.22 C 298.34 172.32 319.71 149.7 347.78 117.44 M 274.96 201.22 C 302.62 170.34 330.68 140.85 347.78 117.44 M 285.59 201.18 C 305.08 182.79 323.76 164.01 351.85 124.96 M 285.59 201.18 C 304.55 178.81 325.43 156.24 351.85 124.96 M 296.22 201.15 C 317.28 180.92 329.85 159.31 355.26 133.22 M 296.22 201.15 C 306.05 186.99 319.37 173.31 355.26 133.22 M 306.85 201.11 C 319.91 187.97 328.87 173.21 357.36 143 M 306.85 201.11 C 318.38 189.02 329.2 177.81 357.36 143 M 318.79 199.57 C 334.08 187.05 349.29 165.71 357.5 155.04 M 318.79 199.57 C 334.83 182.68 349.9 165.2 357.5 155.04 M 333.36 195.01 C 338.95 194.32 338.4 188.24 353.69 171.61 M 333.36 195.01 C 339.06 191.28 342.4 184.98 353.69 171.61" fill="none" stroke="#e6e6e6" stroke-linejoin="round" stroke-linecap="round" stroke-miterlimit="10" pointer-events="all" style="stroke: rgb(230, 230, 230);"/><path d="M 314.8 201 C 341.34 198.52 359.83 167.89 357.79 143.28 M 314.8 201 C 343.16 195.18 365.41 173.78 357.79 143.28 M 357.79 143.28 C 356.25 113.14 332.89 90.8 303.07 97.93 M 357.79 143.28 C 353.41 116.75 326.17 95.56 303.07 97.93 M 303.07 97.93 C 306.43 59.34 271 22.13 235.1 9.91 M 303.07 97.93 C 305.96 57.07 270.29 20.66 235.1 9.91 M 235.1 9.91 C 191.69 4.07 156.27 22.47 138.9 60.82 M 235.1 9.91 C 195.21 3.35 151.38 20.33 138.9 60.82 M 138.9 60.82 C 128.77 41.87 103.6 41.47 88.76 46.45 M 138.9 60.82 C 128.19 44.97 105.18 41.19 88.76 46.45 M 88.76 46.45 C 69.93 51 58.51 73.24 56.82 89.68 M 88.76 46.45 C 68.02 57.32 57.01 71.71 56.82 89.68 M 56.82 89.68 C 31.6 88.45 5.66 115.27 2.09 143.28 M 56.82 89.68 C 29.76 90.78 4.67 112.83 2.09 143.28 M 2.09 143.28 C 4.39 172.42 20.11 202.13 52.91 201 M 2.09 143.28 C -2.05 176.35 27.34 203.6 52.91 201 M 52.91 201 C 134.76 201.48 219.64 203.46 314.8 201 M 52.91 201 C 132.61 199.32 214.26 198.3 314.8 201" fill="none" stroke="#4d4d4d" stroke-width="2" stroke-linejoin="round" stroke-linecap="round" stroke-miterlimit="10" pointer-events="all" style="stroke: rgb(77, 77, 77);"/></g></g><g data-cell-id="82fFCfV9gluU0MP9ZeDP-2"><g><path d="M 41 120 C 41 129 105.62 129 105.62 120" fill="none" stroke="none" pointer-events="all"/><path d="M 41 124.5 C 41 133.5 105.62 133.5 105.62 124.5" fill="none" stroke="none" pointer-events="all"/><path d="M 41 129 C 41 138 105.62 138 105.62 129" fill="none" stroke="none" pointer-events="all"/><path d="M 41 120 C 41 108 105.62 108 105.62 120 L 105.62 172 C 105.62 184 41 184 41 172 Z" fill="none" stroke="none" pointer-events="all"/><path d="M 40.86 120.16 C 40.86 120.16 40.86 120.16 40.86 120.16 M 40.86 120.16 C 40.86 120.16 40.86 120.16 40.86 120.16 M 41.26 125.8 C 45.57 122.3 46.87 121.75 51.76 113.72 M 41.26 125.8 C 44.48 120.26 48.51 117.35 51.76 113.72 M 41 132.2 C 41.49 125.16 46.13 120.36 58.05 112.58 M 41 132.2 C 47.58 128.89 50.71 121.11 58.05 112.58 M 40.74 138.6 C 49.77 126.09 56.72 117.46 64.35 111.43 M 40.74 138.6 C 47.07 132.02 52.98 124.35 64.35 111.43 M 41.13 144.24 C 47.07 130.98 56.35 125.51 69.34 111.79 M 41.13 144.24 C 52.07 134.41 59.39 122.13 69.34 111.79 M 40.87 150.64 C 48.39 139.96 55.33 131.85 74.98 111.39 M 40.87 150.64 C 54.39 135.37 69.57 118.87 74.98 111.39 M 41.26 156.28 C 56.55 141.63 70.05 124.08 79.97 111.75 M 41.26 156.28 C 55.85 141.52 69.37 122.27 79.97 111.75 M 41 162.68 C 56.74 147.21 74.01 126.23 85.61 111.36 M 41 162.68 C 50.24 150.9 60.87 139.37 85.61 111.36 M 40.74 169.07 C 59.88 148.86 75.67 121.74 89.94 112.47 M 40.74 169.07 C 52.91 155.74 62.31 142.24 89.94 112.47 M 42.45 173.21 C 59.49 151.22 85.49 129.86 94.28 113.59 M 42.45 173.21 C 56.2 156.2 69.97 140.9 94.28 113.59 M 44.81 176.59 C 61.27 156.73 70.11 143.16 98.61 114.7 M 44.81 176.59 C 63.23 157.59 78.98 137.43 98.61 114.7 M 49.14 177.7 C 63.67 160.06 86.76 141.42 102.94 115.82 M 49.14 177.7 C 72.88 154.82 91.04 128.58 102.94 115.82 M 53.47 178.82 C 64.5 167.22 81.4 151.79 105.3 119.2 M 53.47 178.82 C 66.13 162.43 76.74 150.1 105.3 119.2 M 57.8 179.93 C 76.15 159.92 85.71 148.85 105.69 124.84 M 57.8 179.93 C 76.63 160.7 94.41 138.15 105.69 124.84 M 62.79 180.29 C 80.04 157.68 98.4 142.43 105.43 131.24 M 62.79 180.29 C 69.36 169.28 81.85 156.77 105.43 131.24 M 67.78 180.65 C 81.01 166.88 89.48 157.53 105.83 136.88 M 67.78 180.65 C 78.53 169.09 90.51 154.57 105.83 136.88 M 72.76 181.01 C 84.96 169.35 91.08 153.89 105.57 143.28 M 72.76 181.01 C 82.33 168.3 95.98 152.89 105.57 143.28 M 78.41 180.62 C 82.8 170.38 91.83 163.1 105.31 149.67 M 78.41 180.62 C 82.95 173.92 91.23 165.33 105.31 149.67 M 84.05 180.22 C 90.13 171.2 102.04 165.23 105.04 156.07 M 84.05 180.22 C 91.16 171.59 99.23 164.31 105.04 156.07 M 89.69 179.83 C 95.97 174.52 96.35 169.11 105.44 161.72 M 89.69 179.83 C 93.96 174.18 99.7 168.11 105.44 161.72 M 95.99 178.68 C 98.99 175.16 104.23 173.95 105.18 168.11 M 95.99 178.68 C 97.89 175.59 101.47 172.32 105.18 168.11" fill="none" stroke="#d80073" stroke-width="0.5" stroke-linejoin="round" stroke-linecap="round" stroke-miterlimit="10" pointer-events="all" style="stroke: rgb(216, 0, 115);"/><path d="M 41 120 C 40.56 109.62 109.23 109.87 105.62 120 M 41 120 C 40 109.47 108.08 104.16 105.62 120 M 105.62 120 C 102.95 140.59 105.22 155.03 105.62 172 M 105.62 120 C 106.41 133.11 104.22 146.15 105.62 172 M 105.62 172 C 102.65 187.75 41.93 186.14 41 172 M 105.62 172 C 106.87 182.27 38.76 185.86 41 172 M 41 172 C 40.53 162.51 44.69 147.37 41 120 M 41 172 C 40.13 157.48 39 141.04 41 120" fill="none" stroke="#a50040" stroke-linejoin="round" stroke-linecap="round" stroke-miterlimit="10" pointer-events="all" style="stroke: rgb(165, 0, 64);"/><path d="M 41 120 C 40.56 130.62 109.23 130.87 105.62 120 M 41 120 C 40 130.47 108.08 125.16 105.62 120 M 41 120 C 43.23 129.74 105.24 126.14 105.62 120 M 41 120 C 43.4 128.32 103.35 126.67 105.62 120 M 41 120 C 42.42 132.18 106.46 129.29 105.62 120 M 41 120 C 36.92 129.53 102.21 133.31 105.62 120" fill="none" stroke="#a50040" stroke-linejoin="round" stroke-linecap="round" stroke-miterlimit="10" pointer-events="all" style="stroke: rgb(165, 0, 64);"/></g></g><g data-cell-id="82fFCfV9gluU0MP9ZeDP-3"><g><path d="M 131 77 C 131 93 251 93 251 77" fill="none" stroke="none" pointer-events="all"/><path d="M 131 85 C 131 101 251 101 251 85" fill="none" stroke="none" pointer-events="all"/><path d="M 131 93 C 131 109 251 109 251 93" fill="none" stroke="none" pointer-events="all"/><path d="M 131 77 C 131 55.67 251 55.67 251 77 L 251 175 C 251 196.33 131 196.33 131 175 Z" fill="none" stroke="none" pointer-events="all"/><path d="M 133.98 71.54 C 133.98 71.54 133.98 71.54 133.98 71.54 M 133.98 71.54 C 133.98 71.54 133.98 71.54 133.98 71.54 M 131.75 80.21 C 136.88 78.92 139.7 70.62 142.91 67.38 M 131.75 80.21 C 135.08 77.46 136.38 74.77 142.91 67.38 M 131.49 86.6 C 135.24 84.18 138.05 72.64 148.55 66.98 M 131.49 86.6 C 136.85 78.29 145.56 69.54 148.55 66.98 M 131.23 93 C 138.22 80.76 143.56 73.01 154.85 65.83 M 131.23 93 C 134.66 87.75 143.57 78.61 154.85 65.83 M 131.63 98.64 C 138.4 92.1 149 78.96 161.15 64.68 M 131.63 98.64 C 140.69 85.86 150.55 75.61 161.15 64.68 M 131.36 105.04 C 145.59 91.17 156.77 72.92 167.45 63.53 M 131.36 105.04 C 140.97 92.82 151.17 81.65 167.45 63.53 M 131.76 110.68 C 143.12 100.9 153.75 80.2 173.09 63.14 M 131.76 110.68 C 146.65 92.66 162.82 74.15 173.09 63.14 M 131.5 117.08 C 144.63 104.74 155.49 87.35 180.05 61.23 M 131.5 117.08 C 149.22 96.94 164.05 79.81 180.05 61.23 M 131.24 123.48 C 152.28 100.97 173.75 75.19 185.03 61.59 M 131.24 123.48 C 144.32 110.79 157.72 95.31 185.03 61.59 M 131.63 129.12 C 142.97 109.09 159.93 94.18 190.02 61.95 M 131.63 129.12 C 149.75 108.87 167.98 85.26 190.02 61.95 M 131.37 135.52 C 142.24 115.55 157.91 98.42 195.01 62.31 M 131.37 135.52 C 152.27 113.29 172.94 87.69 195.01 62.31 M 131.76 141.16 C 152.4 122.12 168.12 97.8 199.99 62.67 M 131.76 141.16 C 149.01 122.06 166.78 103.98 199.99 62.67 M 131.5 147.56 C 148.33 124.27 173.09 98.45 205.64 62.28 M 131.5 147.56 C 160.51 114.53 190.62 80.67 205.64 62.28 M 131.24 153.96 C 160.12 120.36 192.41 77.51 210.62 62.64 M 131.24 153.96 C 159.62 122.86 190.33 87.72 210.62 62.64 M 131.64 159.6 C 163.37 123.89 193.39 88.61 215.61 63 M 131.64 159.6 C 150.46 135.3 168.95 111 215.61 63 M 131.37 166 C 150.28 143.21 169.38 129.45 220.6 63.36 M 131.37 166 C 163.92 130.23 194.58 95.53 220.6 63.36 M 131.77 171.64 C 159.6 132.93 197.63 94.87 225.58 63.72 M 131.77 171.64 C 167.18 136.93 195.19 101.71 225.58 63.72 M 132.16 177.29 C 159.44 148.38 183.3 121.21 229.92 64.84 M 132.16 177.29 C 162.08 145.04 188.38 112.57 229.92 64.84 M 134.53 180.67 C 166.82 141.7 195.31 108.15 234.25 65.95 M 134.53 180.67 C 173.55 138.98 209 93.2 234.25 65.95 M 138.2 182.54 C 173.41 139.37 211.84 103.86 238.58 67.06 M 138.2 182.54 C 164.86 156.75 185.02 130.74 238.58 67.06 M 141.88 184.41 C 171.89 151.76 204.71 109.48 242.25 68.93 M 141.88 184.41 C 179.52 144.86 216.52 102.66 242.25 68.93 M 145.55 186.27 C 185.02 144.35 217.72 101.94 245.93 70.8 M 145.55 186.27 C 178.65 147.03 210 112.3 245.93 70.8 M 150.54 186.63 C 179.07 156.2 209.36 118.81 248.95 73.43 M 150.54 186.63 C 184.34 153.28 215.97 115.18 248.95 73.43 M 154.87 187.75 C 190.45 151.64 221.63 114.4 251.31 76.81 M 154.87 187.75 C 179.9 162.07 199.94 133.78 251.31 76.81 M 159.2 188.86 C 190.81 148.29 217.38 118.33 251.05 83.21 M 159.2 188.86 C 197.06 147.14 231.63 106.42 251.05 83.21 M 164.19 189.22 C 195.59 157.73 223.22 116.45 250.79 89.6 M 164.19 189.22 C 190.25 157.26 220.51 127.3 250.79 89.6 M 169.17 189.58 C 201.79 152.47 232.05 121.83 250.52 96 M 169.17 189.58 C 193.53 163.6 214.26 139.93 250.52 96 M 174.16 189.94 C 186.47 171.84 208.2 155.93 250.92 101.64 M 174.16 189.94 C 194.33 165.97 216.71 139.49 250.92 101.64 M 179.15 190.3 C 205.24 161.12 234.58 122.34 250.66 108.04 M 179.15 190.3 C 198.1 168.87 214.04 150.18 250.66 108.04 M 184.13 190.66 C 203.01 174.41 217.3 156.83 250.4 114.44 M 184.13 190.66 C 206.03 168.94 222.07 146.98 250.4 114.44 M 189.12 191.02 C 205.15 171.27 224.24 150.55 250.79 120.08 M 189.12 191.02 C 211 164.84 236.68 139.17 250.79 120.08 M 194.11 191.39 C 218.08 162.96 239.19 138.53 250.53 126.48 M 194.11 191.39 C 208.63 174.42 222.84 157.55 250.53 126.48 M 200.41 190.24 C 215.35 173.12 228.17 153.94 250.27 132.88 M 200.41 190.24 C 207.64 178.09 218.19 166.69 250.27 132.88 M 206.05 189.84 C 220.9 173.3 236.36 155.17 250.01 139.28 M 206.05 189.84 C 214.08 179.79 225.56 167.83 250.01 139.28 M 211.69 189.45 C 224.08 175.98 233.43 156.08 250.4 144.92 M 211.69 189.45 C 225.86 175.25 239.81 160.76 250.4 144.92 M 217.34 189.05 C 225.61 173.38 236.01 163.44 250.14 151.32 M 217.34 189.05 C 227.79 179.73 232.85 167.93 250.14 151.32 M 222.98 188.66 C 230.84 181.46 237.13 174.49 249.88 157.71 M 222.98 188.66 C 229.25 182.65 238.25 171.99 249.88 157.71 M 229.28 187.51 C 233.67 180.54 237.37 180.64 249.62 164.11 M 229.28 187.51 C 235.26 182.09 238.67 176.25 249.62 164.11 M 236.89 184.85 C 236.5 184.1 245.6 177.71 250.01 169.76 M 236.89 184.85 C 239.67 182.35 243.4 174.46 250.01 169.76 M 245.81 180.68 C 246.55 180.84 247.42 178.34 249.75 176.15 M 245.81 180.68 C 247.37 178.79 248.75 177.81 249.75 176.15" fill="none" stroke="#60a917" stroke-width="0.5" stroke-linejoin="round" stroke-linecap="round" stroke-miterlimit="10" pointer-events="all" style="stroke: rgb(96, 169, 23);"/><path d="M 131 77 C 130.56 57.97 251.42 55.25 251 77 M 131 77 C 127.62 51.8 251.53 55.14 251 77 M 251 77 C 250.54 110.36 249.68 148.81 251 175 M 251 77 C 249.19 112.45 249.66 150.37 251 175 M 251 175 C 248.73 194.23 128.84 197.54 131 175 M 251 175 C 252.82 192.53 126.99 197.71 131 175 M 131 175 C 130.59 150.69 125.65 131.4 131 77 M 131 175 C 131.3 142.68 132.46 111.04 131 77" fill="none" stroke="#2d7600" stroke-linejoin="round" stroke-linecap="round" stroke-miterlimit="10" pointer-events="all" style="stroke: rgb(45, 118, 0);"/><path d="M 131 77 C 130.56 95.3 251.42 92.58 251 77 M 131 77 C 127.62 89.13 251.53 92.47 251 77 M 131 77 C 133.77 96.15 247.4 91 251 77 M 131 77 C 127.75 89.7 250.35 96.48 251 77 M 131 77 C 130.18 95.44 248.18 90.27 251 77 M 131 77 C 128.85 92.39 248.39 90.59 251 77" fill="none" stroke="#2d7600" stroke-linejoin="round" stroke-linecap="round" stroke-miterlimit="10" pointer-events="all" style="stroke: rgb(45, 118, 0);"/></g></g><g data-cell-id="82fFCfV9gluU0MP9ZeDP-4"><g><path d="M 261 109 C 261 117 316.38 117 316.38 109" fill="none" stroke="none" pointer-events="all"/><path d="M 261 113 C 261 121 316.38 121 316.38 113" fill="none" stroke="none" pointer-events="all"/><path d="M 261 117 C 261 125 316.38 125 316.38 117" fill="none" stroke="none" pointer-events="all"/><path d="M 261 109 C 261 98.33 316.38 98.33 316.38 109 L 316.38 153 C 316.38 163.67 261 163.67 261 153 Z" fill="none" stroke="none" pointer-events="all"/><path d="M 261.02 108.97 C 261.02 108.97 261.02 108.97 261.02 108.97 M 261.02 108.97 C 261.02 108.97 261.02 108.97 261.02 108.97 M 260.76 115.37 C 263.51 112.05 265.42 112.17 271.26 103.29 M 260.76 115.37 C 265.89 109.72 269.61 105.14 271.26 103.29 M 261.16 121.01 C 267.89 116.17 276.63 106.18 277.56 102.14 M 261.16 121.01 C 265.66 115.86 272.33 110.3 277.56 102.14 M 260.9 127.41 C 265.43 114.99 276.73 108.62 283.2 101.75 M 260.9 127.41 C 269.65 118.63 277.79 107.16 283.2 101.75 M 261.29 133.05 C 267.63 125.53 278.26 114.19 288.19 102.11 M 261.29 133.05 C 267.34 123.9 274.51 117.06 288.19 102.11 M 261.03 139.45 C 274.8 124.53 281.44 114.24 293.83 101.72 M 261.03 139.45 C 273.69 128.15 284.31 116.12 293.83 101.72 M 260.77 145.85 C 274.29 127.56 288.14 112.71 298.82 102.08 M 260.77 145.85 C 268.19 137.61 277.08 127.24 298.82 102.08 M 261.16 151.49 C 275.45 137.28 293.87 116.63 303.15 103.19 M 261.16 151.49 C 272.92 141.1 283.7 124.46 303.15 103.19 M 262.87 155.63 C 280.66 138.75 294.76 120.12 307.48 104.31 M 262.87 155.63 C 275.16 141.35 285.23 131.73 307.48 104.31 M 266.54 157.5 C 284.85 139.66 297.63 125.63 311.81 105.42 M 266.54 157.5 C 284 137.49 300.03 121.27 311.81 105.42 M 271.53 157.86 C 278.82 147.43 286.92 142.12 315.49 107.29 M 271.53 157.86 C 285.4 143.23 301.44 127.18 315.49 107.29 M 275.86 158.97 C 284.65 144.18 296.86 136.16 316.54 112.18 M 275.86 158.97 C 286.33 147.26 299.62 133.42 316.54 112.18 M 280.85 159.33 C 293.83 149.89 300.48 134.34 316.28 118.58 M 280.85 159.33 C 294.85 144.67 306.28 128.61 316.28 118.58 M 285.18 160.44 C 295.7 152.98 303.07 139.95 316.02 124.97 M 285.18 160.44 C 297.47 149.01 307.44 135.4 316.02 124.97 M 289.51 161.56 C 298.67 154.54 305.04 139.85 316.41 130.62 M 289.51 161.56 C 298.12 155.01 302.27 146.91 316.41 130.62 M 295.15 161.17 C 301.12 156.19 311.88 143.85 316.15 137.01 M 295.15 161.17 C 298.58 156.55 304.67 152.06 316.15 137.01 M 300.8 160.77 C 304.35 156.16 316.24 145.07 315.89 143.41 M 300.8 160.77 C 306.77 154.67 310.22 149.61 315.89 143.41 M 307.1 159.62 C 310.09 158.72 314.19 153.06 316.28 149.06 M 307.1 159.62 C 310.33 157.42 312.61 151.44 316.28 149.06" fill="none" stroke="#1ba1e2" stroke-width="0.5" stroke-linejoin="round" stroke-linecap="round" stroke-miterlimit="10" pointer-events="all" style="stroke: rgb(27, 161, 226);"/><path d="M 261 109 C 260.56 101.31 313.61 95.63 316.38 109 M 261 109 C 264.43 98.33 314.99 101.11 316.38 109 M 316.38 109 C 314.69 126.1 318.7 143.52 316.38 153 M 316.38 109 C 316.47 123.42 315.61 134.83 316.38 153 M 316.38 153 C 314.81 163.73 263.75 163.95 261 153 M 316.38 153 C 318.78 167 264.42 164.57 261 153 M 261 153 C 256.66 138.24 258.62 131.18 261 109 M 261 153 C 262.67 139.24 262.11 124.74 261 109" fill="none" stroke="#006eaf" stroke-linejoin="round" stroke-linecap="round" stroke-miterlimit="10" pointer-events="all" style="stroke: rgb(0, 110, 175);"/><path d="M 261 109 C 260.56 119.98 313.61 114.3 316.38 109 M 261 109 C 264.43 117 314.99 119.78 316.38 109 M 261 109 C 264.31 114.56 317.57 115.85 316.38 109 M 261 109 C 261.3 120.29 317.34 117.1 316.38 109 M 261 109 C 257.93 118.69 317.91 119.24 316.38 109 M 261 109 C 260.79 115.25 314.58 117.06 316.38 109" fill="none" stroke="#006eaf" stroke-linejoin="round" stroke-linecap="round" stroke-miterlimit="10" pointer-events="all" style="stroke: rgb(0, 110, 175);"/></g></g></g></g></g></svg>