<?xml version="1.0" encoding="UTF-8"?>
<!DOCTYPE svg PUBLIC "-//W3C//DTD SVG 1.1//EN" "http://www.w3.org/Graphics/SVG/1.1/DTD/svg11.dtd">
<svg xmlns="http://www.w3.org/2000/svg" style="background: transparent; background-color: transparent; color-scheme: light dark;" xmlns:xlink="http://www.w3.org/1999/xlink" version="1.1" width="426px" height="359px" viewBox="-0.5 -0.5 426 359"><defs/><g><g data-cell-id="0"><g data-cell-id="1"><g data-cell-id="wA9FqI98lm-z4scQnuff-53"/><g data-cell-id="wA9FqI98lm-z4scQnuff-2"/><g data-cell-id="wA9FqI98lm-z4scQnuff-4"/><g data-cell-id="wA9FqI98lm-z4scQnuff-5"/><g data-cell-id="wA9FqI98lm-z4scQnuff-7"/><g data-cell-id="wA9FqI98lm-z4scQnuff-9"/><g data-cell-id="wA9FqI98lm-z4scQnuff-11"/><g data-cell-id="wA9FqI98lm-z4scQnuff-12"/><g data-cell-id="wA9FqI98lm-z4scQnuff-13"/><g data-cell-id="wA9FqI98lm-z4scQnuff-17"/><g data-cell-id="wA9FqI98lm-z4scQnuff-18"/><g data-cell-id="wA9FqI98lm-z4scQnuff-19"/><g data-cell-id="wA9FqI98lm-z4scQnuff-16"/><g data-cell-id="wA9FqI98lm-z4scQnuff-20"/><g data-cell-id="wA9FqI98lm-z4scQnuff-21"/><g data-cell-id="wA9FqI98lm-z4scQnuff-22"/><g data-cell-id="wA9FqI98lm-z4scQnuff-24"/><g data-cell-id="wA9FqI98lm-z4scQnuff-25"/><g data-cell-id="wA9FqI98lm-z4scQnuff-26"/><g data-cell-id="wA9FqI98lm-z4scQnuff-32"/><g data-cell-id="wA9FqI98lm-z4scQnuff-42"/><g data-cell-id="wA9FqI98lm-z4scQnuff-43"/><g data-cell-id="wA9FqI98lm-z4scQnuff-44"/><g data-cell-id="wA9FqI98lm-z4scQnuff-45"/><g data-cell-id="wA9FqI98lm-z4scQnuff-46"/><g data-cell-id="wA9FqI98lm-z4scQnuff-47"/><g data-cell-id="wA9FqI98lm-z4scQnuff-48"/><g data-cell-id="wA9FqI98lm-z4scQnuff-49"/><g data-cell-id="wA9FqI98lm-z4scQnuff-50"/><g data-cell-id="wA9FqI98lm-z4scQnuff-54"/><g data-cell-id="wA9FqI98lm-z4scQnuff-55"/><g data-cell-id="wA9FqI98lm-z4scQnuff-40"/><g data-cell-id="wA9FqI98lm-z4scQnuff-57"/><g data-cell-id="wA9FqI98lm-z4scQnuff-58"/><g data-cell-id="wA9FqI98lm-z4scQnuff-6"/><g data-cell-id="wA9FqI98lm-z4scQnuff-63"/><g data-cell-id="wA9FqI98lm-z4scQnuff-64"/><g data-cell-id="wA9FqI98lm-z4scQnuff-65"/><g data-cell-id="wA9FqI98lm-z4scQnuff-66"/><g data-cell-id="wA9FqI98lm-z4scQnuff-23"/><g data-cell-id="wA9FqI98lm-z4scQnuff-27"/><g data-cell-id="wA9FqI98lm-z4scQnuff-51"/><g data-cell-id="wA9FqI98lm-z4scQnuff-67"><g><rect x="75" y="256" width="110" height="40" fill="none" stroke="none" pointer-events="all"/><path d="M 75.26 255.7 C 75.26 255.7 75.26 255.7 75.26 255.7 M 75.26 255.7 C 75.26 255.7 75.26 255.7 75.26 255.7 M 75 262.1 C 76.49 261.21 78.73 259.97 80.25 256.06 M 75 262.1 C 75.71 259.69 78.49 258.29 80.25 256.06 M 74.74 268.5 C 78.69 266.37 85 259.97 85.89 255.67 M 74.74 268.5 C 78.83 264.76 81.86 259.07 85.89 255.67 M 75.13 274.14 C 79.85 272.73 79.56 263.85 90.88 256.03 M 75.13 274.14 C 78.79 268.97 85.95 265.33 90.88 256.03 M 74.87 280.54 C 82.34 273.84 83.5 267.12 96.52 255.63 M 74.87 280.54 C 81.28 273.66 87.77 265.71 96.52 255.63 M 75.26 286.18 C 81.15 279.76 87.34 274.97 101.51 255.99 M 75.26 286.18 C 86.25 275.14 96.29 265.53 101.51 255.99 M 75 292.58 C 82.37 288.26 92.09 273.21 106.49 256.35 M 75 292.58 C 80.36 286.52 88.89 278.18 106.49 256.35 M 76.05 297.47 C 83.72 286.92 92.46 278.61 112.14 255.96 M 76.05 297.47 C 85.6 285.8 96.19 271.46 112.14 255.96 M 81.7 297.07 C 90.22 286.77 96.09 279.71 117.12 256.32 M 81.7 297.07 C 87.98 287.46 95.97 277.86 117.12 256.32 M 86.68 297.43 C 97.89 282.28 110.65 272.37 122.77 255.92 M 86.68 297.43 C 99.33 286.35 109.84 271.09 122.77 255.92 M 92.33 297.04 C 101.26 289.72 110.86 277.66 127.75 256.29 M 92.33 297.04 C 100.59 286.98 106.64 279.28 127.75 256.29 M 97.31 297.4 C 104.24 285.51 112.87 276.61 133.4 255.89 M 97.31 297.4 C 113.83 281.2 125.2 263.46 133.4 255.89 M 102.96 297 C 118.25 284.21 133.86 265.45 138.38 256.25 M 102.96 297 C 116.99 280.74 127.14 270.17 138.38 256.25 M 107.94 297.36 C 119.67 284.18 128.68 271.45 144.03 255.86 M 107.94 297.36 C 116.22 286.6 126.77 277.85 144.03 255.86 M 113.59 296.97 C 123.24 283.54 138.4 273.08 149.01 256.22 M 113.59 296.97 C 124.16 283.34 133.85 270.38 149.01 256.22 M 118.57 297.33 C 129.79 290.62 140.14 280.74 154.66 255.82 M 118.57 297.33 C 130.85 283.5 143.43 268.9 154.66 255.82 M 124.22 296.94 C 136.4 286.48 149.23 267.83 159.64 256.18 M 124.22 296.94 C 134.17 287.34 142.02 277.16 159.64 256.18 M 129.2 297.3 C 139.81 282.9 148.39 267.35 165.29 255.79 M 129.2 297.3 C 135.51 290 143.31 279.62 165.29 255.79 M 134.85 296.9 C 144.41 281.53 155.06 267.14 170.27 256.15 M 134.85 296.9 C 149.34 280.72 161.18 266.94 170.27 256.15 M 139.83 297.26 C 151 282.71 166.42 264.71 175.92 255.75 M 139.83 297.26 C 154.1 280.95 166.96 266.07 175.92 255.75 M 145.48 296.87 C 157.91 282.99 175.7 266.35 180.9 256.11 M 145.48 296.87 C 160.76 283.34 172.01 264.24 180.9 256.11 M 150.46 297.23 C 160.72 285.16 172.96 278.08 185.89 256.47 M 150.46 297.23 C 159.21 285.98 170.03 274.81 185.89 256.47 M 156.11 296.83 C 165.47 281.15 179.24 275.56 185.63 262.87 M 156.11 296.83 C 162.53 286.9 171.71 278.81 185.63 262.87 M 161.09 297.19 C 168.95 287.42 174.88 278.93 186.02 268.51 M 161.09 297.19 C 166.26 291.12 175.22 283.61 186.02 268.51 M 166.74 296.8 C 172.77 291.57 176.97 278.86 185.76 274.91 M 166.74 296.8 C 173.13 291.79 177.84 283.24 185.76 274.91 M 171.72 297.16 C 174.55 294.09 177.74 287.88 185.5 281.31 M 171.72 297.16 C 174.01 292.4 178.48 292.29 185.5 281.31 M 176.71 297.52 C 178.65 296.28 181.6 291.43 185.9 286.95 M 176.71 297.52 C 177.37 296.45 181.25 291.73 185.9 286.95 M 182.35 297.12 C 184.38 296.41 184.69 294.55 185.63 293.35 M 182.35 297.12 C 184.05 296.25 185.27 294.08 185.63 293.35" fill="none" stroke="#fad9d5" stroke-width="0.5" stroke-linejoin="round" stroke-linecap="round" stroke-miterlimit="10" pointer-events="all" style="stroke: rgb(250, 217, 213);"/><path d="M 75 256 C 113.91 251.16 150.32 257.85 185 256 M 75 256 C 101.5 252.54 124.97 256.27 185 256 M 185 256 C 182.38 263.18 182.76 276.64 185 296 M 185 256 C 184.59 266.73 187.09 274.06 185 296 M 185 296 C 147.64 293.06 115.9 299.93 75 296 M 185 296 C 146.29 296.5 111.89 296.56 75 296 M 75 296 C 74.07 289.57 70.89 280.27 75 256 M 75 296 C 74.9 281.31 77.13 268.45 75 256" fill="none" stroke="#ae4132" stroke-linejoin="round" stroke-linecap="round" stroke-miterlimit="10" pointer-events="all" style="stroke: rgb(174, 65, 50);"/></g></g><g data-cell-id="wA9FqI98lm-z4scQnuff-71"><g><rect x="195" y="256" width="110" height="40" fill="none" stroke="none" pointer-events="all"/><path d="M 194.78 256.25 C 194.78 256.25 194.78 256.25 194.78 256.25 M 194.78 256.25 C 194.78 256.25 194.78 256.25 194.78 256.25 M 195.18 261.89 C 195.89 261.27 199.6 257.24 200.42 255.86 M 195.18 261.89 C 196.03 260.7 197.97 258 200.42 255.86 M 194.91 268.29 C 195.93 264.61 205.82 257.57 205.41 256.22 M 194.91 268.29 C 199.46 264.68 202.19 258.39 205.41 256.22 M 195.31 273.94 C 202.28 264.49 205.33 259.42 211.05 255.82 M 195.31 273.94 C 199.63 269.67 200.96 266.58 211.05 255.82 M 195.05 280.33 C 198.64 273.92 211.26 263.18 216.04 256.18 M 195.05 280.33 C 200.66 273.75 206.01 269.02 216.04 256.18 M 194.79 286.73 C 203.93 275.04 208.8 268.59 221.68 255.79 M 194.79 286.73 C 204.71 277.91 213.02 265.74 221.68 255.79 M 195.18 292.37 C 206.01 279.71 210.37 274.98 226.67 256.15 M 195.18 292.37 C 206 282.02 217.43 267.42 226.67 256.15 M 196.89 296.51 C 206.01 281.13 214.77 276.36 232.31 255.75 M 196.89 296.51 C 204.51 286.22 214.49 276.25 232.31 255.75 M 201.87 296.87 C 212.28 282.6 223.03 271.02 237.3 256.11 M 201.87 296.87 C 211.52 284.62 223.25 273.22 237.3 256.11 M 207.52 296.47 C 218.44 280.13 232.57 266.75 242.94 255.72 M 207.52 296.47 C 221.71 283.28 233.52 266.72 242.94 255.72 M 212.5 296.83 C 221.46 278.74 237.92 266.77 247.93 256.08 M 212.5 296.83 C 222.21 287.65 230.17 276.85 247.93 256.08 M 218.15 296.44 C 228.79 287.73 231.46 279.09 253.57 255.68 M 218.15 296.44 C 227.01 286.03 236.97 273.59 253.57 255.68 M 223.13 296.8 C 233.87 289.1 241.77 275.92 258.56 256.04 M 223.13 296.8 C 233.8 283.64 241.77 272.46 258.56 256.04 M 228.78 296.4 C 238.05 288.31 249.71 276.47 264.2 255.65 M 228.78 296.4 C 240.64 281.71 252.45 269.76 264.2 255.65 M 233.76 296.76 C 239.86 291.46 252.87 282.57 269.19 256.01 M 233.76 296.76 C 244.21 283.4 256.71 269.56 269.19 256.01 M 239.41 296.37 C 251.65 276.67 268.43 265.82 274.18 256.37 M 239.41 296.37 C 253.33 281.18 264.49 267.76 274.18 256.37 M 244.39 296.73 C 252.86 286.09 268.06 273.97 279.82 255.98 M 244.39 296.73 C 256.21 282.38 269.9 269.47 279.82 255.98 M 250.04 296.34 C 266.75 278.81 277.16 269.11 284.81 256.34 M 250.04 296.34 C 262.26 285.19 272.6 272.39 284.81 256.34 M 255.02 296.7 C 261.74 284.71 272.88 277.74 290.45 255.94 M 255.02 296.7 C 261.66 289.32 271.47 278.42 290.45 255.94 M 260.67 296.3 C 275.65 278.71 288.86 267.5 295.44 256.3 M 260.67 296.3 C 273.46 280.93 288.23 267.12 295.44 256.3 M 265.66 296.66 C 277.35 286.27 283.56 272.93 301.08 255.91 M 265.66 296.66 C 276.31 286.44 289.08 271.02 301.08 255.91 M 271.3 296.27 C 284.89 280.7 299.73 263.21 305.41 257.02 M 271.3 296.27 C 283.29 283.79 292.08 270.95 305.41 257.02 M 276.29 296.63 C 288.73 283.52 297.91 271.46 305.81 262.66 M 276.29 296.63 C 287.35 285.16 295.96 277.05 305.81 262.66 M 281.93 296.23 C 291.37 286.49 300.8 283.31 305.55 269.06 M 281.93 296.23 C 290.82 287.8 297.92 276.68 305.55 269.06 M 286.92 296.59 C 288.37 293.51 292.38 285.93 305.94 274.71 M 286.92 296.59 C 293.29 286.7 300.42 281.7 305.94 274.71 M 292.56 296.2 C 297.31 295.42 302.05 289.35 305.68 281.1 M 292.56 296.2 C 294.07 292.31 300.49 290.22 305.68 281.1 M 297.55 296.56 C 301.22 292.69 300.45 293.74 305.42 287.5 M 297.55 296.56 C 299.6 292.69 303.48 291.73 305.42 287.5 M 303.19 296.16 C 303.48 295.77 305.43 294.03 305.81 293.14 M 303.19 296.16 C 304.13 294.75 305.23 294.03 305.81 293.14" fill="none" stroke="#fad9d5" stroke-width="0.5" stroke-linejoin="round" stroke-linecap="round" stroke-miterlimit="10" pointer-events="all" style="stroke: rgb(250, 217, 213);"/><path d="M 195 256 C 232.79 255.21 266.35 255.86 305 256 M 195 256 C 221.29 257.24 247.53 257.88 305 256 M 305 256 C 307.45 270.95 306.85 276.87 305 296 M 305 256 C 304.69 262.43 304.05 274.09 305 296 M 305 296 C 265.01 294.67 231.98 296.48 195 296 M 305 296 C 265.89 297.34 228.17 297.77 195 296 M 195 296 C 192.34 283.81 191.69 264.22 195 256 M 195 296 C 194.02 281.7 196.57 269.36 195 256" fill="none" stroke="#ae4132" stroke-linejoin="round" stroke-linecap="round" stroke-miterlimit="10" pointer-events="all" style="stroke: rgb(174, 65, 50);"/></g></g><g data-cell-id="wA9FqI98lm-z4scQnuff-72"><g><rect x="315" y="256" width="110" height="40" fill="none" stroke="none" pointer-events="all"/><path d="M 314.96 256.05 C 314.96 256.05 314.96 256.05 314.96 256.05 M 314.96 256.05 C 314.96 256.05 314.96 256.05 314.96 256.05 M 314.7 262.44 C 317.21 260.64 319.92 256.97 320.6 255.65 M 314.7 262.44 C 315.66 259.62 317.92 259.09 320.6 255.65 M 315.09 268.09 C 314.89 262.58 320.61 261.65 325.59 256.01 M 315.09 268.09 C 318.32 266.04 322.3 260.38 325.59 256.01 M 314.83 274.48 C 322.67 270.64 323 261.41 330.58 256.37 M 314.83 274.48 C 320.64 268.38 320.77 266.99 330.58 256.37 M 315.23 280.13 C 320.76 276.61 329.13 271.67 336.22 255.98 M 315.23 280.13 C 322.23 270.02 330.59 259.12 336.22 255.98 M 314.97 286.53 C 327.05 278.46 328.98 270.13 341.21 256.34 M 314.97 286.53 C 325.04 275.19 333.19 263 341.21 256.34 M 314.7 292.92 C 320.61 285.65 327.21 279.39 346.85 255.94 M 314.7 292.92 C 324.75 284.71 331.83 273.81 346.85 255.94 M 317.07 296.3 C 325.69 283.35 339.67 270.59 351.84 256.3 M 317.07 296.3 C 324.51 289.87 332.52 281.87 351.84 256.3 M 322.05 296.66 C 325.31 290.8 331.8 276.58 357.48 255.91 M 322.05 296.66 C 333.57 280.56 348.04 268.72 357.48 255.91 M 327.7 296.27 C 338.73 283.54 351.35 264.87 362.47 256.27 M 327.7 296.27 C 338.78 283.25 353.3 267.38 362.47 256.27 M 332.68 296.63 C 341.5 285.41 353.42 279.95 368.11 255.87 M 332.68 296.63 C 340.6 286.29 351.65 276.46 368.11 255.87 M 338.33 296.23 C 347.91 283.94 358.14 272.57 373.1 256.23 M 338.33 296.23 C 344.89 287.61 354.52 278.77 373.1 256.23 M 343.31 296.59 C 349.43 282.27 364.95 273.14 378.74 255.84 M 343.31 296.59 C 352.61 284.83 366.06 271.71 378.74 255.84 M 348.96 296.2 C 357.02 288.34 369.23 271.91 383.73 256.2 M 348.96 296.2 C 358.46 284.8 369.36 272.01 383.73 256.2 M 353.94 296.56 C 360.89 286.19 372.07 279.26 389.37 255.8 M 353.94 296.56 C 363.66 283.2 377.84 271.88 389.37 255.8 M 359.59 296.16 C 367.71 287.98 381.87 277.08 394.36 256.16 M 359.59 296.16 C 366.75 287.52 375.49 277.32 394.36 256.16 M 364.57 296.52 C 378.08 281.46 390.56 271.17 400 255.77 M 364.57 296.52 C 370.9 287.08 383.04 278.47 400 255.77 M 370.22 296.13 C 379.7 284.77 396.2 269.53 404.99 256.13 M 370.22 296.13 C 376.62 288.22 384.17 280.11 404.99 256.13 M 375.2 296.49 C 387.47 281.21 400.25 265.48 410.63 255.74 M 375.2 296.49 C 385.52 283.06 396.77 271.09 410.63 255.74 M 380.19 296.85 C 391.17 285.95 402.31 268.33 415.62 256.1 M 380.19 296.85 C 387.78 289.37 397.32 279.08 415.62 256.1 M 385.83 296.45 C 394.85 279.41 411.96 269.97 421.26 255.7 M 385.83 296.45 C 392.39 286.31 400.94 275.74 421.26 255.7 M 390.82 296.82 C 406.93 280.37 414.75 263.76 425.59 256.82 M 390.82 296.82 C 401.35 286.41 413.76 274.05 425.59 256.82 M 396.46 296.42 C 405.61 289.49 413.69 280.11 425.99 262.46 M 396.46 296.42 C 402.67 290.18 410.58 283.13 425.99 262.46 M 401.45 296.78 C 405.91 291.49 414.52 282.41 425.73 268.86 M 401.45 296.78 C 406.29 290.16 415.76 282.02 425.73 268.86 M 407.09 296.39 C 415.11 291.13 418.03 283.99 425.46 275.25 M 407.09 296.39 C 414.41 289.14 418.07 283.62 425.46 275.25 M 412.08 296.75 C 417.51 290.1 419.29 291.78 425.86 280.9 M 412.08 296.75 C 415.8 293.63 418.36 287.28 425.86 280.9 M 417.72 296.35 C 419.96 293.67 423.39 292.21 425.6 287.29 M 417.72 296.35 C 420.33 293.43 421.39 292.84 425.6 287.29 M 422.71 296.71 C 424.19 295.89 423.97 293.95 425.99 292.94 M 422.71 296.71 C 423.43 295.89 424.51 295.52 425.99 292.94" fill="none" stroke="#fad9d5" stroke-width="0.5" stroke-linejoin="round" stroke-linecap="round" stroke-miterlimit="10" pointer-events="all" style="stroke: rgb(250, 217, 213);"/><path d="M 315 256 C 350.5 254.89 389.72 255.94 425 256 M 315 256 C 347.61 256.34 380.91 255.42 425 256 M 425 256 C 427.71 268.7 424.84 281.36 425 296 M 425 256 C 423.29 272.97 424.45 287.21 425 296 M 425 296 C 388.02 292.92 355.18 297.74 315 296 M 425 296 C 379.88 298.06 335.7 296.26 315 296 M 315 296 C 317.9 286.14 318.31 272.54 315 256 M 315 296 C 314.56 283.48 313.45 272.76 315 256" fill="none" stroke="#ae4132" stroke-linejoin="round" stroke-linecap="round" stroke-miterlimit="10" pointer-events="all" style="stroke: rgb(174, 65, 50);"/></g></g><g data-cell-id="wA9FqI98lm-z4scQnuff-73"><g><rect x="135" y="206" width="110" height="40" fill="none" stroke="none" pointer-events="all"/><path d="M 135.19 205.78 C 135.19 205.78 135.19 205.78 135.19 205.78 M 135.19 205.78 C 135.19 205.78 135.19 205.78 135.19 205.78 M 134.93 212.18 C 135.48 209.8 136.59 210.51 140.18 206.14 M 134.93 212.18 C 135.54 210.16 137.63 208.73 140.18 206.14 M 135.33 217.82 C 136 214.46 139.66 210.84 145.82 205.74 M 135.33 217.82 C 137.24 213.71 139.26 211.89 145.82 205.74 M 135.07 224.22 C 135.77 217.98 141.37 212.59 150.81 206.1 M 135.07 224.22 C 138.36 220.27 145.28 212.57 150.81 206.1 M 134.8 230.61 C 145.74 224.91 146.28 212.66 156.45 205.71 M 134.8 230.61 C 142.28 221.53 149.68 213.01 156.45 205.71 M 135.2 236.26 C 142.42 224.63 149.63 214.16 161.44 206.07 M 135.2 236.26 C 140.4 228.2 147.37 221.79 161.44 206.07 M 134.94 242.65 C 148.7 232.28 155.82 217.29 167.08 205.67 M 134.94 242.65 C 146.41 229.44 159.35 219.08 167.08 205.67 M 136.64 246.79 C 146.13 235.87 150.68 230.77 172.07 206.03 M 136.64 246.79 C 147.26 231.77 160.65 217.27 172.07 206.03 M 142.29 246.39 C 155.12 232.78 164.42 223.78 177.71 205.64 M 142.29 246.39 C 150.96 238.59 157.09 226.46 177.71 205.64 M 147.27 246.75 C 158.86 237.12 170.43 220.65 182.7 206 M 147.27 246.75 C 159.73 233.37 173.42 217.65 182.7 206 M 152.92 246.36 C 160.47 234.11 174.73 219.23 187.69 206.36 M 152.92 246.36 C 162.84 233.68 172.79 221.05 187.69 206.36 M 157.9 246.72 C 169.38 238.47 180.54 224.03 193.33 205.97 M 157.9 246.72 C 169.53 235.41 182.18 221.72 193.33 205.97 M 163.55 246.32 C 174.47 235.02 181.4 222.17 198.32 206.33 M 163.55 246.32 C 173.64 236.18 184.37 221.33 198.32 206.33 M 168.53 246.68 C 175.75 238.67 188.84 225.27 203.96 205.93 M 168.53 246.68 C 176.05 238.15 182.39 228.12 203.96 205.93 M 174.18 246.29 C 183.41 237.67 192.57 224.91 208.95 206.29 M 174.18 246.29 C 185.33 231.77 196.97 219.21 208.95 206.29 M 179.16 246.65 C 191.98 232.32 202.71 213.09 214.59 205.9 M 179.16 246.65 C 189.1 236.33 198.57 225.14 214.59 205.9 M 184.81 246.26 C 194.52 235.08 197.05 226.9 219.58 206.26 M 184.81 246.26 C 196.54 233.79 206.02 221.58 219.58 206.26 M 189.79 246.62 C 200.23 231.83 207.02 226.83 225.22 205.86 M 189.79 246.62 C 201.55 233.68 213.49 218.01 225.22 205.86 M 195.44 246.22 C 204.36 235.99 211.51 227.86 230.21 206.22 M 195.44 246.22 C 207.55 232.45 223.99 215.7 230.21 206.22 M 200.42 246.58 C 213.52 234.68 222.32 226.96 235.85 205.83 M 200.42 246.58 C 212.02 235.12 219.17 224.49 235.85 205.83 M 206.07 246.19 C 213.15 237.43 225.9 224.22 240.84 206.19 M 206.07 246.19 C 217.02 233.64 228.22 220.03 240.84 206.19 M 211.05 246.55 C 222.49 237.49 224.08 230.05 245.83 206.55 M 211.05 246.55 C 223.92 233.05 235.74 221.41 245.83 206.55 M 216.7 246.15 C 228.23 232.02 232.9 226.78 245.56 212.95 M 216.7 246.15 C 227.71 234.59 236.61 222.07 245.56 212.95 M 221.68 246.51 C 226.92 240.32 239.36 227.99 245.96 218.59 M 221.68 246.51 C 226.24 242.95 229.83 234.06 245.96 218.59 M 226.67 246.87 C 234.52 239.72 244.74 232.54 245.7 224.99 M 226.67 246.87 C 232.23 237.75 240.87 231.18 245.7 224.99 M 232.31 246.48 C 238.07 242.92 236.54 236.76 245.44 231.38 M 232.31 246.48 C 238.49 240.56 240.85 238.37 245.44 231.38 M 237.3 246.84 C 241.65 246.84 243.03 244.5 245.83 237.03 M 237.3 246.84 C 239.83 242.41 242.24 240.21 245.83 237.03 M 242.94 246.44 C 243.94 245.03 245.36 244.66 245.57 243.42 M 242.94 246.44 C 243.56 245.93 244.71 244.66 245.57 243.42" fill="none" stroke="#fad9d5" stroke-width="0.5" stroke-linejoin="round" stroke-linecap="round" stroke-miterlimit="10" pointer-events="all" style="stroke: rgb(250, 217, 213);"/><path d="M 135 206 C 168.22 204.57 205.08 206.02 245 206 M 135 206 C 177.92 205.44 218.29 202.95 245 206 M 245 206 C 246.38 224.45 241.23 235.85 245 246 M 245 206 C 245.89 221.52 244.84 234.33 245 246 M 245 246 C 219.04 245.58 186.38 245.39 135 246 M 245 246 C 219.86 248.78 191.23 248.76 135 246 M 135 246 C 133.86 238.47 135.34 222.86 135 206 M 135 246 C 136.7 235.26 135.92 226.16 135 206" fill="none" stroke="#ae4132" stroke-linejoin="round" stroke-linecap="round" stroke-miterlimit="10" pointer-events="all" style="stroke: rgb(174, 65, 50);"/></g></g><g data-cell-id="wA9FqI98lm-z4scQnuff-74"><g><rect x="251.63" y="206" width="110" height="40" fill="none" stroke="none" pointer-events="all"/><path d="M 251.48 206.17 C 251.48 206.17 251.48 206.17 251.48 206.17 M 251.48 206.17 C 251.48 206.17 251.48 206.17 251.48 206.17 M 251.88 211.81 C 253.95 211.65 253.75 209.93 257.13 205.77 M 251.88 211.81 C 252.25 210.08 254.41 209.28 257.13 205.77 M 251.62 218.21 C 253.17 217.01 254.77 210.69 262.11 206.13 M 251.62 218.21 C 254.31 213.24 259.68 209.66 262.11 206.13 M 251.36 224.61 C 257.05 220.08 263.31 214.64 267.76 205.74 M 251.36 224.61 C 256.35 217.94 262.28 211.7 267.76 205.74 M 251.75 230.25 C 256.42 227.71 260.47 221.53 272.74 206.1 M 251.75 230.25 C 259.22 223.6 265.19 214 272.74 206.1 M 251.49 236.65 C 262.07 228.17 266.75 215.35 278.39 205.7 M 251.49 236.65 C 257.24 229.63 264.44 218.76 278.39 205.7 M 251.88 242.29 C 260.35 229.71 269.35 221.63 283.38 206.06 M 251.88 242.29 C 262.17 234.38 266.39 224.15 283.38 206.06 M 253.59 246.42 C 264.43 237.66 274.42 224.32 289.02 205.67 M 253.59 246.42 C 265.8 235.11 273.34 222.42 289.02 205.67 M 258.58 246.78 C 271.36 234.83 283.48 223.05 294.01 206.03 M 258.58 246.78 C 269.13 235.13 277.99 222.55 294.01 206.03 M 264.22 246.39 C 274.51 240.11 284.8 226.09 299.65 205.63 M 264.22 246.39 C 276.17 232.91 288.81 217.61 299.65 205.63 M 269.21 246.75 C 282.29 233 291.3 216.24 304.64 205.99 M 269.21 246.75 C 281.54 231.26 294.78 219.36 304.64 205.99 M 274.85 246.35 C 278.25 235.97 289.97 226.85 309.62 206.35 M 274.85 246.35 C 282.52 236.84 290.81 226.81 309.62 206.35 M 279.84 246.71 C 294.35 236.56 301.11 219.53 315.27 205.96 M 279.84 246.71 C 291.14 233.75 299.54 220.72 315.27 205.96 M 285.48 246.32 C 291.49 238.54 305.13 228.56 320.25 206.32 M 285.48 246.32 C 297.68 234.38 310.15 219.41 320.25 206.32 M 290.47 246.68 C 300.74 232.77 308.26 221.76 325.9 205.93 M 290.47 246.68 C 301.1 230.5 314.63 220.22 325.9 205.93 M 296.11 246.29 C 304.55 234.35 312.42 223.34 330.88 206.29 M 296.11 246.29 C 310.05 230.72 319.87 218.98 330.88 206.29 M 301.1 246.65 C 307.97 237.49 315.92 222.98 336.53 205.89 M 301.1 246.65 C 316.25 230.69 327.47 214.41 336.53 205.89 M 306.74 246.25 C 317.76 237.85 322.46 227.51 341.51 206.25 M 306.74 246.25 C 316.46 236.81 325.39 226.08 341.51 206.25 M 311.73 246.61 C 319.3 239.62 329.18 230.66 347.16 205.86 M 311.73 246.61 C 320.69 234.65 331.73 224.68 347.16 205.86 M 317.37 246.22 C 324.46 241.48 330.8 227.81 352.14 206.22 M 317.37 246.22 C 330.37 231.03 342.88 220.32 352.14 206.22 M 322.36 246.58 C 334.93 229.54 350.76 220.03 357.79 205.82 M 322.36 246.58 C 331.06 235.26 342.28 226.24 357.79 205.82 M 328 246.18 C 331.99 236.7 342.15 230.59 362.12 206.94 M 328 246.18 C 337.41 231.23 348.43 220.56 362.12 206.94 M 332.99 246.54 C 341.43 238.35 345.22 227.54 362.51 212.58 M 332.99 246.54 C 338.01 237.13 346.42 229.43 362.51 212.58 M 338.63 246.15 C 346.5 236.82 349.77 235.01 362.25 218.98 M 338.63 246.15 C 347.56 235.33 353.92 228.35 362.25 218.98 M 343.62 246.51 C 346.41 242.07 351.94 231.47 362.64 224.62 M 343.62 246.51 C 350.33 239.77 355.72 232.41 362.64 224.62 M 348.61 246.87 C 355.68 245.42 359.22 238.97 362.38 231.02 M 348.61 246.87 C 353.04 241.65 359.6 235.14 362.38 231.02 M 354.25 246.47 C 356.82 242.86 357.5 243 362.12 237.42 M 354.25 246.47 C 357.13 243.02 358.94 241.36 362.12 237.42 M 359.24 246.83 C 360.24 246.12 362.02 243.13 362.52 243.06 M 359.24 246.83 C 360.05 245.38 361.85 244.57 362.52 243.06" fill="none" stroke="#fad9d5" stroke-width="0.5" stroke-linejoin="round" stroke-linecap="round" stroke-miterlimit="10" pointer-events="all" style="stroke: rgb(250, 217, 213);"/><path d="M 251.63 206 C 290.56 207.85 325.07 201.7 361.63 206 M 251.63 206 C 278.86 204.94 308.3 204.89 361.63 206 M 361.63 206 C 363.28 214.2 363.85 224.34 361.63 246 M 361.63 206 C 361.11 220.07 361.86 231.46 361.63 246 M 361.63 246 C 338.68 248.24 314.21 243.05 251.63 246 M 361.63 246 C 330.48 245.5 299.39 247.25 251.63 246 M 251.63 246 C 248.06 232.8 250.59 215.18 251.63 206 M 251.63 246 C 249.87 229.03 249.42 213.55 251.63 206" fill="none" stroke="#ae4132" stroke-linejoin="round" stroke-linecap="round" stroke-miterlimit="10" pointer-events="all" style="stroke: rgb(174, 65, 50);"/></g></g><g data-cell-id="wA9FqI98lm-z4scQnuff-96"/><g data-cell-id="wA9FqI98lm-z4scQnuff-97"/><g data-cell-id="wA9FqI98lm-z4scQnuff-98"/><g data-cell-id="wA9FqI98lm-z4scQnuff-99"/><g data-cell-id="wA9FqI98lm-z4scQnuff-100"/><g data-cell-id="remplace"><g/><g data-cell-id="wA9FqI98lm-z4scQnuff-83"><g><path d="M 221.7 96 L 265 117.44 L 221.7 138.88 L 221.7 128.93 C 179.34 128.93 145 163.44 145 206 C 145 150.74 179.34 105.95 221.7 105.95 Z" fill="none" stroke="none" transform="rotate(75,205,151)" pointer-events="all"/><path d="M 167.39 135.34 C 167.39 135.34 167.39 135.34 167.39 135.34 M 167.39 135.34 C 167.39 135.34 167.39 135.34 167.39 135.34 M 157.29 153.06 C 165.07 142.76 179.27 125.72 189.43 116.08 M 157.29 153.06 C 167.75 139.26 177.3 127.98 189.43 116.08 M 152.43 164.74 C 157.86 151.36 168.57 137.83 198.36 111.91 M 152.43 164.74 C 163.74 150.97 173.76 136.99 198.36 111.91 M 150.2 173.4 C 152.84 170.72 155.12 166.3 158.08 164.34 M 150.2 173.4 C 151.67 172.57 154.44 169.24 158.08 164.34 M 169.23 151.51 C 177.33 142.23 189.38 125.86 206.63 108.49 M 169.23 151.51 C 181.22 138.2 191.77 125.73 206.63 108.49 M 147.97 182.06 C 149.32 179.86 151.22 178.06 151.91 177.53 M 147.97 182.06 C 148.63 180.58 149.55 180.22 151.91 177.53 M 184.06 140.55 C 195.15 133.08 201.62 125.15 212.92 107.35 M 184.06 140.55 C 189.15 135.49 197 126.71 212.92 107.35 M 222.11 96.78 C 222.11 96.78 222.11 96.78 222.11 96.78 M 222.11 96.78 C 222.11 96.78 222.11 96.78 222.11 96.78 M 147.06 189.21 C 147.8 188.63 147.52 188.15 148.37 187.7 M 147.06 189.21 C 147.27 188.75 147.44 188.61 148.37 187.7 M 192.98 136.38 C 201.86 129.74 211.1 120.15 218.57 106.95 M 192.98 136.38 C 199.86 129.81 204.34 122.76 218.57 106.95 M 222.5 102.42 C 223.64 101.41 225.01 101.17 225.78 98.65 M 222.5 102.42 C 223.72 101.33 223.77 101.23 225.78 98.65 M 146.14 196.37 C 146.14 196.37 146.14 196.37 146.14 196.37 M 146.14 196.37 C 146.14 196.37 146.14 196.37 146.14 196.37 M 202.56 131.46 C 208.22 124.93 220.51 110.52 229.46 100.52 M 202.56 131.46 C 210.2 122.13 219.14 112.73 229.46 100.52 M 145.88 202.76 C 145.88 202.76 145.88 202.76 145.88 202.76 M 145.88 202.76 C 145.88 202.76 145.88 202.76 145.88 202.76 M 208.86 130.31 C 212.37 126 222.77 117.73 233.13 102.39 M 208.86 130.31 C 216.86 122.49 221.01 117.93 233.13 102.39 M 214.5 129.92 C 226.77 120.53 229.08 108.8 237.46 103.5 M 214.5 129.92 C 222.54 119.46 230.1 112.83 237.46 103.5 M 220.15 129.52 C 226.26 122.81 237.45 114.34 241.14 105.37 M 220.15 129.52 C 224.73 124 232.16 117.54 241.14 105.37 M 221.85 133.66 C 230 127.74 237.54 119.79 244.81 107.24 M 221.85 133.66 C 230.88 124.19 236.58 116.4 244.81 107.24 M 222.25 139.3 C 232.08 127.94 233.86 122.55 248.49 109.11 M 222.25 139.3 C 233.24 128.35 242.55 116.38 248.49 109.11 M 231.83 134.38 C 241.04 128.58 246.67 121.77 252.16 110.98 M 231.83 134.38 C 236.3 131.3 241.59 124.19 252.16 110.98 M 240.75 130.21 C 244.55 122.89 245.23 124.7 255.84 112.85 M 240.75 130.21 C 245.89 126.42 247.75 121.83 255.84 112.85 M 250.33 125.29 C 252.84 119.04 254.83 117.13 259.51 114.72 M 250.33 125.29 C 252.51 121.32 256.13 116.97 259.51 114.72 M 259.25 121.12 C 261.28 121.01 260.03 119.81 263.19 116.59 M 259.25 121.12 C 259.95 120.34 261.51 118.98 263.19 116.59" fill="none" stroke="#bac8d3" stroke-width="0.5" stroke-linejoin="round" stroke-linecap="round" stroke-miterlimit="10" transform="rotate(75,205,151)" pointer-events="all" style="stroke: rgb(186, 200, 211);"/><path d="M 221.7 96 C 234.11 99.4 248.27 112.2 265 117.44 M 221.7 96 C 229.88 99.66 239.38 105.22 265 117.44 M 265 117.44 C 256.41 124.61 241.08 131.94 221.7 138.88 M 265 117.44 C 249.2 124.83 231.06 134.26 221.7 138.88 M 221.7 138.88 C 220.52 135.84 220.27 131.47 221.7 128.93 M 221.7 138.88 C 220.75 135.11 221.28 133.55 221.7 128.93 M 221.7 128.93 C 175.6 131.97 142.78 167.35 145 206 M 221.7 128.93 C 180.43 126.95 148.73 165.07 145 206 M 145 206 C 143.35 147.18 180.4 109.39 221.7 105.95 M 145 206 C 140.57 151.4 183.03 107.38 221.7 105.95 M 221.7 105.95 C 220.52 103.3 222.82 97.26 221.7 96 M 221.7 105.95 C 221.45 101.77 221.19 98.79 221.7 96" fill="none" stroke="#23445d" stroke-linejoin="round" stroke-linecap="round" stroke-miterlimit="10" transform="rotate(75,205,151)" pointer-events="all" style="stroke: rgb(35, 68, 93);"/></g></g><g data-cell-id="wA9FqI98lm-z4scQnuff-90"><g/><g data-cell-id="wA9FqI98lm-z4scQnuff-84"><g><rect x="11" y="85" width="62.86" height="22.86" fill="none" stroke="none" transform="rotate(-10,42.43,96.43)" pointer-events="all"/><path d="M 11.21 84.75 C 11.21 84.75 11.21 84.75 11.21 84.75 M 11.21 84.75 C 11.21 84.75 11.21 84.75 11.21 84.75 M 10.95 91.15 C 13.06 90.97 13.97 86.68 16.2 85.11 M 10.95 91.15 C 11.3 90.16 12.53 89.08 16.2 85.11 M 10.69 97.55 C 14.04 95.09 20.39 90.51 21.84 84.72 M 10.69 97.55 C 13.73 96.55 14.73 90.69 21.84 84.72 M 11.09 103.19 C 11.85 97.57 16.02 91.63 26.83 85.08 M 11.09 103.19 C 13.56 98.25 19.09 94.61 26.83 85.08 M 12.14 108.08 C 19.24 99.99 29.7 86.15 32.47 84.68 M 12.14 108.08 C 18.29 102.43 24.18 95.16 32.47 84.68 M 17.78 107.69 C 22.37 95.64 30.61 87.59 37.46 85.04 M 17.78 107.69 C 22.32 99.17 28.51 92.96 37.46 85.04 M 22.77 108.05 C 28.58 104.55 32.34 94.63 43.1 84.65 M 22.77 108.05 C 29.43 103.68 31.63 98.75 43.1 84.65 M 28.41 107.65 C 31.04 97.31 38.09 92.59 48.09 85.01 M 28.41 107.65 C 32.21 100.8 41.6 92.42 48.09 85.01 M 33.4 108.01 C 43.55 103.43 49.24 93.68 53.08 85.37 M 33.4 108.01 C 41.44 99.17 46.58 93.02 53.08 85.37 M 39.04 107.62 C 44.1 106.2 44.12 98.77 58.72 84.98 M 39.04 107.62 C 45.03 104.28 46.48 97.83 58.72 84.98 M 44.03 107.98 C 47.46 105.26 52.93 92.21 63.71 85.34 M 44.03 107.98 C 47.13 101.12 51.13 96.29 63.71 85.34 M 49.67 107.58 C 59.27 101.1 61.45 88.62 69.35 84.94 M 49.67 107.58 C 54.55 99.33 61.37 95.62 69.35 84.94 M 54.66 107.94 C 59.59 103.15 67.94 97.06 74.34 85.3 M 54.66 107.94 C 61.17 102.21 63.79 94.01 74.34 85.3 M 60.3 107.55 C 61.7 100.63 62.05 99.73 74.08 91.7 M 60.3 107.55 C 63.99 104.6 68.03 101.08 74.08 91.7 M 65.29 107.91 C 70.44 104 72.02 100.95 74.47 97.34 M 65.29 107.91 C 68.65 103.17 72.84 98.69 74.47 97.34 M 70.93 107.51 C 71.58 107.08 72.76 105.94 74.21 103.74 M 70.93 107.51 C 71.97 106.26 72.61 105.67 74.21 103.74" fill="none" stroke="#fad9d5" stroke-width="0.5" stroke-linejoin="round" stroke-linecap="round" stroke-miterlimit="10" transform="rotate(-10,42.43,96.43)" pointer-events="all" style="stroke: rgb(250, 217, 213);"/><path d="M 11 85 C 27.73 88.08 53.92 86.29 73.86 85 M 11 85 C 30.56 83.92 47.85 83.4 73.86 85 M 73.86 85 C 75.74 90.31 77.67 96.16 73.86 107.86 M 73.86 85 C 73.29 91.86 73.66 100.83 73.86 107.86 M 73.86 107.86 C 55.54 110.73 44.09 110.47 11 107.86 M 73.86 107.86 C 52.59 107.73 29.85 108.51 11 107.86 M 11 107.86 C 11.91 100.82 7.34 90.8 11 85 M 11 107.86 C 12.57 102.85 10.45 94.54 11 85" fill="none" stroke="#ae4132" stroke-linejoin="round" stroke-linecap="round" stroke-miterlimit="10" transform="rotate(-10,42.43,96.43)" pointer-events="all" style="stroke: rgb(174, 65, 50);"/></g></g><g data-cell-id="wA9FqI98lm-z4scQnuff-85"><g><rect x="79" y="73" width="62.86" height="22.86" fill="none" stroke="none" transform="rotate(-10,110.43,84.43)" pointer-events="all"/><path d="M 78.78 73.26 C 78.78 73.26 78.78 73.26 78.78 73.26 M 78.78 73.26 C 78.78 73.26 78.78 73.26 78.78 73.26 M 79.17 78.9 C 79.6 77.74 82.41 77.41 84.42 72.86 M 79.17 78.9 C 80.32 77.2 82.68 73.94 84.42 72.86 M 78.91 85.3 C 82.94 78.74 86.85 78.13 89.41 73.22 M 78.91 85.3 C 82.55 80.3 86.83 76.22 89.41 73.22 M 79.3 90.94 C 84.08 87.3 88.67 81.58 95.05 72.83 M 79.3 90.94 C 83.27 83.53 87.58 81.58 95.05 72.83 M 80.35 95.83 C 89.24 90.79 95.3 82.92 100.04 73.19 M 80.35 95.83 C 86.6 91.67 91.15 83.22 100.04 73.19 M 85.34 96.19 C 92.4 88.08 98.22 77.54 105.68 72.79 M 85.34 96.19 C 90.22 89.03 100.4 78.64 105.68 72.79 M 90.98 95.8 C 91.01 88.38 97.27 84.64 110.67 73.15 M 90.98 95.8 C 97.57 87.98 104.14 81.32 110.67 73.15 M 95.97 96.16 C 102.59 93.59 102.14 86.31 116.31 72.76 M 95.97 96.16 C 101.87 91.81 106.49 84.01 116.31 72.76 M 101.61 95.76 C 106.91 89.27 110.54 82.36 121.3 73.12 M 101.61 95.76 C 105.23 89.74 112.13 84.88 121.3 73.12 M 106.6 96.12 C 116.69 84.23 120.43 81.5 126.94 72.73 M 106.6 96.12 C 109.73 92.58 114.24 86.42 126.94 72.73 M 112.24 95.73 C 121.34 84.91 128.28 79.44 131.93 73.09 M 112.24 95.73 C 116.96 91.19 123.4 84.07 131.93 73.09 M 117.23 96.09 C 121.21 92.64 125.32 83.92 137.57 72.69 M 117.23 96.09 C 120.03 91.8 123.98 86 137.57 72.69 M 122.87 95.69 C 131.23 85.58 131.02 83.75 142.56 73.05 M 122.87 95.69 C 127.48 87.45 135.5 81.4 142.56 73.05 M 127.86 96.05 C 128.4 89.02 137.51 91.3 142.29 79.45 M 127.86 96.05 C 133.78 91.17 137.55 85.47 142.29 79.45 M 133.5 95.66 C 139.14 94.23 139.01 87.94 142.03 85.85 M 133.5 95.66 C 137.88 90.66 140.15 88.28 142.03 85.85 M 138.49 96.02 C 139.08 95.34 140.44 93.1 142.43 91.49 M 138.49 96.02 C 139.03 94.61 140.69 93.01 142.43 91.49" fill="none" stroke="#fad9d5" stroke-width="0.5" stroke-linejoin="round" stroke-linecap="round" stroke-miterlimit="10" transform="rotate(-10,110.43,84.43)" pointer-events="all" style="stroke: rgb(250, 217, 213);"/><path d="M 79 73 C 101.45 75.01 117.28 73.62 141.86 73 M 79 73 C 101.47 71.59 122.44 73.51 141.86 73 M 141.86 73 C 142.66 83.46 142.31 87.45 141.86 95.86 M 141.86 73 C 139.82 78.83 141.99 86.8 141.86 95.86 M 141.86 95.86 C 120.17 98.7 94.52 93.44 79 95.86 M 141.86 95.86 C 116.5 93.75 93.23 96.3 79 95.86 M 79 95.86 C 77.25 90.14 81.74 85.08 79 73 M 79 95.86 C 78.34 91.8 80.54 84.28 79 73" fill="none" stroke="#ae4132" stroke-linejoin="round" stroke-linecap="round" stroke-miterlimit="10" transform="rotate(-10,110.43,84.43)" pointer-events="all" style="stroke: rgb(174, 65, 50);"/></g></g><g data-cell-id="wA9FqI98lm-z4scQnuff-86"><g><rect x="146" y="60" width="62.86" height="22.86" fill="none" stroke="none" transform="rotate(-10,177.43,71.43)" pointer-events="all"/><path d="M 145.93 60.08 C 145.93 60.08 145.93 60.08 145.93 60.08 M 145.93 60.08 C 145.93 60.08 145.93 60.08 145.93 60.08 M 146.32 65.73 C 149.32 62.58 151.88 61.82 151.57 59.69 M 146.32 65.73 C 147.23 64.52 149.66 61.9 151.57 59.69 M 146.06 72.12 C 150.49 67.72 152.34 64.41 156.56 60.05 M 146.06 72.12 C 148.39 68.27 150.71 64.82 156.56 60.05 M 145.8 78.52 C 151.64 72.27 153.7 70.16 162.2 59.65 M 145.8 78.52 C 151.46 73.01 154.8 64.5 162.2 59.65 M 147.51 82.65 C 149.53 79.6 159.44 69.39 167.19 60.01 M 147.51 82.65 C 150.04 76.56 157.45 74.71 167.19 60.01 M 152.49 83.01 C 162.49 78.57 165.42 66.08 172.18 60.37 M 152.49 83.01 C 161.27 73.74 166.98 63.71 172.18 60.37 M 158.14 82.62 C 165.4 75.34 170.26 65.07 177.82 59.98 M 158.14 82.62 C 164.86 75.71 168 71.68 177.82 59.98 M 163.12 82.98 C 168.45 75.2 172.14 69.18 182.81 60.34 M 163.12 82.98 C 169.81 72.97 177.26 65.6 182.81 60.34 M 168.77 82.59 C 173.14 77.65 178.64 69.05 188.45 59.94 M 168.77 82.59 C 175.9 74.06 180.48 69.97 188.45 59.94 M 173.75 82.95 C 176.47 73.64 187.53 72.68 193.44 60.3 M 173.75 82.95 C 176.83 79.49 180.11 73.94 193.44 60.3 M 179.4 82.55 C 181.32 76.16 185.79 74.81 199.08 59.91 M 179.4 82.55 C 185.71 76.34 190.61 66.93 199.08 59.91 M 184.38 82.91 C 189.45 75.72 195.13 71.17 204.07 60.27 M 184.38 82.91 C 189.68 74.39 198.44 66.3 204.07 60.27 M 190.03 82.52 C 193.62 74.53 200.65 69.19 209.05 60.63 M 190.03 82.52 C 195.63 75.98 200.84 68.31 209.05 60.63 M 195.01 82.88 C 195.22 75.9 204.95 73.51 209.45 66.27 M 195.01 82.88 C 200.14 79.55 204.6 75.16 209.45 66.27 M 200 83.24 C 199.13 80.22 206.64 77.42 209.19 72.67 M 200 83.24 C 203.7 80.02 207.19 73.75 209.19 72.67 M 205.64 82.84 C 206.64 81.09 208.75 79.48 209.58 78.31 M 205.64 82.84 C 206.85 81.53 208.2 79.04 209.58 78.31" fill="none" stroke="#fad9d5" stroke-width="0.5" stroke-linejoin="round" stroke-linecap="round" stroke-miterlimit="10" transform="rotate(-10,177.43,71.43)" pointer-events="all" style="stroke: rgb(250, 217, 213);"/><path d="M 146 60 C 166.16 58.43 187.64 57.43 208.86 60 M 146 60 C 158.82 60.77 174.9 61.13 208.86 60 M 208.86 60 C 209.5 67.61 206.87 77.73 208.86 82.86 M 208.86 60 C 209.36 68.8 209.32 75.77 208.86 82.86 M 208.86 82.86 C 188.37 80.19 161.1 85.93 146 82.86 M 208.86 82.86 C 195.99 81.28 180.77 81.61 146 82.86 M 146 82.86 C 148.68 78.45 146.23 70.37 146 60 M 146 82.86 C 146.19 75.17 144.73 63.87 146 60" fill="none" stroke="#ae4132" stroke-linejoin="round" stroke-linecap="round" stroke-miterlimit="10" transform="rotate(-10,177.43,71.43)" pointer-events="all" style="stroke: rgb(174, 65, 50);"/></g></g><g data-cell-id="wA9FqI98lm-z4scQnuff-87"><g><rect x="39" y="50" width="62.86" height="22.86" fill="none" stroke="none" transform="rotate(-10,70.43,61.43)" pointer-events="all"/><path d="M 38.7 50.35 C 38.7 50.35 38.7 50.35 38.7 50.35 M 38.7 50.35 C 38.7 50.35 38.7 50.35 38.7 50.35 M 39.09 55.99 C 40.41 55.06 41.67 51.87 44.34 49.95 M 39.09 55.99 C 40 53.47 42.51 53.08 44.34 49.95 M 38.83 62.39 C 44.14 60.14 43.93 54.14 49.33 50.31 M 38.83 62.39 C 41.94 57.68 47.61 52.46 49.33 50.31 M 39.23 68.03 C 46.47 67.6 45.6 61.57 54.97 49.92 M 39.23 68.03 C 46.16 60.93 52.07 54.38 54.97 49.92 M 40.28 72.92 C 48.28 68.09 49.97 59.02 59.96 50.28 M 40.28 72.92 C 47.04 63.57 53.23 55.79 59.96 50.28 M 45.92 72.52 C 51.07 64.27 59.36 57.57 65.6 49.88 M 45.92 72.52 C 51.79 65.4 57.31 59.98 65.6 49.88 M 50.91 72.88 C 61.48 62.28 61 58 70.59 50.24 M 50.91 72.88 C 57.71 65.57 65.35 55.63 70.59 50.24 M 56.55 72.49 C 61.65 60.11 69.63 55.18 76.23 49.85 M 56.55 72.49 C 64.25 65.17 70.78 58.56 76.23 49.85 M 61.54 72.85 C 64.99 62.26 72.36 59.96 81.22 50.21 M 61.54 72.85 C 69.09 65.82 75.36 54.5 81.22 50.21 M 66.52 73.21 C 69.35 66.05 80.13 58.4 86.86 49.81 M 66.52 73.21 C 70.72 69.55 73.06 64.29 86.86 49.81 M 72.17 72.81 C 79.75 66.32 85.69 56.55 91.85 50.17 M 72.17 72.81 C 80.09 65.72 87.43 58.01 91.85 50.17 M 77.16 73.17 C 87.66 64.46 91.25 59.09 97.49 49.78 M 77.16 73.17 C 80.39 68.59 86.33 62.38 97.49 49.78 M 82.8 72.78 C 90.92 67.24 97.57 57.94 102.48 50.14 M 82.8 72.78 C 89.79 67.51 92.58 57.77 102.48 50.14 M 87.79 73.14 C 95 66.21 97.35 67.16 102.22 56.54 M 87.79 73.14 C 92.1 67.94 93.27 64.86 102.22 56.54 M 93.43 72.75 C 93.47 72.14 98.85 66.09 101.96 62.93 M 93.43 72.75 C 93.81 71.46 96.33 69.38 101.96 62.93 M 98.42 73.11 C 100 70.45 100.45 69.46 102.35 68.58 M 98.42 73.11 C 99.5 71.6 99.76 71.53 102.35 68.58" fill="none" stroke="#b1ddf0" stroke-width="0.5" stroke-linejoin="round" stroke-linecap="round" stroke-miterlimit="10" transform="rotate(-10,70.43,61.43)" pointer-events="all" style="stroke: rgb(177, 221, 240);"/><path d="M 39 50 C 56.88 47.36 76 46.76 101.86 50 M 39 50 C 58.74 50.44 78.49 49.23 101.86 50 M 101.86 50 C 101.41 58.19 104.51 61.87 101.86 72.86 M 101.86 50 C 100.9 57.78 102.65 63.74 101.86 72.86 M 101.86 72.86 C 82.57 72.68 61.67 73.41 39 72.86 M 101.86 72.86 C 84.9 71.82 69.15 73.91 39 72.86 M 39 72.86 C 39.02 65.19 37.63 57.51 39 50 M 39 72.86 C 40.95 66.11 39.83 55.6 39 50" fill="none" stroke="#10739e" stroke-linejoin="round" stroke-linecap="round" stroke-miterlimit="10" transform="rotate(-10,70.43,61.43)" pointer-events="all" style="stroke: rgb(16, 115, 158);"/></g></g><g data-cell-id="wA9FqI98lm-z4scQnuff-88"><g><rect x="106" y="39" width="62.86" height="22.86" fill="none" stroke="none" transform="rotate(-10,137.43,50.43)" pointer-events="all"/><path d="M 106.19 38.79 C 106.19 38.79 106.19 38.79 106.19 38.79 M 106.19 38.79 C 106.19 38.79 106.19 38.79 106.19 38.79 M 105.92 45.18 C 108.77 43.27 108.72 40.85 111.17 39.15 M 105.92 45.18 C 106.59 43.15 109.17 41.81 111.17 39.15 M 106.32 50.83 C 112.51 44.34 116.63 42.04 116.82 38.75 M 106.32 50.83 C 108.11 47.68 111.83 46.3 116.82 38.75 M 106.06 57.22 C 109.31 50.78 116.88 44.96 121.8 39.11 M 106.06 57.22 C 107.33 51.91 112.89 50.67 121.8 39.11 M 106.45 62.87 C 108.84 60.42 114.71 48.64 127.45 38.72 M 106.45 62.87 C 114.88 54.25 120.39 44.55 127.45 38.72 M 112.1 62.47 C 120.62 57.38 126.46 48.23 132.43 39.08 M 112.1 62.47 C 118.28 56.73 123.75 47.18 132.43 39.08 M 117.08 62.83 C 122.39 55.7 124.93 49.01 138.08 38.68 M 117.08 62.83 C 124.37 56.05 128.92 52.36 138.08 38.68 M 122.73 62.44 C 130.91 57.81 131.4 50.3 143.06 39.04 M 122.73 62.44 C 127.63 57.6 133.4 51.55 143.06 39.04 M 127.71 62.8 C 135.54 57.96 141.14 50.16 148.71 38.65 M 127.71 62.8 C 131.13 57.43 135.45 51.06 148.71 38.65 M 133.36 62.4 C 141.09 52.12 147.45 41.33 153.69 39.01 M 133.36 62.4 C 138.55 58.68 143.81 53.87 153.69 39.01 M 138.34 62.76 C 143.82 55.1 151.47 44.66 158.68 39.37 M 138.34 62.76 C 144.11 53.7 154.16 43.41 158.68 39.37 M 143.99 62.37 C 147.72 56.95 153.02 47.59 164.32 38.97 M 143.99 62.37 C 149.95 53.3 160.91 44.54 164.32 38.97 M 148.97 62.73 C 152.73 58.83 159.04 45.54 169.31 39.33 M 148.97 62.73 C 154.27 54.72 162.65 46.9 169.31 39.33 M 154.62 62.33 C 160.84 55.46 163.81 51.74 169.05 45.73 M 154.62 62.33 C 161.02 55.37 165.77 50.28 169.05 45.73 M 159.6 62.69 C 160.18 58.54 164.55 53.55 169.44 51.37 M 159.6 62.69 C 161.95 60.53 162.98 57.17 169.44 51.37 M 165.25 62.3 C 166.46 61.88 166.86 60.03 169.18 57.77 M 165.25 62.3 C 166.82 60.89 167.97 59.93 169.18 57.77" fill="none" stroke="#fad9d5" stroke-width="0.5" stroke-linejoin="round" stroke-linecap="round" stroke-miterlimit="10" transform="rotate(-10,137.43,50.43)" pointer-events="all" style="stroke: rgb(250, 217, 213);"/><path d="M 106 39 C 129.59 40.77 146.36 40.57 168.86 39 M 106 39 C 128.66 39.11 152.08 36.34 168.86 39 M 168.86 39 C 167.33 44.34 168.15 46.16 168.86 61.86 M 168.86 39 C 170.43 45.75 169.98 50.71 168.86 61.86 M 168.86 61.86 C 150.77 64.16 136.24 59.9 106 61.86 M 168.86 61.86 C 147.81 61.35 131.54 61.22 106 61.86 M 106 61.86 C 103.36 55.5 103.03 44.79 106 39 M 106 61.86 C 104.8 56.06 104.01 50.34 106 39" fill="none" stroke="#ae4132" stroke-linejoin="round" stroke-linecap="round" stroke-miterlimit="10" transform="rotate(-10,137.43,50.43)" pointer-events="all" style="stroke: rgb(174, 65, 50);"/></g></g><g data-cell-id="wA9FqI98lm-z4scQnuff-89"><g><rect x="68" y="16" width="62.86" height="22.86" fill="none" stroke="none" transform="rotate(-10,99.43,27.43)" pointer-events="all"/><path d="M 67.91 16.11 C 67.91 16.11 67.91 16.11 67.91 16.11 M 67.91 16.11 C 67.91 16.11 67.91 16.11 67.91 16.11 M 68.3 21.75 C 69.46 19.07 71.31 17.41 73.55 15.71 M 68.3 21.75 C 68.72 20.01 71.38 19.3 73.55 15.71 M 68.04 28.15 C 75.11 23.82 77.17 18.82 78.54 16.07 M 68.04 28.15 C 70.61 23.73 74.48 20.57 78.54 16.07 M 67.78 34.55 C 72.08 33.51 77.09 23.33 84.18 15.68 M 67.78 34.55 C 70.69 31.21 75.21 23.49 84.18 15.68 M 69.48 38.68 C 76.59 26.86 81.92 24.59 89.17 16.04 M 69.48 38.68 C 77.72 31.88 81.62 25.31 89.17 16.04 M 74.47 39.04 C 78.15 29.35 89.33 25.99 94.81 15.65 M 74.47 39.04 C 80.8 31.7 90.06 22.2 94.81 15.65 M 80.11 38.65 C 88.38 36.59 85.23 28.31 99.8 16.01 M 80.11 38.65 C 87.13 31.84 95.85 22.63 99.8 16.01 M 85.1 39.01 C 91.99 29.98 96.61 23.74 104.78 16.37 M 85.1 39.01 C 91.75 33.06 92.4 27.98 104.78 16.37 M 90.74 38.61 C 97.32 35.67 104.5 26.52 110.43 15.97 M 90.74 38.61 C 98.3 31.9 104 26.64 110.43 15.97 M 95.73 38.97 C 103.15 31.32 108.8 22.33 115.41 16.33 M 95.73 38.97 C 101.79 35.34 105.82 31.14 115.41 16.33 M 101.37 38.58 C 107.44 35.62 112.39 29.55 121.06 15.94 M 101.37 38.58 C 105.48 32.66 109.78 28.9 121.06 15.94 M 106.36 38.94 C 112.12 36.98 110.98 31.8 126.04 16.3 M 106.36 38.94 C 114.76 34.28 118.47 23.88 126.04 16.3 M 112 38.54 C 118.76 29.82 124.07 21.3 131.03 16.66 M 112 38.54 C 118.08 32.49 123.44 23.28 131.03 16.66 M 116.99 38.9 C 122.23 31.5 125.81 31.12 131.42 22.3 M 116.99 38.9 C 122.59 33.49 124.04 29.72 131.42 22.3 M 122.63 38.51 C 123.99 37.11 126.18 34.52 131.16 28.7 M 122.63 38.51 C 123.33 36.04 125.19 34.89 131.16 28.7 M 127.62 38.87 C 129.24 37.38 130.38 36.15 131.56 34.34 M 127.62 38.87 C 128.66 37.55 130.71 35.7 131.56 34.34" fill="none" stroke="#fad9d5" stroke-width="0.5" stroke-linejoin="round" stroke-linecap="round" stroke-miterlimit="10" transform="rotate(-10,99.43,27.43)" pointer-events="all" style="stroke: rgb(250, 217, 213);"/><path d="M 68 16 C 89.31 16.7 111.72 16.9 130.86 16 M 68 16 C 85 18.3 99.54 17.96 130.86 16 M 130.86 16 C 129.17 18.48 127.7 26.44 130.86 38.86 M 130.86 16 C 130.97 21.72 132.31 25.67 130.86 38.86 M 130.86 38.86 C 113.97 35.65 97.82 42.38 68 38.86 M 130.86 38.86 C 109.72 38.88 84.93 40.53 68 38.86 M 68 38.86 C 69.78 33.82 70.52 28.08 68 16 M 68 38.86 C 68.57 34 68.11 29.07 68 16" fill="none" stroke="#ae4132" stroke-linejoin="round" stroke-linecap="round" stroke-miterlimit="10" transform="rotate(-10,99.43,27.43)" pointer-events="all" style="stroke: rgb(174, 65, 50);"/></g></g></g><g data-cell-id="wA9FqI98lm-z4scQnuff-94"><g><path d="M 175 244.45 L 243.45 244.45 L 243.45 176 L 256.55 176 L 256.55 244.45 L 325 244.45 L 325 257.55 L 256.55 257.55 L 256.55 326 L 243.45 326 L 243.45 257.55 L 175 257.55 Z" fill="none" stroke="none" transform="rotate(-45,250,251)" pointer-events="all"/><path d="M 175 244.45 C 194.87 241.3 224.1 246.18 243.45 244.45 C 239.88 221.03 240.89 187.56 243.45 176 C 247.93 176.84 253.33 175.13 256.55 176 C 254.15 198.01 257.31 218.32 256.55 244.45 C 280.45 251.12 306.8 245.77 325 244.45 C 322.99 251.18 327.14 252.75 325 257.55 C 303.24 261 285.77 253.08 256.55 257.55 C 258.97 271.02 259.91 282.78 256.55 326 C 255.98 329.23 250.98 323.97 243.45 326 C 238.86 314.44 239.79 301.01 243.45 257.55 C 229.74 256.73 205.44 254.53 175 257.55 C 172.36 254.57 175.47 244.61 175 244.45" fill="#fa6800" stroke="none" transform="rotate(-45,250,251)" pointer-events="all" style="fill: rgb(250, 104, 0);"/><path d="M 175 244.45 C 194.72 248.29 221.76 242.85 243.45 244.45 M 175 244.45 C 196.48 246.36 219.22 245.36 243.45 244.45 M 243.45 244.45 C 247.22 214.84 242.51 192.38 243.45 176 M 243.45 244.45 C 242.48 217.64 242.48 189.73 243.45 176 M 243.45 176 C 245.86 175.7 247.78 173.52 256.55 176 M 243.45 176 C 247.31 175.92 249.19 175.78 256.55 176 M 256.55 176 C 253.93 196.69 258.25 215.82 256.55 244.45 M 256.55 176 C 258.2 202.78 258.39 229.46 256.55 244.45 M 256.55 244.45 C 268.49 244.12 286.21 243.51 325 244.45 M 256.55 244.45 C 277.74 245.4 300.97 244.29 325 244.45 M 325 244.45 C 323.73 250.02 322.61 255.64 325 257.55 M 325 244.45 C 325.24 249.64 324.03 252.13 325 257.55 M 325 257.55 C 308.93 258.67 294.98 257.82 256.55 257.55 M 325 257.55 C 309.49 254.69 291.42 256.98 256.55 257.55 M 256.55 257.55 C 257.72 284.54 259.93 309.76 256.55 326 M 256.55 257.55 C 253.82 277.49 254.9 293.67 256.55 326 M 256.55 326 C 253.27 325.93 250.03 324.91 243.45 326 M 256.55 326 C 253.46 325.54 251.3 326.22 243.45 326 M 243.45 326 C 241.34 301.14 244.49 273.71 243.45 257.55 M 243.45 326 C 243.24 297.19 242.48 270.13 243.45 257.55 M 243.45 257.55 C 225.36 259.78 203.21 257.52 175 257.55 M 243.45 257.55 C 216.73 255.45 189.44 258.58 175 257.55 M 175 257.55 C 176.26 252.11 175.02 247.14 175 244.45 M 175 257.55 C 175.91 253 174.5 250 175 244.45" fill="none" stroke="#c73500" stroke-linejoin="round" stroke-linecap="round" stroke-miterlimit="10" transform="rotate(-45,250,251)" pointer-events="all" style="stroke: rgb(199, 53, 0);"/></g></g></g><g data-cell-id="wA9FqI98lm-z4scQnuff-103"><g data-cell-id="wA9FqI98lm-z4scQnuff-80"/><g data-cell-id="wA9FqI98lm-z4scQnuff-101"/></g></g></g></g></svg>