<?xml version="1.0" encoding="UTF-8"?>
<!DOCTYPE svg PUBLIC "-//W3C//DTD SVG 1.1//EN" "http://www.w3.org/Graphics/SVG/1.1/DTD/svg11.dtd">
<svg xmlns="http://www.w3.org/2000/svg" style="background: transparent; background-color: transparent; color-scheme: light dark;" xmlns:xlink="http://www.w3.org/1999/xlink" version="1.1" width="289px" height="69px" viewBox="-0.5 -0.5 289 69"><defs/><g><g data-cell-id="0"><g data-cell-id="1"><g data-cell-id="wA9FqI98lm-z4scQnuff-53"><g><path d="M 235.21 -1 L 273.86 67.67 C 273.86 68.04 271.11 68.4 266.21 68.66 C 261.31 68.92 254.67 69.07 247.74 69.07 C 233.32 69.07 221.63 68.44 221.63 67.67 Z" fill="none" stroke="none" transform="rotate(-75,247.74,34.03)" pointer-events="all"/><path d="M 235.21 -1 C 248.88 14.57 259.28 27.84 273.86 67.67 C 274.75 67.88 270.28 64.73 266.21 68.66 C 262.72 72.88 253.18 73.57 247.75 69.07 C 237.44 71.73 221.25 65.52 221.63 67.67 C 227.28 38.92 236.6 16.48 235.21 -1" fill-opacity="0.5" fill="#8acbec" stroke="none" transform="rotate(-75,247.74,34.03)" pointer-events="all" style="fill: rgb(138, 203, 236);"/></g></g><g data-cell-id="wA9FqI98lm-z4scQnuff-2"/><g data-cell-id="wA9FqI98lm-z4scQnuff-4"/><g data-cell-id="wA9FqI98lm-z4scQnuff-5"/><g data-cell-id="wA9FqI98lm-z4scQnuff-7"/><g data-cell-id="wA9FqI98lm-z4scQnuff-9"/><g data-cell-id="wA9FqI98lm-z4scQnuff-11"/><g data-cell-id="wA9FqI98lm-z4scQnuff-12"/><g data-cell-id="wA9FqI98lm-z4scQnuff-13"/><g data-cell-id="wA9FqI98lm-z4scQnuff-17"/><g data-cell-id="wA9FqI98lm-z4scQnuff-18"/><g data-cell-id="wA9FqI98lm-z4scQnuff-19"/><g data-cell-id="wA9FqI98lm-z4scQnuff-16"/><g data-cell-id="wA9FqI98lm-z4scQnuff-20"/><g data-cell-id="wA9FqI98lm-z4scQnuff-21"/><g data-cell-id="wA9FqI98lm-z4scQnuff-22"/><g data-cell-id="wA9FqI98lm-z4scQnuff-24"/><g data-cell-id="wA9FqI98lm-z4scQnuff-25"/><g data-cell-id="wA9FqI98lm-z4scQnuff-26"/><g data-cell-id="wA9FqI98lm-z4scQnuff-32"/><g data-cell-id="wA9FqI98lm-z4scQnuff-42"><g><path d="M 275 56 L 255 46 L 225 36" fill="none" stroke="none" pointer-events="stroke"/><path d="M 275 56 C 264.68 52.92 264.48 45.65 255 46 M 275 56 C 271.04 55.5 265.29 53.88 255 46 M 255 46 C 246.37 45.74 239.17 42 225 36 M 255 46 C 245.19 44.68 239.19 41.79 225 36" fill="none" stroke="#8acbec" stroke-linejoin="round" stroke-linecap="round" stroke-miterlimit="10" pointer-events="stroke" style="stroke: rgb(138, 203, 236);"/></g></g><g data-cell-id="wA9FqI98lm-z4scQnuff-43"><g><path d="M 281 30 L 265 26 L 245 26 L 225 32" fill="none" stroke="none" pointer-events="stroke"/><path d="M 281 30 C 277.36 26.88 268.82 29.19 265 26 M 281 30 C 275.38 30.74 272.19 28.72 265 26 M 265 26 C 257.81 25.54 250.38 29.88 245 26 M 265 26 C 260.73 26.24 255.78 25.67 245 26 M 245 26 C 236.93 26.69 237.08 29.18 225 32 M 245 26 C 238.28 27.16 236.81 27.47 225 32" fill="none" stroke="#8acbec" stroke-linejoin="round" stroke-linecap="round" stroke-miterlimit="10" pointer-events="stroke" style="stroke: rgb(138, 203, 236);"/></g></g><g data-cell-id="wA9FqI98lm-z4scQnuff-44"><g><path d="M 275 46 L 255 36 L 225 38" fill="none" stroke="none" pointer-events="stroke"/><path d="M 275 46 C 268.04 46.94 263.13 40.47 255 36 M 275 46 C 268.89 40.6 262.56 38.41 255 36 M 255 36 C 242.89 40.4 237.02 34.76 225 38 M 255 36 C 247.4 36.41 242.47 35.86 225 38" fill="none" stroke="#8acbec" stroke-linejoin="round" stroke-linecap="round" stroke-miterlimit="10" pointer-events="stroke" style="stroke: rgb(138, 203, 236);"/></g></g><g data-cell-id="wA9FqI98lm-z4scQnuff-45"><g><path d="M 281 43 L 249 30 L 225 33" fill="none" stroke="none" pointer-events="stroke"/><path d="M 281 43 C 267.77 40.56 256.61 33.51 249 30 M 281 43 C 273.04 38.89 265.69 35.73 249 30 M 249 30 C 237.43 30.9 230.51 31.05 225 33 M 249 30 C 245.81 30.38 240.63 29.54 225 33" fill="none" stroke="#8acbec" stroke-linejoin="round" stroke-linecap="round" stroke-miterlimit="10" pointer-events="stroke" style="stroke: rgb(138, 203, 236);"/></g></g><g data-cell-id="wA9FqI98lm-z4scQnuff-46"><g><path d="M 274 52 L 254 44 L 225 40" fill="none" stroke="none" pointer-events="stroke"/><path d="M 274 52 C 270.43 48.81 260.82 43.78 254 44 M 274 52 C 269.78 49.09 262.87 48.93 254 44 M 254 44 C 244.55 38.88 238.24 42.36 225 40 M 254 44 C 243.2 42.15 233.72 42.76 225 40" fill="none" stroke="#8acbec" stroke-linejoin="round" stroke-linecap="round" stroke-miterlimit="10" pointer-events="stroke" style="stroke: rgb(138, 203, 236);"/></g></g><g data-cell-id="wA9FqI98lm-z4scQnuff-47"><g><path d="M 275 36 L 265 30 L 245 30 L 225 40" fill="none" stroke="none" pointer-events="stroke"/><path d="M 275 36 C 272.33 32.76 270.55 34.3 265 30 M 275 36 C 271.58 33.42 266.83 31.58 265 30 M 265 30 C 256.02 30.83 256.67 32.5 245 30 M 265 30 C 256.54 28.44 252.74 30.13 245 30 M 245 30 C 239 32.67 230.05 32.61 225 40 M 245 30 C 237.1 35.17 228.56 37.16 225 40" fill="none" stroke="#8acbec" stroke-linejoin="round" stroke-linecap="round" stroke-miterlimit="10" pointer-events="stroke" style="stroke: rgb(138, 203, 236);"/></g></g><g data-cell-id="wA9FqI98lm-z4scQnuff-48"><g><path d="M 272 46 L 255 42 L 225 40" fill="none" stroke="none" pointer-events="stroke"/><path d="M 272 46 C 265.23 47.7 259.86 44.98 255 42 M 272 46 C 266.79 45.05 263.86 43.3 255 42 M 255 42 C 249.71 38.37 236.51 44.81 225 40 M 255 42 C 246.2 39.54 233.42 40.13 225 40" fill="none" stroke="#8acbec" stroke-linejoin="round" stroke-linecap="round" stroke-miterlimit="10" pointer-events="stroke" style="stroke: rgb(138, 203, 236);"/></g></g><g data-cell-id="wA9FqI98lm-z4scQnuff-49"><g><path d="M 279 36 L 249 34 L 225 40" fill="none" stroke="none" pointer-events="stroke"/><path d="M 279 36 C 265.49 37.34 261.56 35.46 249 34 M 279 36 C 270.65 36.17 261.72 33.08 249 34 M 249 34 C 243.79 36.95 237.19 35.21 225 40 M 249 34 C 241.27 37.81 232.84 36.43 225 40" fill="none" stroke="#8acbec" stroke-linejoin="round" stroke-linecap="round" stroke-miterlimit="10" pointer-events="stroke" style="stroke: rgb(138, 203, 236);"/></g></g><g data-cell-id="wA9FqI98lm-z4scQnuff-50"><g><path d="M 272 41 L 250 38 L 225 35" fill="none" stroke="none" pointer-events="stroke"/><path d="M 272 41 C 266.84 43.62 261.72 42.19 250 38 M 272 41 C 267.12 41.89 258.39 40.14 250 38 M 250 38 C 244.84 37.57 236.47 38.35 225 35 M 250 38 C 242.54 36.65 231.88 34.75 225 35" fill="none" stroke="#8acbec" stroke-linejoin="round" stroke-linecap="round" stroke-miterlimit="10" pointer-events="stroke" style="stroke: rgb(138, 203, 236);"/></g></g><g data-cell-id="wA9FqI98lm-z4scQnuff-54"><g><path d="M 275 61 L 255 51 L 225 41" fill="none" stroke="none" pointer-events="stroke"/><path d="M 275 61 C 269.33 61.41 263.45 51.3 255 51 M 275 61 C 266.38 56.8 261.1 53.82 255 51 M 255 51 C 247.05 51.45 237.88 48.11 225 41 M 255 51 C 246.36 50.41 240.05 45.23 225 41" fill="none" stroke="#8acbec" stroke-linejoin="round" stroke-linecap="round" stroke-miterlimit="10" pointer-events="stroke" style="stroke: rgb(138, 203, 236);"/></g></g><g data-cell-id="wA9FqI98lm-z4scQnuff-55"><g><path d="M 281 22 L 268 22 L 225 32" fill="none" stroke="none" pointer-events="stroke"/><path d="M 281 22 C 275.8 22.83 270.45 23.83 268 22 M 281 22 C 278.72 22.22 273.8 21.78 268 22 M 268 22 C 254.78 23.57 246.78 30.59 225 32 M 268 22 C 259.51 24.78 248.67 24.12 225 32" fill="none" stroke="#8acbec" stroke-linejoin="round" stroke-linecap="round" stroke-miterlimit="10" pointer-events="stroke" style="stroke: rgb(138, 203, 236);"/></g></g><g data-cell-id="wA9FqI98lm-z4scQnuff-40"><g><path d="M 6 47 Q 53 47 53 41.5 Q 53 36 89 36 Q 125 36 125 41 Q 125 46 155 46 Q 185 46 185 41 Q 185 36 225 36" fill="none" stroke="#346588" stroke-width="12" stroke-miterlimit="10" pointer-events="stroke" style="stroke: rgb(52, 101, 136);"/></g></g><g data-cell-id="wA9FqI98lm-z4scQnuff-57"/><g data-cell-id="wA9FqI98lm-z4scQnuff-58"/><g data-cell-id="wA9FqI98lm-z4scQnuff-6"/><g data-cell-id="wA9FqI98lm-z4scQnuff-63"/><g data-cell-id="wA9FqI98lm-z4scQnuff-64"/><g data-cell-id="wA9FqI98lm-z4scQnuff-65"/><g data-cell-id="wA9FqI98lm-z4scQnuff-66"/><g data-cell-id="wA9FqI98lm-z4scQnuff-23"/><g data-cell-id="wA9FqI98lm-z4scQnuff-27"/><g data-cell-id="wA9FqI98lm-z4scQnuff-51"/></g></g></g></svg>