<?xml version="1.0" encoding="UTF-8"?>
<!DOCTYPE svg PUBLIC "-//W3C//DTD SVG 1.1//EN" "http://www.w3.org/Graphics/SVG/1.1/DTD/svg11.dtd">
<svg xmlns="http://www.w3.org/2000/svg" style="background: transparent; background-color: transparent; color-scheme: light dark;" xmlns:xlink="http://www.w3.org/1999/xlink" version="1.1" width="351px" height="61px" viewBox="-0.5 -0.5 351 61"><defs/><g><g data-cell-id="0"><g data-cell-id="1"><g data-cell-id="wA9FqI98lm-z4scQnuff-53"/><g data-cell-id="wA9FqI98lm-z4scQnuff-7"/><g data-cell-id="wA9FqI98lm-z4scQnuff-9"/><g data-cell-id="wA9FqI98lm-z4scQnuff-11"/><g data-cell-id="wA9FqI98lm-z4scQnuff-12"/><g data-cell-id="wA9FqI98lm-z4scQnuff-13"/><g data-cell-id="wA9FqI98lm-z4scQnuff-17"/><g data-cell-id="wA9FqI98lm-z4scQnuff-18"/><g data-cell-id="wA9FqI98lm-z4scQnuff-19"/><g data-cell-id="wA9FqI98lm-z4scQnuff-32"/><g data-cell-id="wA9FqI98lm-z4scQnuff-42"/><g data-cell-id="wA9FqI98lm-z4scQnuff-43"/><g data-cell-id="wA9FqI98lm-z4scQnuff-44"/><g data-cell-id="wA9FqI98lm-z4scQnuff-45"/><g data-cell-id="wA9FqI98lm-z4scQnuff-46"/><g data-cell-id="wA9FqI98lm-z4scQnuff-47"/><g data-cell-id="wA9FqI98lm-z4scQnuff-48"/><g data-cell-id="wA9FqI98lm-z4scQnuff-49"/><g data-cell-id="wA9FqI98lm-z4scQnuff-50"/><g data-cell-id="wA9FqI98lm-z4scQnuff-54"/><g data-cell-id="wA9FqI98lm-z4scQnuff-55"/><g data-cell-id="wA9FqI98lm-z4scQnuff-40"/><g data-cell-id="wA9FqI98lm-z4scQnuff-67"/><g data-cell-id="wA9FqI98lm-z4scQnuff-71"/><g data-cell-id="wA9FqI98lm-z4scQnuff-72"/><g data-cell-id="wA9FqI98lm-z4scQnuff-73"/><g data-cell-id="wA9FqI98lm-z4scQnuff-74"/><g data-cell-id="wA9FqI98lm-z4scQnuff-96"/><g data-cell-id="wA9FqI98lm-z4scQnuff-97"/><g data-cell-id="wA9FqI98lm-z4scQnuff-98"/><g data-cell-id="wA9FqI98lm-z4scQnuff-99"/><g data-cell-id="wA9FqI98lm-z4scQnuff-100"/><g data-cell-id="remplace"><g data-cell-id="wA9FqI98lm-z4scQnuff-83"/><g data-cell-id="wA9FqI98lm-z4scQnuff-90"><g data-cell-id="wA9FqI98lm-z4scQnuff-84"/><g data-cell-id="wA9FqI98lm-z4scQnuff-85"/><g data-cell-id="wA9FqI98lm-z4scQnuff-86"/><g data-cell-id="wA9FqI98lm-z4scQnuff-87"/><g data-cell-id="wA9FqI98lm-z4scQnuff-88"/><g data-cell-id="wA9FqI98lm-z4scQnuff-89"/></g><g data-cell-id="wA9FqI98lm-z4scQnuff-94"/></g><g data-cell-id="delta"><g data-cell-id="wA9FqI98lm-z4scQnuff-80"/><g data-cell-id="wA9FqI98lm-z4scQnuff-101"/></g><g data-cell-id="bidon1"><g data-cell-id="wA9FqI98lm-z4scQnuff-24"/><g data-cell-id="wA9FqI98lm-z4scQnuff-25"/><g data-cell-id="wA9FqI98lm-z4scQnuff-26"/><g data-cell-id="wA9FqI98lm-z4scQnuff-65"/><g data-cell-id="wA9FqI98lm-z4scQnuff-66"/><g data-cell-id="wA9FqI98lm-z4scQnuff-27"/></g><g data-cell-id="bidon2"><g data-cell-id="wA9FqI98lm-z4scQnuff-20"/><g data-cell-id="wA9FqI98lm-z4scQnuff-21"/><g data-cell-id="wA9FqI98lm-z4scQnuff-22"/><g data-cell-id="wA9FqI98lm-z4scQnuff-63"/><g data-cell-id="wA9FqI98lm-z4scQnuff-64"/><g data-cell-id="wA9FqI98lm-z4scQnuff-23"/></g><g data-cell-id="bidon3"><g data-cell-id="wA9FqI98lm-z4scQnuff-2"/><g data-cell-id="wA9FqI98lm-z4scQnuff-4"/><g data-cell-id="wA9FqI98lm-z4scQnuff-5"/><g data-cell-id="wA9FqI98lm-z4scQnuff-57"/><g data-cell-id="wA9FqI98lm-z4scQnuff-58"/><g data-cell-id="wA9FqI98lm-z4scQnuff-6"/></g><g data-cell-id="wA9FqI98lm-z4scQnuff-51"/><g data-cell-id="wA9FqI98lm-z4scQnuff-16"/><g data-cell-id="yuZlQyEtuVOH7eyr_GHA-1"><g><path d="M 63.5 -52.5 C 63.5 -58.85 72.12 -64 82.75 -64 C 87.86 -64 92.75 -62.79 96.36 -60.63 C 99.97 -58.48 102 -55.55 102 -52.5 L 102 90 C 102 96.35 93.38 101.5 82.75 101.5 C 72.12 101.5 63.5 96.35 63.5 90 Z" fill="none" stroke="none" transform="rotate(90,82.75,18.75)" pointer-events="all"/><path d="M 102 -52.5 C 102 -46.15 93.38 -41 82.75 -41 C 72.12 -41 63.5 -46.15 63.5 -52.5" fill="none" stroke="none" transform="rotate(90,82.75,18.75)" pointer-events="all"/><path d="M 63.5 -52.5 C 58.56 -63.91 75.91 -59.23 82.75 -64 C 93.46 -59.98 101.44 -62.88 102 -52.5 C 99.05 -2.21 104.26 58.35 102 90 C 102.44 99.53 90.99 102.78 82.75 101.5 C 70.14 106.35 64.52 101.42 63.5 90 C 62.96 40.15 63.61 -14.38 63.5 -52.5" fill="#bac8d3" stroke="none" transform="rotate(90,82.75,18.75)" pointer-events="all" style="fill: rgb(186, 200, 211);"/><path d="M 63.5 -52.5 C 62.26 -58.65 70.39 -62.75 82.75 -64 M 63.5 -52.5 C 67.48 -57.15 73.9 -62.19 82.75 -64 M 82.75 -64 C 90.73 -60.14 104.76 -59.99 102 -52.5 M 82.75 -64 C 95.94 -64.3 100.06 -62.45 102 -52.5 M 102 -52.5 C 104.31 -3.34 105.5 37.5 102 90 M 102 -52.5 C 100.62 -9.05 103.21 31.39 102 90 M 102 90 C 102.16 96.15 95.03 101.39 82.75 101.5 M 102 90 C 99.11 98.91 93.48 100.39 82.75 101.5 M 82.75 101.5 C 74.04 99.24 60.56 95.79 63.5 90 M 82.75 101.5 C 75.15 103.08 63.92 95.77 63.5 90 M 63.5 90 C 64.64 58.04 67.1 17.83 63.5 -52.5 M 63.5 90 C 66.2 54.15 67.42 18.36 63.5 -52.5" fill="none" stroke="#23445d" stroke-linejoin="round" stroke-linecap="round" stroke-miterlimit="10" transform="rotate(90,82.75,18.75)" pointer-events="all" style="stroke: rgb(35, 68, 93);"/><path d="M 102 -52.5 C 100.76 -45.95 91.65 -39.75 82.75 -41 M 102 -52.5 C 105.98 -44.45 95.16 -39.19 82.75 -41 M 82.75 -41 C 69.47 -37.14 66.26 -47.29 63.5 -52.5 M 82.75 -41 C 74.68 -41.3 61.56 -49.75 63.5 -52.5" fill="none" stroke="#23445d" stroke-linejoin="round" stroke-linecap="round" stroke-miterlimit="10" transform="rotate(90,82.75,18.75)" pointer-events="all" style="stroke: rgb(35, 68, 93);"/></g></g><g data-cell-id="message5"><g><path d="M 155.5 8.75 L 165.5 8.75 L 175.5 18.75 L 165.5 28.75 L 155.5 28.75 L 145.5 18.75 Z" fill="none" stroke="none" pointer-events="all"/><path d="M 145.2 19.09 C 145.2 19.09 145.2 19.09 145.2 19.09 M 145.2 19.09 C 145.2 19.09 145.2 19.09 145.2 19.09 M 148.22 21.72 C 152.95 18.65 154.34 13.76 159.37 8.89 M 148.22 21.72 C 152.58 19.32 154.82 15.32 159.37 8.89 M 151.24 24.34 C 156.96 19.03 158.52 20.14 165.02 8.49 M 151.24 24.34 C 156.27 20.69 158.09 17.73 165.02 8.49 M 154.26 26.96 C 160.61 19.59 165.09 15.08 168.04 11.12 M 154.26 26.96 C 159.4 21.28 164.65 15.01 168.04 11.12 M 157.28 29.59 C 162.32 25.48 166.8 24.05 171.06 13.74 M 157.28 29.59 C 161.48 25.13 168.09 18.94 171.06 13.74 M 162.92 29.19 C 162.43 28.58 170.21 21.52 173.42 17.12 M 162.92 29.19 C 167.42 25.17 168.03 21.89 173.42 17.12" fill="none" stroke="#d0cee2" stroke-width="0.5" stroke-linejoin="round" stroke-linecap="round" stroke-miterlimit="10" pointer-events="all" style="stroke: rgb(208, 206, 226);"/><path d="M 155.5 8.75 C 157.24 8.61 160.89 7.21 165.5 8.75 M 155.5 8.75 C 158.47 8.24 159.51 8.04 165.5 8.75 M 165.5 8.75 C 171.76 15.03 175.19 17 175.5 18.75 M 165.5 8.75 C 167.17 11.31 171.04 15.38 175.5 18.75 M 175.5 18.75 C 175.42 19.68 171.1 25.17 165.5 28.75 M 175.5 18.75 C 171.66 22.88 170.69 24.26 165.5 28.75 M 165.5 28.75 C 163.39 30.01 159.78 27.33 155.5 28.75 M 165.5 28.75 C 162.02 28.54 158.23 28.57 155.5 28.75 M 155.5 28.75 C 154.27 26.23 146.16 24.47 145.5 18.75 M 155.5 28.75 C 153.39 25.79 149.33 22.8 145.5 18.75 M 145.5 18.75 C 147.13 17.78 148.86 14.95 155.5 8.75 M 145.5 18.75 C 148.28 14.6 153.18 11.47 155.5 8.75" fill="none" stroke="#56517e" stroke-linejoin="round" stroke-linecap="round" stroke-miterlimit="10" pointer-events="all" style="stroke: rgb(86, 81, 126);"/></g></g><g data-cell-id="message3"><g><path d="M 255.5 3.75 L 274.25 18.75 L 255.5 33.75 Z" fill="none" stroke="none" transform="rotate(-90,264.88,18.75)" pointer-events="all"/><path d="M 255.5 3.75 C 255.5 3.75 255.5 3.75 255.5 3.75 M 255.5 3.75 C 255.5 3.75 255.5 3.75 255.5 3.75 M 255.24 10.15 C 256.74 9.62 256.47 8.02 258.52 6.37 M 255.24 10.15 C 256.72 8.79 257.96 7.42 258.52 6.37 M 255.63 15.79 C 257.81 15.54 257.97 11.9 261.54 9 M 255.63 15.79 C 257.18 13.01 258.92 11.78 261.54 9 M 255.37 22.19 C 260.67 17.99 262.74 15.14 264.56 11.62 M 255.37 22.19 C 258.74 19.39 259.72 16.05 264.56 11.62 M 255.77 27.83 C 256.47 24.64 260.34 22.78 268.23 13.49 M 255.77 27.83 C 258.01 24.68 262.98 20.57 268.23 13.49 M 255.5 34.23 C 262.63 27.33 261.13 28.99 271.25 16.12 M 255.5 34.23 C 259.34 27.72 263.61 23.36 271.25 16.12" fill="none" stroke="#fad7ac" stroke-width="0.5" stroke-linejoin="round" stroke-linecap="round" stroke-miterlimit="10" transform="rotate(-90,264.88,18.75)" pointer-events="all" style="stroke: rgb(250, 215, 172);"/><path d="M 255.5 3.75 C 263 3.49 266.7 11.58 274.25 18.75 M 255.5 3.75 C 261.66 6.46 266.2 13.31 274.25 18.75 M 274.25 18.75 C 265.32 26.4 263.61 25.79 255.5 33.75 M 274.25 18.75 C 268.78 24.49 259.86 28.11 255.5 33.75 M 255.5 33.75 C 253.92 24.68 259.53 12.81 255.5 3.75 M 255.5 33.75 C 257.65 28.85 256.18 21.21 255.5 3.75" fill="none" stroke="#b46504" stroke-linejoin="round" stroke-linecap="round" stroke-miterlimit="10" transform="rotate(-90,264.88,18.75)" pointer-events="all" style="stroke: rgb(180, 101, 4);"/></g></g><g data-cell-id="message4"><g><path d="M 195.5 8.75 L 205.5 8.75 L 215.5 18.75 L 205.5 28.75 L 195.5 28.75 L 185.5 18.75 Z" fill="none" stroke="none" pointer-events="all"/><path d="M 185.2 19.09 C 185.2 19.09 185.2 19.09 185.2 19.09 M 185.2 19.09 C 185.2 19.09 185.2 19.09 185.2 19.09 M 188.22 21.72 C 189.78 16.64 191.1 18.04 199.37 8.89 M 188.22 21.72 C 191.4 17.41 194.75 15.27 199.37 8.89 M 191.24 24.34 C 195.15 16.89 200.36 12.92 205.02 8.49 M 191.24 24.34 C 195.73 19.57 198.5 18.23 205.02 8.49 M 194.26 26.96 C 197.44 23.61 204.51 21.39 208.04 11.12 M 194.26 26.96 C 199.51 19.32 205.28 16.65 208.04 11.12 M 197.28 29.59 C 199.47 21.24 209.01 22.14 211.06 13.74 M 197.28 29.59 C 202.05 24.65 204.79 23.62 211.06 13.74 M 202.92 29.19 C 205.73 23.02 212.56 18.63 213.42 17.12 M 202.92 29.19 C 206.25 26.57 210.5 19.81 213.42 17.12" fill="none" stroke="#d0cee2" stroke-width="0.5" stroke-linejoin="round" stroke-linecap="round" stroke-miterlimit="10" pointer-events="all" style="stroke: rgb(208, 206, 226);"/><path d="M 195.5 8.75 C 198.38 9.89 199.21 8.28 205.5 8.75 M 195.5 8.75 C 198.56 8.15 203.3 8.73 205.5 8.75 M 205.5 8.75 C 206.02 11.5 210.72 15 215.5 18.75 M 205.5 8.75 C 208.47 12 211.32 16.62 215.5 18.75 M 215.5 18.75 C 210.26 24.08 208.42 22.19 205.5 28.75 M 215.5 18.75 C 213.28 22.23 211.28 24.77 205.5 28.75 M 205.5 28.75 C 200.28 30 199.54 29.52 195.5 28.75 M 205.5 28.75 C 202.9 28.59 200.47 28.78 195.5 28.75 M 195.5 28.75 C 192.84 24.4 189.99 20.9 185.5 18.75 M 195.5 28.75 C 193.15 27.36 192.81 24.07 185.5 18.75 M 185.5 18.75 C 191.69 13.6 193.06 11.59 195.5 8.75 M 185.5 18.75 C 187.67 16.31 189.51 14.32 195.5 8.75" fill="none" stroke="#56517e" stroke-linejoin="round" stroke-linecap="round" stroke-miterlimit="10" pointer-events="all" style="stroke: rgb(86, 81, 126);"/></g></g><g data-cell-id="message2"><g><path d="M 285.5 8.75 L 295.5 8.75 L 305.5 18.75 L 295.5 28.75 L 285.5 28.75 L 275.5 18.75 Z" fill="none" stroke="none" pointer-events="all"/><path d="M 275.2 19.09 C 275.2 19.09 275.2 19.09 275.2 19.09 M 275.2 19.09 C 275.2 19.09 275.2 19.09 275.2 19.09 M 278.22 21.72 C 284.21 14.28 283.02 9.54 289.37 8.89 M 278.22 21.72 C 281.28 17.82 285.67 10.04 289.37 8.89 M 281.24 24.34 C 286.16 15.77 287.89 12.82 295.02 8.49 M 281.24 24.34 C 284.01 20.77 288.67 14.68 295.02 8.49 M 284.26 26.96 C 289.11 24.21 293.35 18.57 298.04 11.12 M 284.26 26.96 C 289.73 23.4 292.54 19.93 298.04 11.12 M 287.28 29.59 C 287.74 24.48 288.64 25.19 301.06 13.74 M 287.28 29.59 C 291.93 27.41 293.7 21.53 301.06 13.74 M 292.92 29.19 C 299.73 27.11 302.57 17.69 303.42 17.12 M 292.92 29.19 C 294.52 25.37 297.57 23.7 303.42 17.12" fill="none" stroke="#d0cee2" stroke-width="0.5" stroke-linejoin="round" stroke-linecap="round" stroke-miterlimit="10" pointer-events="all" style="stroke: rgb(208, 206, 226);"/><path d="M 285.5 8.75 C 286.66 8.04 289.84 10.04 295.5 8.75 M 285.5 8.75 C 286.73 9.56 288.87 7.71 295.5 8.75 M 295.5 8.75 C 296.67 10.48 298.23 17.05 305.5 18.75 M 295.5 8.75 C 298.25 12.96 301.88 15.87 305.5 18.75 M 305.5 18.75 C 301.26 21.58 298.71 27.53 295.5 28.75 M 305.5 18.75 C 301.3 22.94 298.04 26.98 295.5 28.75 M 295.5 28.75 C 294.05 30.38 289.06 30.28 285.5 28.75 M 295.5 28.75 C 292.67 29.1 288.93 29.6 285.5 28.75 M 285.5 28.75 C 282.82 24.41 277.19 21.09 275.5 18.75 M 285.5 28.75 C 283.48 28.11 280.1 25.04 275.5 18.75 M 275.5 18.75 C 275.9 14.9 278.2 12.88 285.5 8.75 M 275.5 18.75 C 277.63 15.32 280.17 11.63 285.5 8.75" fill="none" stroke="#56517e" stroke-linejoin="round" stroke-linecap="round" stroke-miterlimit="10" pointer-events="all" style="stroke: rgb(86, 81, 126);"/></g></g><g data-cell-id="message1"><g><path d="M 325.5 3.75 L 344.25 18.75 L 325.5 33.75 Z" fill="none" stroke="none" transform="rotate(-90,334.88,18.75)" pointer-events="all"/><path d="M 325.5 3.75 C 325.5 3.75 325.5 3.75 325.5 3.75 M 325.5 3.75 C 325.5 3.75 325.5 3.75 325.5 3.75 M 325.24 10.15 C 326.85 9.16 326.74 8.19 328.52 6.37 M 325.24 10.15 C 326.04 8.92 327.41 7.58 328.52 6.37 M 325.63 15.79 C 327.99 13.92 327.48 12.15 331.54 9 M 325.63 15.79 C 327.73 13.94 331.1 9.47 331.54 9 M 325.37 22.19 C 329.55 19.81 329.64 16.09 334.56 11.62 M 325.37 22.19 C 326.41 18.77 328.98 16.42 334.56 11.62 M 325.77 27.83 C 328.93 24.88 335.11 19.01 338.23 13.49 M 325.77 27.83 C 331.67 21.84 334.01 19.03 338.23 13.49 M 325.5 34.23 C 328.74 30.64 334.86 21.74 341.25 16.12 M 325.5 34.23 C 332.43 28.74 334.73 23.48 341.25 16.12" fill="none" stroke="#fad7ac" stroke-width="0.5" stroke-linejoin="round" stroke-linecap="round" stroke-miterlimit="10" transform="rotate(-90,334.88,18.75)" pointer-events="all" style="stroke: rgb(250, 215, 172);"/><path d="M 325.5 3.75 C 330.07 7.79 338.47 15.08 344.25 18.75 M 325.5 3.75 C 331.84 10.15 339.14 12.96 344.25 18.75 M 344.25 18.75 C 337.97 24.33 334.14 27.99 325.5 33.75 M 344.25 18.75 C 337.44 25.76 328 30.99 325.5 33.75 M 325.5 33.75 C 326.23 23.85 323.94 17.67 325.5 3.75 M 325.5 33.75 C 325.84 24.74 324.28 14.01 325.5 3.75" fill="none" stroke="#b46504" stroke-linejoin="round" stroke-linecap="round" stroke-miterlimit="10" transform="rotate(-90,334.88,18.75)" pointer-events="all" style="stroke: rgb(180, 101, 4);"/></g></g><g data-cell-id="xHRaSLy8ux7cP4tZGNaN-7"><g><path d="M 175.63 50.75 L 92 50.75" fill="none" stroke="none" pointer-events="stroke"/><path d="M 180.88 50.75 L 173.88 54.25 L 175.63 50.75 L 173.88 47.25 Z" fill="none" stroke="none" pointer-events="all"/><path d="M 175.63 50.75 C 153.61 51.52 124.5 50.72 92 50.75 M 175.63 50.75 C 153.76 52.51 132.1 50.51 92 50.75" fill="none" stroke="#000000" stroke-linejoin="round" stroke-linecap="round" stroke-miterlimit="10" pointer-events="stroke" style="stroke: light-dark(rgb(0, 0, 0), rgb(255, 255, 255));"/><path d="M 180.88 50.75 C 177.33 50.8 174.32 51.16 173.88 54.25 C 174.67 52.68 174.33 52.55 175.63 50.75 C 176.15 49.54 174.47 49.58 173.88 47.25 C 175.08 48.29 176.69 48.52 180.88 50.75" fill="#000000" stroke="none" pointer-events="all" style="fill: light-dark(rgb(0, 0, 0), rgb(255, 255, 255));"/><path d="M 180.88 50.75 C 180.04 51.65 176.39 52.39 173.88 54.25 M 180.88 50.75 C 179.12 52.08 177.43 52.23 173.88 54.25 M 173.88 54.25 C 174.69 54.14 175.16 52.59 175.63 50.75 M 173.88 54.25 C 174.16 52.86 174.85 52.18 175.63 50.75 M 175.63 50.75 C 174.76 49.3 175.12 48.08 173.88 47.25 M 175.63 50.75 C 175.1 49.05 174.12 48.13 173.88 47.25 M 173.88 47.25 C 174.81 48.16 175.82 47.48 180.88 50.75 M 173.88 47.25 C 175.21 47.6 177.39 48.38 180.88 50.75" fill="none" stroke="#000000" stroke-linejoin="round" stroke-linecap="round" stroke-miterlimit="10" pointer-events="all" style="stroke: light-dark(rgb(0, 0, 0), rgb(255, 255, 255));"/></g></g></g></g></g></svg>