<?xml version="1.0" encoding="UTF-8"?>
<!DOCTYPE svg PUBLIC "-//W3C//DTD SVG 1.1//EN" "http://www.w3.org/Graphics/SVG/1.1/DTD/svg11.dtd">
<svg xmlns="http://www.w3.org/2000/svg" style="background: transparent; background-color: transparent; color-scheme: light dark;" xmlns:xlink="http://www.w3.org/1999/xlink" version="1.1" width="121px" height="61px" viewBox="-0.5 -0.5 121 61"><defs/><g><g data-cell-id="0"><g data-cell-id="1"><g data-cell-id="iTcidLiBRo8bA2SBhC6O-1"/><g data-cell-id="iTcidLiBRo8bA2SBhC6O-2"/><g data-cell-id="iTcidLiBRo8bA2SBhC6O-3"/><g data-cell-id="iTcidLiBRo8bA2SBhC6O-4"/><g data-cell-id="iTcidLiBRo8bA2SBhC6O-5"><g><rect x="0" y="0" width="120" height="60" fill="none" stroke="none" pointer-events="all"/><path d="M 0.31 -0.36 C 0.31 -0.36 0.31 -0.36 0.31 -0.36 M 0.31 -0.36 C 0.31 -0.36 0.31 -0.36 0.31 -0.36 M 0.05 6.04 C 1.67 4.39 3.15 3.97 5.3 0 M 0.05 6.04 C 1.89 4.66 2.62 3.44 5.3 0 M -0.21 12.43 C 4.32 11.97 4.12 7.07 10.29 0.36 M -0.21 12.43 C 3.25 6.82 8.31 3.13 10.29 0.36 M 0.19 18.08 C 1.3 12.75 12.57 6.95 15.93 -0.04 M 0.19 18.08 C 3.32 15.08 5.53 9.03 15.93 -0.04 M -0.08 24.48 C 5.31 17.86 11.66 6.97 20.92 0.33 M -0.08 24.48 C 6.34 18.89 12.15 12.31 20.92 0.33 M 0.32 30.12 C 7.1 16.28 23.42 4.7 26.56 -0.07 M 0.32 30.12 C 6.19 20.46 12.52 14.21 26.56 -0.07 M 0.06 36.52 C 11.59 23.78 29.3 5.39 31.55 0.29 M 0.06 36.52 C 9.29 26.99 18 14.78 31.55 0.29 M -0.2 42.91 C 18.6 24.15 26.45 12.58 37.19 -0.1 M -0.2 42.91 C 9.65 33.53 16.85 20.02 37.19 -0.1 M 0.19 48.56 C 9.21 40.83 23.43 28.59 42.18 0.26 M 0.19 48.56 C 13.31 35.73 25.61 20.22 42.18 0.26 M -0.07 54.96 C 17.27 37.47 30.6 23.6 47.82 -0.14 M -0.07 54.96 C 15.77 35.9 33.28 17.1 47.82 -0.14 M 0.32 60.6 C 21.88 38.57 41.25 14.73 52.81 0.22 M 0.32 60.6 C 10.63 44.68 25.13 33.16 52.81 0.22 M 5.97 60.2 C 18.59 41.04 34.63 25.55 58.45 -0.17 M 5.97 60.2 C 18.09 45.57 31.27 32.63 58.45 -0.17 M 10.95 60.56 C 26.52 41.71 44.74 25.93 63.44 0.19 M 10.95 60.56 C 25.94 43.55 42.85 23.11 63.44 0.19 M 16.6 60.17 C 27.2 45.11 45.24 30.22 69.08 -0.21 M 16.6 60.17 C 31.2 46.7 43.85 32 69.08 -0.21 M 21.58 60.53 C 32.34 44.99 43.45 33.78 74.07 0.15 M 21.58 60.53 C 39.38 39.08 56.95 22.26 74.07 0.15 M 27.23 60.13 C 37.11 45.11 53.34 30.74 79.71 -0.24 M 27.23 60.13 C 45.25 41.44 58.87 22.69 79.71 -0.24 M 32.21 60.49 C 54.95 37.66 72.56 17.25 84.7 0.12 M 32.21 60.49 C 49.56 41.98 66.08 23.5 84.7 0.12 M 37.86 60.1 C 57.03 37.64 74.15 18.95 90.34 -0.28 M 37.86 60.1 C 50.4 43.77 64.15 33.01 90.34 -0.28 M 42.84 60.46 C 52.27 49.25 65.33 37.85 95.33 0.08 M 42.84 60.46 C 59 39.02 75.62 20.89 95.33 0.08 M 48.49 60.07 C 66.9 42.34 81.7 25.82 100.97 -0.31 M 48.49 60.07 C 66.94 40.79 86.67 19.26 100.97 -0.31 M 53.47 60.43 C 73.37 41.06 91 10.31 105.96 0.05 M 53.47 60.43 C 66.01 47.17 75.05 31.81 105.96 0.05 M 58.46 60.79 C 74.61 42.44 86.21 25.43 111.6 -0.35 M 58.46 60.79 C 74.69 39.37 91.24 20.58 111.6 -0.35 M 64.1 60.39 C 78.16 42.46 85.96 27.88 116.59 0.01 M 64.1 60.39 C 78.61 43.75 95.4 26.88 116.59 0.01 M 69.09 60.75 C 85.79 43.05 108.41 19.24 120.26 1.88 M 69.09 60.75 C 81.97 44.91 99.04 30.91 120.26 1.88 M 74.73 60.36 C 85.73 43.39 104.31 28.48 120 8.28 M 74.73 60.36 C 82.95 47.82 91.67 37.45 120 8.28 M 79.72 60.72 C 92.08 41.8 106.66 26.3 120.4 13.92 M 79.72 60.72 C 91.39 47.09 102.25 32.52 120.4 13.92 M 85.36 60.32 C 93.69 51.62 97.39 39.89 120.14 20.32 M 85.36 60.32 C 96.09 47.86 104.75 36.35 120.14 20.32 M 90.35 60.68 C 102.51 48.1 105.89 42.22 120.53 25.97 M 90.35 60.68 C 103.6 45.1 115.06 33.53 120.53 25.97 M 95.99 60.29 C 108.25 52.2 112.48 38.59 120.27 32.36 M 95.99 60.29 C 102.95 50.57 110.91 43.08 120.27 32.36 M 100.98 60.65 C 110.79 49.84 110.3 46.81 120.01 38.76 M 100.98 60.65 C 104.53 55.7 110.82 51.01 120.01 38.76 M 106.62 60.25 C 110.76 57.18 114.87 49.51 120.4 44.4 M 106.62 60.25 C 109.73 55.38 114.08 49.06 120.4 44.4 M 111.61 60.61 C 113.71 56.31 113.79 56.06 120.14 50.8 M 111.61 60.61 C 113.9 57.46 117.53 55.12 120.14 50.8 M 117.25 60.22 C 118.16 59.32 118.85 57.46 120.53 56.45 M 117.25 60.22 C 118.44 59.14 118.94 57.65 120.53 56.45" fill="none" stroke="#d5e8d4" stroke-width="0.5" stroke-linejoin="round" stroke-linecap="round" stroke-miterlimit="10" pointer-events="all" style="stroke: rgb(213, 232, 212);"/><path d="M 0 0 C 45.06 2.07 92.39 3.56 120 0 M 0 0 C 45.85 0.82 90.91 -0.85 120 0 M 120 0 C 122.04 16.79 116.81 28.7 120 60 M 120 0 C 121.41 18.08 121.36 37.66 120 60 M 120 60 C 90.49 60.68 55.34 55.53 0 60 M 120 60 C 91.19 58.68 63.71 60.3 0 60 M 0 60 C -1.93 45.17 -0.16 25.33 0 0 M 0 60 C 0.55 39.37 0.04 16.42 0 0" fill="none" stroke="#82b366" stroke-linejoin="round" stroke-linecap="round" stroke-miterlimit="10" pointer-events="all" style="stroke: rgb(130, 179, 102);"/></g></g></g></g></g></svg>