<?xml version="1.0" encoding="UTF-8"?>
<!-- Do not edit this file with editors other than draw.io -->
<!DOCTYPE svg PUBLIC "-//W3C//DTD SVG 1.1//EN" "http://www.w3.org/Graphics/SVG/1.1/DTD/svg11.dtd">
<svg xmlns="http://www.w3.org/2000/svg" style="background: #ffffff; background-color: light-dark(#ffffff, var(--ge-dark-color, #121212)); color-scheme: light dark;" xmlns:xlink="http://www.w3.org/1999/xlink" version="1.1" width="362px" height="202px" viewBox="-0.5 -0.5 362 202" content="&lt;mxfile host=&quot;Electron&quot; agent=&quot;Mozilla/5.0 (X11; Linux x86_64) AppleWebKit/537.36 (KHTML, like Gecko) draw.io/28.2.5 Chrome/138.0.7204.251 Electron/37.6.1 Safari/537.36&quot; version=&quot;28.2.5&quot; scale=&quot;1&quot; border=&quot;0&quot;&gt;&#10;  &lt;diagram name=&quot;Page-1&quot; id=&quot;rabi1FHZGTTPvatgKKmA&quot;&gt;&#10;    &lt;mxGraphModel dx=&quot;1360&quot; dy=&quot;963&quot; grid=&quot;1&quot; gridSize=&quot;10&quot; guides=&quot;1&quot; tooltips=&quot;1&quot; connect=&quot;1&quot; arrows=&quot;1&quot; fold=&quot;1&quot; page=&quot;1&quot; pageScale=&quot;1&quot; pageWidth=&quot;850&quot; pageHeight=&quot;1100&quot; math=&quot;0&quot; shadow=&quot;0&quot;&gt;&#10;      &lt;root&gt;&#10;        &lt;mxCell id=&quot;0&quot; /&gt;&#10;        &lt;mxCell id=&quot;1&quot; parent=&quot;0&quot; /&gt;&#10;        &lt;object label=&quot;&quot; id=&quot;2&quot;&gt;&#10;          &lt;mxCell style=&quot;html=1;verticalLabelPosition=bottom;align=center;labelBackgroundColor=#ffffff;verticalAlign=top;strokeWidth=2;strokeColor=#4D4D4D;shadow=0;dashed=0;shape=mxgraph.ios7.icons.cloud;sketch=1;curveFitting=1;jiggle=2;fillColor=#E6E6E6;&quot; vertex=&quot;1&quot; parent=&quot;1&quot;&gt;&#10;            &lt;mxGeometry x=&quot;260&quot; y=&quot;470&quot; width=&quot;360&quot; height=&quot;200&quot; as=&quot;geometry&quot; /&gt;&#10;          &lt;/mxCell&gt;&#10;        &lt;/object&gt;&#10;        &lt;object label=&quot;&quot; id=&quot;3&quot;&gt;&#10;          &lt;mxCell style=&quot;shape=datastore;whiteSpace=wrap;html=1;fillColor=#d80073;strokeColor=#A50040;sketch=1;curveFitting=1;jiggle=2;fontColor=#ffffff;&quot; vertex=&quot;1&quot; parent=&quot;1&quot;&gt;&#10;            &lt;mxGeometry x=&quot;300&quot; y=&quot;580&quot; width=&quot;64.62&quot; height=&quot;70&quot; as=&quot;geometry&quot; /&gt;&#10;          &lt;/mxCell&gt;&#10;        &lt;/object&gt;&#10;        &lt;object label=&quot;&quot; id=&quot;4&quot;&gt;&#10;          &lt;mxCell style=&quot;group&quot; vertex=&quot;1&quot; connectable=&quot;0&quot; parent=&quot;1&quot;&gt;&#10;            &lt;mxGeometry x=&quot;390&quot; y=&quot;530&quot; width=&quot;185.38&quot; height=&quot;130&quot; as=&quot;geometry&quot; /&gt;&#10;          &lt;/mxCell&gt;&#10;        &lt;/object&gt;&#10;        &lt;mxCell id=&quot;5&quot; value=&quot;&quot; style=&quot;shape=datastore;whiteSpace=wrap;html=1;fillColor=#60a917;strokeColor=#2D7600;sketch=1;curveFitting=1;jiggle=2;fontColor=#ffffff;&quot; vertex=&quot;1&quot; parent=&quot;4&quot;&gt;&#10;          &lt;mxGeometry width=&quot;120&quot; height=&quot;130&quot; as=&quot;geometry&quot; /&gt;&#10;        &lt;/mxCell&gt;&#10;        &lt;mxCell id=&quot;6&quot; value=&quot;&quot; style=&quot;shape=datastore;whiteSpace=wrap;html=1;fillColor=#1ba1e2;strokeColor=#006EAF;sketch=1;curveFitting=1;jiggle=2;fontColor=#ffffff;&quot; vertex=&quot;1&quot; parent=&quot;4&quot;&gt;&#10;          &lt;mxGeometry x=&quot;130&quot; y=&quot;40&quot; width=&quot;55.38&quot; height=&quot;60&quot; as=&quot;geometry&quot; /&gt;&#10;        &lt;/mxCell&gt;&#10;      &lt;/root&gt;&#10;    &lt;/mxGraphModel&gt;&#10;  &lt;/diagram&gt;&#10;&lt;/mxfile&gt;&#10;"><defs/><rect fill="#ffffff" width="100%" height="100%" x="0" y="0" style="fill: light-dark(#ffffff, var(--ge-dark-color, #121212));"/><g><g data-cell-id="0"><g data-cell-id="1"><g data-cell-id="82fFCfV9gluU0MP9ZeDP-1"/><g data-cell-id="82fFCfV9gluU0MP9ZeDP-2"/><g data-cell-id="82fFCfV9gluU0MP9ZeDP-3"/><g data-cell-id="82fFCfV9gluU0MP9ZeDP-4"/><g data-cell-id="nuage"><g><path d="M 314.8 201 C 341.78 197.58 361.03 171.74 357.79 143.28 C 354.56 114.82 330.06 94.51 303.07 97.93 C 302.77 55.41 274.51 18.82 235.1 9.91 C 195.68 1.01 155.69 22.17 138.9 60.82 C 126.46 45.81 106.69 40.15 88.76 46.45 C 70.83 52.76 58.23 69.8 56.82 89.68 C 27.67 88.54 3.17 112.54 2.09 143.28 C 1.02 174.02 23.77 199.86 52.91 201 Z" fill="none" stroke="none" pointer-events="all"/><path d="M 22.74 101.15 C 22.74 101.15 22.74 101.15 22.74 101.15 M 22.74 101.15 C 22.74 101.15 22.74 101.15 22.74 101.15 M 3.85 135.07 C 18.51 117.46 30.45 105.39 41.25 92.06 M 3.85 135.07 C 16.48 120.82 30.58 105.12 41.25 92.06 M 71.42 57.34 C 71.42 57.34 71.42 57.34 71.42 57.34 M 71.42 57.34 C 71.42 57.34 71.42 57.34 71.42 57.34 M 3.33 147.87 C 24.92 123.15 39.46 107.04 53.19 90.51 M 3.33 147.87 C 15.42 138.17 25.93 124.14 53.19 90.51 M 59.75 82.96 C 64.58 75 78.62 67.82 91.9 45.98 M 59.75 82.96 C 69.11 68.01 81.15 56.19 91.9 45.98 M 4.12 159.16 C 23.96 135.43 44.61 109.92 103.84 44.44 M 4.12 159.16 C 23.68 133.5 43.58 109.6 103.84 44.44 M 7.53 167.42 C 38.97 137.53 65.69 97.34 113.16 45.92 M 7.53 167.42 C 35.94 139.2 63.23 108.35 113.16 45.92 M 10.94 175.69 C 41.76 134.69 78.47 96.82 121.16 48.9 M 10.94 175.69 C 30.85 147.17 54.2 122.2 121.16 48.9 M 16.33 181.69 C 62.08 128.47 106.86 81.61 129.17 51.88 M 16.33 181.69 C 55.93 128.23 100.79 80.51 129.17 51.88 M 21.71 187.7 C 55.05 149.54 85.03 112.63 135.21 57.13 M 21.71 187.7 C 46.07 160.86 69.23 134.46 135.21 57.13 M 27.74 192.95 C 83.77 126.16 142.81 62.15 180.61 17.1 M 27.74 192.95 C 67.26 146.07 108.88 100.1 180.61 17.1 M 35.75 195.93 C 84.7 139.07 136.76 79.12 195.17 12.54 M 35.75 195.93 C 73.21 149.26 113.46 103.72 195.17 12.54 M 43.1 199.67 C 103.25 134.61 165.43 64.59 208.43 9.48 M 43.1 199.67 C 87.22 149.14 131.87 95.65 208.43 9.48 M 53.73 199.63 C 103.63 142.85 152.36 84.71 219.06 9.45 M 53.73 199.63 C 107.48 139.07 160.03 76.74 219.06 9.45 M 63.7 200.35 C 120.11 143.12 173.93 80.79 229.03 10.17 M 63.7 200.35 C 99.62 161.57 133.16 123.25 229.03 10.17 M 74.33 200.32 C 111.83 158.88 146.62 113.22 238.35 11.64 M 74.33 200.32 C 115.42 155.98 156.13 110.57 238.35 11.64 M 84.96 200.29 C 145.97 128.67 209.71 57.61 246.36 14.63 M 84.96 200.29 C 137.72 136.62 195.45 71.62 246.36 14.63 M 95.59 200.25 C 138.1 153.48 180.33 104.87 253.71 18.37 M 95.59 200.25 C 155.5 133.9 211.82 67.41 253.71 18.37 M 106.23 200.22 C 152.89 152.22 192.08 104.57 261.71 21.35 M 106.23 200.22 C 158.87 140.46 211.07 78.66 261.71 21.35 M 116.86 200.18 C 168.79 137.97 220.88 75.01 267.75 26.6 M 116.86 200.18 C 159.35 153.88 201.48 106.95 267.75 26.6 M 127.49 200.15 C 164.79 156.74 202.19 110.16 273.79 31.85 M 127.49 200.15 C 180.11 139.13 232.02 80.36 273.79 31.85 M 138.12 200.11 C 179.55 161.75 214.02 116.63 279.82 37.1 M 138.12 200.11 C 181.21 147.99 229.2 95.47 279.82 37.1 M 148.09 200.83 C 183.64 155.47 226.81 108.19 285.21 43.1 M 148.09 200.83 C 192.21 147.71 239.94 93.77 285.21 43.1 M 158.72 200.8 C 190.96 166.95 213.81 136.75 289.28 50.61 M 158.72 200.8 C 195.48 157.56 230.45 112.43 289.28 50.61 M 169.35 200.76 C 216.93 148.2 259.13 93.49 293.34 58.12 M 169.35 200.76 C 207.39 157.73 246.34 112.28 293.34 58.12 M 179.98 200.73 C 212.8 163.29 242.29 120.7 297.41 65.64 M 179.98 200.73 C 209.93 165.07 239.96 132.35 297.41 65.64 M 190.61 200.7 C 215.8 171.25 236.84 147.61 299.52 75.41 M 190.61 200.7 C 218.49 166.89 250.34 132.91 299.52 75.41 M 201.24 200.66 C 237.04 162.4 271.93 121.29 300.96 85.94 M 201.24 200.66 C 222.16 174.36 245.5 148.39 300.96 85.94 M 211.87 200.63 C 233.91 176.67 256.13 152.26 303.06 95.72 M 211.87 200.63 C 246.91 161.62 283.44 120.89 303.06 95.72 M 222.5 200.59 C 251.22 168.08 280.92 139.19 311.07 98.71 M 222.5 200.59 C 242.04 173.73 265.68 152.6 311.07 98.71 M 232.47 201.31 C 261.65 169.16 282.4 142.78 321.04 99.43 M 232.47 201.31 C 260.92 173.6 288.24 139.37 321.04 99.43 M 243.1 201.28 C 273.14 164.81 305.8 125.46 329.05 102.41 M 243.1 201.28 C 264.06 178.96 285.86 153.21 329.05 102.41 M 253.73 201.24 C 287.84 160.16 318.3 129.13 335.74 106.9 M 253.73 201.24 C 273.76 178.69 292.86 157.69 335.74 106.9 M 264.36 201.21 C 290.9 173.03 317.03 140.72 341.78 112.15 M 264.36 201.21 C 291.04 169.98 317.91 143.06 341.78 112.15 M 274.99 201.17 C 300.06 175.45 323.47 146.55 347.82 117.4 M 274.99 201.17 C 298.8 171.89 323.97 141.72 347.82 117.4 M 285.62 201.14 C 302.17 183.68 309.45 173.52 351.89 124.91 M 285.62 201.14 C 311.76 169.53 335 139.89 351.89 124.91 M 296.25 201.11 C 313.18 178.13 333.99 154.38 355.3 133.18 M 296.25 201.11 C 314.13 178.39 333.17 157.46 355.3 133.18 M 306.88 201.07 C 318.35 183.44 336.14 169.49 357.4 142.96 M 306.88 201.07 C 318.54 184.12 334.24 168.9 357.4 142.96 M 318.83 199.53 C 328.21 182.72 347 174.66 357.53 155 M 318.83 199.53 C 333.65 183.24 348.07 164.05 357.53 155 M 333.39 194.96 C 339.27 192.12 339.12 181.08 353.73 171.57 M 333.39 194.96 C 340.47 186.44 342.58 180.78 353.73 171.57" fill="none" stroke="#e6e6e6" stroke-linejoin="round" stroke-linecap="round" stroke-miterlimit="10" pointer-events="all" style="stroke: rgb(230, 230, 230);"/><path d="M 314.8 201 C 341.9 199.14 362.93 171.13 357.79 143.28 M 314.8 201 C 338.54 197.42 360.78 174.36 357.79 143.28 M 357.79 143.28 C 355.52 111.36 332.41 94.8 303.07 97.93 M 357.79 143.28 C 350.89 119.39 331.52 94.54 303.07 97.93 M 303.07 97.93 C 300.43 55.37 272.25 18.33 235.1 9.91 M 303.07 97.93 C 302.77 59.71 272.82 19.05 235.1 9.91 M 235.1 9.91 C 199.56 1.01 159.67 25.16 138.9 60.82 M 235.1 9.91 C 196.76 -0.31 160.27 17.84 138.9 60.82 M 138.9 60.82 C 128.79 45.67 104.7 39.84 88.76 46.45 M 138.9 60.82 C 129.68 41.22 105.62 36.22 88.76 46.45 M 88.76 46.45 C 71.49 54.5 55.99 71.35 56.82 89.68 M 88.76 46.45 C 72.87 53.8 56.18 70.58 56.82 89.68 M 56.82 89.68 C 27.24 87.36 1.32 116.04 2.09 143.28 M 56.82 89.68 C 31.16 91.11 4.14 111.37 2.09 143.28 M 2.09 143.28 C 1.74 173.33 26.9 199.37 52.91 201 M 2.09 143.28 C -2.71 178.26 23.08 196.33 52.91 201 M 52.91 201 C 122.5 197.83 194.44 201.94 314.8 201 M 52.91 201 C 124.52 202.96 196.23 203.08 314.8 201" fill="none" stroke="#4d4d4d" stroke-width="2" stroke-linejoin="round" stroke-linecap="round" stroke-miterlimit="10" pointer-events="all" style="stroke: rgb(77, 77, 77);"/></g></g><g data-cell-id="red"><g><path d="M 41 120 C 41 129 105.62 129 105.62 120" fill="none" stroke="none" pointer-events="all"/><path d="M 41 124.5 C 41 133.5 105.62 133.5 105.62 124.5" fill="none" stroke="none" pointer-events="all"/><path d="M 41 129 C 41 138 105.62 138 105.62 129" fill="none" stroke="none" pointer-events="all"/><path d="M 41 120 C 41 108 105.62 108 105.62 120 L 105.62 172 C 105.62 184 41 184 41 172 Z" fill="none" stroke="none" pointer-events="all"/><path d="M 40.86 120.16 C 40.86 120.16 40.86 120.16 40.86 120.16 M 40.86 120.16 C 40.86 120.16 40.86 120.16 40.86 120.16 M 41.26 125.8 C 46.19 124.96 50.25 121.27 51.76 113.72 M 41.26 125.8 C 45.75 121.42 49.11 117.61 51.76 113.72 M 41 132.2 C 46.97 126.51 56.77 117.48 58.05 112.58 M 41 132.2 C 45.08 124.59 54.26 118.67 58.05 112.58 M 40.74 138.6 C 49.74 128.64 59 118.8 64.35 111.43 M 40.74 138.6 C 48.36 131.37 55.59 122.39 64.35 111.43 M 41.13 144.24 C 48.47 139.18 52.4 131.13 69.34 111.79 M 41.13 144.24 C 48.81 133.56 58.35 124.85 69.34 111.79 M 40.87 150.64 C 47.06 138.13 59.4 129.52 74.98 111.39 M 40.87 150.64 C 50.06 140 54.56 135.54 74.98 111.39 M 41.26 156.28 C 47.43 150.44 56.29 140.95 79.97 111.75 M 41.26 156.28 C 52.75 146.63 61.04 133.6 79.97 111.75 M 41 162.68 C 59.95 147.77 70.31 125.48 85.61 111.36 M 41 162.68 C 56.85 144.01 70.12 125.92 85.61 111.36 M 40.74 169.07 C 49.71 151.68 68.43 144.42 89.94 112.47 M 40.74 169.07 C 53.46 152.95 69.91 138.3 89.94 112.47 M 42.45 173.21 C 54.99 159.11 62.13 146.77 94.28 113.59 M 42.45 173.21 C 53.04 158.89 64.81 145.8 94.28 113.59 M 44.81 176.59 C 64.63 159.61 78 138.34 98.61 114.7 M 44.81 176.59 C 62.28 153.97 79.3 133.9 98.61 114.7 M 49.14 177.7 C 63.29 157.88 80.49 137.74 102.94 115.82 M 49.14 177.7 C 62.01 165.29 70.92 152.7 102.94 115.82 M 53.47 178.82 C 64.83 157.32 81.34 147.89 105.3 119.2 M 53.47 178.82 C 71.16 159.33 92.54 135.11 105.3 119.2 M 57.8 179.93 C 78.56 159.08 94.57 139.74 105.69 124.84 M 57.8 179.93 C 69.69 166.5 79.57 152.89 105.69 124.84 M 62.79 180.29 C 73.02 163.91 81.78 154.15 105.43 131.24 M 62.79 180.29 C 75.05 163.47 89.61 147.5 105.43 131.24 M 67.78 180.65 C 72.25 174.81 86.21 163.85 105.83 136.88 M 67.78 180.65 C 79.27 165.01 95.31 151.62 105.83 136.88 M 72.76 181.01 C 82.5 177.55 84.01 167.93 105.57 143.28 M 72.76 181.01 C 82.24 168.57 92.64 158.89 105.57 143.28 M 78.41 180.62 C 89.02 170.4 94.77 161.19 105.31 149.67 M 78.41 180.62 C 87.79 169.32 94.9 158.67 105.31 149.67 M 84.05 180.22 C 89.02 174.28 90.64 165.88 105.04 156.07 M 84.05 180.22 C 88.33 173.93 92.84 168.75 105.04 156.07 M 89.69 179.83 C 95.89 176.73 98.02 170.43 105.44 161.72 M 89.69 179.83 C 95.16 176.35 97.37 171.1 105.44 161.72 M 95.99 178.68 C 96.08 174.66 103.05 175.68 105.18 168.11 M 95.99 178.68 C 98.48 176.82 102.16 171.82 105.18 168.11" fill="none" stroke="#d80073" stroke-width="0.5" stroke-linejoin="round" stroke-linecap="round" stroke-miterlimit="10" pointer-events="all" style="stroke: rgb(216, 0, 115);"/><path d="M 41 120 C 38.64 108.69 109.39 106.39 105.62 120 M 41 120 C 42.91 109.79 101.72 112.15 105.62 120 M 105.62 120 C 103.51 144.67 102.04 165.03 105.62 172 M 105.62 120 C 106.97 136.48 105.13 156.43 105.62 172 M 105.62 172 C 101.97 186.22 37.15 182.29 41 172 M 105.62 172 C 102.81 182.71 39.35 183.68 41 172 M 41 172 C 44.34 150.92 39.63 140.36 41 120 M 41 172 C 40 156.19 39.71 144.9 41 120" fill="none" stroke="#a50040" stroke-linejoin="round" stroke-linecap="round" stroke-miterlimit="10" pointer-events="all" style="stroke: rgb(165, 0, 64);"/><path d="M 41 120 C 38.64 129.69 109.39 127.39 105.62 120 M 41 120 C 42.91 130.79 101.72 133.15 105.62 120 M 41 120 C 45 125.9 104.87 127.69 105.62 120 M 41 120 C 45.46 125.81 109.57 130.89 105.62 120 M 41 120 C 42.54 125.05 107.51 126.48 105.62 120 M 41 120 C 38.96 131.19 101.43 131.56 105.62 120" fill="none" stroke="#a50040" stroke-linejoin="round" stroke-linecap="round" stroke-miterlimit="10" pointer-events="all" style="stroke: rgb(165, 0, 64);"/></g></g><g data-cell-id="greenblue"><g/><g data-cell-id="82fFCfV9gluU0MP9ZeDP-8"><g><path d="M 131 77 C 131 93 251 93 251 77" fill="none" stroke="none" pointer-events="all"/><path d="M 131 85 C 131 101 251 101 251 85" fill="none" stroke="none" pointer-events="all"/><path d="M 131 93 C 131 109 251 109 251 93" fill="none" stroke="none" pointer-events="all"/><path d="M 131 77 C 131 55.67 251 55.67 251 77 L 251 175 C 251 196.33 131 196.33 131 175 Z" fill="none" stroke="none" pointer-events="all"/><path d="M 133.98 71.54 C 133.98 71.54 133.98 71.54 133.98 71.54 M 133.98 71.54 C 133.98 71.54 133.98 71.54 133.98 71.54 M 133.07 78.7 C 134.68 74.07 139.59 73.16 142.91 67.38 M 133.07 78.7 C 135.44 76.2 138.36 71.77 142.91 67.38 M 132.8 85.09 C 136 76.71 138.5 71.75 148.55 66.98 M 132.8 85.09 C 141.23 76.79 147.1 71.58 148.55 66.98 M 133.2 90.74 C 138.39 84.81 151.03 74.19 154.85 65.83 M 133.2 90.74 C 142.8 82.96 147.45 72.46 154.85 65.83 M 132.94 97.13 C 142.64 83.56 149.26 75.01 161.15 64.68 M 132.94 97.13 C 141.16 86.66 150.79 74.96 161.15 64.68 M 133.33 102.78 C 137.82 94.79 147.56 86.28 167.45 63.53 M 133.33 102.78 C 146.89 87.39 160.45 70.98 167.45 63.53 M 133.07 109.18 C 147.65 98.45 155.22 87.81 173.09 63.14 M 133.07 109.18 C 145.96 96.82 157.86 81.48 173.09 63.14 M 132.81 115.57 C 147.98 97.72 172.56 73.33 180.05 61.23 M 132.81 115.57 C 148.66 92.89 166.8 74.49 180.05 61.23 M 133.2 121.22 C 151.83 106.65 160.1 90.63 185.03 61.59 M 133.2 121.22 C 147.97 106.32 163.47 87.78 185.03 61.59 M 132.94 127.61 C 143.35 117.35 161.23 101.3 190.02 61.95 M 132.94 127.61 C 154.51 105.29 173.84 80.64 190.02 61.95 M 133.34 133.26 C 151.13 108.02 168.81 89.33 195.01 62.31 M 133.34 133.26 C 152.57 109.55 173.38 87.68 195.01 62.31 M 133.08 139.66 C 158.32 110.23 183.55 76.64 199.99 62.67 M 133.08 139.66 C 153.58 118.68 171.25 95.59 199.99 62.67 M 132.81 146.05 C 158.49 117.03 181.27 94.7 205.64 62.28 M 132.81 146.05 C 149.98 125.28 165.17 107.34 205.64 62.28 M 133.21 151.7 C 157.5 125.56 176.04 97.52 210.62 62.64 M 133.21 151.7 C 161.86 122.29 189.5 88.85 210.62 62.64 M 132.95 158.09 C 150.69 135.57 174.79 108.41 215.61 63 M 132.95 158.09 C 167.77 120.98 199.6 85.1 215.61 63 M 133.34 163.74 C 156.61 131.42 189.14 100.11 220.6 63.36 M 133.34 163.74 C 157.81 138.31 180.55 108.57 220.6 63.36 M 133.08 170.13 C 163.65 132.42 197.8 98.13 224.93 64.48 M 133.08 170.13 C 162.96 138.34 189.58 105.05 224.93 64.48 M 132.82 176.53 C 168.78 135.76 200.81 95.47 229.26 65.59 M 132.82 176.53 C 166.93 136.79 203.52 91.66 229.26 65.59 M 134.53 180.67 C 165.79 151.57 189.79 116.31 233.59 66.7 M 134.53 180.67 C 172.72 139.42 207.55 97.74 233.59 66.7 M 138.2 182.54 C 160.09 162.77 183.38 136.23 237.92 67.82 M 138.2 182.54 C 173.45 142.29 210.44 103.79 237.92 67.82 M 141.88 184.41 C 170.52 148.75 204.73 114.14 242.25 68.93 M 141.88 184.41 C 162.64 159.52 183.37 135.8 242.25 68.93 M 144.89 187.03 C 176.76 149.55 206.61 120.22 245.93 70.8 M 144.89 187.03 C 175.2 152.15 201.51 123.3 245.93 70.8 M 149.23 188.14 C 185.49 137.53 229.19 92.99 249.6 72.67 M 149.23 188.14 C 171.76 160.54 195.1 137.35 249.6 72.67 M 153.56 189.26 C 189.21 151.37 218.6 112.52 251.31 76.81 M 153.56 189.26 C 191.67 148.01 233.66 103.26 251.31 76.81 M 159.2 188.86 C 193.02 154.39 217.23 120.39 251.05 83.21 M 159.2 188.86 C 195.65 150.36 227.23 109.99 251.05 83.21 M 164.19 189.22 C 188.39 156.58 218.75 132.3 250.79 89.6 M 164.19 189.22 C 192.77 154.38 221.81 121.35 250.79 89.6 M 169.17 189.58 C 191.11 165.36 209.95 139.52 250.52 96 M 169.17 189.58 C 196.86 155.48 226.13 125.19 250.52 96 M 174.16 189.94 C 195.36 167.32 220.19 139.31 250.92 101.64 M 174.16 189.94 C 197.99 160.59 222.57 134.68 250.92 101.64 M 179.15 190.3 C 200.22 165.83 218.3 144.86 250.66 108.04 M 179.15 190.3 C 204.41 161.43 228.51 134.6 250.66 108.04 M 184.13 190.66 C 211.25 165.22 235.18 141.82 250.4 114.44 M 184.13 190.66 C 202.21 169.26 223.18 142.41 250.4 114.44 M 189.12 191.02 C 209.46 169.43 230.06 143.91 250.79 120.08 M 189.12 191.02 C 200.99 175.47 215.12 161.42 250.79 120.08 M 192.8 192.89 C 211.75 169.96 232.31 143.69 250.53 126.48 M 192.8 192.89 C 210.7 174.57 224.1 156.3 250.53 126.48 M 198.44 192.5 C 208.38 180.98 216.58 167.76 250.27 132.88 M 198.44 192.5 C 213.33 175.56 227.71 157.95 250.27 132.88 M 204.74 191.35 C 217.34 177.06 238.77 156.21 250.01 139.28 M 204.74 191.35 C 219.46 170.7 237.73 153.81 250.01 139.28 M 210.38 190.96 C 224.48 174.08 243.91 155.23 250.4 144.92 M 210.38 190.96 C 224.1 173.3 238.45 160.95 250.4 144.92 M 216.02 190.56 C 222.14 176.09 231.81 168.74 250.14 151.32 M 216.02 190.56 C 227.27 180.71 235.73 167.49 250.14 151.32 M 221.67 190.17 C 229.95 184.35 238.67 174.46 249.88 157.71 M 221.67 190.17 C 229.5 183.32 238.84 174.67 249.88 157.71 M 227.97 189.02 C 234.78 182.65 245.26 169.77 249.62 164.11 M 227.97 189.02 C 237.94 178.17 244.18 171.4 249.62 164.11 M 233.61 188.62 C 234.06 186.27 244.05 178.49 250.01 169.76 M 233.61 188.62 C 239.03 182.68 241.29 176.75 250.01 169.76 M 242.53 184.45 C 242.56 181.86 246.83 178.95 249.75 176.15 M 242.53 184.45 C 244.59 182.03 245.71 180.7 249.75 176.15" fill="none" stroke="#60a917" stroke-width="0.5" stroke-linejoin="round" stroke-linecap="round" stroke-miterlimit="10" pointer-events="all" style="stroke: rgb(96, 169, 23);"/><path d="M 131 77 C 130.56 53.37 251.47 51.82 251 77 M 131 77 C 134.1 52.72 251.11 53.3 251 77 M 251 77 C 252.88 96.81 252.38 121.86 251 175 M 251 77 C 254.4 96.46 252.21 119.03 251 175 M 251 175 C 252.23 197 129.4 192.91 131 175 M 251 175 C 246.51 200.57 127.34 195.3 131 175 M 131 175 C 131.25 144.18 128.82 107.75 131 77 M 131 175 C 129.55 154.72 130.12 132.09 131 77" fill="none" stroke="#2d7600" stroke-linejoin="round" stroke-linecap="round" stroke-miterlimit="10" pointer-events="all" style="stroke: rgb(45, 118, 0);"/><path d="M 131 77 C 130.56 90.7 251.47 89.15 251 77 M 131 77 C 134.1 90.05 251.11 90.63 251 77 M 131 77 C 128.47 92.21 247.33 95.27 251 77 M 131 77 C 127.1 95.03 249.23 88.77 251 77 M 131 77 C 134.97 91.71 253.91 91.15 251 77 M 131 77 C 129.31 95.9 252.42 93.77 251 77" fill="none" stroke="#2d7600" stroke-linejoin="round" stroke-linecap="round" stroke-miterlimit="10" pointer-events="all" style="stroke: rgb(45, 118, 0);"/></g></g><g data-cell-id="82fFCfV9gluU0MP9ZeDP-9"><g><path d="M 261 109 C 261 117 316.38 117 316.38 109" fill="none" stroke="none" pointer-events="all"/><path d="M 261 113 C 261 121 316.38 121 316.38 113" fill="none" stroke="none" pointer-events="all"/><path d="M 261 117 C 261 125 316.38 125 316.38 117" fill="none" stroke="none" pointer-events="all"/><path d="M 261 109 C 261 98.33 316.38 98.33 316.38 109 L 316.38 153 C 316.38 163.67 261 163.67 261 153 Z" fill="none" stroke="none" pointer-events="all"/><path d="M 261.02 108.97 C 261.02 108.97 261.02 108.97 261.02 108.97 M 261.02 108.97 C 261.02 108.97 261.02 108.97 261.02 108.97 M 260.76 115.37 C 260.5 114.89 263.87 110.52 268.64 106.31 M 260.76 115.37 C 263.8 111.39 265.61 108.7 268.64 106.31 M 261.16 121.01 C 266.06 118.24 273.92 107.48 274.94 105.16 M 261.16 121.01 C 264.38 116.22 271.89 110.57 274.94 105.16 M 260.9 127.41 C 263.62 122.17 274.23 112.92 281.23 104.01 M 260.9 127.41 C 267.25 121.3 274.59 113.69 281.23 104.01 M 261.29 133.05 C 271.75 119.67 278.36 112.97 286.88 103.62 M 261.29 133.05 C 267.72 126.09 274.69 117.77 286.88 103.62 M 261.03 139.45 C 271.77 122.58 283.73 114.26 291.86 103.98 M 261.03 139.45 C 269.38 128.7 276.64 123.15 291.86 103.98 M 260.77 145.85 C 269.88 132.59 289.03 119.37 298.82 102.08 M 260.77 145.85 C 272.3 132.11 285.24 119.35 298.82 102.08 M 261.16 151.49 C 270.85 141.78 286.27 124.15 303.15 103.19 M 261.16 151.49 C 271.4 138.34 285.7 120.18 303.15 103.19 M 263.53 154.87 C 270.12 142.28 280.4 131.81 307.48 104.31 M 263.53 154.87 C 273.64 140.28 285.91 127.48 307.48 104.31 M 265.89 158.25 C 274.12 140.97 288.88 124.55 311.81 105.42 M 265.89 158.25 C 285.38 139.8 302.84 118.14 311.81 105.42 M 270.22 159.36 C 283.82 142.24 293.39 127.98 315.49 107.29 M 270.22 159.36 C 283.36 142.21 300.46 124.83 315.49 107.29 M 274.55 160.48 C 292.28 144.6 304.77 120.71 317.85 110.67 M 274.55 160.48 C 288.26 143.35 305.37 124.6 317.85 110.67 M 279.54 160.84 C 292.96 145.98 305.66 125.89 318.24 116.31 M 279.54 160.84 C 294.1 143.23 309.81 125.58 318.24 116.31 M 283.87 161.95 C 295.58 144.5 310.61 130.86 317.98 122.71 M 283.87 161.95 C 294.62 149.17 308.18 134.21 317.98 122.71 M 289.51 161.56 C 293.16 151.24 301.05 144.11 317.72 129.11 M 289.51 161.56 C 295.11 155.09 303.72 146.24 317.72 129.11 M 295.15 161.17 C 305.14 151.53 302.81 149.74 317.46 135.51 M 295.15 161.17 C 303.61 152.71 311.91 145.51 317.46 135.51 M 300.8 160.77 C 306.59 153.79 316.58 144.2 317.85 141.15 M 300.8 160.77 C 305.98 156.37 311.68 149.05 317.85 141.15 M 307.1 159.62 C 309.98 157.57 315.08 154.05 317.59 147.55 M 307.1 159.62 C 307.86 157.33 310.45 153.07 317.59 147.55" fill="none" stroke="#1ba1e2" stroke-width="0.5" stroke-linejoin="round" stroke-linecap="round" stroke-miterlimit="10" pointer-events="all" style="stroke: rgb(27, 161, 226);"/><path d="M 261 109 C 260.56 96.71 313.66 100.2 316.38 109 M 261 109 C 261.72 99.25 314.56 99.27 316.38 109 M 316.38 109 C 319.86 119.7 316.23 130.88 316.38 153 M 316.38 109 C 316.39 125.28 316.86 139.2 316.38 153 M 316.38 153 C 318.31 166.49 264.31 167.32 261 153 M 316.38 153 C 312.46 165.84 264.77 162.16 261 153 M 261 153 C 263.68 136.58 260.15 125.23 261 109 M 261 153 C 261.14 141.89 259.99 131.03 261 109" fill="none" stroke="#006eaf" stroke-linejoin="round" stroke-linecap="round" stroke-miterlimit="10" pointer-events="all" style="stroke: rgb(0, 110, 175);"/><path d="M 261 109 C 260.56 115.38 313.66 118.87 316.38 109 M 261 109 C 261.72 117.92 314.56 117.94 316.38 109 M 261 109 C 259.01 118.63 317.49 120.12 316.38 109 M 261 109 C 260.65 116.42 316.22 118.59 316.38 109 M 261 109 C 262.72 114.96 315.64 120.12 316.38 109 M 261 109 C 261.24 118.77 318.6 120.24 316.38 109" fill="none" stroke="#006eaf" stroke-linejoin="round" stroke-linecap="round" stroke-miterlimit="10" pointer-events="all" style="stroke: rgb(0, 110, 175);"/></g></g></g></g></g></g></svg>