<?xml version="1.0" encoding="UTF-8"?>
<!DOCTYPE svg PUBLIC "-//W3C//DTD SVG 1.1//EN" "http://www.w3.org/Graphics/SVG/1.1/DTD/svg11.dtd">
<svg xmlns="http://www.w3.org/2000/svg" style="background: transparent; background-color: transparent; color-scheme: light dark;" xmlns:xlink="http://www.w3.org/1999/xlink" version="1.1" width="301px" height="124px" viewBox="-0.5 -0.5 301 124"><defs/><g><g data-cell-id="0"><g data-cell-id="1"><g data-cell-id="wA9FqI98lm-z4scQnuff-53"/><g data-cell-id="wA9FqI98lm-z4scQnuff-7"><g><rect x="10" y="95" width="280" height="20" rx="10" ry="10" fill="none" stroke="none" pointer-events="all"/><path d="M 12.75 97.21 C 12.75 97.21 12.75 97.21 12.75 97.21 M 12.75 97.21 C 12.75 97.21 12.75 97.21 12.75 97.21 M 10.53 105.87 C 12.91 101.39 14.38 100.39 19.71 95.3 M 10.53 105.87 C 12.04 102.29 15.43 100.77 19.71 95.3 M 12.23 110 C 11.8 104.04 15.45 107.11 22.73 97.93 M 12.23 110 C 13.24 108.44 17.75 104.8 22.73 97.93 M 13.94 114.14 C 17.49 104.56 24.83 105.36 28.37 97.53 M 13.94 114.14 C 18.3 108.03 21.87 102.9 28.37 97.53 M 18.27 115.25 C 21.71 114.12 22.91 109.32 33.36 97.89 M 18.27 115.25 C 21.66 109.14 27.16 103.7 33.36 97.89 M 21.94 117.12 C 26.64 112.95 37.62 99.77 39 97.5 M 21.94 117.12 C 28.23 109.27 33.59 102.83 39 97.5 M 27.59 116.73 C 35.12 113.12 35.96 101.38 43.99 97.86 M 27.59 116.73 C 30.2 113.32 36.01 106.27 43.99 97.86 M 32.57 117.09 C 38.68 107.01 45.73 107.38 49.63 97.46 M 32.57 117.09 C 39.14 108.77 44.68 100.88 49.63 97.46 M 38.22 116.69 C 44.82 111.82 52.57 104.45 54.62 97.82 M 38.22 116.69 C 46.16 108.16 50.31 101.57 54.62 97.82 M 43.2 117.05 C 49.47 111.71 47.6 107.88 60.26 97.43 M 43.2 117.05 C 46.01 110.71 51.72 108.99 60.26 97.43 M 48.85 116.66 C 54.02 116.54 53.79 104.91 65.25 97.79 M 48.85 116.66 C 54.47 110.28 57.07 106.48 65.25 97.79 M 53.83 117.02 C 64.59 112.24 69.47 102.59 70.89 97.39 M 53.83 117.02 C 57.9 112.09 60.96 107.4 70.89 97.39 M 59.48 116.62 C 61.34 109.11 64.27 110.94 75.88 97.75 M 59.48 116.62 C 64.93 111.21 67.92 107.3 75.88 97.75 M 64.46 116.98 C 68.85 113.18 76.98 106.04 81.52 97.36 M 64.46 116.98 C 71.91 109.38 75.69 103.98 81.52 97.36 M 70.11 116.59 C 74.95 110.79 81.44 104.54 86.51 97.72 M 70.11 116.59 C 73.55 113.08 78.21 108.08 86.51 97.72 M 75.09 116.95 C 78 108.14 79.95 106.31 92.15 97.33 M 75.09 116.95 C 81.86 108.57 89.45 102.45 92.15 97.33 M 80.74 116.55 C 88.68 111 90.35 105.32 97.14 97.69 M 80.74 116.55 C 87.41 109.41 92.65 101.64 97.14 97.69 M 85.72 116.91 C 92.24 112.32 95.71 107.05 102.78 97.29 M 85.72 116.91 C 93.45 109.96 98.99 101.29 102.78 97.29 M 91.37 116.52 C 97.18 113.1 102.65 105.68 107.77 97.65 M 91.37 116.52 C 95.54 110.08 104.11 104.09 107.77 97.65 M 96.35 116.88 C 99.34 108.87 109.3 99.98 113.41 97.26 M 96.35 116.88 C 100.04 110.6 106.83 105.96 113.41 97.26 M 101.34 117.24 C 106.82 112.63 107.14 107.67 118.4 97.62 M 101.34 117.24 C 108.92 111.27 112.51 103.43 118.4 97.62 M 106.99 116.84 C 116.65 107.03 120.4 101.39 123.39 97.98 M 106.99 116.84 C 113.49 109.07 119.84 104.27 123.39 97.98 M 111.97 117.2 C 119 114.79 120.86 106.45 129.03 97.58 M 111.97 117.2 C 117.98 111.66 121.99 106.11 129.03 97.58 M 117.62 116.81 C 123.45 107.16 127.47 106.03 134.02 97.94 M 117.62 116.81 C 124.53 108.16 128.41 101.51 134.02 97.94 M 122.6 117.17 C 124.85 110.31 133.87 107.32 139.66 97.55 M 122.6 117.17 C 127.93 112.1 133.96 105.37 139.66 97.55 M 128.25 116.78 C 137.58 111.68 144.04 101.81 144.65 97.91 M 128.25 116.78 C 134.84 111.5 139.19 101.17 144.65 97.91 M 133.23 117.14 C 140.98 106.91 142.49 103.88 150.29 97.51 M 133.23 117.14 C 137.94 112.92 142.02 105.33 150.29 97.51 M 138.88 116.74 C 143.12 111.78 151.06 104.97 155.28 97.87 M 138.88 116.74 C 140.97 113.51 148.88 107.31 155.28 97.87 M 143.86 117.1 C 146.25 109.5 152.05 104.12 160.92 97.48 M 143.86 117.1 C 148.52 109.96 153.78 107.21 160.92 97.48 M 149.51 116.71 C 153.85 115.21 160.29 106.7 165.91 97.84 M 149.51 116.71 C 153.13 108.92 157.53 105.24 165.91 97.84 M 154.49 117.07 C 163.18 112.58 163.91 104.84 171.55 97.44 M 154.49 117.07 C 159.53 111.75 166.08 104.13 171.55 97.44 M 160.14 116.67 C 166.4 110.55 165.91 103.29 176.54 97.8 M 160.14 116.67 C 166.69 110.54 170.08 108.01 176.54 97.8 M 165.12 117.03 C 168.13 108.41 173.23 101.58 182.18 97.41 M 165.12 117.03 C 168.31 113.44 175.64 105.18 182.18 97.41 M 170.77 116.64 C 174.28 111.18 177.5 105.72 187.17 97.77 M 170.77 116.64 C 173.85 111.3 178.77 105.57 187.17 97.77 M 175.75 117 C 180.46 109.59 181.97 105.55 192.81 97.38 M 175.75 117 C 181.8 111.79 188.9 104.49 192.81 97.38 M 181.4 116.6 C 189.9 107.51 194.38 98.51 197.8 97.74 M 181.4 116.6 C 185.59 112.64 188.83 106.49 197.8 97.74 M 186.38 116.96 C 192.3 106.56 195.59 98.94 203.44 97.34 M 186.38 116.96 C 191.23 110.7 200.19 104.53 203.44 97.34 M 192.03 116.57 C 200.69 114.95 202.93 104.62 208.43 97.7 M 192.03 116.57 C 194.41 111.22 198.25 107.09 208.43 97.7 M 197.01 116.93 C 202.67 111.86 208.61 105.03 214.07 97.31 M 197.01 116.93 C 202.99 110.98 207.1 104.13 214.07 97.31 M 202.66 116.53 C 202.83 109.09 207.6 104.18 219.06 97.67 M 202.66 116.53 C 207.13 108.47 212.82 102.8 219.06 97.67 M 207.64 116.89 C 214.18 107.3 216.73 101.71 224.7 97.27 M 207.64 116.89 C 215.37 111.39 221.55 101.41 224.7 97.27 M 213.29 116.5 C 215.6 107.64 222.56 101.3 229.69 97.63 M 213.29 116.5 C 218.05 109.23 226.46 104.54 229.69 97.63 M 218.27 116.86 C 225.62 112.98 232.79 100.29 235.33 97.24 M 218.27 116.86 C 222.22 108.82 228.31 103.91 235.33 97.24 M 223.26 117.22 C 231.92 107.8 236.79 103.15 240.32 97.6 M 223.26 117.22 C 228.37 111.09 237.07 102.27 240.32 97.6 M 228.9 116.83 C 230.23 111.51 239.82 107.78 245.3 97.96 M 228.9 116.83 C 236.44 107.81 240.78 104.52 245.3 97.96 M 233.89 117.19 C 236.31 115.38 247.23 108.81 250.95 97.56 M 233.89 117.19 C 239.12 111.25 242.1 110.62 250.95 97.56 M 239.53 116.79 C 246.71 108.7 246.13 105.18 255.93 97.92 M 239.53 116.79 C 243.12 111.97 247.24 105.5 255.93 97.92 M 244.52 117.15 C 252.13 115.02 253.4 107.56 261.58 97.53 M 244.52 117.15 C 250.64 113.16 254.81 108.24 261.58 97.53 M 250.16 116.76 C 256.63 116.68 254.21 105.43 266.56 97.89 M 250.16 116.76 C 253.16 112.12 258.08 106.87 266.56 97.89 M 255.15 117.12 C 260.33 110.44 267.25 110.02 272.21 97.49 M 255.15 117.12 C 261.93 111.36 264.56 105.18 272.21 97.49 M 260.79 116.72 C 264.46 113 266.02 109.96 277.19 97.85 M 260.79 116.72 C 266.9 110.74 270.8 103.19 277.19 97.85 M 265.78 117.08 C 273.85 106.81 279.68 100.54 282.84 97.46 M 265.78 117.08 C 269.71 110.52 275.33 108.11 282.84 97.46 M 271.42 116.69 C 277 116.27 281.28 110.18 287.82 97.82 M 271.42 116.69 C 275.69 110.13 280.98 102.04 287.82 97.82 M 276.41 117.05 C 276.23 114.75 282.24 112.06 289.53 101.95 M 276.41 117.05 C 282.1 109.94 284.54 108.2 289.53 101.95 M 282.05 116.65 C 282.76 114.01 287.18 114.42 291.24 106.09 M 282.05 116.65 C 284.71 113.68 285.54 109.96 291.24 106.09" fill="none" stroke="#b1ddf0" stroke-width="0.5" stroke-linejoin="round" stroke-linecap="round" stroke-miterlimit="10" pointer-events="all" style="stroke: rgb(177, 221, 240);"/></g></g><g data-cell-id="wA9FqI98lm-z4scQnuff-9"><g><ellipse cx="150" cy="105" rx="10" ry="10" fill="none" stroke="none" pointer-events="all"/><path d="M 159.04 96.72 C 160.68 98.25 161.99 101.58 161.55 104.19 C 161.11 106.8 157.92 110.94 156.41 112.38 C 154.9 113.81 154.42 112.84 152.5 112.81 C 150.58 112.77 146.57 112.75 144.9 112.18 C 143.23 111.62 143.1 111.19 142.47 109.43 C 141.85 107.67 140.94 104 141.16 101.63 C 141.39 99.25 142.19 96.37 143.81 95.15 C 145.43 93.94 148.04 92.93 150.88 94.34 C 153.72 95.75 159.65 100.45 160.84 103.61 C 162.02 106.77 158.41 113.21 157.99 113.29" fill="#ffffff" stroke="none" pointer-events="all" style="fill: light-dark(#ffffff, var(--ge-dark-color, #121212));"/><path d="M 150.31 95.52 C 151.78 95.65 151.87 96.96 153.71 97.91 C 155.56 98.87 160.27 99.32 161.39 101.28 C 162.5 103.23 161.47 107.62 160.4 109.67 C 159.32 111.73 156.92 112.5 154.94 113.59 C 152.95 114.69 150.48 116.93 148.48 116.26 C 146.48 115.58 144.46 111.74 142.96 109.53 C 141.46 107.31 139.77 104.92 139.48 102.96 C 139.19 101.01 139.08 99.13 141.22 97.81 C 143.36 96.49 149.29 94.66 152.31 95.03 C 155.32 95.41 159.39 99.94 159.31 100.05" fill="none" stroke="#666666" stroke-linejoin="round" stroke-linecap="round" stroke-miterlimit="10" pointer-events="all" style="stroke: rgb(102, 102, 102);"/></g></g><g data-cell-id="wA9FqI98lm-z4scQnuff-11"><g><ellipse cx="30" cy="105" rx="10" ry="10" fill="none" stroke="none" pointer-events="all"/><path d="M 25.13 97.39 C 26.88 96.43 28.48 96.35 30.44 96.56 C 32.39 96.77 34.96 96.93 36.87 98.65 C 38.78 100.37 42.13 104.4 41.9 106.87 C 41.67 109.34 37.08 112.38 35.48 113.48 C 33.88 114.59 34.4 113.37 32.29 113.52 C 30.18 113.66 24.9 115.17 22.82 114.37 C 20.75 113.58 20.21 110.72 19.85 108.75 C 19.5 106.77 18.71 104.51 20.68 102.53 C 22.65 100.55 29.15 97.61 31.68 96.87 C 34.2 96.12 35.9 98.08 35.81 98.04" fill="#ffffff" stroke="none" pointer-events="all" style="fill: light-dark(#ffffff, var(--ge-dark-color, #121212));"/><path d="M 35.37 96.75 C 36.99 97.78 38.29 100.3 39.06 102.81 C 39.82 105.32 40.79 109.64 39.97 111.81 C 39.16 113.99 36.46 115.43 34.17 115.87 C 31.87 116.31 28.52 115.25 26.19 114.46 C 23.87 113.67 21.45 113.33 20.2 111.13 C 18.95 108.92 17.79 103.3 18.69 101.24 C 19.59 99.17 23.67 99.87 25.62 98.73 C 27.58 97.6 28 93.62 30.43 94.42 C 32.86 95.22 38.49 101.17 40.21 103.52 C 41.92 105.87 41.17 108.83 40.73 108.52" fill="none" stroke="#666666" stroke-linejoin="round" stroke-linecap="round" stroke-miterlimit="10" pointer-events="all" style="stroke: rgb(102, 102, 102);"/></g></g><g data-cell-id="wA9FqI98lm-z4scQnuff-12"><g><ellipse cx="70" cy="105" rx="10" ry="10" fill="none" stroke="none" pointer-events="all"/><path d="M 70.38 97 C 72.36 97.29 77.04 98.83 78.53 100.51 C 80.02 102.2 79.42 105.26 79.34 107.13 C 79.26 109 79.66 110.42 78.07 111.74 C 76.48 113.05 71.86 114.48 69.81 115.03 C 67.75 115.58 67.27 116.2 65.74 115.03 C 64.2 113.87 61.21 110.14 60.6 108.03 C 59.98 105.92 61.05 104.12 62.04 102.37 C 63.03 100.61 64.15 97.74 66.53 97.47 C 68.92 97.21 74.02 99.45 76.37 100.77 C 78.71 102.09 80.42 105.81 80.63 105.4" fill="#ffffff" stroke="none" pointer-events="all" style="fill: light-dark(#ffffff, var(--ge-dark-color, #121212));"/><path d="M 72.2 94.81 C 74.12 95.4 76.55 98.93 78.15 100.54 C 79.75 102.14 81.93 102.9 81.78 104.42 C 81.63 105.95 79.25 108.11 77.26 109.68 C 75.27 111.25 72.13 113.29 69.82 113.84 C 67.51 114.38 64.79 114.07 63.41 112.96 C 62.04 111.85 61.78 108.8 61.57 107.18 C 61.36 105.56 61.32 104.75 62.15 103.25 C 62.98 101.74 63.9 98.64 66.55 98.15 C 69.2 97.65 75.73 99.08 78.04 100.25 C 80.35 101.43 80.78 105.43 80.41 105.19" fill="none" stroke="#666666" stroke-linejoin="round" stroke-linecap="round" stroke-miterlimit="10" pointer-events="all" style="stroke: rgb(102, 102, 102);"/></g></g><g data-cell-id="wA9FqI98lm-z4scQnuff-13"><g><ellipse cx="110" cy="105" rx="10" ry="10" fill="none" stroke="none" pointer-events="all"/><path d="M 118.64 97 C 119.93 99.07 119.26 104.79 119.04 107.19 C 118.82 109.58 118.66 110.32 117.31 111.38 C 115.96 112.44 113.23 113.43 110.94 113.55 C 108.65 113.67 105.12 112.9 103.57 112.11 C 102.02 111.31 101.77 110.73 101.62 108.77 C 101.47 106.81 102.21 102.2 102.67 100.36 C 103.12 98.52 103.07 98.39 104.37 97.73 C 105.67 97.08 108.13 95.92 110.45 96.43 C 112.76 96.93 117.08 99.82 118.27 100.77 C 119.45 101.73 117.58 102.22 117.53 102.16" fill="#ffffff" stroke="none" pointer-events="all" style="fill: light-dark(#ffffff, var(--ge-dark-color, #121212));"/><path d="M 108.53 95.44 C 110.9 94.87 113.8 94.99 115.21 95.92 C 116.62 96.85 116.44 99.35 116.96 101 C 117.49 102.64 118.35 103.5 118.37 105.78 C 118.38 108.05 118.76 112.83 117.03 114.63 C 115.3 116.42 110.31 116.94 107.96 116.54 C 105.61 116.15 104.07 114.24 102.92 112.27 C 101.78 110.29 101.62 106.71 101.12 104.69 C 100.62 102.67 98.56 101.52 99.94 100.16 C 101.33 98.8 107.32 97.53 109.43 96.53 C 111.54 95.53 112.81 94.32 112.61 94.17" fill="none" stroke="#666666" stroke-linejoin="round" stroke-linecap="round" stroke-miterlimit="10" pointer-events="all" style="stroke: rgb(102, 102, 102);"/></g></g><g data-cell-id="wA9FqI98lm-z4scQnuff-17"><g><ellipse cx="190" cy="105" rx="10" ry="10" fill="none" stroke="none" pointer-events="all"/><path d="M 185.65 95.39 C 187.35 94.08 192.5 93.79 194.33 94.53 C 196.16 95.28 195.91 97.58 196.63 99.85 C 197.35 102.11 198.67 105.88 198.66 108.13 C 198.66 110.37 197.86 112.03 196.61 113.33 C 195.35 114.62 193.11 116.13 191.12 115.89 C 189.14 115.66 186.82 113.65 184.71 111.94 C 182.6 110.23 179.12 107.52 178.45 105.64 C 177.79 103.75 179.22 102.57 180.72 100.62 C 182.22 98.66 185.42 94.46 187.46 93.92 C 189.49 93.37 192.5 97.2 192.95 97.35" fill="#ffffff" stroke="none" pointer-events="all" style="fill: light-dark(#ffffff, var(--ge-dark-color, #121212));"/><path d="M 185.61 96.78 C 186.94 96.22 189.24 96.96 191.35 97.26 C 193.47 97.55 197.2 96.78 198.3 98.55 C 199.4 100.32 198.37 105.35 197.93 107.87 C 197.5 110.39 196.81 112.78 195.69 113.67 C 194.57 114.56 192.9 113.49 191.2 113.22 C 189.49 112.95 187.42 113.15 185.44 112.08 C 183.45 111.01 180.2 109.04 179.28 106.8 C 178.36 104.56 178.06 100.81 179.9 98.62 C 181.74 96.43 188.42 94.28 190.31 93.63 C 192.21 92.99 191.27 94.14 191.26 94.73" fill="none" stroke="#666666" stroke-linejoin="round" stroke-linecap="round" stroke-miterlimit="10" pointer-events="all" style="stroke: rgb(102, 102, 102);"/></g></g><g data-cell-id="wA9FqI98lm-z4scQnuff-18"><g><ellipse cx="230" cy="105" rx="10" ry="10" fill="none" stroke="none" pointer-events="all"/><path d="M 234.95 95.69 C 236.73 96.32 237.44 96.92 238.02 99.05 C 238.59 101.18 238.39 106.21 238.42 108.49 C 238.45 110.76 239.5 111.73 238.21 112.69 C 236.91 113.65 232.89 114.23 230.65 114.24 C 228.41 114.25 226.7 114.25 224.77 112.74 C 222.83 111.24 219.63 107.44 219.06 105.21 C 218.49 102.97 220 100.85 221.33 99.33 C 222.66 97.81 224.41 96.47 227.06 96.07 C 229.71 95.66 235.43 95.69 237.21 96.91 C 239 98.13 237.71 102.93 237.78 103.39" fill="#ffffff" stroke="none" pointer-events="all" style="fill: light-dark(#ffffff, var(--ge-dark-color, #121212));"/><path d="M 223.01 100.19 C 224.23 98.73 225.45 96.05 227.44 95.46 C 229.43 94.87 232.82 95.98 234.93 96.66 C 237.04 97.33 239.09 97.58 240.09 99.5 C 241.1 101.43 241.68 105.83 240.94 108.21 C 240.21 110.6 237.74 112.72 235.7 113.82 C 233.65 114.93 231.09 115.2 228.67 114.85 C 226.25 114.49 222.64 113.14 221.18 111.68 C 219.72 110.22 218.47 109.05 219.9 106.08 C 221.32 103.12 227.25 95.64 229.75 93.9 C 232.24 92.17 234.83 95.07 234.87 95.67" fill="none" stroke="#666666" stroke-linejoin="round" stroke-linecap="round" stroke-miterlimit="10" pointer-events="all" style="stroke: rgb(102, 102, 102);"/></g></g><g data-cell-id="wA9FqI98lm-z4scQnuff-19"><g><ellipse cx="270" cy="105" rx="10" ry="10" fill="none" stroke="none" pointer-events="all"/><path d="M 261.98 100.06 C 263.45 98.3 267.24 95.64 269.09 94.93 C 270.93 94.23 271.32 95.1 273.04 95.84 C 274.75 96.58 278.13 97.18 279.37 99.39 C 280.61 101.59 280.88 106.97 280.48 109.07 C 280.08 111.18 278.71 110.82 276.97 112.02 C 275.24 113.22 272.06 116.32 270.07 116.27 C 268.08 116.22 266.38 113.38 265.04 111.73 C 263.69 110.08 261.46 108.78 262.01 106.38 C 262.56 103.99 266.43 99.37 268.35 97.36 C 270.27 95.35 273.53 94.78 273.53 94.32" fill="#ffffff" stroke="none" pointer-events="all" style="fill: light-dark(#ffffff, var(--ge-dark-color, #121212));"/><path d="M 273.73 98.06 C 275.54 98.47 279.32 99.08 280.37 100.55 C 281.42 102.02 281.02 104.81 280.03 106.87 C 279.03 108.93 276.43 111.74 274.4 112.91 C 272.36 114.08 269.88 114.43 267.81 113.89 C 265.75 113.36 263.58 111.13 262.02 109.71 C 260.46 108.29 258.67 107.25 258.44 105.38 C 258.2 103.52 258.76 100.4 260.63 98.53 C 262.49 96.66 266.26 93.52 269.61 94.16 C 272.95 94.8 279.61 99.21 280.68 102.36 C 281.74 105.51 276.11 112.55 276.01 113.03" fill="none" stroke="#666666" stroke-linejoin="round" stroke-linecap="round" stroke-miterlimit="10" pointer-events="all" style="stroke: rgb(102, 102, 102);"/></g></g><g data-cell-id="wA9FqI98lm-z4scQnuff-32"><g><path d="M 278 88 Q 300 88 300 104 Q 300 120 293.5 120 Q 287 120 288.24 119.75" fill="none" stroke="#000000" stroke-linejoin="round" stroke-linecap="round" stroke-miterlimit="10" pointer-events="stroke" style="stroke: light-dark(rgb(0, 0, 0), rgb(255, 255, 255));"/><path d="M 283.1 120.78 L 283.19 120.9 L 284.14 119.58 L 285.63 118.94 L 286.81 117.91 L 287.88 116.74 L 289.27 115.98 L 289.14 115.94 L 289.18 116.76 L 288.68 117.44 L 288.9 118.31 L 288.75 119.08 L 288.24 119.75 L 288.27 119.77 L 288.55 120.23 L 289.46 121.19 L 289.46 121.43 L 290.29 122.31 L 290.65 122.84 L 290.62 122.76 L 289.19 122.61 L 287.63 122.02 L 286.14 121.71 L 284.53 120.9 L 283.1 120.78 Z Z" fill="#000000" stroke="#000000" stroke-linejoin="round" stroke-linecap="round" stroke-miterlimit="10" pointer-events="all" style="fill: light-dark(rgb(0, 0, 0), rgb(255, 255, 255)); stroke: light-dark(rgb(0, 0, 0), rgb(255, 255, 255));"/></g></g><g data-cell-id="wA9FqI98lm-z4scQnuff-42"/><g data-cell-id="wA9FqI98lm-z4scQnuff-43"/><g data-cell-id="wA9FqI98lm-z4scQnuff-44"/><g data-cell-id="wA9FqI98lm-z4scQnuff-45"/><g data-cell-id="wA9FqI98lm-z4scQnuff-46"/><g data-cell-id="wA9FqI98lm-z4scQnuff-47"/><g data-cell-id="wA9FqI98lm-z4scQnuff-48"/><g data-cell-id="wA9FqI98lm-z4scQnuff-49"/><g data-cell-id="wA9FqI98lm-z4scQnuff-50"/><g data-cell-id="wA9FqI98lm-z4scQnuff-54"/><g data-cell-id="wA9FqI98lm-z4scQnuff-55"/><g data-cell-id="wA9FqI98lm-z4scQnuff-40"/><g data-cell-id="wA9FqI98lm-z4scQnuff-67"/><g data-cell-id="wA9FqI98lm-z4scQnuff-71"/><g data-cell-id="wA9FqI98lm-z4scQnuff-72"/><g data-cell-id="wA9FqI98lm-z4scQnuff-73"/><g data-cell-id="wA9FqI98lm-z4scQnuff-74"/><g data-cell-id="wA9FqI98lm-z4scQnuff-96"/><g data-cell-id="wA9FqI98lm-z4scQnuff-97"/><g data-cell-id="wA9FqI98lm-z4scQnuff-98"/><g data-cell-id="wA9FqI98lm-z4scQnuff-99"/><g data-cell-id="wA9FqI98lm-z4scQnuff-100"/><g data-cell-id="remplace"><g data-cell-id="wA9FqI98lm-z4scQnuff-83"/><g data-cell-id="wA9FqI98lm-z4scQnuff-90"><g data-cell-id="wA9FqI98lm-z4scQnuff-84"/><g data-cell-id="wA9FqI98lm-z4scQnuff-85"/><g data-cell-id="wA9FqI98lm-z4scQnuff-86"/><g data-cell-id="wA9FqI98lm-z4scQnuff-87"/><g data-cell-id="wA9FqI98lm-z4scQnuff-88"/><g data-cell-id="wA9FqI98lm-z4scQnuff-89"/></g><g data-cell-id="wA9FqI98lm-z4scQnuff-94"/></g><g data-cell-id="delta"><g data-cell-id="wA9FqI98lm-z4scQnuff-80"/><g data-cell-id="wA9FqI98lm-z4scQnuff-101"/></g><g data-cell-id="bidon1"><g/><g data-cell-id="wA9FqI98lm-z4scQnuff-24"><g><rect x="190" y="1.67" width="70" height="93.33" fill="none" stroke="none" pointer-events="all"/><path d="M 189.75 1.96 C 189.75 1.96 189.75 1.96 189.75 1.96 M 189.75 1.96 C 189.75 1.96 189.75 1.96 189.75 1.96 M 190.14 7.6 C 191.44 5.33 194.19 4.47 195.39 1.57 M 190.14 7.6 C 191.68 5.96 194.78 3.82 195.39 1.57 M 189.88 14 C 195.15 11.58 193.98 7.19 200.38 1.93 M 189.88 14 C 192.28 9.8 194.34 7.09 200.38 1.93 M 190.27 19.65 C 192.94 11.06 198.82 4.59 206.02 1.53 M 190.27 19.65 C 196.52 12.61 200.08 6.46 206.02 1.53 M 190.01 26.04 C 192.9 21.41 200.16 16.5 211.01 1.89 M 190.01 26.04 C 196.8 20.26 206.11 8.95 211.01 1.89 M 189.75 32.44 C 203.32 19.96 211.87 10 216.65 1.5 M 189.75 32.44 C 196.13 23.58 202.72 15.91 216.65 1.5 M 190.15 38.08 C 201.01 26.43 215.6 11.3 221.64 1.86 M 190.15 38.08 C 197.91 31.67 201.55 24.34 221.64 1.86 M 189.88 44.48 C 201.44 28.34 213.08 10.84 227.28 1.46 M 189.88 44.48 C 197.46 34.6 203.82 27.92 227.28 1.46 M 190.28 50.12 C 197.65 41.17 204.07 28.34 232.27 1.82 M 190.28 50.12 C 205.2 31.73 220.6 16.91 232.27 1.82 M 190.02 56.52 C 197.31 48.31 206.18 33.19 237.91 1.43 M 190.02 56.52 C 204.73 39.73 220.42 23.12 237.91 1.43 M 189.76 62.92 C 198.97 47.97 218.77 33.38 242.9 1.79 M 189.76 62.92 C 212.73 40.15 232.24 13.63 242.9 1.79 M 190.15 68.56 C 209.01 47.55 230.2 28.01 248.54 1.39 M 190.15 68.56 C 206.94 50.05 222.43 29.71 248.54 1.39 M 189.89 74.96 C 208.38 51.91 227.03 27.28 253.53 1.75 M 189.89 74.96 C 204.78 55.55 219.48 40.37 253.53 1.75 M 190.28 80.6 C 214.64 54.61 236.45 28.22 259.17 1.36 M 190.28 80.6 C 209.32 54.25 234.7 32.31 259.17 1.36 M 190.02 87 C 203.41 72.05 218.8 58.09 260.22 6.25 M 190.02 87 C 209.28 61.66 232.16 39.87 260.22 6.25 M 189.76 93.4 C 207.67 66.17 228.8 43.11 259.96 12.65 M 189.76 93.4 C 210.94 70.47 233.19 41.66 259.96 12.65 M 193.44 95.27 C 212.96 76.7 227.48 61.62 260.35 18.29 M 193.44 95.27 C 212.03 70.53 233.61 45.99 260.35 18.29 M 198.42 95.63 C 220.13 70.44 245.79 44.16 260.09 24.69 M 198.42 95.63 C 215.42 76.59 227 59.19 260.09 24.69 M 204.07 95.23 C 216.16 76.7 236.25 60.88 259.83 31.08 M 204.07 95.23 C 219.35 78.12 234.68 58.32 259.83 31.08 M 209.05 95.6 C 224.08 74.28 242.03 56.48 260.23 36.73 M 209.05 95.6 C 220.72 81.26 233.85 64.45 260.23 36.73 M 214.7 95.2 C 233.23 77.49 244.13 57.18 259.96 43.13 M 214.7 95.2 C 227.02 80.55 240.95 62.22 259.96 43.13 M 219.68 95.56 C 235.51 80.11 245.69 67.25 260.36 48.77 M 219.68 95.56 C 231.7 82.53 240.25 70.86 260.36 48.77 M 225.33 95.17 C 237.53 81.55 250.65 66.17 260.1 55.17 M 225.33 95.17 C 232.94 83.64 243.78 71.89 260.1 55.17 M 230.31 95.53 C 235.38 86.97 249.26 79.98 259.84 61.56 M 230.31 95.53 C 238.89 84.84 245.78 78.65 259.84 61.56 M 235.96 95.13 C 245.78 81.78 254.96 73.61 260.23 67.21 M 235.96 95.13 C 242.29 86.22 250.6 79.52 260.23 67.21 M 240.94 95.49 C 248.46 86.46 256.19 82 259.97 73.6 M 240.94 95.49 C 247.01 85.27 256.53 79.42 259.97 73.6 M 245.93 95.85 C 249.76 90.03 257.11 89.52 260.36 79.25 M 245.93 95.85 C 250.91 91.62 254.9 83.4 260.36 79.25 M 251.57 95.46 C 255.75 89.83 256.58 90.01 260.1 85.65 M 251.57 95.46 C 253.55 94.38 253.92 90.99 260.1 85.65 M 256.56 95.82 C 256.82 95.73 257.48 94.53 259.84 92.04 M 256.56 95.82 C 257.72 95.05 257.84 94.51 259.84 92.04" fill="none" stroke="#bac8d3" stroke-width="0.5" stroke-linejoin="round" stroke-linecap="round" stroke-miterlimit="10" pointer-events="all" style="stroke: rgb(186, 200, 211);"/><path d="M 190 1.67 C 210.1 -2.22 236.41 1.85 260 1.67 M 190 1.67 C 211.24 1.39 229.09 -0.3 260 1.67 M 260 1.67 C 258.04 34.04 259.81 67.3 260 95 M 260 1.67 C 260.19 35.95 262.8 67.6 260 95 M 260 95 C 231.6 91.44 207.78 93.58 190 95 M 260 95 C 234.85 93.09 213.51 95.74 190 95 M 190 95 C 187.57 60.49 185.64 22.41 190 1.67 M 190 95 C 187.97 66.6 187.9 39.67 190 1.67" fill="none" stroke="#23445d" stroke-linejoin="round" stroke-linecap="round" stroke-miterlimit="10" pointer-events="all" style="stroke: rgb(35, 68, 93);"/></g></g><g data-cell-id="wA9FqI98lm-z4scQnuff-25"><g><path d="M 190 1.67 L 260 1.67" fill="none" stroke="none" pointer-events="stroke"/><path d="M 190 1.67 C 215.82 4.82 231.77 1.29 260 1.67 M 190 1.67 C 214.68 0.98 240.72 1.72 260 1.67" fill="none" stroke="#23445d" stroke-width="4" stroke-linejoin="round" stroke-linecap="round" stroke-miterlimit="10" pointer-events="stroke" style="stroke: rgb(35, 68, 93);"/></g></g><g data-cell-id="wA9FqI98lm-z4scQnuff-26"><g><path d="M 190 95 L 260 95" fill="none" stroke="none" pointer-events="stroke"/><path d="M 190 95 C 213.53 94.39 235.13 91.26 260 95 M 190 95 C 208.11 96.69 224.34 95.87 260 95" fill="none" stroke="#23445d" stroke-width="4" stroke-linejoin="round" stroke-linecap="round" stroke-miterlimit="10" pointer-events="stroke" style="stroke: rgb(35, 68, 93);"/></g></g><g data-cell-id="wA9FqI98lm-z4scQnuff-65"><g><path d="M 198.05 88 L 198.05 8.67" fill="none" stroke="none" pointer-events="stroke"/><path d="M 198.05 88 C 198.93 63.51 196.22 35.57 198.05 8.67 M 198.05 88 C 199.27 66.15 198.57 41.91 198.05 8.67" fill="none" stroke="#cccccc" stroke-width="4" stroke-linejoin="round" stroke-linecap="round" stroke-miterlimit="10" pointer-events="stroke" style="stroke: rgb(204, 204, 204);"/></g></g><g data-cell-id="wA9FqI98lm-z4scQnuff-66"><g><path d="M 251.72 88 L 251.72 8.67" fill="none" stroke="none" pointer-events="stroke"/><path d="M 251.72 88 C 250.04 61.44 252.99 33.9 251.72 8.67 M 251.72 88 C 251.12 60.87 253.57 29.35 251.72 8.67" fill="none" stroke="#ffffff" stroke-width="4" stroke-linejoin="round" stroke-linecap="round" stroke-miterlimit="10" pointer-events="stroke" style="stroke: rgb(255, 255, 255);"/></g></g><g data-cell-id="wA9FqI98lm-z4scQnuff-27"><g><path d="M 190 48.33 L 260 48.33" fill="none" stroke="none" pointer-events="stroke"/><path d="M 190 48.33 C 211.25 46.77 238.49 52.03 260 48.33 M 190 48.33 C 211.54 49.6 231.96 47.22 260 48.33" fill="none" stroke="#23445d" stroke-width="4" stroke-linejoin="round" stroke-linecap="round" stroke-miterlimit="10" pointer-events="stroke" style="stroke: rgb(35, 68, 93);"/></g></g></g><g data-cell-id="bidon2"><g/><g data-cell-id="wA9FqI98lm-z4scQnuff-20"><g><rect x="110" y="25" width="52.5" height="70" fill="none" stroke="none" pointer-events="all"/><path d="M 109.81 25.22 C 109.81 25.22 109.81 25.22 109.81 25.22 M 109.81 25.22 C 109.81 25.22 109.81 25.22 109.81 25.22 M 110.2 30.86 C 110.52 30.11 114.24 27.38 115.45 24.83 M 110.2 30.86 C 111.42 28.87 113.16 26.99 115.45 24.83 M 109.94 37.26 C 112.18 32.61 112.86 32.61 120.44 25.19 M 109.94 37.26 C 115.52 32.85 116.89 26.79 120.44 25.19 M 109.68 43.66 C 110.01 35.72 120.65 36.96 126.08 24.79 M 109.68 43.66 C 114.12 40.46 118.65 35.35 126.08 24.79 M 110.07 49.3 C 118.9 38.73 123 31.47 131.07 25.15 M 110.07 49.3 C 114.78 41.44 120.65 36.34 131.07 25.15 M 109.81 55.7 C 114.66 49.74 120.76 38.47 136.71 24.76 M 109.81 55.7 C 118.73 47.83 126.33 39.16 136.71 24.76 M 110.21 61.34 C 120.5 52.08 128.34 33.66 141.7 25.12 M 110.21 61.34 C 123.44 46.16 134.81 34.6 141.7 25.12 M 109.95 67.74 C 119.93 60.5 132.73 44.02 147.34 24.72 M 109.95 67.74 C 117.03 59.1 127.73 49.28 147.34 24.72 M 109.68 74.14 C 124.88 59.41 143.47 39.93 152.33 25.08 M 109.68 74.14 C 123.13 61.86 134.41 44.93 152.33 25.08 M 110.08 79.78 C 120.55 67.81 127.59 58.88 157.97 24.69 M 110.08 79.78 C 123.84 63.47 135.68 49.29 157.97 24.69 M 109.82 86.18 C 125.13 65.11 151.21 38.18 162.96 25.05 M 109.82 86.18 C 122.79 71.63 135.02 60.6 162.96 25.05 M 110.21 91.82 C 127.31 69.23 153.84 46.04 162.7 31.45 M 110.21 91.82 C 128.07 66.35 149.36 44.23 162.7 31.45 M 111.26 96.71 C 126.5 78.67 142.16 67.04 163.09 37.09 M 111.26 96.71 C 121.75 83.42 135.33 71.74 163.09 37.09 M 116.91 96.32 C 130.21 81.02 149.43 66.63 162.83 43.49 M 116.91 96.32 C 135.23 75.67 150.03 53.45 162.83 43.49 M 121.89 96.68 C 129.97 85.23 146.23 69.67 162.57 49.89 M 121.89 96.68 C 132.62 84.19 143.62 70.89 162.57 49.89 M 127.54 96.28 C 144.37 79.22 151.6 68.43 162.96 55.53 M 127.54 96.28 C 135.36 87.31 143.29 78.35 162.96 55.53 M 132.52 96.64 C 140.04 88.58 148.27 83.56 162.7 61.93 M 132.52 96.64 C 139.35 88.43 146.96 79.62 162.7 61.93 M 138.17 96.25 C 144.59 89.02 157.43 76.41 163.1 67.57 M 138.17 96.25 C 147.29 83.06 156.76 74.75 163.1 67.57 M 143.15 96.61 C 146.49 89.83 154.68 80.81 162.83 73.97 M 143.15 96.61 C 150.25 89.5 155.24 82.07 162.83 73.97 M 148.8 96.21 C 156.54 94.04 156.2 83.25 162.57 80.37 M 148.8 96.21 C 151.69 91.97 152.97 90.19 162.57 80.37 M 153.78 96.57 C 154.49 91.5 162.17 91.42 162.97 86.01 M 153.78 96.57 C 154.9 92.92 157.75 90.39 162.97 86.01 M 159.43 96.18 C 159.93 94.51 161.82 94.36 162.71 92.41 M 159.43 96.18 C 159.79 95.74 160.92 94.95 162.71 92.41" fill="none" stroke="#bac8d3" stroke-width="0.5" stroke-linejoin="round" stroke-linecap="round" stroke-miterlimit="10" pointer-events="all" style="stroke: rgb(186, 200, 211);"/><path d="M 110 25 C 125.55 22.31 147.58 24.79 162.5 25 M 110 25 C 119.95 23.49 131.46 24.05 162.5 25 M 162.5 25 C 161.65 37.59 164.53 55.13 162.5 95 M 162.5 25 C 163.57 41.68 163.01 59.62 162.5 95 M 162.5 95 C 140.32 91.89 126.02 98.04 110 95 M 162.5 95 C 143.43 97.4 121.91 96.95 110 95 M 110 95 C 113.64 80.91 107.46 64.6 110 25 M 110 95 C 110.58 74.77 109.18 52.63 110 25" fill="none" stroke="#23445d" stroke-linejoin="round" stroke-linecap="round" stroke-miterlimit="10" pointer-events="all" style="stroke: rgb(35, 68, 93);"/></g></g><g data-cell-id="wA9FqI98lm-z4scQnuff-21"><g><path d="M 110 25 L 162.5 25" fill="none" stroke="none" pointer-events="stroke"/><path d="M 110 25 C 123.27 26.98 142.95 21.85 162.5 25 M 110 25 C 126.12 23.28 140.57 26.28 162.5 25" fill="none" stroke="#23445d" stroke-width="4" stroke-linejoin="round" stroke-linecap="round" stroke-miterlimit="10" pointer-events="stroke" style="stroke: rgb(35, 68, 93);"/></g></g><g data-cell-id="wA9FqI98lm-z4scQnuff-22"><g><path d="M 110 95 L 162.5 95" fill="none" stroke="none" pointer-events="stroke"/><path d="M 110 95 C 128.98 95.74 146.31 99.01 162.5 95 M 110 95 C 128.29 93.07 145.67 94.51 162.5 95" fill="none" stroke="#23445d" stroke-width="4" stroke-linejoin="round" stroke-linecap="round" stroke-miterlimit="10" pointer-events="stroke" style="stroke: rgb(35, 68, 93);"/></g></g><g data-cell-id="wA9FqI98lm-z4scQnuff-63"><g><path d="M 116.04 89.46 L 116.04 29.96" fill="none" stroke="none" pointer-events="stroke"/><path d="M 116.04 89.46 C 111.21 67.57 113.22 53.29 116.04 29.96 M 116.04 89.46 C 114.08 69.2 115.07 46.53 116.04 29.96" fill="none" stroke="#cccccc" stroke-width="4" stroke-linejoin="round" stroke-linecap="round" stroke-miterlimit="10" pointer-events="stroke" style="stroke: rgb(204, 204, 204);"/></g></g><g data-cell-id="wA9FqI98lm-z4scQnuff-64"><g><path d="M 156.29 89.46 L 156.29 29.96" fill="none" stroke="none" pointer-events="stroke"/><path d="M 156.29 89.46 C 159.35 73.5 159 51.62 156.29 29.96 M 156.29 89.46 C 156.56 77.24 156.71 64.62 156.29 29.96" fill="none" stroke="#ffffff" stroke-width="4" stroke-linejoin="round" stroke-linecap="round" stroke-miterlimit="10" pointer-events="stroke" style="stroke: rgb(255, 255, 255);"/></g></g><g data-cell-id="wA9FqI98lm-z4scQnuff-23"><g><path d="M 110 60 L 162.5 60" fill="none" stroke="none" pointer-events="stroke"/><path d="M 110 60 C 126.7 57.41 141.67 61.08 162.5 60 M 110 60 C 119.96 59.97 133.77 59.84 162.5 60" fill="none" stroke="#23445d" stroke-width="4" stroke-linejoin="round" stroke-linecap="round" stroke-miterlimit="10" pointer-events="stroke" style="stroke: rgb(35, 68, 93);"/></g></g></g><g data-cell-id="bidon3"><g/><g data-cell-id="wA9FqI98lm-z4scQnuff-2"><g><rect x="20" y="14.67" width="60" height="80" fill="none" stroke="none" pointer-events="all"/><path d="M 19.97 14.7 C 19.97 14.7 19.97 14.7 19.97 14.7 M 19.97 14.7 C 19.97 14.7 19.97 14.7 19.97 14.7 M 19.71 21.1 C 21.76 19.82 24.18 16.94 25.61 14.31 M 19.71 21.1 C 22.34 18.3 24.31 16.13 25.61 14.31 M 20.1 26.74 C 21.45 25.01 28 21.94 30.6 14.67 M 20.1 26.74 C 23.35 22.85 28.82 18.47 30.6 14.67 M 19.84 33.14 C 25.07 28.6 32.73 24.52 35.59 15.03 M 19.84 33.14 C 24.55 28.93 31.11 21.78 35.59 15.03 M 20.24 38.79 C 25.65 34.14 34.98 27.54 41.23 14.63 M 20.24 38.79 C 27.82 28.05 33.64 21.72 41.23 14.63 M 19.98 45.18 C 27.23 36.91 35.14 23.94 46.22 14.99 M 19.98 45.18 C 27.34 37.13 33.46 30.11 46.22 14.99 M 19.71 51.58 C 31.93 37.78 43.35 27.83 51.86 14.6 M 19.71 51.58 C 30.14 37.19 40.84 25.37 51.86 14.6 M 20.11 57.22 C 31.28 47.48 46.33 32.66 56.85 14.96 M 20.11 57.22 C 31.09 40.98 43.02 29.69 56.85 14.96 M 19.85 63.62 C 38.02 47.16 53.14 27.53 62.49 14.57 M 19.85 63.62 C 30.69 50.69 36.56 39.72 62.49 14.57 M 20.24 69.27 C 31.62 47.82 51.75 34.05 67.48 14.93 M 20.24 69.27 C 35.79 53.71 49.78 35.65 67.48 14.93 M 19.98 75.66 C 39.25 50.39 58.8 27.38 73.12 14.53 M 19.98 75.66 C 36.58 58.32 49.96 40.98 73.12 14.53 M 19.72 82.06 C 37.01 57.58 59.15 44.2 78.11 14.89 M 19.72 82.06 C 39.88 57.83 56.88 35.21 78.11 14.89 M 20.11 87.7 C 42.98 62.95 63.45 41.59 80.47 18.27 M 20.11 87.7 C 38.83 67.01 58.88 45.5 80.47 18.27 M 19.85 94.1 C 38.75 74.57 57.76 50.08 80.87 23.91 M 19.85 94.1 C 41.14 72.34 62.39 46.64 80.87 23.91 M 24.18 95.22 C 42.87 75.31 67.58 49.58 80.6 30.31 M 24.18 95.22 C 34.27 80.06 45.98 66.18 80.6 30.31 M 29.83 94.82 C 45.97 77.13 65.03 56.97 80.34 36.71 M 29.83 94.82 C 45.25 77.78 65.23 55.76 80.34 36.71 M 34.81 95.18 C 45.1 80.95 62.96 62.03 80.74 42.35 M 34.81 95.18 C 51.48 75.9 67.57 57.09 80.74 42.35 M 40.46 94.79 C 48.97 85.55 62.42 72.83 80.48 48.75 M 40.46 94.79 C 51.8 82.89 62.58 67.92 80.48 48.75 M 45.44 95.15 C 53.84 88 61.93 73.33 80.21 55.15 M 45.44 95.15 C 57.6 81.21 70.2 67.12 80.21 55.15 M 51.09 94.75 C 56.31 90.43 64.55 76.66 80.61 60.79 M 51.09 94.75 C 58.08 88.69 64.56 77.27 80.61 60.79 M 56.07 95.11 C 60.64 89.87 66.29 85.29 80.35 67.19 M 56.07 95.11 C 64.56 85.85 70.96 77.85 80.35 67.19 M 61.72 94.72 C 64.74 86.79 78.19 79.88 80.74 72.83 M 61.72 94.72 C 71.03 86.21 76.62 78.38 80.74 72.83 M 66.7 95.08 C 71.35 86.72 77.81 81.21 80.48 79.23 M 66.7 95.08 C 72.57 88.53 77.73 82.94 80.48 79.23 M 72.35 94.68 C 75.48 91.84 74.36 88.91 80.22 85.63 M 72.35 94.68 C 73.1 92.53 75.69 89.8 80.22 85.63 M 77.33 95.04 C 78.42 93.64 78.63 92.51 80.61 91.27 M 77.33 95.04 C 78.27 94.46 79.29 93.53 80.61 91.27" fill="none" stroke="#bac8d3" stroke-width="0.5" stroke-linejoin="round" stroke-linecap="round" stroke-miterlimit="10" pointer-events="all" style="stroke: rgb(186, 200, 211);"/><path d="M 20 14.67 C 44.25 13.71 69.84 15.75 80 14.67 M 20 14.67 C 37.59 12.37 54.44 14.55 80 14.67 M 80 14.67 C 77.11 35.29 77.64 63.84 80 94.67 M 80 14.67 C 78.17 36.23 81.44 54.05 80 94.67 M 80 94.67 C 67.96 96.78 53.07 91.3 20 94.67 M 80 94.67 C 58.47 96.16 35.35 93.4 20 94.67 M 20 94.67 C 22.01 71.9 19.14 42.1 20 14.67 M 20 94.67 C 19.91 77.46 22.83 61.07 20 14.67" fill="none" stroke="#23445d" stroke-linejoin="round" stroke-linecap="round" stroke-miterlimit="10" pointer-events="all" style="stroke: rgb(35, 68, 93);"/></g></g><g data-cell-id="wA9FqI98lm-z4scQnuff-4"><g><path d="M 20 14.67 L 80 14.67" fill="none" stroke="none" pointer-events="stroke"/><path d="M 20 14.67 C 39.68 17.08 68.56 11.92 80 14.67 M 20 14.67 C 35.01 14.18 46.81 13.23 80 14.67" fill="none" stroke="#23445d" stroke-width="4" stroke-linejoin="round" stroke-linecap="round" stroke-miterlimit="10" pointer-events="stroke" style="stroke: rgb(35, 68, 93);"/></g></g><g data-cell-id="wA9FqI98lm-z4scQnuff-5"><g><path d="M 20 94.67 L 80 94.67" fill="none" stroke="none" pointer-events="stroke"/><path d="M 20 94.67 C 45.39 93.56 63.93 96.8 80 94.67 M 20 94.67 C 37.73 93.88 56.99 95.37 80 94.67" fill="none" stroke="#23445d" stroke-width="4" stroke-linejoin="round" stroke-linecap="round" stroke-miterlimit="10" pointer-events="stroke" style="stroke: rgb(35, 68, 93);"/></g></g><g data-cell-id="wA9FqI98lm-z4scQnuff-57"><g><path d="M 26 89 L 26 21" fill="none" stroke="none" pointer-events="stroke"/><path d="M 26 89 C 27.53 64.3 29.09 44.5 26 21 M 26 89 C 25.53 76.04 25.45 62.41 26 21" fill="none" stroke="#cccccc" stroke-width="4" stroke-linejoin="round" stroke-linecap="round" stroke-miterlimit="10" pointer-events="stroke" style="stroke: rgb(204, 204, 204);"/></g></g><g data-cell-id="wA9FqI98lm-z4scQnuff-58"><g><path d="M 72 89 L 72 21" fill="none" stroke="none" pointer-events="stroke"/><path d="M 72 89 C 71.01 70.23 70.22 42.83 72 21 M 72 89 C 73.74 71.57 72.81 51.48 72 21" fill="none" stroke="#ffffff" stroke-width="4" stroke-linejoin="round" stroke-linecap="round" stroke-miterlimit="10" pointer-events="stroke" style="stroke: rgb(255, 255, 255);"/></g></g><g data-cell-id="wA9FqI98lm-z4scQnuff-6"><g><path d="M 20 54.67 L 80 54.67" fill="none" stroke="none" pointer-events="stroke"/><path d="M 20 54.67 C 43.11 52.45 67.29 56.08 80 54.67 M 20 54.67 C 40.44 55.99 63.17 55.91 80 54.67" fill="none" stroke="#23445d" stroke-width="4" stroke-linejoin="round" stroke-linecap="round" stroke-miterlimit="10" pointer-events="stroke" style="stroke: rgb(35, 68, 93);"/></g></g></g><g data-cell-id="wA9FqI98lm-z4scQnuff-51"><g><path d="M 22 121.5 Q 0 121.52 0 103.76 Q 0 86 21.5 86 Q 43 86 44.63 86" fill="none" stroke="#000000" stroke-linejoin="round" stroke-linecap="round" stroke-miterlimit="10" pointer-events="stroke" style="stroke: light-dark(rgb(0, 0, 0), rgb(255, 255, 255));"/><path d="M 49.88 86 L 49.96 86.16 L 48.57 86.87 L 47.07 87.38 L 45.68 88.1 L 44.17 88.58 L 42.88 89.5 L 43.1 89.61 L 43.51 88.94 L 43.53 88.07 L 43.84 87.35 L 44.08 86.6 L 44.63 86 L 44.62 85.99 L 44.09 85.21 L 43.94 84.6 L 43.31 83.76 L 43.51 83.34 L 42.88 82.5 L 42.95 82.63 L 44.19 83.01 L 45.7 83.94 L 46.98 84.4 L 48.56 85.46 L 49.88 86 Z Z" fill="#000000" stroke="#000000" stroke-linejoin="round" stroke-linecap="round" stroke-miterlimit="10" pointer-events="all" style="fill: light-dark(rgb(0, 0, 0), rgb(255, 255, 255)); stroke: light-dark(rgb(0, 0, 0), rgb(255, 255, 255));"/></g></g><g data-cell-id="wA9FqI98lm-z4scQnuff-16"><g><rect x="10" y="95" width="280" height="20" rx="10" ry="10" fill="none" stroke="none" pointer-events="all"/><path d="M 20 95 C 104.18 98.23 188.51 98.64 280 95 M 20 95 C 72.62 92.04 127.33 91.76 280 95 M 280 95 C 288.58 95.68 286.96 100.41 290 105 M 280 95 C 286.81 92.62 285.98 97.22 290 105 M 290 105 C 290 105 290 105 290 105 M 290 105 C 290 105 290 105 290 105 M 290 105 C 291.09 110.38 283.66 112.35 280 115 M 290 105 C 293.4 115.93 286.64 112.14 280 115 M 280 115 C 207.41 116.1 129.25 118 20 115 M 280 115 C 221.71 115.99 162 116.2 20 115 M 20 115 C 14.49 117.2 8.42 115.39 10 105 M 20 115 C 13.51 115.81 10.43 110.16 10 105 M 10 105 C 10 105 10 105 10 105 M 10 105 C 10 105 10 105 10 105 M 10 105 C 12.89 95.98 14.34 98.02 20 95 M 10 105 C 8.68 102.6 14.01 99.49 20 95" fill="none" stroke="#10739e" stroke-linejoin="round" stroke-linecap="round" stroke-miterlimit="10" pointer-events="all" style="stroke: rgb(16, 115, 158);"/></g></g></g></g></g></svg>