<?xml version="1.0" encoding="UTF-8"?>
<!DOCTYPE svg PUBLIC "-//W3C//DTD SVG 1.1//EN" "http://www.w3.org/Graphics/SVG/1.1/DTD/svg11.dtd">
<svg xmlns="http://www.w3.org/2000/svg" style="background: transparent; background-color: transparent; color-scheme: light dark;" xmlns:xlink="http://www.w3.org/1999/xlink" version="1.1" width="333px" height="201px" viewBox="-0.5 -0.5 333 201"><defs/><g><g data-cell-id="0"><g data-cell-id="1"><g data-cell-id="VZo5z6K5WTNjKC0VS86n-20"><g><ellipse cx="245" cy="60" rx="65" ry="20" fill="none" stroke="none" pointer-events="all"/><path d="M 297.53 48.98 C 304.56 51.27 307.76 55.97 309.18 58.82 C 310.6 61.67 309.9 63.38 306.03 66.09 C 302.16 68.8 294.91 73.08 285.97 75.07 C 277.04 77.06 263 77.17 252.42 78.04 C 241.84 78.91 232.16 81.17 222.5 80.28 C 212.84 79.4 201.73 75.4 194.47 72.74 C 187.22 70.07 180.27 67.46 178.95 64.28 C 177.63 61.11 182.28 56.85 186.56 53.68 C 190.85 50.52 196.55 47.46 204.66 45.28 C 212.77 43.1 224.35 41.12 235.21 40.6 C 246.08 40.08 257.48 40.15 269.86 42.18 C 282.24 44.22 303.08 49.55 309.5 52.8 C 315.93 56.05 309.74 61.01 308.39 61.67 M 213.37 40.43 C 222.3 38.16 237.86 37.63 248.94 37.8 C 260.03 37.98 270.81 38.8 279.89 41.48 C 288.97 44.16 298.48 50.89 303.42 53.91 C 308.36 56.92 309.9 56.89 309.55 59.56 C 309.19 62.24 307.6 66.75 301.27 69.96 C 294.95 73.17 281.92 77.61 271.6 78.82 C 261.29 80.02 249.31 77.92 239.36 77.19 C 229.42 76.46 220.25 75.5 211.93 74.42 C 203.61 73.34 194.58 73.22 189.43 70.69 C 184.28 68.16 180.62 63.31 181.03 59.24 C 181.44 55.17 185.85 49.38 191.87 46.27 C 197.9 43.16 212.97 41.67 217.19 40.59 C 221.41 39.52 216.81 39.13 217.21 39.84" fill="#9aa3b1" stroke="none" pointer-events="all" style="fill: rgb(154, 163, 177);"/><path d="M 244.15 38.07 C 254.58 37.81 268.94 40.04 278.51 42.16 C 288.08 44.28 296.35 47.56 301.57 50.79 C 306.79 54.03 309.79 58.35 309.82 61.57 C 309.84 64.79 307.36 67.18 301.72 70.11 C 296.09 73.04 285.52 77.56 276 79.12 C 266.48 80.69 255.16 79.49 244.62 79.52 C 234.08 79.55 221.84 81.2 212.75 79.31 C 203.65 77.42 195.18 71.11 190.04 68.17 C 184.91 65.23 182.02 64.85 181.93 61.65 C 181.85 58.46 184.76 52.48 189.53 49.02 C 194.31 45.56 197.96 42.1 210.61 40.91 C 223.26 39.72 253.52 41.51 265.45 41.87 C 277.38 42.24 282.87 43.08 282.19 43.09 M 291.72 43.18 C 299.3 45.71 306.71 52.63 309.69 56.62 C 312.66 60.6 312.51 64.3 309.58 67.11 C 306.66 69.92 300.79 71.78 292.14 73.48 C 283.5 75.19 268.14 76.23 257.7 77.33 C 247.25 78.43 239.42 80.68 229.47 80.09 C 219.53 79.5 206.37 75.89 198.02 73.81 C 189.68 71.73 181.8 70.96 179.4 67.61 C 177.01 64.26 179.85 57.45 183.65 53.71 C 187.45 49.98 194.05 47.19 202.18 45.21 C 210.31 43.22 222.52 42.07 232.42 41.79 C 242.33 41.52 251.44 42.68 261.62 43.55 C 271.8 44.41 288.41 46.79 293.5 47.01 C 298.6 47.22 293.41 44.57 292.2 44.84" fill="none" stroke="#6c8ebf" stroke-linejoin="round" stroke-linecap="round" stroke-miterlimit="10" pointer-events="all" style="stroke: rgb(108, 142, 191);"/></g></g><g data-cell-id="VZo5z6K5WTNjKC0VS86n-25"><g><path d="M 240 0 L 285 0 L 300 15 L 300 70 L 240 70 L 240 0 Z" fill="none" stroke="none" pointer-events="all"/><path d="M 285 0 L 285 15 L 300 15 Z" fill="none" stroke="none" pointer-events="all"/><path d="M 285 0 L 285 15 L 300 15" fill="none" stroke="none" pointer-events="all"/><path d="M 240 0 C 258.02 -4.72 277.84 1.68 285 0 C 289.21 8.54 292.37 10.3 300 15 C 300.48 34.66 294.78 49.28 300 70 C 277.54 67.99 268.33 75.5 240 70 C 238.18 47.13 243.48 22.34 240 0 C 240 0 240 0 240 0" fill="#ffe6cc" stroke="none" pointer-events="all" style="fill: rgb(255, 230, 204);"/><path d="M 240 0 C 247.79 -1.78 263.6 -1.2 285 0 M 240 0 C 250.6 -1.09 262.8 -1.66 285 0 M 285 0 C 290.84 7.16 294.98 10.53 300 15 M 285 0 C 288.71 5.31 294.6 11.76 300 15 M 300 15 C 297.55 26.1 300.58 43.35 300 70 M 300 15 C 298.35 30.23 298.55 44.59 300 70 M 300 70 C 287.93 72.15 266.65 67.65 240 70 M 300 70 C 275.05 68.08 251.82 68.41 240 70 M 240 70 C 241.59 45.89 243.82 27.5 240 0 M 240 70 C 241.17 50.04 240.39 28.82 240 0 M 240 0 C 240 0 240 0 240 0 M 240 0 C 240 0 240 0 240 0" fill="none" stroke="#d79b00" stroke-linejoin="round" stroke-linecap="round" stroke-miterlimit="10" pointer-events="all" style="stroke: rgb(215, 155, 0);"/><path d="M 285 0 C 288.06 6.7 281.76 5.79 285 15 C 287.28 13.65 293.16 14.34 300 15 C 296.47 7.92 294.85 8.43 285 0" fill-opacity="0.05" fill="#000000" stroke="none" pointer-events="all" style="fill: rgb(0, 0, 0);"/><path d="M 285 0 C 282.94 1.81 286.69 5.85 285 15 M 285 0 C 284.56 2.72 285.41 5.98 285 15 M 285 15 C 290.66 16.34 295.12 14.78 300 15 M 285 15 C 289.18 14.95 294.97 15.69 300 15" fill="none" stroke="#d79b00" stroke-linejoin="round" stroke-linecap="round" stroke-miterlimit="10" pointer-events="all" style="stroke: rgb(215, 155, 0);"/></g></g><g data-cell-id="VZo5z6K5WTNjKC0VS86n-16"><g><ellipse cx="65" cy="60" rx="65" ry="20" fill="none" stroke="none" pointer-events="all"/><path d="M 11.28 50.6 C 16.75 48.07 27.99 44.57 37.58 43.1 C 47.17 41.64 58.18 41.78 68.79 41.83 C 79.41 41.88 92.13 41.6 101.29 43.41 C 110.44 45.22 118.84 49.47 123.71 52.69 C 128.57 55.91 130.99 59.99 130.46 62.75 C 129.93 65.51 126.75 66.55 120.53 69.27 C 114.3 72 103.19 77.19 93.12 79.09 C 83.06 81 71.07 81.13 60.15 80.71 C 49.23 80.29 36.56 78.51 27.59 76.59 C 18.61 74.66 10.74 71.85 6.31 69.14 C 1.88 66.43 -1.68 64.43 0.98 60.3 C 3.64 56.18 15.99 47.61 22.28 44.39 C 28.56 41.17 38.06 40.51 38.69 40.98 M 26.1 46.07 C 33.35 43.96 44.72 42.61 55.18 42.29 C 65.64 41.97 78.45 42.85 88.87 44.15 C 99.3 45.44 110.55 48.34 117.71 50.03 C 124.88 51.73 131.01 51.39 131.85 54.32 C 132.69 57.24 127.24 64.29 122.73 67.57 C 118.21 70.86 113.08 71.61 104.78 74.02 C 96.47 76.44 83.74 81.79 72.9 82.07 C 62.06 82.35 49.35 77.62 39.74 75.69 C 30.13 73.75 21.7 72.36 15.22 70.47 C 8.74 68.59 2.48 67.62 0.86 64.39 C -0.77 61.16 1.79 54.82 5.49 51.09 C 9.2 47.36 19.54 43.53 23.07 42 C 26.61 40.48 26.16 41.05 26.68 41.93" fill="#95a294" stroke="none" pointer-events="all" style="fill: rgb(149, 162, 148);"/><path d="M 117.31 47.57 C 124.25 49.89 127.5 54.52 129 57.67 C 130.49 60.82 130.53 63.38 126.27 66.49 C 122.01 69.61 112.36 74.08 103.43 76.36 C 94.5 78.64 83.63 79.93 72.7 80.18 C 61.77 80.43 47.78 79.49 37.87 77.84 C 27.96 76.19 19.49 72.73 13.25 70.29 C 7.02 67.86 2.05 66.21 0.46 63.24 C -1.12 60.27 -0.89 55.84 3.75 52.48 C 8.4 49.11 19.3 45.41 28.32 43.03 C 37.33 40.66 47.36 38.24 57.85 38.22 C 68.35 38.2 79.56 40.03 91.29 42.89 C 103.03 45.75 122.27 52 128.27 55.38 C 134.26 58.76 128.64 63.51 127.29 63.19 M 49.25 38.4 C 58.84 37.74 71.97 41.06 83.05 42.92 C 94.12 44.77 108.6 47.61 115.69 49.52 C 122.78 51.43 123.35 51.88 125.58 54.37 C 127.82 56.85 131.81 60.84 129.12 64.42 C 126.43 68.01 117.79 73.33 109.47 75.87 C 101.15 78.42 90.33 78.67 79.2 79.68 C 68.06 80.69 53.43 83.05 42.66 81.96 C 31.89 80.87 21.8 75.85 14.57 73.13 C 7.34 70.41 1.13 68.43 -0.7 65.62 C -2.53 62.81 -0.38 59.63 3.6 56.28 C 7.57 52.92 15.17 47.99 23.16 45.47 C 31.15 42.95 46.43 41.75 51.53 41.13 C 56.63 40.52 53.43 41.4 53.75 41.79" fill="none" stroke="#82b366" stroke-linejoin="round" stroke-linecap="round" stroke-miterlimit="10" pointer-events="all" style="stroke: rgb(130, 179, 102);"/></g></g><g data-cell-id="VZo5z6K5WTNjKC0VS86n-19"><g><path d="M 40 10 L 105 10 L 120 25 L 120 80 L 40 80 L 40 10 Z" fill="none" stroke="none" pointer-events="all"/><path d="M 105 10 L 105 25 L 120 25 Z" fill="none" stroke="none" pointer-events="all"/><path d="M 105 10 L 105 25 L 120 25" fill="none" stroke="none" pointer-events="all"/><path d="M 40 10 C 56.22 10.27 63.94 7.04 105 10 C 109.69 18.6 115.46 15.29 120 25 C 115.88 40.49 121.77 70.78 120 80 C 90.2 79.63 66.78 76.62 40 80 C 38.86 57.04 37.42 39.09 40 10 C 40 10 40 10 40 10" fill="#ffe6cc" stroke="none" pointer-events="all" style="fill: rgb(255, 230, 204);"/><path d="M 40 10 C 58.29 6.46 70.46 12.28 105 10 M 40 10 C 58.58 9.84 78.27 11.49 105 10 M 105 10 C 104.69 9.26 112.12 18.41 120 25 M 105 10 C 108.18 13.39 111.64 17.67 120 25 M 120 25 C 117.18 41.19 117.43 59.66 120 80 M 120 25 C 118.14 45.93 119.06 65.62 120 80 M 120 80 C 102.52 82.75 79.37 76.61 40 80 M 120 80 C 96.47 80.9 71.78 81.82 40 80 M 40 80 C 37.24 65.58 43.46 43.93 40 10 M 40 80 C 38.79 64.41 38.27 51.39 40 10 M 40 10 C 40 10 40 10 40 10 M 40 10 C 40 10 40 10 40 10" fill="none" stroke="#d79b00" stroke-linejoin="round" stroke-linecap="round" stroke-miterlimit="10" pointer-events="all" style="stroke: rgb(215, 155, 0);"/><path d="M 105 10 C 108.47 17.94 105.7 15.34 105 25 C 109.87 23.8 112.31 25.73 120 25 C 111.14 25.86 116 16.84 105 10" fill-opacity="0.05" fill="#000000" stroke="none" pointer-events="all" style="fill: rgb(0, 0, 0);"/><path d="M 105 10 C 107.05 11.77 104.47 19.74 105 25 M 105 10 C 104.22 13.91 104.26 19.68 105 25 M 105 25 C 105.52 22 111.89 26.45 120 25 M 105 25 C 108.46 24.89 111.91 25.5 120 25" fill="none" stroke="#d79b00" stroke-linejoin="round" stroke-linecap="round" stroke-miterlimit="10" pointer-events="all" style="stroke: rgb(215, 155, 0);"/></g></g><g data-cell-id="VZo5z6K5WTNjKC0VS86n-18"><g><path d="M 20 20 L 83 20 L 100 37 L 100 90 L 20 90 L 20 20 Z" fill="none" stroke="none" pointer-events="all"/><path d="M 83 20 L 83 37 L 100 37 Z" fill="none" stroke="none" pointer-events="all"/><path d="M 83 20 L 83 37 L 100 37" fill="none" stroke="none" pointer-events="all"/><path d="M 20 20 C 43.87 18.12 66.33 18.68 83 20 C 91.67 19.37 93.63 31.46 100 37 C 96.84 59.9 96.95 80.49 100 90 C 69.85 87.37 45.42 89.36 20 90 C 22.86 77.31 18.68 55.35 20 20 C 20 20 20 20 20 20" fill="#ffe6cc" stroke="none" pointer-events="all" style="fill: rgb(255, 230, 204);"/><path d="M 20 20 C 32.1 20.08 54.14 17.5 83 20 M 20 20 C 35.04 17.63 50.44 20.85 83 20 M 83 20 C 86.93 26.62 99.87 33.66 100 37 M 83 20 C 89.19 24.89 91.74 30.49 100 37 M 100 37 C 98.52 52.39 102.82 69.32 100 90 M 100 37 C 100.44 54.75 99.32 69.78 100 90 M 100 90 C 72.73 92.54 51.77 90.78 20 90 M 100 90 C 71.33 90.81 46.42 92.05 20 90 M 20 90 C 20.58 63.27 17.16 37.42 20 20 M 20 90 C 20.96 67.9 20.31 46 20 20 M 20 20 C 20 20 20 20 20 20 M 20 20 C 20 20 20 20 20 20" fill="none" stroke="#d79b00" stroke-linejoin="round" stroke-linecap="round" stroke-miterlimit="10" pointer-events="all" style="stroke: rgb(215, 155, 0);"/><path d="M 83 20 C 80.29 30.06 85.4 33.33 83 37 C 86.34 36.1 98.65 39.05 100 37 C 94.55 30.08 83.31 24.69 83 20" fill-opacity="0.05" fill="#000000" stroke="none" pointer-events="all" style="fill: rgb(0, 0, 0);"/><path d="M 83 20 C 80.41 23.76 86.28 25.66 83 37 M 83 20 C 83.44 22.85 84.2 29.49 83 37 M 83 37 C 87.02 37.19 98.99 37.7 100 37 M 83 37 C 88.65 37.45 91.46 38.51 100 37" fill="none" stroke="#d79b00" stroke-linejoin="round" stroke-linecap="round" stroke-miterlimit="10" pointer-events="all" style="stroke: rgb(215, 155, 0);"/></g></g><g data-cell-id="VZo5z6K5WTNjKC0VS86n-15"><g><path d="M 39 74 L 91 74 L 130 60 L 110.5 190.2 L 89.7 200 L 40.3 200 L 19.5 190.2 L 0 60 Z" fill="none" stroke="none" pointer-events="all"/><path d="M 39 74 C 48.22 74.88 72 79.07 91 74 C 102.3 73.3 112.28 73.12 130 60 C 118.09 109.29 115.54 159.95 110.5 190.2 C 97.47 198.68 93.76 199.58 89.7 200 C 76.68 196.2 61.74 200.3 40.3 200 C 34.13 191.57 32.33 196.06 19.5 190.2 C 9.62 159.85 10.46 129.15 0 60 C 9.59 59.67 28.11 70.87 39 74" fill="#d5e8d4" stroke="none" pointer-events="all" style="fill: rgb(213, 232, 212);"/><path d="M 39 74 C 55.31 71.81 65.77 76.03 91 74 M 39 74 C 51.5 76.43 62.09 76.33 91 74 M 91 74 C 101.29 72.42 109.3 69.19 130 60 M 91 74 C 101.92 70.94 115.61 64.88 130 60 M 130 60 C 127.79 91.13 123.47 121.43 110.5 190.2 M 130 60 C 123.06 111.6 112.03 164.15 110.5 190.2 M 110.5 190.2 C 103.1 189.42 98.11 195.69 89.7 200 M 110.5 190.2 C 103.49 193.37 99.15 194.41 89.7 200 M 89.7 200 C 70.84 196.18 53.19 202.33 40.3 200 M 89.7 200 C 78.9 200.38 67.38 198.63 40.3 200 M 40.3 200 C 33.3 198.69 20.1 194.05 19.5 190.2 M 40.3 200 C 34.6 198.4 30.07 195.35 19.5 190.2 M 19.5 190.2 C 15.13 153.01 9.41 104.69 0 60 M 19.5 190.2 C 17.64 158.63 11.59 125.84 0 60 M 0 60 C 11.85 69.48 29.96 72.14 39 74 M 0 60 C 8.37 63.46 22.05 65.22 39 74" fill="none" stroke="#82b366" stroke-linejoin="round" stroke-linecap="round" stroke-miterlimit="10" pointer-events="all" style="stroke: rgb(130, 179, 102);"/></g></g><g data-cell-id="VZo5z6K5WTNjKC0VS86n-17"><g><path d="M 125 90 L 138 93 L 150 100 L 150 110 L 140 115 L 110 113 L 82 106 L 62 97" fill="none" stroke="none" pointer-events="stroke"/><path d="M 125 90 C 127.61 91.74 131.58 90.47 138 93 M 125 90 C 128.41 89.88 134.23 91.47 138 93 M 138 93 C 140.63 97.93 145.29 97.06 150 100 M 138 93 C 140.83 95.79 144.47 96.15 150 100 M 150 100 C 149.99 105.53 150.16 107.46 150 110 M 150 100 C 149.21 103.03 149.63 105.95 150 110 M 150 110 C 146.77 114.3 140.36 113.17 140 115 M 150 110 C 146.92 112.02 142.08 114.86 140 115 M 140 115 C 128.27 110.23 122.11 114.85 110 113 M 140 115 C 132.82 114.23 125.72 115.71 110 113 M 110 113 C 99.17 112.97 88.17 104.08 82 106 M 110 113 C 100.07 111.49 90.29 109.61 82 106 M 82 106 C 78.86 101.27 71.84 102.04 62 97 M 82 106 C 76.36 102.46 73.7 100.75 62 97" fill="none" stroke="#82b366" stroke-width="2" stroke-linejoin="round" stroke-linecap="round" stroke-miterlimit="10" pointer-events="stroke" style="stroke: rgb(130, 179, 102);"/></g></g><g data-cell-id="VZo5z6K5WTNjKC0VS86n-21"><g><path d="M 205 10 L 250 10 L 265 25 L 265 80 L 205 80 L 205 10 Z" fill="none" stroke="none" pointer-events="all"/><path d="M 250 10 L 250 25 L 265 25 Z" fill="none" stroke="none" pointer-events="all"/><path d="M 250 10 L 250 25 L 265 25" fill="none" stroke="none" pointer-events="all"/><path d="M 205 10 C 219.14 11.71 229.83 10.87 250 10 C 255.4 13.34 263.98 18.97 265 25 C 266.28 43.63 259.81 67.21 265 80 C 255.64 79.96 234.45 85.08 205 80 C 207.45 61.78 201.8 40.6 205 10 C 205 10 205 10 205 10" fill="#ffe6cc" stroke="none" pointer-events="all" style="fill: rgb(255, 230, 204);"/><path d="M 205 10 C 213.93 7.44 223.16 6.43 250 10 M 205 10 C 223.07 11.57 235.71 9.26 250 10 M 250 10 C 256.4 13.6 259.54 17.52 265 25 M 250 10 C 254.16 15.69 259.35 18.38 265 25 M 265 25 C 265.69 32.52 260.9 51.25 265 80 M 265 25 C 266.3 41.11 266.31 58.38 265 80 M 265 80 C 246.52 83.97 226.75 81 205 80 M 265 80 C 243.36 80.38 219.16 81.98 205 80 M 205 80 C 206.73 64.66 202.44 47.49 205 10 M 205 80 C 202.88 58.02 205.55 41.27 205 10 M 205 10 C 205 10 205 10 205 10 M 205 10 C 205 10 205 10 205 10" fill="none" stroke="#d79b00" stroke-linejoin="round" stroke-linecap="round" stroke-miterlimit="10" pointer-events="all" style="stroke: rgb(215, 155, 0);"/><path d="M 250 10 C 248.92 17.44 246.57 18.7 250 25 C 258.37 24.45 261.37 27.81 265 25 C 265.62 21.37 256.45 14.86 250 10" fill-opacity="0.05" fill="#000000" stroke="none" pointer-events="all" style="fill: rgb(0, 0, 0);"/><path d="M 250 10 C 248.6 12.02 247.41 14.87 250 25 M 250 10 C 251.22 16.12 248.62 19.75 250 25 M 250 25 C 255.78 25.23 258.97 25.67 265 25 M 250 25 C 254.3 26.38 259.18 25.44 265 25" fill="none" stroke="#d79b00" stroke-linejoin="round" stroke-linecap="round" stroke-miterlimit="10" pointer-events="all" style="stroke: rgb(215, 155, 0);"/></g></g><g data-cell-id="VZo5z6K5WTNjKC0VS86n-22"><g><path d="M 245 40 L 278 40 L 295 57 L 295 110 L 245 110 L 245 40 Z" fill="none" stroke="none" pointer-events="all"/><path d="M 278 40 L 278 57 L 295 57 Z" fill="none" stroke="none" pointer-events="all"/><path d="M 278 40 L 278 57 L 295 57" fill="none" stroke="none" pointer-events="all"/><path d="M 245 40 C 258.06 43.44 271.78 38.81 278 40 C 281.52 42.59 295.11 56.41 295 57 C 295.35 78.01 294.67 87.48 295 110 C 277.29 112.18 259.6 112.3 245 110 C 247.36 81.52 244.45 53.14 245 40 C 245 40 245 40 245 40" fill="#ffe6cc" stroke="none" pointer-events="all" style="fill: rgb(255, 230, 204);"/><path d="M 245 40 C 256.76 44.01 260.75 43.4 278 40 M 245 40 C 252.94 41.45 260.21 41.57 278 40 M 278 40 C 285.1 41.19 287.01 51.49 295 57 M 278 40 C 280.74 45.19 287.84 47.54 295 57 M 295 57 C 294.39 74.93 293.56 96.81 295 110 M 295 57 C 294.01 74.95 296.06 91.56 295 110 M 295 110 C 279.45 111.91 274.63 112.56 245 110 M 295 110 C 276.87 110.28 263.24 111.56 245 110 M 245 110 C 243.4 92.97 248.74 65.99 245 40 M 245 110 C 244.71 84.53 243.51 54.66 245 40 M 245 40 C 245 40 245 40 245 40 M 245 40 C 245 40 245 40 245 40" fill="none" stroke="#d79b00" stroke-linejoin="round" stroke-linecap="round" stroke-miterlimit="10" pointer-events="all" style="stroke: rgb(215, 155, 0);"/><path d="M 278 40 C 272.95 47.37 281.07 52.1 278 57 C 280.15 55.91 293.04 58.97 295 57 C 287.87 56.83 290.46 42.35 278 40" fill-opacity="0.05" fill="#000000" stroke="none" pointer-events="all" style="fill: rgb(0, 0, 0);"/><path d="M 278 40 C 281.32 47.33 277.98 50.9 278 57 M 278 40 C 278.06 45.12 277.79 49.13 278 57 M 278 57 C 284.52 54.34 286.79 59.38 295 57 M 278 57 C 281.14 57.99 287.78 56.55 295 57" fill="none" stroke="#d79b00" stroke-linejoin="round" stroke-linecap="round" stroke-miterlimit="10" pointer-events="all" style="stroke: rgb(215, 155, 0);"/></g></g><g data-cell-id="VZo5z6K5WTNjKC0VS86n-23"><g><path d="M 219 74 L 271 74 L 310 60 L 290.5 190.2 L 269.7 200 L 220.3 200 L 199.5 190.2 L 180 60 Z" fill="none" stroke="none" pointer-events="all"/><path d="M 219 74 C 230.68 76.9 242.28 71.17 271 74 C 282.99 73.38 302.21 64.78 310 60 C 306.57 113.07 294.58 163.6 290.5 190.2 C 288 189.85 275.46 197.01 269.7 200 C 257.09 199.37 235.21 203.52 220.3 200 C 211.5 193.2 210.69 200.36 199.5 190.2 C 198.73 143.42 189.01 100.21 180 60 C 197.32 59.41 209.44 64.12 219 74" fill="#dae8fc" stroke="none" pointer-events="all" style="fill: rgb(218, 232, 252);"/><path d="M 219 74 C 233.04 74.8 247.24 74.59 271 74 M 219 74 C 233.45 75.26 251.98 73.82 271 74 M 271 74 C 284.22 70.37 290.89 61.53 310 60 M 271 74 C 280.86 71.45 286.02 66.33 310 60 M 310 60 C 305.31 103.32 302.04 143.47 290.5 190.2 M 310 60 C 302.41 109.87 295.01 160.11 290.5 190.2 M 290.5 190.2 C 283.97 196.35 276.08 196.27 269.7 200 M 290.5 190.2 C 284.29 192.81 277.73 196.57 269.7 200 M 269.7 200 C 253.55 199.6 234.56 204.28 220.3 200 M 269.7 200 C 257.4 200.69 242.06 199.94 220.3 200 M 220.3 200 C 216.34 197.71 211.07 193.73 199.5 190.2 M 220.3 200 C 210.37 196.62 205.09 192.29 199.5 190.2 M 199.5 190.2 C 198.24 162.8 189.96 126.63 180 60 M 199.5 190.2 C 194.25 140.43 187.17 93.68 180 60 M 180 60 C 194.26 60.76 202.95 65.95 219 74 M 180 60 C 194.19 66.4 208.4 69.7 219 74" fill="none" stroke="#6c8ebf" stroke-linejoin="round" stroke-linecap="round" stroke-miterlimit="10" pointer-events="all" style="stroke: rgb(108, 142, 191);"/></g></g><g data-cell-id="VZo5z6K5WTNjKC0VS86n-24"><g><path d="M 305 90 L 318 93 L 330 100 L 330 110 L 320 115 L 290 113 L 262 106 L 242 97" fill="none" stroke="none" pointer-events="stroke"/><path d="M 305 90 C 307.66 90.47 310.35 91.32 318 93 M 305 90 C 310.59 90.19 314.11 91.97 318 93 M 318 93 C 322.53 93.35 327.13 96.06 330 100 M 318 93 C 322.51 95.61 326.22 99.33 330 100 M 330 100 C 329.13 104.41 328.67 107.53 330 110 M 330 100 C 330.05 102.4 331.13 103.62 330 110 M 330 110 C 325.83 113 323.21 114.5 320 115 M 330 110 C 328.28 111 325.75 112.54 320 115 M 320 115 C 310.04 117.47 303.44 117.2 290 113 M 320 115 C 308.06 115.22 295.49 115.53 290 113 M 290 113 C 276.64 107.34 269.03 108.8 262 106 M 290 113 C 280.79 111.03 271.77 108.73 262 106 M 262 106 C 256.84 107.38 249.87 103.92 242 97 M 262 106 C 255.65 104.66 246.13 101.47 242 97" fill="none" stroke="#6c8ebf" stroke-width="2" stroke-linejoin="round" stroke-linecap="round" stroke-miterlimit="10" pointer-events="stroke" style="stroke: rgb(108, 142, 191);"/></g></g><g data-cell-id="VZo5z6K5WTNjKC0VS86n-26"/><g data-cell-id="VZo5z6K5WTNjKC0VS86n-27"/><g data-cell-id="VZo5z6K5WTNjKC0VS86n-28"/><g data-cell-id="VZo5z6K5WTNjKC0VS86n-29"/><g data-cell-id="VZo5z6K5WTNjKC0VS86n-30"/></g></g></g></svg>