<?xml version="1.0" encoding="UTF-8"?>
<!DOCTYPE svg PUBLIC "-//W3C//DTD SVG 1.1//EN" "http://www.w3.org/Graphics/SVG/1.1/DTD/svg11.dtd">
<svg xmlns="http://www.w3.org/2000/svg" style="background: transparent; background-color: transparent; color-scheme: light dark;" xmlns:xlink="http://www.w3.org/1999/xlink" version="1.1" width="1562px" height="862px" viewBox="-0.5 -0.5 1562 862"><defs/><g><g data-cell-id="0"><g data-cell-id="1"><g data-cell-id="nf1OjJ1EspIcu-WVKQ3m-60"><g><path d="M 390 215 C 78 215 0 430 249.6 473 C 0 567.6 280.8 774 483.6 688 C 624 860 1092 860 1248 688 C 1560 688 1560 516 1365 430 C 1560 258 1248 86 975 172 C 780 43 468 43 390 215 Z" fill="none" stroke="none" pointer-events="all"/><path d="M 123.02 305.69 C 123.02 305.69 123.02 305.69 123.02 305.69 M 123.02 305.69 C 123.02 305.69 123.02 305.69 123.02 305.69 M 112.92 323.41 C 126.13 309.11 138.32 291.06 150.31 280.39 M 112.92 323.41 C 118.98 315.72 127.37 307.37 150.31 280.39 M 106.75 336.6 C 121.91 321.39 128.65 311.72 164.48 270.18 M 106.75 336.6 C 121.71 320.69 134.95 302.68 164.48 270.18 M 104.52 345.26 C 119.43 323.59 140.46 304.5 176.69 262.24 M 104.52 345.26 C 126.03 321.96 143.61 298.69 176.69 262.24 M 103.6 352.41 C 125.91 328.46 142.1 308.99 186.27 257.32 M 103.6 352.41 C 130.55 324.47 156.12 295.56 186.27 257.32 M 102.03 360.32 C 134.28 322.65 166.68 284.4 195.85 252.4 M 102.03 360.32 C 121.87 339.04 141.56 312.63 195.85 252.4 M 102.42 365.96 C 125.16 332.86 157.9 302.14 204.11 248.98 M 102.42 365.96 C 131.89 331.34 158.56 301.19 204.11 248.98 M 103.47 370.85 C 136.05 330.18 169.79 294.35 211.72 246.32 M 103.47 370.85 C 146.54 323.4 186.82 271.69 211.72 246.32 M 103.87 376.49 C 152.08 329.11 190.4 277.36 219.34 243.67 M 103.87 376.49 C 134.19 337.8 166 299.89 219.34 243.67 M 104.92 381.38 C 133.25 347.41 158.47 325.62 227.6 240.25 M 104.92 381.38 C 142.01 332.35 182.53 287.43 227.6 240.25 M 105.97 386.27 C 129.79 352.76 162.69 315.43 235.21 237.59 M 105.97 386.27 C 143.87 343.84 187.02 293.7 235.21 237.59 M 108.33 389.65 C 161.59 332.04 212.3 268.88 243.48 234.18 M 108.33 389.65 C 152.23 339.93 196.58 289.67 243.48 234.18 M 110.04 393.78 C 136.56 354.47 173.23 321.43 249.78 233.03 M 110.04 393.78 C 142.95 356.92 179.22 317.42 249.78 233.03 M 111.75 397.92 C 149.15 354.82 188.14 313.84 256.74 231.13 M 111.75 397.92 C 151.55 351.2 191.95 309.11 256.74 231.13 M 113.45 402.05 C 171.91 332.42 221.71 271.67 263.69 229.22 M 113.45 402.05 C 144.47 365.57 180.29 325.17 263.69 229.22 M 115.82 405.43 C 173.61 345.16 225.08 281.4 269.99 228.07 M 115.82 405.43 C 151.4 362.31 186.56 320.52 269.99 228.07 M 118.18 408.81 C 154.2 368.55 184.55 334.03 276.94 226.17 M 118.18 408.81 C 160.04 358.35 201.96 308.73 276.94 226.17 M 121.2 411.43 C 160.88 368.94 194.41 328.34 283.9 224.27 M 121.2 411.43 C 157.89 366.51 199.69 320.42 283.9 224.27 M 123.56 414.81 C 171 364.63 217.68 308.28 289.54 223.87 M 123.56 414.81 C 172.29 356.55 223.1 298.86 289.54 223.87 M 126.58 417.44 C 182.66 355.12 236.45 290.14 295.19 223.48 M 126.58 417.44 C 183.04 351.17 241.51 284.35 295.19 223.48 M 128.94 420.82 C 183.79 359.28 234.36 300.54 301.49 222.33 M 128.94 420.82 C 179.73 363.59 230.76 301.56 301.49 222.33 M 131.96 423.44 C 201.99 352.65 265.66 276.81 307.13 221.93 M 131.96 423.44 C 183.79 359.35 238.36 297.99 307.13 221.93 M 134.98 426.06 C 192.27 360.93 247.56 296.72 313.43 220.78 M 134.98 426.06 C 191.2 360.03 247.4 292.32 313.43 220.78 M 138 428.69 C 200.38 354.66 259.02 285.65 319.07 220.39 M 138 428.69 C 193.05 364.78 249.87 297.99 319.07 220.39 M 141.02 431.31 C 183.32 381.57 220.55 342.05 325.37 219.24 M 141.02 431.31 C 198.79 369.03 253.16 301.84 325.37 219.24 M 144.69 433.18 C 201.53 366.4 258.73 301.11 331.67 218.09 M 144.69 433.18 C 203.91 365.53 267.05 292.29 331.67 218.09 M 147.71 435.81 C 221.33 349.23 289.56 268.13 337.31 217.7 M 147.71 435.81 C 198.36 375.93 252.58 312.84 337.31 217.7 M 150.73 438.43 C 226.22 356.19 297.42 269.25 342.96 217.3 M 150.73 438.43 C 202.69 380.18 254.62 317.31 342.96 217.3 M 154.4 440.3 C 200.73 386.94 244.82 336.79 348.6 216.91 M 154.4 440.3 C 217.79 368.11 281.46 296.25 348.6 216.91 M 157.42 442.92 C 239.39 352.31 311.04 264.18 353.59 217.27 M 157.42 442.92 C 209.97 379.75 265.01 321.36 353.59 217.27 M 161.1 444.79 C 227.25 376.89 288.35 304.98 359.23 216.87 M 161.1 444.79 C 206.82 391.29 251.88 336.57 359.23 216.87 M 164.77 446.66 C 246.75 357.13 324.83 265.71 364.87 216.48 M 164.77 446.66 C 242.59 353.86 322.57 263.41 364.87 216.48 M 168.45 448.53 C 242.03 361.59 320.53 274.54 370.51 216.08 M 168.45 448.53 C 217.86 390.55 267.18 332.71 370.51 216.08 M 172.78 449.65 C 244.41 364.54 314.16 289.24 376.16 215.69 M 172.78 449.65 C 236.6 376.06 301.86 300.77 376.16 215.69 M 176.45 451.52 C 242.65 375.39 308.32 301.06 381.14 216.05 M 176.45 451.52 C 237.08 383.2 297.15 314.78 381.14 216.05 M 408.04 185.1 C 411.91 181.03 421.92 173.12 434.29 154.92 M 408.04 185.1 C 413.15 176.82 422.23 166.42 434.29 154.92 M 180.13 453.39 C 230.39 396.96 272.52 346.45 386.79 215.65 M 180.13 453.39 C 258.26 361.13 336.37 271.1 386.79 215.65 M 397.94 202.82 C 411.89 190.01 420.74 172.78 454.36 137.92 M 397.94 202.82 C 416.87 183.26 434.1 162.32 454.36 137.92 M 183.8 455.26 C 279.79 343.36 377.4 231.19 465.25 131.49 M 183.8 455.26 C 243.96 387.94 301.08 320.14 465.25 131.49 M 188.13 456.37 C 250.27 387.9 310.41 319.41 476.14 125.05 M 188.13 456.37 C 255.23 384.27 321.07 309.59 476.14 125.05 M 192.47 457.49 C 277.68 354.97 368 250.7 487.69 117.87 M 192.47 457.49 C 287.3 347.37 384.22 235.09 487.69 117.87 M 196.14 459.36 C 268.2 380.09 339.38 294.81 495.96 114.45 M 196.14 459.36 C 304.65 332.96 417.78 203.23 495.96 114.45 M 200.47 460.47 C 287.25 354.76 379.1 253.93 504.23 111.04 M 200.47 460.47 C 317.34 323.12 438.18 185.74 504.23 111.04 M 204.15 462.34 C 274.48 380.24 346.5 297.53 513.15 106.87 M 204.15 462.34 C 305.4 346.55 406.28 230.42 513.15 106.87 M 208.48 463.45 C 296.93 364.17 383.14 260.64 521.42 103.46 M 208.48 463.45 C 309.27 352.27 406.98 238.91 521.42 103.46 M 212.81 464.57 C 326.34 333.01 438.09 203.17 528.37 101.55 M 212.81 464.57 C 280.79 388.46 348.91 310.05 528.37 101.55 M 217.14 465.68 C 290.04 388.02 357.64 309.4 535.98 98.9 M 217.14 465.68 C 310.68 356.1 406.45 246.23 535.98 98.9 M 163.08 533.97 C 168.93 526.74 174.6 520.43 180.14 514.35 M 163.08 533.97 C 167.74 525.09 173.83 519.83 180.14 514.35 M 221.47 466.8 C 345.31 319.68 472.3 172.88 542.94 96.99 M 221.47 466.8 C 293.65 386.16 364.33 304.28 542.94 96.99 M 154.95 549.42 C 169.58 532.91 182.43 517.02 198.9 498.86 M 154.95 549.42 C 165.27 535.78 177.71 523.23 198.9 498.86 M 225.8 467.91 C 325.95 354.38 422.82 241.72 549.89 95.09 M 225.8 467.91 C 300.05 377.89 376.88 288.4 549.89 95.09 M 152.72 558.08 C 167.94 545.17 181.3 530.89 211.11 490.92 M 152.72 558.08 C 172.5 535.01 193.92 514.35 211.11 490.92 M 230.13 469.03 C 297.47 392.78 364.65 317.19 558.16 91.67 M 230.13 469.03 C 356.51 325.77 480.44 181.72 558.16 91.67 M 153.11 563.73 C 173.35 540.58 192.18 515.98 220.03 486.75 M 153.11 563.73 C 174.78 542.8 197.1 518.48 220.03 486.75 M 234.46 470.14 C 336.12 351.1 438.62 233.01 564.46 90.52 M 234.46 470.14 C 349.87 333.13 469.94 195.55 564.46 90.52 M 152.85 570.13 C 173.28 541.63 195.82 518.54 228.95 482.58 M 152.85 570.13 C 180.13 540.37 203.47 506.86 228.95 482.58 M 239.45 470.5 C 314.66 382.16 394.26 294.21 570.76 89.38 M 239.45 470.5 C 361.78 327.89 483.74 185.54 570.76 89.38 M 152.59 576.52 C 182.5 539.65 216.97 500.66 237.88 478.41 M 152.59 576.52 C 176.71 546.84 201.64 520.85 237.88 478.41 M 243.78 471.62 C 357.39 340.72 472.63 207.16 577.06 88.23 M 243.78 471.62 C 333.81 366.67 426.47 259.99 577.06 88.23 M 153.64 581.41 C 182.21 555.28 208.41 522.53 246.8 474.24 M 153.64 581.41 C 182.59 551.91 208.53 517.75 246.8 474.24 M 248.11 472.73 C 371.61 329.33 497.41 186.47 583.36 87.08 M 248.11 472.73 C 324.22 382.25 400.53 294.05 583.36 87.08 M 155.35 585.54 C 297.78 423.45 443.55 256.4 589.66 85.93 M 155.35 585.54 C 305.93 415.17 455.17 242.86 589.66 85.93 M 156.4 590.43 C 259.29 468.14 366.21 347.41 595.96 84.78 M 156.4 590.43 C 260.33 467.4 368.37 343.78 595.96 84.78 M 158.1 594.57 C 309.54 416.79 462.08 238.37 601.6 84.38 M 158.1 594.57 C 319.44 415.16 476.79 233.28 601.6 84.38 M 159.15 599.46 C 266.45 482.1 371.25 361.13 607.24 83.99 M 159.15 599.46 C 258.82 479.92 363.2 361.45 607.24 83.99 M 160.86 603.59 C 261.1 482.66 368.91 361.32 613.54 82.84 M 160.86 603.59 C 274.97 467.2 391.85 332.74 613.54 82.84 M 162.57 607.72 C 256.77 499.81 350.53 388.68 619.18 82.44 M 162.57 607.72 C 331.17 415.12 499.98 221.95 619.18 82.44 M 164.93 611.1 C 329.01 420.95 493.33 231.02 624.83 82.05 M 164.93 611.1 C 319.3 432.28 476.65 251.43 624.83 82.05 M 167.29 614.48 C 353.88 404.98 535.23 193.12 630.47 81.66 M 167.29 614.48 C 315.98 444.61 460.98 278.4 630.47 81.66 M 169.66 617.86 C 334.46 424.74 501.85 232.09 636.11 81.26 M 169.66 617.86 C 296.94 466.22 428.48 316.49 636.11 81.26 M 172.68 620.48 C 355.23 407.61 540.35 194.01 641.76 80.87 M 172.68 620.48 C 269.95 506.18 365.28 395.66 641.76 80.87 M 175.04 623.86 C 340.27 436.55 507.31 242.59 646.74 81.23 M 175.04 623.86 C 323.56 446.6 477.38 270.79 646.74 81.23 M 177.4 627.24 C 361.25 421.38 544.28 211.56 652.39 80.83 M 177.4 627.24 C 295.19 490.29 417.18 351.78 652.39 80.83 M 179.76 630.62 C 332.92 454.65 484.05 276.79 657.37 81.19 M 179.76 630.62 C 324.1 464.72 468.6 297.42 657.37 81.19 M 182.13 634 C 322.12 465.4 467.82 301.04 663.02 80.8 M 182.13 634 C 354.32 437.89 527.5 239.01 663.02 80.8 M 184.49 637.38 C 338.21 460.32 493.53 282.31 668 81.16 M 184.49 637.38 C 291.51 514.47 399.21 390.82 668 81.16 M 187.51 640 C 321.67 490.34 449.2 343.54 673.65 80.76 M 187.51 640 C 324.15 480.58 464.82 318.82 673.65 80.76 M 191.18 641.87 C 327.73 487.93 467.12 329.04 679.29 80.37 M 191.18 641.87 C 326.26 486.13 458.53 334.43 679.29 80.37 M 194.2 644.5 C 371.9 433.64 554.7 224.8 684.28 80.73 M 194.2 644.5 C 335.96 476.13 479.91 310.1 684.28 80.73 M 197.22 647.12 C 299.35 532.86 395.57 419.1 689.26 81.09 M 197.22 647.12 C 297.41 528.38 399.85 410.1 689.26 81.09 M 200.24 649.74 C 332.06 493.86 470.42 334.6 694.25 81.45 M 200.24 649.74 C 345.1 482.72 492.85 313.33 694.25 81.45 M 203.91 651.61 C 379.11 455.52 553.19 253.62 699.24 81.81 M 203.91 651.61 C 393.09 432.08 580.47 217.71 699.24 81.81 M 206.93 654.24 C 309.35 530.69 414.13 411.02 704.23 82.17 M 206.93 654.24 C 359.72 474.3 512.72 298.1 704.23 82.17 M 209.95 656.86 C 351.89 493.65 490 335.44 709.21 82.53 M 209.95 656.86 C 363.44 483.54 512.45 311.03 709.21 82.53 M 212.97 659.49 C 409.5 435.94 599.98 215.1 714.2 82.89 M 212.97 659.49 C 322.06 539.93 426.36 417.82 714.2 82.89 M 216.65 661.36 C 410.75 437.81 609.5 213.29 719.19 83.25 M 216.65 661.36 C 350.05 505.83 485.14 349.94 719.19 83.25 M 219.66 663.98 C 406.68 452.48 590.94 238.73 724.17 83.61 M 219.66 663.98 C 402.5 449.35 586.76 237.35 724.17 83.61 M 222.68 666.61 C 414.07 442.83 607.24 218.28 728.5 84.72 M 222.68 666.61 C 410.2 459.74 593.74 248.45 728.5 84.72 M 226.36 668.47 C 381.87 487.77 540.22 305.71 733.49 85.08 M 226.36 668.47 C 334.51 550.27 441.56 428.05 733.49 85.08 M 230.03 670.34 C 344 540.13 453.95 415.37 737.82 86.2 M 230.03 670.34 C 349.57 534.2 469.86 396.09 737.82 86.2 M 234.36 671.46 C 410.81 470.97 584.74 271.28 742.81 86.56 M 234.36 671.46 C 370.97 512.99 506.64 358.07 742.81 86.56 M 238.04 673.33 C 395.89 491.97 557.54 308.09 747.8 86.92 M 238.04 673.33 C 397.7 481.7 561.18 294.45 747.8 86.92 M 241.71 675.2 C 413.12 475.11 588.94 271.35 752.13 88.03 M 241.71 675.2 C 407.13 483.48 575.71 290.57 752.13 88.03 M 245.39 677.07 C 443.87 449.98 639.74 222.68 757.11 88.39 M 245.39 677.07 C 356.33 542.26 472.42 408.97 757.11 88.39 M 249.06 678.94 C 446.26 449.67 643.08 226.92 761.45 89.51 M 249.06 678.94 C 390.1 515.58 529.74 356.99 761.45 89.51 M 252.74 680.81 C 359.92 558.61 465.94 440 766.43 89.87 M 252.74 680.81 C 428.44 481.07 603.79 281.17 766.43 89.87 M 256.41 682.68 C 408.99 511.24 560.51 336.25 770.76 90.98 M 256.41 682.68 C 382.21 540.89 507.95 395.79 770.76 90.98 M 260.09 684.55 C 371.83 555.93 484.27 430.16 775.09 92.1 M 260.09 684.55 C 376.1 544.6 494.52 407.63 775.09 92.1 M 264.42 685.66 C 409.06 514.29 558.9 346.71 780.08 92.46 M 264.42 685.66 C 409.88 515.61 557.35 348.38 780.08 92.46 M 268.09 687.53 C 440.48 488.63 614.23 286.99 784.41 93.57 M 268.09 687.53 C 394.32 540.29 518.78 396.56 784.41 93.57 M 271.77 689.4 C 451.03 484.7 628.42 283.66 788.74 94.69 M 271.77 689.4 C 426.06 515.98 578.5 341.05 788.74 94.69 M 276.1 690.51 C 463.54 474.94 652.86 258.05 793.07 95.8 M 276.1 690.51 C 429.41 511.63 582.78 334.54 793.07 95.8 M 280.43 691.63 C 391.24 570.22 496.98 448.66 797.41 96.92 M 280.43 691.63 C 418.73 534.41 555.25 376.42 797.41 96.92 M 284.76 692.74 C 470.03 480.33 654.4 265.54 801.74 98.03 M 284.76 692.74 C 440.69 518.71 591.77 343.66 801.74 98.03 M 289.09 693.86 C 397.25 571.06 504.86 446.8 806.07 99.15 M 289.09 693.86 C 420.53 536.1 553.41 383.24 806.07 99.15 M 293.42 694.97 C 424.24 546.88 553.94 398.18 811.05 99.51 M 293.42 694.97 C 455.98 511.75 619.15 322.53 811.05 99.51 M 297.75 696.09 C 424.9 554.08 550.94 409.64 814.73 101.38 M 297.75 696.09 C 410.26 563.98 523.92 433.74 814.73 101.38 M 302.09 697.2 C 433.05 550.62 557.65 406.78 819.06 102.49 M 302.09 697.2 C 417.77 571.48 530.12 442.2 819.06 102.49 M 306.42 698.32 C 498.96 470.91 690.25 249.71 823.39 103.61 M 306.42 698.32 C 496.62 482.45 685.81 264.95 823.39 103.61 M 310.09 700.19 C 420.58 569.57 538.05 436.33 827.72 104.72 M 310.09 700.19 C 427.76 564.47 548.36 425.85 827.72 104.72 M 314.42 701.3 C 443.43 557.65 570.19 413.82 831.4 106.59 M 314.42 701.3 C 421.05 580.79 524.87 460.98 831.4 106.59 M 318.75 702.42 C 495.88 504.95 667.85 302.83 835.73 107.71 M 318.75 702.42 C 509.54 481.73 704.1 257.11 835.73 107.71 M 323.08 703.53 C 457.19 548.06 594.37 392.21 840.06 108.82 M 323.08 703.53 C 476.74 522.96 632 344.95 840.06 108.82 M 328.07 703.89 C 439.58 576.78 546.47 455.65 844.39 109.94 M 328.07 703.89 C 456.62 557.38 581.17 413.32 844.39 109.94 M 333.06 704.25 C 437.71 581.69 547.99 456.49 848.06 111.81 M 333.06 704.25 C 493.64 515.88 658.46 326.38 848.06 111.81 M 338.05 704.61 C 506.74 512.79 673.59 320.04 852.4 112.92 M 338.05 704.61 C 542.96 466.41 746.05 231.35 852.4 112.92 M 342.38 705.73 C 465.9 560.69 591.22 417 856.73 114.03 M 342.38 705.73 C 543.22 471.9 746.45 239.74 856.73 114.03 M 347.36 706.09 C 475.31 555.09 608.07 403.16 860.4 115.9 M 347.36 706.09 C 549.1 475.74 747.82 246.39 860.4 115.9 M 352.35 706.45 C 496.37 539.99 643.64 369.14 864.73 117.02 M 352.35 706.45 C 520.4 506.98 690.1 311.9 864.73 117.02 M 357.34 706.81 C 479.77 561.07 605.92 418.95 868.41 118.89 M 357.34 706.81 C 536.15 507.3 711.02 305.8 868.41 118.89 M 362.32 707.17 C 483.71 565.54 606.94 425.51 872.74 120 M 362.32 707.17 C 480.49 571.15 595.81 439.68 872.74 120 M 367.31 707.53 C 569.55 475.41 766.91 246.62 876.41 121.87 M 367.31 707.53 C 554.68 491.49 740.86 277.52 876.41 121.87 M 372.3 707.89 C 565.14 487.32 756.4 267.33 880.09 123.74 M 372.3 707.89 C 499.33 569.31 623.37 428.19 880.09 123.74 M 377.29 708.25 C 521.89 547.24 664.09 383.92 884.42 124.86 M 377.29 708.25 C 551.28 513.12 722.53 317.03 884.42 124.86 M 382.27 708.61 C 548.34 513.06 719.91 315.46 888.09 126.73 M 382.27 708.61 C 503.43 573.63 618.59 439.07 888.09 126.73 M 387.26 708.97 C 569.59 493.16 755.46 280.85 892.42 127.84 M 387.26 708.97 C 548.91 521.3 707.72 337.06 892.42 127.84 M 393.56 707.82 C 559.49 516.77 729.09 325 896.1 129.71 M 393.56 707.82 C 547.35 531.97 703.07 351.98 896.1 129.71 M 399.2 707.42 C 584.68 493.84 772.08 279.76 899.77 131.58 M 399.2 707.42 C 573.59 511.1 745.99 313 899.77 131.58 M 405.5 706.27 C 581.42 501.16 758.17 301.53 903.45 133.45 M 405.5 706.27 C 548.64 543.29 690.73 378.3 903.45 133.45 M 411.14 705.88 C 556.83 537.35 702.05 366.64 907.78 134.57 M 411.14 705.88 C 530.35 567.07 648.12 431.08 907.78 134.57 M 417.44 704.73 C 589.14 506.35 765.26 304.79 911.46 136.43 M 417.44 704.73 C 533.78 568.22 651.28 430.97 911.46 136.43 M 423.09 704.34 C 526.22 590.38 625.95 474.97 915.13 138.3 M 423.09 704.34 C 614.92 483.85 805.82 263.96 915.13 138.3 M 429.39 703.19 C 561.79 554.34 687.24 407.03 918.81 140.17 M 429.39 703.19 C 589.38 517.02 749.75 331.95 918.81 140.17 M 435.03 702.79 C 551.28 564.84 672.36 429.37 922.48 142.04 M 435.03 702.79 C 613.97 498.72 793.74 291.36 922.48 142.04 M 441.33 701.64 C 626.34 490.64 811.89 276.74 926.16 143.91 M 441.33 701.64 C 631.46 486.82 821.35 269.95 926.16 143.91 M 447.63 700.49 C 556.69 581.62 660.28 457.11 929.83 145.78 M 447.63 700.49 C 605.32 517.17 766.66 330.75 929.83 145.78 M 454.58 698.59 C 644.51 484.93 829.84 272.01 933.5 147.65 M 454.58 698.59 C 616.65 516.28 777.79 331.68 933.5 147.65 M 462.19 695.93 C 569.06 570.74 674.36 452.4 937.18 149.52 M 462.19 695.93 C 560.05 579.85 659.87 463.81 937.18 149.52 M 469.8 693.27 C 618.52 518.63 773.25 343.63 940.85 151.39 M 469.8 693.27 C 646.41 494.04 816.78 295.78 940.85 151.39 M 477.42 690.61 C 659.98 478.85 848.96 265.4 944.53 153.26 M 477.42 690.61 C 616.67 527.77 760.02 364.89 944.53 153.26 M 484.37 688.71 C 580.77 574.5 677.22 463.31 947.55 155.88 M 484.37 688.71 C 643.86 502.87 803.03 320.74 947.55 155.88 M 487.39 691.33 C 663.21 481.45 842.67 275.6 951.22 157.75 M 487.39 691.33 C 626.65 530.56 766.87 368.18 951.22 157.75 M 489.75 694.71 C 594.52 570.16 701.33 448.07 954.9 159.62 M 489.75 694.71 C 593.49 574.36 696.47 454.69 954.9 159.62 M 492.77 697.34 C 627.78 548.74 758.7 394.57 957.92 162.25 M 492.77 697.34 C 618.42 552.21 742.84 410.51 957.92 162.25 M 495.79 699.96 C 656.78 513.6 817.05 327.83 961.59 164.12 M 495.79 699.96 C 605.7 577.72 713.29 453.95 961.59 164.12 M 498.15 703.34 C 619.14 567.28 741.82 427.02 965.27 165.99 M 498.15 703.34 C 613.48 575.56 725.39 448.26 965.27 165.99 M 501.17 705.96 C 641.06 550.16 780.88 389.55 968.94 167.86 M 501.17 705.96 C 625.03 562.86 750.21 416.54 968.94 167.86 M 504.19 708.59 C 674.6 518.19 839.55 324.39 971.96 170.48 M 504.19 708.59 C 613.53 579.04 725.37 449.61 971.96 170.48 M 507.21 711.21 C 685.39 505.52 861.31 303.61 975.64 172.35 M 507.21 711.21 C 661.01 536.49 814.16 359.59 975.64 172.35 M 509.57 714.59 C 647.37 555.21 784.42 396.5 981.93 171.2 M 509.57 714.59 C 632.48 570.63 758.26 425.89 981.93 171.2 M 512.59 717.22 C 641.36 571.37 767.63 422.79 988.89 169.3 M 512.59 717.22 C 640.57 573.98 766.28 429.06 988.89 169.3 M 515.61 719.84 C 643.47 575.81 768.87 434.49 995.19 168.15 M 515.61 719.84 C 659.56 555.43 800.79 391.83 995.19 168.15 M 518.63 722.46 C 625.89 600.07 735.48 476.1 1002.14 166.24 M 518.63 722.46 C 623.46 601.66 729.9 481.67 1002.14 166.24 M 522.3 724.33 C 670.27 552.93 820.17 380.39 1008.44 165.09 M 522.3 724.33 C 653.56 566.85 788.14 411.33 1008.44 165.09 M 525.32 726.96 C 648.9 584.7 773.67 442.8 1015.4 163.19 M 525.32 726.96 C 630.87 605.82 732.35 488.36 1015.4 163.19 M 529 728.83 C 717 513.28 901.5 300.95 1021.7 162.04 M 529 728.83 C 702.72 532.61 874.93 336.23 1021.7 162.04 M 532.02 731.45 C 716.75 526.8 894.77 321.33 1028.65 160.14 M 532.02 731.45 C 696.19 538.96 861.28 349.88 1028.65 160.14 M 535.03 734.08 C 665.02 580.19 797.6 427.26 1034.95 158.99 M 535.03 734.08 C 643.17 607.43 750.91 484.55 1034.95 158.99 M 538.71 735.95 C 687.15 565.69 839.54 391.64 1041.91 157.08 M 538.71 735.95 C 722.8 527.23 905.9 317.01 1041.91 157.08 M 541.73 738.57 C 662.72 594.95 788.41 451.5 1048.21 155.93 M 541.73 738.57 C 724.71 520.5 912.31 304.31 1048.21 155.93 M 545.4 740.44 C 652.23 613.82 761.6 487.96 1054.51 154.79 M 545.4 740.44 C 725.82 530.72 906.8 324.09 1054.51 154.79 M 548.42 743.06 C 689.17 580.1 828.63 420.81 1060.15 154.39 M 548.42 743.06 C 689.05 576.92 830.63 414.54 1060.15 154.39 M 551.44 745.69 C 655 625.81 762.61 503.98 1065.79 154 M 551.44 745.69 C 677.36 606.28 796.45 466.87 1065.79 154 M 555.12 747.56 C 743.6 541.04 924.32 331.8 1071.43 153.6 M 555.12 747.56 C 745.51 523.67 941.57 297.28 1071.43 153.6 M 558.79 749.43 C 746.02 535.2 934.28 322.1 1077.08 153.21 M 558.79 749.43 C 665.64 618.75 775.33 491.71 1077.08 153.21 M 562.47 751.3 C 764.12 515.75 964.93 282.41 1082.72 152.81 M 562.47 751.3 C 721.67 571.8 878.54 390.28 1082.72 152.81 M 566.14 753.17 C 736.89 561.04 902.37 367.49 1088.36 152.42 M 566.14 753.17 C 766.94 523.35 965.06 296.81 1088.36 152.42 M 569.82 755.04 C 748.53 555.35 924.51 350.06 1094.01 152.02 M 569.82 755.04 C 694.39 609.97 823.74 461.52 1094.01 152.02 M 573.49 756.91 C 737.76 564.69 903.9 372.86 1099.65 151.63 M 573.49 756.91 C 731.49 581.98 885.15 405.91 1099.65 151.63 M 577.17 758.77 C 706.12 618.56 830.67 472.24 1105.29 151.23 M 577.17 758.77 C 783.22 522.59 989.5 285.39 1105.29 151.23 M 580.84 760.64 C 759.83 547.28 941.95 337.82 1110.94 150.84 M 580.84 760.64 C 687.82 635.53 794.81 513.67 1110.94 150.84 M 584.52 762.51 C 787.01 524.45 992.18 287.72 1116.58 150.44 M 584.52 762.51 C 734.22 584.75 887.36 406.78 1116.58 150.44 M 588.19 764.38 C 788.84 537.64 987.02 311.8 1122.22 150.05 M 588.19 764.38 C 708.5 627.41 827.23 490.18 1122.22 150.05 M 591.87 766.25 C 793.94 535.89 993.02 308.1 1127.87 149.66 M 591.87 766.25 C 738.62 596.52 889.78 424.54 1127.87 149.66 M 595.54 768.12 C 767.39 568.86 942.61 365.14 1132.85 150.02 M 595.54 768.12 C 789.64 542.27 982.46 321.03 1132.85 150.02 M 599.87 769.24 C 731.5 622.88 858.68 478.41 1137.84 150.38 M 599.87 769.24 C 745.26 594.65 894.95 423.65 1137.84 150.38 M 603.55 771.11 C 789.03 565.68 966.58 358.63 1142.83 150.74 M 603.55 771.11 C 758.88 593.18 913.84 416.7 1142.83 150.74 M 607.88 772.22 C 777.52 585.31 941.98 393.79 1147.81 151.1 M 607.88 772.22 C 810.61 546.12 1010.53 317.35 1147.81 151.1 M 612.21 773.34 C 761.48 605.43 907.32 437.93 1152.8 151.46 M 612.21 773.34 C 808.34 548.57 1003.12 325.8 1152.8 151.46 M 615.88 775.21 C 815.12 547.67 1015.04 315.56 1157.79 151.82 M 615.88 775.21 C 741.32 631.77 865.09 488.41 1157.79 151.82 M 620.21 776.32 C 826.95 532.09 1034.43 288.91 1162.77 152.18 M 620.21 776.32 C 732 642.83 847.54 511.01 1162.77 152.18 M 623.89 778.19 C 790.57 585.98 955.38 395.89 1167.76 152.54 M 623.89 778.19 C 790.62 589.81 955.19 400.3 1167.76 152.54 M 628.22 779.31 C 802.11 581.25 975.22 382.53 1172.75 152.9 M 628.22 779.31 C 827.7 554.89 1023.74 330.96 1172.75 152.9 M 631.89 781.17 C 760.12 631.97 889.84 484.36 1177.74 153.26 M 631.89 781.17 C 754.53 649.63 871.1 514.11 1177.74 153.26 M 636.23 782.29 C 771.17 620.58 910.4 460.67 1182.72 153.62 M 636.23 782.29 C 851.49 539.1 1061.37 296.84 1182.72 153.62 M 640.56 783.4 C 846.16 552.24 1050.02 317.56 1187.71 153.98 M 640.56 783.4 C 845.73 547.93 1049.99 313.92 1187.71 153.98 M 644.23 785.27 C 844.07 548.41 1050.09 313.37 1192.7 154.34 M 644.23 785.27 C 842.34 555.04 1042.42 324.7 1192.7 154.34 M 648.56 786.39 C 764.31 654.88 877.33 526.4 1197.68 154.7 M 648.56 786.39 C 837.99 564.81 1031.84 341.69 1197.68 154.7 M 652.24 788.26 C 765 660.41 879.91 525.84 1202.67 155.06 M 652.24 788.26 C 782.73 637.22 913.85 487.69 1202.67 155.06 M 656.57 789.37 C 813.42 612.23 968.02 436.7 1207 156.17 M 656.57 789.37 C 834.98 586.17 1013.22 382.35 1207 156.17 M 660.24 791.24 C 820.78 606.87 975.38 429.67 1211.33 157.29 M 660.24 791.24 C 790.43 647.48 918.01 501.56 1211.33 157.29 M 664.57 792.36 C 795.89 649.62 921.4 504.25 1215.66 158.4 M 664.57 792.36 C 786.26 655.64 905.34 520.01 1215.66 158.4 M 668.9 793.47 C 819.04 615.7 970.36 442.5 1219.99 159.52 M 668.9 793.47 C 805.79 632 941.16 474.81 1219.99 159.52 M 673.24 794.59 C 859.73 580.09 1047.1 365.06 1224.98 159.88 M 673.24 794.59 C 867.04 571.67 1059.3 351.13 1224.98 159.88 M 678.22 794.95 C 811.53 635.08 952.14 474.94 1229.31 160.99 M 678.22 794.95 C 827.12 625.44 975.84 454.46 1229.31 160.99 M 682.55 796.06 C 893.2 555.31 1105.01 308.41 1233.64 162.11 M 682.55 796.06 C 806.05 662.98 925.24 526.79 1233.64 162.11 M 686.88 797.18 C 814.58 646.68 942.56 497.11 1237.97 163.22 M 686.88 797.18 C 882.44 577.74 1075.19 355.86 1237.97 163.22 M 691.22 798.29 C 799.96 666.32 915.97 533.65 1242.31 164.34 M 691.22 798.29 C 852.13 611.49 1014.39 427.44 1242.31 164.34 M 695.55 799.41 C 823.74 656.13 947.99 512.89 1246.64 165.45 M 695.55 799.41 C 818.34 652.64 945.57 506.61 1246.64 165.45 M 699.88 800.52 C 870.42 596.98 1045.77 396.88 1250.97 166.57 M 699.88 800.52 C 826.63 659.44 951.07 515.12 1250.97 166.57 M 704.21 801.64 C 820.77 672.02 931.09 545.37 1255.3 167.68 M 704.21 801.64 C 881.57 596.75 1061.57 389.67 1255.3 167.68 M 709.2 802 C 876.26 612.88 1038.16 422.42 1260.29 168.04 M 709.2 802 C 847.72 643.38 985.63 485.03 1260.29 168.04 M 713.53 803.11 C 885.17 608.02 1055 415.37 1264.62 169.15 M 713.53 803.11 C 891.68 599.9 1070.38 394.5 1264.62 169.15 M 717.86 804.23 C 836.49 669.91 952.31 536.94 1268.95 170.27 M 717.86 804.23 C 923.61 572.85 1125.81 340.4 1268.95 170.27 M 722.19 805.34 C 860.73 644.06 1003.02 483.14 1272.62 172.14 M 722.19 805.34 C 838.47 675.62 951.37 547.66 1272.62 172.14 M 727.18 805.7 C 930.59 572.34 1136.39 335.73 1276.95 173.25 M 727.18 805.7 C 932.1 579.13 1133.36 346.62 1276.95 173.25 M 731.51 806.82 C 918.31 594.88 1108.68 379.62 1280.63 175.12 M 731.51 806.82 C 840.97 673.99 956.15 542.99 1280.63 175.12 M 736.49 807.18 C 951.98 560.3 1169.5 309.16 1284.3 176.99 M 736.49 807.18 C 849.38 680.2 963.84 548.63 1284.3 176.99 M 741.48 807.54 C 867.36 669.61 987.6 532.22 1288.63 178.11 M 741.48 807.54 C 891.89 634.86 1038.01 466.01 1288.63 178.11 M 745.81 808.65 C 937.2 593.29 1126.58 375.05 1292.31 179.98 M 745.81 808.65 C 874.22 665 1001.72 518.45 1292.31 179.98 M 750.8 809.01 C 932.66 597.44 1112.03 389.7 1296.64 181.09 M 750.8 809.01 C 964.11 567.27 1176.1 324.03 1296.64 181.09 M 755.13 810.13 C 953.41 577.5 1155.92 346.27 1300.31 182.96 M 755.13 810.13 C 948.82 577.59 1148.01 349.85 1300.31 182.96 M 760.12 810.49 C 912.47 640.66 1062.42 470.74 1303.99 184.83 M 760.12 810.49 C 892.11 655.66 1028.12 499.66 1303.99 184.83 M 764.45 811.6 C 917.84 642.51 1068.96 466.52 1308.32 185.95 M 764.45 811.6 C 923.32 629.78 1084.44 444.86 1308.32 185.95 M 769.43 811.96 C 893.36 667.25 1016.26 524.65 1312 187.82 M 769.43 811.96 C 889.13 679.49 1006.81 543.31 1312 187.82 M 774.42 812.32 C 977.28 582.33 1171.2 356.86 1315.67 189.69 M 774.42 812.32 C 936.26 616.2 1103.2 425.28 1315.67 189.69 M 779.41 812.68 C 958.25 600.01 1141.47 389.59 1320 190.8 M 779.41 812.68 C 962.22 609.33 1140.73 402.72 1320 190.8 M 784.4 813.04 C 986.92 574.86 1195.12 337.07 1323.68 192.67 M 784.4 813.04 C 918.78 661.98 1053.19 507.3 1323.68 192.67 M 789.38 813.4 C 962.75 609.43 1139.2 409.71 1327.35 194.54 M 789.38 813.4 C 957.27 620.05 1122.99 428.7 1327.35 194.54 M 794.37 813.76 C 994.73 591.58 1192.18 362.64 1331.03 196.41 M 794.37 813.76 C 984.21 591.83 1176.04 372.01 1331.03 196.41 M 799.36 814.12 C 950.85 637.92 1102.66 460.67 1334.7 198.28 M 799.36 814.12 C 981.82 598 1166.58 386.38 1334.7 198.28 M 804.34 814.48 C 923.91 676.1 1041.92 540.94 1338.38 200.15 M 804.34 814.48 C 926.19 666.12 1052.54 519.47 1338.38 200.15 M 809.33 814.84 C 959.61 645.31 1109.81 474.99 1341.39 202.77 M 809.33 814.84 C 978.12 620.81 1144.51 428.22 1341.39 202.77 M 814.32 815.2 C 984.14 622.71 1153.68 429.72 1345.07 204.64 M 814.32 815.2 C 968.15 641.21 1116.1 469.8 1345.07 204.64 M 819.3 815.56 C 1006.43 611.56 1186.33 401.95 1348.74 206.51 M 819.3 815.56 C 1011.78 587.39 1208.08 361.76 1348.74 206.51 M 824.29 815.92 C 979.4 632.26 1140.97 448.24 1351.76 209.14 M 824.29 815.92 C 956.5 662.6 1089.79 510.78 1351.76 209.14 M 829.28 816.28 C 983.62 644.26 1132.29 472.3 1355.44 211 M 829.28 816.28 C 1006.12 611.62 1185.41 405.05 1355.44 211 M 834.27 816.64 C 993.81 634.12 1147.77 452.84 1359.11 212.87 M 834.27 816.64 C 988.9 635.59 1145.15 456.08 1359.11 212.87 M 839.25 817 C 983.27 642.48 1133.87 473.11 1362.13 215.5 M 839.25 817 C 1015.04 612.98 1192.26 408.84 1362.13 215.5 M 844.9 816.61 C 999.94 636.8 1154.85 463.53 1365.15 218.12 M 844.9 816.61 C 1026.68 609.7 1202.92 405.5 1365.15 218.12 M 850.54 816.21 C 1005.04 641.31 1158.36 465.79 1368.17 220.75 M 850.54 816.21 C 1030.15 611.78 1209.23 404.21 1368.17 220.75 M 855.53 816.57 C 1039 608.26 1219.81 397.71 1371.19 223.37 M 855.53 816.57 C 1001.42 654.01 1146.13 487.68 1371.19 223.37 M 861.17 816.18 C 984.01 677.58 1104.13 538.89 1374.21 226 M 861.17 816.18 C 976.18 675.34 1096.47 538.37 1374.21 226 M 866.16 816.54 C 966.57 691.84 1072.37 573.56 1377.23 228.62 M 866.16 816.54 C 1065.19 584.75 1267.23 352.23 1377.23 228.62 M 871.8 816.14 C 973.74 701.7 1077.5 579.11 1380.24 231.24 M 871.8 816.14 C 1042.66 616.24 1216.2 418.56 1380.24 231.24 M 877.44 815.75 C 1008.25 667.97 1139.66 515.82 1383.26 233.87 M 877.44 815.75 C 1046.55 612.45 1220.45 413.91 1383.26 233.87 M 882.43 816.11 C 1016.65 658.68 1153.09 503.36 1386.28 236.49 M 882.43 816.11 C 1026.85 648.47 1171.01 482.83 1386.28 236.49 M 888.07 815.71 C 1083.07 582.91 1284.58 355.29 1389.3 239.12 M 888.07 815.71 C 1067.1 610.78 1247.8 403.21 1389.3 239.12 M 893.06 816.07 C 1029.45 663.09 1162.95 510.05 1391.66 242.5 M 893.06 816.07 C 1081.07 601.86 1267.74 388.68 1391.66 242.5 M 898.7 815.68 C 1077.42 610.86 1257.57 404.63 1394.03 245.87 M 898.7 815.68 C 1027.05 666.3 1155.65 518.12 1394.03 245.87 M 904.35 815.29 C 1007.78 698.06 1111.09 575.74 1397.05 248.5 M 904.35 815.29 C 1089.11 598.72 1275.78 385.12 1397.05 248.5 M 909.33 815.65 C 1101.4 594.41 1288.47 379.04 1399.41 251.88 M 909.33 815.65 C 1021.24 685.45 1133.26 554.76 1399.41 251.88 M 914.98 815.25 C 1052.86 657.5 1192.41 496.3 1401.77 255.26 M 914.98 815.25 C 1084.59 615.93 1257.41 417.83 1401.77 255.26 M 920.62 814.86 C 1090.9 618.51 1259.67 424.53 1404.13 258.64 M 920.62 814.86 C 1038.96 676.5 1157.06 540.13 1404.13 258.64 M 926.26 814.46 C 1035.6 682.24 1149.8 551.91 1406.5 262.01 M 926.26 814.46 C 1043.49 682.39 1157.83 549.84 1406.5 262.01 M 932.56 813.31 C 1042.39 687.94 1150.58 561.62 1408.86 265.39 M 932.56 813.31 C 1053.48 679.23 1171.15 544.05 1408.86 265.39 M 938.2 812.92 C 1034.87 704.17 1128.09 595.51 1411.88 268.02 M 938.2 812.92 C 1055.24 682.09 1170.49 550.74 1411.88 268.02 M 943.85 812.52 C 1061.25 676.82 1179.88 540.05 1413.58 272.15 M 943.85 812.52 C 1115.65 613.81 1289.59 413.07 1413.58 272.15 M 950.15 811.37 C 1074.7 669.25 1201.72 525.04 1415.29 276.28 M 950.15 811.37 C 1067.73 675.44 1185.02 539.56 1415.29 276.28 M 955.79 810.98 C 1109.85 632.02 1265.28 451.39 1417 280.42 M 955.79 810.98 C 1096.43 649.86 1239.59 485.08 1417 280.42 M 961.43 810.58 C 1110.5 643.07 1255.58 475.84 1418.71 284.55 M 961.43 810.58 C 1072.76 680.99 1183.82 554.55 1418.71 284.55 M 967.08 810.19 C 1083.48 677.54 1201.73 541.05 1420.41 288.69 M 967.08 810.19 C 1132 623.38 1292.36 438.05 1420.41 288.69 M 973.37 809.04 C 1150.12 611.34 1321.76 412.49 1422.12 292.82 M 973.37 809.04 C 1090.17 680.52 1203.74 549.56 1422.12 292.82 M 979.67 807.89 C 1102.22 661.73 1222.89 519.57 1422.51 298.46 M 979.67 807.89 C 1141.45 627.37 1300.71 444.52 1422.51 298.46 M 985.97 806.74 C 1114.01 664.83 1241.36 520.42 1423.56 303.35 M 985.97 806.74 C 1077.38 703 1169.5 598.03 1423.56 303.35 M 992.27 805.59 C 1130.94 650.78 1265.16 492.85 1424.61 308.24 M 992.27 805.59 C 1150.33 625.32 1309.19 443.24 1424.61 308.24 M 998.57 804.44 C 1091.06 701.33 1178.36 599.36 1426.32 312.37 M 998.57 804.44 C 1137.36 646.83 1272.4 490.37 1426.32 312.37 M 1004.87 803.29 C 1159.96 625.82 1311.46 449.27 1426.06 318.77 M 1004.87 803.29 C 1168.38 610.48 1333.8 421.98 1426.06 318.77 M 1011.17 802.15 C 1141.24 657.38 1266.57 511.66 1425.8 325.17 M 1011.17 802.15 C 1118.07 677.1 1222.96 556.69 1425.8 325.17 M 1017.47 801 C 1139.54 664.37 1260.15 526.16 1425.54 331.57 M 1017.47 801 C 1105.98 696.88 1198.71 590.75 1425.54 331.57 M 1023.77 799.85 C 1147.86 655.79 1273.06 513.22 1423.96 339.47 M 1023.77 799.85 C 1172.53 622.66 1324.28 448.43 1423.96 339.47 M 1030.07 798.7 C 1126.99 687.59 1226.55 573.98 1422.39 347.38 M 1030.07 798.7 C 1129.78 689.54 1226.47 578.82 1422.39 347.38 M 1037.02 796.79 C 1163.82 657.32 1287.11 512.08 1419.5 356.8 M 1037.02 796.79 C 1164.13 654.46 1290.84 509.67 1419.5 356.8 M 1043.98 794.89 C 1136.08 689.77 1227.1 586.68 1414.65 368.48 M 1043.98 794.89 C 1117.86 710.62 1192.85 624.71 1414.65 368.48 M 1050.93 792.99 C 1118.46 713.03 1186.55 631.45 1365.84 430.72 M 1050.93 792.99 C 1122.51 714.82 1190.87 634.84 1365.84 430.72 M 1373.06 422.42 C 1386.68 409.78 1399.87 392.74 1405.86 384.69 M 1373.06 422.42 C 1380.23 412.86 1388.02 404.49 1405.86 384.69 M 1058.54 790.33 C 1133.99 701.99 1209.8 613.85 1369.52 432.59 M 1058.54 790.33 C 1134.11 705.36 1210.15 619.05 1369.52 432.59 M 1065.5 788.42 C 1169.72 667.41 1276.36 544.43 1373.19 434.46 M 1065.5 788.42 C 1128.93 710.87 1195.75 636.25 1373.19 434.46 M 1072.45 786.52 C 1136.98 714.63 1203.33 641.16 1376.86 436.33 M 1072.45 786.52 C 1153.26 692.72 1235.91 598.84 1376.86 436.33 M 1079.41 784.61 C 1154.1 704.48 1227.14 620.01 1380.54 438.2 M 1079.41 784.61 C 1157.53 692.55 1236.61 602.44 1380.54 438.2 M 1087.02 781.96 C 1178.83 673.34 1269.19 568.52 1384.21 440.07 M 1087.02 781.96 C 1162.51 694.45 1237.69 608.9 1384.21 440.07 M 1093.98 780.05 C 1196.46 663.15 1297.97 548.43 1387.89 441.94 M 1093.98 780.05 C 1162.92 700.83 1230.53 623.25 1387.89 441.94 M 1100.93 778.15 C 1188.73 676.41 1278.32 573.91 1391.56 443.81 M 1100.93 778.15 C 1161.32 705.01 1225.23 632.21 1391.56 443.81 M 1107.89 776.24 C 1168.7 707.26 1231.52 633.48 1395.9 444.93 M 1107.89 776.24 C 1214.36 656.68 1317.9 538.1 1395.9 444.93 M 1116.15 772.83 C 1210.98 666.75 1303.42 561.78 1399.57 446.8 M 1116.15 772.83 C 1187.82 684.89 1262.72 598.94 1399.57 446.8 M 1124.42 769.42 C 1209.42 670.31 1297.44 569.81 1402.59 449.42 M 1124.42 769.42 C 1203.01 684.15 1276.78 599.2 1402.59 449.42 M 1133.34 765.25 C 1209.12 681.07 1286.86 593.59 1406.26 451.29 M 1133.34 765.25 C 1239.21 642.46 1342.8 523.43 1406.26 451.29 M 1141.61 761.83 C 1231.81 656.16 1324.6 549.3 1409.28 453.91 M 1141.61 761.83 C 1235.98 649.45 1331.81 538.27 1409.28 453.91 M 1149.88 758.42 C 1214.35 681.61 1279.61 612.18 1412.96 455.78 M 1149.88 758.42 C 1210.11 686.58 1272.27 616.23 1412.96 455.78 M 1160.11 752.74 C 1232.74 666.16 1312.47 579.17 1416.63 457.65 M 1160.11 752.74 C 1214.02 693.75 1265.45 634.53 1416.63 457.65 M 1170.35 747.07 C 1237.57 673.57 1301.38 597.96 1419.65 460.28 M 1170.35 747.07 C 1257.56 646.74 1345.74 545.79 1419.65 460.28 M 1181.24 740.63 C 1235.94 679.89 1293.77 613.02 1423.33 462.15 M 1181.24 740.63 C 1264.17 640.57 1351.98 540.9 1423.33 462.15 M 1191.48 734.96 C 1274.03 641.54 1355.83 549.34 1426.35 464.77 M 1191.48 734.96 C 1276.33 638.78 1362.6 538.45 1426.35 464.77 M 1204.99 725.51 C 1270.69 651.55 1337.67 579.15 1430.02 466.64 M 1204.99 725.51 C 1285.81 634.92 1364.51 544.39 1430.02 466.64 M 1221.79 712.28 C 1287.68 631.88 1353.33 559.44 1433.04 469.26 M 1221.79 712.28 C 1297.02 626.4 1372.45 538.24 1433.04 469.26 M 1248.43 687.74 C 1297.28 635.73 1344.79 577.96 1436.06 471.89 M 1248.43 687.74 C 1304.91 621.25 1358.78 558.47 1436.06 471.89 M 1253.41 688.1 C 1312.12 623.22 1370.16 556.36 1439.08 474.51 M 1253.41 688.1 C 1316.09 620.74 1376.08 553.07 1439.08 474.51 M 1259.06 687.7 C 1299.62 645.37 1342.18 595.84 1442.1 477.14 M 1259.06 687.7 C 1308.64 633.28 1357.93 573.23 1442.1 477.14 M 1264.7 687.31 C 1314.71 627.16 1365.09 572.18 1445.77 479.01 M 1264.7 687.31 C 1315.47 625.83 1369.64 567.45 1445.77 479.01 M 1269.69 687.67 C 1328.21 621.72 1381.51 558.06 1448.79 481.63 M 1269.69 687.67 C 1335.91 612.66 1400.36 540.4 1448.79 481.63 M 1275.33 687.27 C 1333.82 623.93 1389.98 558.91 1451.81 484.25 M 1275.33 687.27 C 1308.48 643.97 1346.26 604.05 1451.81 484.25 M 1280.97 686.88 C 1341.11 617.14 1410.84 537.5 1454.83 486.88 M 1280.97 686.88 C 1347.83 606.97 1418.88 525.23 1454.83 486.88 M 1286.61 686.48 C 1338.38 623.59 1389.13 559.84 1457.19 490.26 M 1286.61 686.48 C 1335.28 635.06 1380.78 582.92 1457.19 490.26 M 1291.6 686.84 C 1339 633.3 1384.24 577.98 1460.21 492.88 M 1291.6 686.84 C 1324.19 648.09 1360.57 606.31 1460.21 492.88 M 1297.24 686.45 C 1348.75 626.79 1400.06 562.61 1463.23 495.51 M 1297.24 686.45 C 1356.62 612.7 1419.89 541.53 1463.23 495.51 M 1302.89 686.05 C 1363.34 611.81 1429.08 537.98 1465.59 498.89 M 1302.89 686.05 C 1368.24 612.44 1430.86 539.85 1465.59 498.89 M 1308.53 685.66 C 1365.17 621.09 1423.49 553.25 1468.61 501.51 M 1308.53 685.66 C 1353.84 632.61 1401.11 579.36 1468.61 501.51 M 1314.83 684.51 C 1366.16 621.58 1426 559.93 1470.97 504.89 M 1314.83 684.51 C 1367.51 626.95 1419.12 567.02 1470.97 504.89 M 1320.47 684.12 C 1355.04 647.48 1389.13 607.88 1473.99 507.51 M 1320.47 684.12 C 1357.96 638.6 1396.57 599.94 1473.99 507.51 M 1326.77 682.97 C 1364.05 636.43 1402.94 588.92 1476.35 510.89 M 1326.77 682.97 C 1387.29 615.23 1443.32 550.33 1476.35 510.89 M 1332.42 682.57 C 1370.42 639.83 1410.28 589.45 1478.06 515.03 M 1332.42 682.57 C 1383.39 620.66 1435.64 562.84 1478.06 515.03 M 1338.06 682.18 C 1382.01 631.83 1427.12 580.38 1480.42 518.4 M 1338.06 682.18 C 1376.33 639.11 1414.55 595.84 1480.42 518.4 M 1344.36 681.03 C 1383.7 637.4 1420.27 595.24 1482.79 521.78 M 1344.36 681.03 C 1374.45 642.93 1410.89 603.2 1482.79 521.78 M 1350 680.63 C 1392.48 629.01 1433.47 575.04 1485.15 525.16 M 1350 680.63 C 1393.54 632.81 1435.04 580.88 1485.15 525.16 M 1356.3 679.48 C 1400.55 635.99 1437.78 590.63 1487.51 528.54 M 1356.3 679.48 C 1406.65 623.46 1456.73 567.18 1487.51 528.54 M 1362.6 678.33 C 1395.6 641.48 1429.27 608.78 1489.22 532.68 M 1362.6 678.33 C 1391.99 642.34 1417.04 613.48 1489.22 532.68 M 1368.9 677.18 C 1404.19 642.54 1430.94 606.38 1490.92 536.81 M 1368.9 677.18 C 1405.74 631.87 1444.99 587.65 1490.92 536.81 M 1375.85 675.28 C 1403.29 638.5 1436.13 606.78 1492.63 540.94 M 1375.85 675.28 C 1404.44 642.94 1430.71 612.12 1492.63 540.94 M 1382.15 674.13 C 1427.66 617.91 1468.77 569.7 1494.34 545.08 M 1382.15 674.13 C 1413.03 641.96 1443.51 603.77 1494.34 545.08 M 1388.45 672.98 C 1413.09 641.17 1437.62 612.82 1496.04 549.21 M 1388.45 672.98 C 1415.83 644.43 1440.58 613.98 1496.04 549.21 M 1395.41 671.08 C 1434.1 631.45 1463.76 590.16 1497.1 554.1 M 1395.41 671.08 C 1435.24 628.07 1473.5 582.33 1497.1 554.1 M 1403.02 668.42 C 1428.58 636.77 1457.69 606.75 1498.15 558.99 M 1403.02 668.42 C 1419.28 644.93 1439.4 621.63 1498.15 558.99 M 1410.63 665.76 C 1436.19 632.43 1464.86 608.21 1498.54 564.63 M 1410.63 665.76 C 1429.73 639.37 1451.82 619.87 1498.54 564.63 M 1418.24 663.1 C 1445.5 635.92 1468.11 609.03 1499.59 569.52 M 1418.24 663.1 C 1448.8 625.81 1481.64 589.87 1499.59 569.52 M 1425.85 660.44 C 1437.67 637.51 1459.35 624.22 1498.67 576.67 M 1425.85 660.44 C 1446.53 635.79 1466.74 615.66 1498.67 576.67 M 1435.43 655.52 C 1452.03 639.29 1464.34 618.81 1497.76 583.82 M 1435.43 655.52 C 1456.71 630.59 1478.81 609.21 1497.76 583.82 M 1445.67 649.84 C 1461.95 632.67 1475.71 616.86 1497.5 590.22 M 1445.67 649.84 C 1460.64 631.27 1474.29 614.84 1497.5 590.22 M 1457.21 642.66 C 1468.56 631.93 1484.02 609.91 1493.3 601.15 M 1457.21 642.66 C 1464.73 633.02 1474.64 625.05 1493.3 601.15" fill="none" stroke="#b1ddf0" stroke-width="0.5" stroke-linejoin="round" stroke-linecap="round" stroke-miterlimit="10" pointer-events="all" style="stroke: rgb(177, 221, 240);"/><path d="M 390 215 C 75.85 217.27 3.42 426.83 249.6 473 M 390 215 C 75.74 216.94 -3.22 430.57 249.6 473 M 249.6 473 C -0.44 565.42 277.56 771.43 483.6 688 M 249.6 473 C -1.04 563.56 277.73 778.45 483.6 688 M 483.6 688 C 620.43 862.35 1093.28 858.92 1248 688 M 483.6 688 C 626.85 863.41 1094.38 856.06 1248 688 M 1248 688 C 1559.29 688.75 1560.33 513.69 1365 430 M 1248 688 C 1555.45 684.56 1564.34 513.71 1365 430 M 1365 430 C 1557.03 257.91 1251.27 82.14 975 172 M 1365 430 C 1561.91 258.59 1244.32 87.79 975 172 M 975 172 C 776.49 39.73 465.47 45.64 390 215 M 975 172 C 783.66 44.56 469.74 41.41 390 215 M 390 215 C 390 215 390 215 390 215 M 390 215 C 390 215 390 215 390 215" fill="none" stroke="#10739e" stroke-linejoin="round" stroke-linecap="round" stroke-miterlimit="10" pointer-events="all" style="stroke: rgb(16, 115, 158);"/></g></g><g data-cell-id="nf1OjJ1EspIcu-WVKQ3m-15"><g><path d="M 760 430 L 1240 430 L 1330 520 L 1330 660 L 850 660 L 760 570 L 760 430 Z" fill="none" stroke="none" pointer-events="all"/><path d="M 760 430 L 1240 430 L 1330 520 L 850 520 Z" fill="none" stroke="none" pointer-events="all"/><path d="M 760 430 L 850 520 L 850 660 L 760 570 Z" fill="none" stroke="none" pointer-events="all"/><path d="M 850 660 L 850 520 L 760 430 M 850 520 L 1330 520" fill="none" stroke="none" pointer-events="all"/><path d="M 760 430 C 867.06 430.54 975.61 430.9 1240 430 C 1252.9 450.58 1278.13 474.46 1330 520 C 1324.18 554.27 1328.4 581.67 1330 660 C 1141.81 657.27 949.94 654.45 850 660 C 812.82 629.83 782.76 589.99 760 570 C 756.6 536.45 766.84 500.11 760 430 C 760 430 760 430 760 430" fill="#f8cecc" stroke="none" pointer-events="all" style="fill: rgb(248, 206, 204);"/><path d="M 760 430 C 879.44 426.75 996.42 428.21 1240 430 M 1240 430 C 1266.63 453.76 1295.83 486.09 1330 520 M 1330 520 C 1330.11 568.3 1324.48 620.42 1330 660 M 1330 660 C 1193.99 663.29 1058.1 659.95 850 660 M 850 660 C 811.42 628.16 778.43 591.04 760 570 M 760 570 C 764.24 530.25 757.81 491.58 760 430 M 760 430 C 760 430 760 430 760 430" fill="none" stroke="#b85450" stroke-linejoin="round" stroke-linecap="round" stroke-miterlimit="10" pointer-events="all" style="stroke: rgb(184, 84, 80);"/><path d="M 760 430 C 937.72 431.1 1117.78 429.01 1240 430 C 1268.45 450.66 1283.48 472.88 1330 520 C 1167.83 515.82 1011.38 514.98 850 520 C 830.21 503.79 812.71 484.48 760 430" fill-opacity="0.05" fill="#000000" stroke="none" pointer-events="all" style="fill: rgb(0, 0, 0);"/><path d="M 760 430 C 791.71 466.25 826.36 495.11 850 520 C 854.09 554.06 845.09 589.63 850 660 C 815.77 628.12 794.27 596.15 760 570 C 760.98 542.18 763.62 511.68 760 430" fill-opacity="0.1" fill="#000000" stroke="none" pointer-events="all" style="fill: rgb(0, 0, 0);"/><path d="M 850 660 C 856.28 622.5 854.25 591.49 850 520 M 850 520 C 821.49 490.88 794.3 466.83 760 430 M 850 520 C 1025.3 522.27 1197.23 522.81 1330 520" fill="none" stroke="#b85450" stroke-linejoin="round" stroke-linecap="round" stroke-miterlimit="10" pointer-events="all" style="stroke: rgb(184, 84, 80);"/></g></g><g data-cell-id="nf1OjJ1EspIcu-WVKQ3m-9"><g><path d="M 790 410.61 C 790 404.75 807.91 400 830 400 C 840.61 400 850.78 401.12 858.28 403.11 C 865.79 405.1 870 407.8 870 410.61 L 870 439.39 C 870 445.25 852.09 450 830 450 C 807.91 450 790 445.25 790 439.39 Z" fill="none" stroke="none" pointer-events="all"/><path d="M 870 410.61 C 870 416.47 852.09 421.22 830 421.22 C 807.91 421.22 790 416.47 790 410.61" fill="none" stroke="none" pointer-events="all"/><path d="M 790 410.61 C 785.13 405.8 813.09 405.56 830 400 C 851.36 403.51 865.09 402.79 870 410.61 C 866.09 414.52 864.3 426.48 870 439.39 C 874.17 445.95 856.85 446.36 830 450 C 806.59 448.14 793.44 442.19 790 439.39 C 793.48 427.94 786.34 424.37 790 410.61" fill="#f8cecc" stroke="none" pointer-events="all" style="fill: rgb(248, 206, 204);"/><path d="M 790 410.61 C 789.67 402.71 810.36 399.68 830 400 M 830 400 C 849.53 400.55 869.03 403.01 870 410.61 M 870 410.61 C 869.47 423.19 874.2 434.25 870 439.39 M 870 439.39 C 873.34 447.82 853.92 453.51 830 450 M 830 450 C 808.39 453.81 786.85 448.91 790 439.39 M 790 439.39 C 790.98 434.34 786.33 425.44 790 410.61" fill="none" stroke="#b85450" stroke-linejoin="round" stroke-linecap="round" stroke-miterlimit="10" pointer-events="all" style="stroke: rgb(184, 84, 80);"/><path d="M 870 410.61 C 869.67 414.43 854.54 420.9 830 421.22 M 830 421.22 C 805.35 421.77 789.03 414.73 790 410.61" fill="none" stroke="#b85450" stroke-linejoin="round" stroke-linecap="round" stroke-miterlimit="10" pointer-events="all" style="stroke: rgb(184, 84, 80);"/></g></g><g data-cell-id="nf1OjJ1EspIcu-WVKQ3m-10"><g><path d="M 910 410.61 C 910 404.75 927.91 400 950 400 C 960.61 400 970.78 401.12 978.28 403.11 C 985.79 405.1 990 407.8 990 410.61 L 990 439.39 C 990 445.25 972.09 450 950 450 C 927.91 450 910 445.25 910 439.39 Z" fill="none" stroke="none" pointer-events="all"/><path d="M 990 410.61 C 990 416.47 972.09 421.22 950 421.22 C 927.91 421.22 910 416.47 910 410.61" fill="none" stroke="none" pointer-events="all"/><path d="M 910 410.61 C 904.99 408.86 925.85 399.8 950 400 C 966.63 397.9 985.94 399.23 990 410.61 C 990.28 417.31 985.32 434.65 990 439.39 C 994.84 445.49 966.83 445.39 950 450 C 926.01 444.57 906.51 449.17 910 439.39 C 905.55 430.59 915.31 422.79 910 410.61" fill="#f8cecc" stroke="none" pointer-events="all" style="fill: rgb(248, 206, 204);"/><path d="M 910 410.61 C 907.82 405.58 929.68 399.07 950 400 M 950 400 C 971.32 400.81 990.61 406.88 990 410.61 M 990 410.61 C 991.02 422.69 986.8 437.02 990 439.39 M 990 439.39 C 993.82 445.21 969.95 449.71 950 450 M 950 450 C 931.53 448.31 906.22 442.81 910 439.39 M 910 439.39 C 912.96 428.62 912.97 421.76 910 410.61" fill="none" stroke="#b85450" stroke-linejoin="round" stroke-linecap="round" stroke-miterlimit="10" pointer-events="all" style="stroke: rgb(184, 84, 80);"/><path d="M 990 410.61 C 987.82 417.3 973.86 420.29 950 421.22 M 950 421.22 C 927.14 422.03 910.61 418.6 910 410.61" fill="none" stroke="#b85450" stroke-linejoin="round" stroke-linecap="round" stroke-miterlimit="10" pointer-events="all" style="stroke: rgb(184, 84, 80);"/></g></g><g data-cell-id="nf1OjJ1EspIcu-WVKQ3m-11"><g><path d="M 1030 410.61 C 1030 404.75 1047.91 400 1070 400 C 1080.61 400 1090.78 401.12 1098.28 403.11 C 1105.79 405.1 1110 407.8 1110 410.61 L 1110 439.39 C 1110 445.25 1092.09 450 1070 450 C 1047.91 450 1030 445.25 1030 439.39 Z" fill="none" stroke="none" pointer-events="all"/><path d="M 1110 410.61 C 1110 416.47 1092.09 421.22 1070 421.22 C 1047.91 421.22 1030 416.47 1030 410.61" fill="none" stroke="none" pointer-events="all"/><path d="M 1030 410.61 C 1025.99 407.16 1049.02 403.63 1070 400 C 1093.99 400.19 1113.21 400.36 1110 410.61 C 1116.14 423.01 1113 431.16 1110 439.39 C 1110.7 445.43 1095.38 450.39 1070 450 C 1043.3 449.63 1027.4 441.51 1030 439.39 C 1030.79 431.31 1025.4 416.54 1030 410.61" fill="#f8cecc" stroke="none" pointer-events="all" style="fill: rgb(248, 206, 204);"/><path d="M 1030 410.61 C 1027.82 406.26 1046.49 396.79 1070 400 M 1070 400 C 1089.25 396.17 1108.94 401.76 1110 410.61 M 1110 410.61 C 1112.22 420.41 1112.88 419.69 1110 439.39 M 1110 439.39 C 1110.87 442.97 1089.2 446.06 1070 450 M 1070 450 C 1048.51 449.99 1033.23 443.51 1030 439.39 M 1030 439.39 C 1032.75 433.27 1030.73 418.24 1030 410.61" fill="none" stroke="#b85450" stroke-linejoin="round" stroke-linecap="round" stroke-miterlimit="10" pointer-events="all" style="stroke: rgb(184, 84, 80);"/><path d="M 1110 410.61 C 1107.82 417.98 1090.67 418.01 1070 421.22 M 1070 421.22 C 1045.07 417.39 1028.94 413.48 1030 410.61" fill="none" stroke="#b85450" stroke-linejoin="round" stroke-linecap="round" stroke-miterlimit="10" pointer-events="all" style="stroke: rgb(184, 84, 80);"/></g></g><g data-cell-id="nf1OjJ1EspIcu-WVKQ3m-12"><g><path d="M 850 470.61 C 850 464.75 867.91 460 890 460 C 900.61 460 910.78 461.12 918.28 463.11 C 925.79 465.1 930 467.8 930 470.61 L 930 499.39 C 930 505.25 912.09 510 890 510 C 867.91 510 850 505.25 850 499.39 Z" fill="none" stroke="none" pointer-events="all"/><path d="M 930 470.61 C 930 476.47 912.09 481.22 890 481.22 C 867.91 481.22 850 476.47 850 470.61" fill="none" stroke="none" pointer-events="all"/><path d="M 850 470.61 C 847 465.45 872.18 456.26 890 460 C 910.16 462.48 929.28 461.48 930 470.61 C 930.81 477.5 929.49 487.68 930 499.39 C 926.56 505.37 912.73 515.39 890 510 C 871.78 514.69 848.28 505.05 850 499.39 C 854.42 486.59 845.07 481.81 850 470.61" fill="#f8cecc" stroke="none" pointer-events="all" style="fill: rgb(248, 206, 204);"/><path d="M 850 470.61 C 847.82 466.94 871.3 462.5 890 460 M 890 460 C 915.18 459.53 927.27 464.64 930 470.61 M 930 470.61 C 932.27 475.89 929.8 481.87 930 499.39 M 930 499.39 C 927.93 508.73 908.46 510.4 890 510 M 890 510 C 865.49 511.67 852.24 504.21 850 499.39 M 850 499.39 C 853.7 489.92 849.63 474.73 850 470.61" fill="none" stroke="#b85450" stroke-linejoin="round" stroke-linecap="round" stroke-miterlimit="10" pointer-events="all" style="stroke: rgb(184, 84, 80);"/><path d="M 930 470.61 C 927.82 478.66 915.48 483.72 890 481.22 M 890 481.22 C 871 480.75 847.27 476.36 850 470.61" fill="none" stroke="#b85450" stroke-linejoin="round" stroke-linecap="round" stroke-miterlimit="10" pointer-events="all" style="stroke: rgb(184, 84, 80);"/></g></g><g data-cell-id="nf1OjJ1EspIcu-WVKQ3m-13"><g><path d="M 970 470.61 C 970 464.75 987.91 460 1010 460 C 1020.61 460 1030.78 461.12 1038.28 463.11 C 1045.79 465.1 1050 467.8 1050 470.61 L 1050 499.39 C 1050 505.25 1032.09 510 1010 510 C 987.91 510 970 505.25 970 499.39 Z" fill="none" stroke="none" pointer-events="all"/><path d="M 1050 470.61 C 1050 476.47 1032.09 481.22 1010 481.22 C 987.91 481.22 970 476.47 970 470.61" fill="none" stroke="none" pointer-events="all"/><path d="M 970 470.61 C 968.01 463.74 984.15 460.09 1010 460 C 1037.52 464.77 1045.35 462.61 1050 470.61 C 1043.86 477.76 1044.36 495.7 1050 499.39 C 1053.63 505.31 1030.08 509.19 1010 510 C 989.07 508.55 969.17 508.59 970 499.39 C 966.85 493.07 964.75 475.88 970 470.61" fill="#f8cecc" stroke="none" pointer-events="all" style="fill: rgb(248, 206, 204);"/><path d="M 970 470.61 C 967.82 467.62 988.11 460.22 1010 460 M 1010 460 C 1033.11 462.89 1053.59 467.52 1050 470.61 M 1050 470.61 C 1053.48 479.36 1047.87 484.05 1050 499.39 M 1050 499.39 C 1052.99 506.49 1035.71 506.75 1010 510 M 1010 510 C 990.46 513.34 971.26 504.91 970 499.39 M 970 499.39 C 966.64 492.32 968.54 482.72 970 470.61" fill="none" stroke="#b85450" stroke-linejoin="round" stroke-linecap="round" stroke-miterlimit="10" pointer-events="all" style="stroke: rgb(184, 84, 80);"/><path d="M 1050 470.61 C 1047.82 479.34 1032.29 481.44 1010 481.22 M 1010 481.22 C 988.93 484.11 973.59 479.24 970 470.61" fill="none" stroke="#b85450" stroke-linejoin="round" stroke-linecap="round" stroke-miterlimit="10" pointer-events="all" style="stroke: rgb(184, 84, 80);"/></g></g><g data-cell-id="nf1OjJ1EspIcu-WVKQ3m-14"><g><path d="M 1090 470.61 C 1090 464.75 1107.91 460 1130 460 C 1140.61 460 1150.78 461.12 1158.28 463.11 C 1165.79 465.1 1170 467.8 1170 470.61 L 1170 499.39 C 1170 505.25 1152.09 510 1130 510 C 1107.91 510 1090 505.25 1090 499.39 Z" fill="none" stroke="none" pointer-events="all"/><path d="M 1170 470.61 C 1170 476.47 1152.09 481.22 1130 481.22 C 1107.91 481.22 1090 476.47 1090 470.61" fill="none" stroke="none" pointer-events="all"/><path d="M 1090 470.61 C 1089.01 462.04 1107.32 463.92 1130 460 C 1153.68 455.86 1172.61 463.73 1170 470.61 C 1169.73 483.45 1172.05 481.02 1170 499.39 C 1169.49 505.25 1147.43 514.19 1130 510 C 1106.36 513.61 1090.06 500.92 1090 499.39 C 1092.09 488.34 1086.03 481.14 1090 470.61" fill="#f8cecc" stroke="none" pointer-events="all" style="fill: rgb(248, 206, 204);"/><path d="M 1090 470.61 C 1087.82 468.3 1104.92 457.93 1130 460 M 1130 460 C 1151.04 458.25 1171.92 462.4 1170 470.61 M 1170 470.61 C 1166.68 474.84 1173.95 486.23 1170 499.39 M 1170 499.39 C 1170.05 504.25 1154.97 511.09 1130 510 M 1130 510 C 1107.44 507.02 1090.27 505.61 1090 499.39 M 1090 499.39 C 1086.44 488.97 1086.29 479.2 1090 470.61" fill="none" stroke="#b85450" stroke-linejoin="round" stroke-linecap="round" stroke-miterlimit="10" pointer-events="all" style="stroke: rgb(184, 84, 80);"/><path d="M 1170 470.61 C 1167.82 480.02 1149.1 479.15 1130 481.22 M 1130 481.22 C 1106.86 479.47 1091.92 474.12 1090 470.61" fill="none" stroke="#b85450" stroke-linejoin="round" stroke-linecap="round" stroke-miterlimit="10" pointer-events="all" style="stroke: rgb(184, 84, 80);"/></g></g><g data-cell-id="nf1OjJ1EspIcu-WVKQ3m-16"><g><path d="M 1150 410.61 C 1150 404.75 1167.91 400 1190 400 C 1200.61 400 1210.78 401.12 1218.28 403.11 C 1225.79 405.1 1230 407.8 1230 410.61 L 1230 439.39 C 1230 445.25 1212.09 450 1190 450 C 1167.91 450 1150 445.25 1150 439.39 Z" fill="none" stroke="none" pointer-events="all"/><path d="M 1230 410.61 C 1230 416.47 1212.09 421.22 1190 421.22 C 1167.91 421.22 1150 416.47 1150 410.61" fill="none" stroke="none" pointer-events="all"/><path d="M 1150 410.61 C 1151.02 409.83 1162.45 400.39 1190 400 C 1217.21 400.44 1224.75 405.98 1230 410.61 C 1230.26 418.2 1225.02 425.56 1230 439.39 C 1232.41 445.13 1213.32 453 1190 450 C 1172.13 452.53 1151.83 448 1150 439.39 C 1149.76 430.1 1146.99 420.47 1150 410.61" fill="#f8cecc" stroke="none" pointer-events="all" style="fill: rgb(248, 206, 204);"/><path d="M 1150 410.61 C 1147.82 401.67 1166.54 401.36 1190 400 M 1190 400 C 1214.89 396.97 1228.57 408.16 1230 410.61 M 1230 410.61 C 1227.93 421.79 1228.94 430.6 1230 439.39 M 1230 439.39 C 1232.17 447.76 1213.48 451.79 1190 450 M 1190 450 C 1169.39 450.38 1148.29 447.01 1150 439.39 M 1150 439.39 C 1147.18 430.27 1150.95 420.17 1150 410.61" fill="none" stroke="#b85450" stroke-linejoin="round" stroke-linecap="round" stroke-miterlimit="10" pointer-events="all" style="stroke: rgb(184, 84, 80);"/><path d="M 1230 410.61 C 1227.82 413.39 1210.72 422.58 1190 421.22 M 1190 421.22 C 1170.71 418.19 1148.57 419.88 1150 410.61" fill="none" stroke="#b85450" stroke-linejoin="round" stroke-linecap="round" stroke-miterlimit="10" pointer-events="all" style="stroke: rgb(184, 84, 80);"/></g></g><g data-cell-id="nf1OjJ1EspIcu-WVKQ3m-17"><g><path d="M 1210 470.61 C 1210 464.75 1227.91 460 1250 460 C 1260.61 460 1270.78 461.12 1278.28 463.11 C 1285.79 465.1 1290 467.8 1290 470.61 L 1290 499.39 C 1290 505.25 1272.09 510 1250 510 C 1227.91 510 1210 505.25 1210 499.39 Z" fill="none" stroke="none" pointer-events="all"/><path d="M 1290 470.61 C 1290 476.47 1272.09 481.22 1250 481.22 C 1227.91 481.22 1210 476.47 1210 470.61" fill="none" stroke="none" pointer-events="all"/><path d="M 1210 470.61 C 1212.03 468.12 1225.61 464.22 1250 460 C 1273.37 462.73 1292.01 467.1 1290 470.61 C 1284.93 472.7 1292.7 482.07 1290 499.39 C 1288.28 505.07 1270.67 506.8 1250 510 C 1229.41 506.39 1212.71 500.34 1210 499.39 C 1213.39 485.37 1206.66 474.54 1210 470.61" fill="#f8cecc" stroke="none" pointer-events="all" style="fill: rgb(248, 206, 204);"/><path d="M 1210 470.61 C 1207.82 462.35 1231.35 459.08 1250 460 M 1250 460 C 1272.82 460.33 1286.9 463.04 1290 470.61 M 1290 470.61 C 1289.13 477.26 1287.02 484.78 1290 499.39 M 1290 499.39 C 1289.22 505.52 1272.73 508.13 1250 510 M 1250 510 C 1226.37 512.06 1207.3 507.71 1210 499.39 M 1210 499.39 C 1208.12 492.67 1209.85 488.16 1210 470.61" fill="none" stroke="#b85450" stroke-linejoin="round" stroke-linecap="round" stroke-miterlimit="10" pointer-events="all" style="stroke: rgb(184, 84, 80);"/><path d="M 1290 470.61 C 1287.82 474.07 1275.53 480.3 1250 481.22 M 1250 481.22 C 1228.64 481.55 1206.9 474.76 1210 470.61" fill="none" stroke="#b85450" stroke-linejoin="round" stroke-linecap="round" stroke-miterlimit="10" pointer-events="all" style="stroke: rgb(184, 84, 80);"/></g></g><g data-cell-id="nf1OjJ1EspIcu-WVKQ3m-18"><g><path d="M 280 430 L 760 430 L 850 520 L 850 660 L 370 660 L 280 570 L 280 430 Z" fill="none" stroke="none" pointer-events="all"/><path d="M 280 430 L 760 430 L 850 520 L 370 520 Z" fill="none" stroke="none" pointer-events="all"/><path d="M 280 430 L 370 520 L 370 660 L 280 570 Z" fill="none" stroke="none" pointer-events="all"/><path d="M 370 660 L 370 520 L 280 430 M 370 520 L 850 520" fill="none" stroke="none" pointer-events="all"/><path d="M 280 430 C 413 427.18 548.95 426.38 760 430 C 782.07 456.87 805.55 475.8 850 520 C 854.68 563.34 848.87 608.57 850 660 C 730.78 659.61 606.2 661.45 370 660 C 349.74 637.02 323.96 612.8 280 570 C 275.23 525.93 275.21 497.94 280 430 C 280 430 280 430 280 430" fill="#d5e8d4" stroke="none" pointer-events="all" style="fill: rgb(213, 232, 212);"/><path d="M 280 430 C 396.48 429.15 517.34 431.13 760 430 M 760 430 C 787.15 458.1 820.7 490.49 850 520 M 850 520 C 847.3 560.09 850.83 598.97 850 660 M 850 660 C 749.04 660.49 649.94 659.47 370 660 M 370 660 C 346.72 638.31 319.99 612.57 280 570 M 280 570 C 283.45 514.75 281.3 461.54 280 430 M 280 430 C 280 430 280 430 280 430" fill="none" stroke="#82b366" stroke-linejoin="round" stroke-linecap="round" stroke-miterlimit="10" pointer-events="all" style="stroke: rgb(130, 179, 102);"/><path d="M 280 430 C 404.94 427.22 527.07 425.74 760 430 C 797.69 462.54 829.76 499.52 850 520 C 681.57 518.48 506.75 519.37 370 520 C 342.92 498.7 323.31 471.81 280 430" fill-opacity="0.05" fill="#000000" stroke="none" pointer-events="all" style="fill: rgb(0, 0, 0);"/><path d="M 280 430 C 306.6 452.79 325.08 472.66 370 520 C 372.14 573.59 369.13 630.05 370 660 C 343.63 627.14 302.2 597.17 280 570 C 277.61 533.17 283.05 492.35 280 430" fill-opacity="0.1" fill="#000000" stroke="none" pointer-events="all" style="fill: rgb(0, 0, 0);"/><path d="M 370 660 C 368 624.28 374.9 594.47 370 520 M 370 520 C 337.67 491.66 311.96 464.79 280 430 M 370 520 C 498.92 523.12 629.42 523.67 850 520" fill="none" stroke="#82b366" stroke-linejoin="round" stroke-linecap="round" stroke-miterlimit="10" pointer-events="all" style="stroke: rgb(130, 179, 102);"/></g></g><g data-cell-id="nf1OjJ1EspIcu-WVKQ3m-19"><g><path d="M 310 410.61 C 310 404.75 327.91 400 350 400 C 360.61 400 370.78 401.12 378.28 403.11 C 385.79 405.1 390 407.8 390 410.61 L 390 439.39 C 390 445.25 372.09 450 350 450 C 327.91 450 310 445.25 310 439.39 Z" fill="none" stroke="none" pointer-events="all"/><path d="M 390 410.61 C 390 416.47 372.09 421.22 350 421.22 C 327.91 421.22 310 416.47 310 410.61" fill="none" stroke="none" pointer-events="all"/><path d="M 310 410.61 C 314.04 404.71 331.94 400.68 350 400 C 376.9 396.12 395.35 409.35 390 410.61 C 385.46 418.65 385.67 426.62 390 439.39 C 391.2 444.95 376.56 445.61 350 450 C 323.98 445.31 314.49 447.41 310 439.39 C 311.06 427.13 307.62 425.07 310 410.61" fill="#d5e8d4" stroke="none" pointer-events="all" style="fill: rgb(213, 232, 212);"/><path d="M 310 410.61 C 307.82 403.71 324.97 402.51 350 400 M 350 400 C 368.67 399.05 391.55 400.8 390 410.61 M 390 410.61 C 390.38 416.21 390.01 429.14 390 439.39 M 390 439.39 C 391.34 449.04 371.24 448.82 350 450 M 350 450 C 328.32 447.42 313.32 449.11 310 439.39 M 310 439.39 C 308.86 425.97 306.51 421.13 310 410.61" fill="none" stroke="#82b366" stroke-linejoin="round" stroke-linecap="round" stroke-miterlimit="10" pointer-events="all" style="stroke: rgb(130, 179, 102);"/><path d="M 390 410.61 C 387.82 415.43 369.15 423.73 350 421.22 M 350 421.22 C 324.49 420.27 311.55 412.52 310 410.61" fill="none" stroke="#82b366" stroke-linejoin="round" stroke-linecap="round" stroke-miterlimit="10" pointer-events="all" style="stroke: rgb(130, 179, 102);"/></g></g><g data-cell-id="nf1OjJ1EspIcu-WVKQ3m-20"><g><path d="M 430 410.61 C 430 404.75 447.91 400 470 400 C 480.61 400 490.78 401.12 498.28 403.11 C 505.79 405.1 510 407.8 510 410.61 L 510 439.39 C 510 445.25 492.09 450 470 450 C 447.91 450 430 445.25 430 439.39 Z" fill="none" stroke="none" pointer-events="all"/><path d="M 510 410.61 C 510 416.47 492.09 421.22 470 421.22 C 447.91 421.22 430 416.47 430 410.61" fill="none" stroke="none" pointer-events="all"/><path d="M 430 410.61 C 433.77 400.76 443.19 395.34 470 400 C 490.88 401.72 507.22 400.48 510 410.61 C 508.08 422.03 514.73 419.64 510 439.39 C 509.77 443.63 494.22 454.86 470 450 C 451.46 444.62 431.58 446.84 430 439.39 C 435.8 429.45 434.95 417.41 430 410.61" fill="#d5e8d4" stroke="none" pointer-events="all" style="fill: rgb(213, 232, 212);"/><path d="M 430 410.61 C 427.83 402.67 446.81 400.22 470 400 M 470 400 C 491.08 400.98 506.73 408.15 510 410.61 M 510 410.61 C 513.9 417.15 508.74 422.12 510 439.39 M 510 439.39 C 510.63 447.71 490.85 448.43 470 450 M 470 450 C 445.79 452.34 427.57 448.51 430 439.39 M 430 439.39 C 432.45 426.78 433.21 420.82 430 410.61" fill="none" stroke="#82b366" stroke-linejoin="round" stroke-linecap="round" stroke-miterlimit="10" pointer-events="all" style="stroke: rgb(130, 179, 102);"/><path d="M 510 410.61 C 507.83 414.39 490.99 421.44 470 421.22 M 470 421.22 C 446.9 422.2 426.73 419.87 430 410.61" fill="none" stroke="#82b366" stroke-linejoin="round" stroke-linecap="round" stroke-miterlimit="10" pointer-events="all" style="stroke: rgb(130, 179, 102);"/></g></g><g data-cell-id="nf1OjJ1EspIcu-WVKQ3m-21"><g><path d="M 550 410.61 C 550 404.75 567.91 400 590 400 C 600.61 400 610.78 401.12 618.28 403.11 C 625.79 405.1 630 407.8 630 410.61 L 630 439.39 C 630 445.25 612.09 450 590 450 C 567.91 450 550 445.25 550 439.39 Z" fill="none" stroke="none" pointer-events="all"/><path d="M 630 410.61 C 630 416.47 612.09 421.22 590 421.22 C 567.91 421.22 550 416.47 550 410.61" fill="none" stroke="none" pointer-events="all"/><path d="M 550 410.61 C 554.77 410.26 566.36 399.17 590 400 C 607.04 404.01 634.49 401.6 630 410.61 C 633.94 422.29 631.21 427.66 630 439.39 C 625.63 443.57 611.57 448.66 590 450 C 568.74 449.68 552.46 450.38 550 439.39 C 548.23 424.72 554.62 422.67 550 410.61" fill="#d5e8d4" stroke="none" pointer-events="all" style="fill: rgb(213, 232, 212);"/><path d="M 550 410.61 C 547.83 403.35 571.62 397.94 590 400 M 590 400 C 609.01 396.34 633.06 403.03 630 410.61 M 630 410.61 C 625.95 420.63 625.66 424.3 630 439.39 M 630 439.39 C 627.68 445.46 610.1 452.77 590 450 M 590 450 C 570.77 446.02 546.58 449.21 550 439.39 M 550 439.39 C 552.25 431.43 550.96 417.3 550 410.61" fill="none" stroke="#82b366" stroke-linejoin="round" stroke-linecap="round" stroke-miterlimit="10" pointer-events="all" style="stroke: rgb(130, 179, 102);"/><path d="M 630 410.61 C 627.83 415.07 615.8 419.16 590 421.22 M 590 421.22 C 564.83 417.56 553.06 414.75 550 410.61" fill="none" stroke="#82b366" stroke-linejoin="round" stroke-linecap="round" stroke-miterlimit="10" pointer-events="all" style="stroke: rgb(130, 179, 102);"/></g></g><g data-cell-id="nf1OjJ1EspIcu-WVKQ3m-22"><g><path d="M 370 470.61 C 370 464.75 387.91 460 410 460 C 420.61 460 430.78 461.12 438.28 463.11 C 445.79 465.1 450 467.8 450 470.61 L 450 499.39 C 450 505.25 432.09 510 410 510 C 387.91 510 370 505.25 370 499.39 Z" fill="none" stroke="none" pointer-events="all"/><path d="M 450 470.61 C 450 476.47 432.09 481.22 410 481.22 C 387.91 481.22 370 476.47 370 470.61" fill="none" stroke="none" pointer-events="all"/><path d="M 370 470.61 C 364.58 468.55 389.52 463 410 460 C 434.41 455.1 450.55 462.73 450 470.61 C 448.61 476.78 447.7 484.18 450 499.39 C 452.7 503.51 428.91 513.66 410 510 C 386.03 514.73 373.35 502.72 370 499.39 C 371.86 491.2 374.29 476.74 370 470.61" fill="#d5e8d4" stroke="none" pointer-events="all" style="fill: rgb(213, 232, 212);"/><path d="M 370 470.61 C 367.83 464.03 388.43 463.65 410 460 M 410 460 C 434.94 459.71 451.38 465.91 450 470.61 M 450 470.61 C 447.15 476.1 451.73 486.48 450 499.39 M 450 499.39 C 452.74 503.22 429.36 509.12 410 510 M 410 510 C 387.75 507.7 373.59 501.91 370 499.39 M 370 499.39 C 373.19 493.83 369.87 485.29 370 470.61" fill="none" stroke="#82b366" stroke-linejoin="round" stroke-linecap="round" stroke-miterlimit="10" pointer-events="all" style="stroke: rgb(130, 179, 102);"/><path d="M 450 470.61 C 447.83 475.75 432.61 484.87 410 481.22 M 410 481.22 C 390.76 480.93 371.38 477.63 370 470.61" fill="none" stroke="#82b366" stroke-linejoin="round" stroke-linecap="round" stroke-miterlimit="10" pointer-events="all" style="stroke: rgb(130, 179, 102);"/></g></g><g data-cell-id="nf1OjJ1EspIcu-WVKQ3m-24"><g><path d="M 610 470.61 C 610 464.75 627.91 460 650 460 C 660.61 460 670.78 461.12 678.28 463.11 C 685.79 465.1 690 467.8 690 470.61 L 690 499.39 C 690 505.25 672.09 510 650 510 C 627.91 510 610 505.25 610 499.39 Z" fill="none" stroke="none" pointer-events="all"/><path d="M 690 470.61 C 690 476.47 672.09 481.22 650 481.22 C 627.91 481.22 610 476.47 610 470.61" fill="none" stroke="none" pointer-events="all"/><path d="M 610 470.61 C 606.59 465.14 624.66 459.46 650 460 C 666.73 459.68 693.89 464.98 690 470.61 C 689.14 482.73 691.87 488.72 690 499.39 C 684.42 503.39 674.81 512.47 650 510 C 631.8 513.65 615.12 509.79 610 499.39 C 609.53 492.95 615.25 476.07 610 470.61" fill="#d5e8d4" stroke="none" pointer-events="all" style="fill: rgb(213, 232, 212);"/><path d="M 610 470.61 C 607.83 465.39 630.05 459.08 650 460 M 650 460 C 670.8 458.43 688.04 463.67 690 470.61 M 690 470.61 C 688.41 475.05 686.73 482.85 690 499.39 M 690 499.39 C 686.86 506.74 675.87 509.81 650 510 M 650 510 C 629.7 511.06 611.62 503.31 610 499.39 M 610 499.39 C 605.93 487.13 606.53 478.26 610 470.61" fill="none" stroke="#82b366" stroke-linejoin="round" stroke-linecap="round" stroke-miterlimit="10" pointer-events="all" style="stroke: rgb(130, 179, 102);"/><path d="M 690 470.61 C 687.83 477.11 674.23 480.3 650 481.22 M 650 481.22 C 626.62 479.65 608.04 475.39 610 470.61" fill="none" stroke="#82b366" stroke-linejoin="round" stroke-linecap="round" stroke-miterlimit="10" pointer-events="all" style="stroke: rgb(130, 179, 102);"/></g></g><g data-cell-id="nf1OjJ1EspIcu-WVKQ3m-25"><g><path d="M 670 410.61 C 670 404.75 687.91 400 710 400 C 720.61 400 730.78 401.12 738.28 403.11 C 745.79 405.1 750 407.8 750 410.61 L 750 439.39 C 750 445.25 732.09 450 710 450 C 687.91 450 670 445.25 670 439.39 Z" fill="none" stroke="none" pointer-events="all"/><path d="M 750 410.61 C 750 416.47 732.09 421.22 710 421.22 C 687.91 421.22 670 416.47 670 410.61" fill="none" stroke="none" pointer-events="all"/><path d="M 670 410.61 C 667.6 403.43 687.82 403.29 710 400 C 734.09 401.97 749.96 406.1 750 410.61 C 755.01 417.23 748.35 425.23 750 439.39 C 751.48 443.33 732.16 446.27 710 450 C 689.08 447.51 664.81 442.13 670 439.39 C 674.77 428.23 665.34 421.33 670 410.61" fill="#d5e8d4" stroke="none" pointer-events="all" style="fill: rgb(213, 232, 212);"/><path d="M 670 410.61 C 667.83 406.07 686.86 396.8 710 400 M 710 400 C 728.72 401.79 746.36 406.55 750 410.61 M 750 410.61 C 749.61 418.53 752.81 425.03 750 439.39 M 750 439.39 C 751.92 444.5 735.12 446.15 710 450 M 710 450 C 686.67 452.74 670.63 444.01 670 439.39 M 670 439.39 C 666.88 429.53 673.43 426.25 670 410.61" fill="none" stroke="#82b366" stroke-linejoin="round" stroke-linecap="round" stroke-miterlimit="10" pointer-events="all" style="stroke: rgb(130, 179, 102);"/><path d="M 750 410.61 C 747.83 417.79 731.04 418.02 710 421.22 M 710 421.22 C 684.54 423.01 666.36 418.27 670 410.61" fill="none" stroke="#82b366" stroke-linejoin="round" stroke-linecap="round" stroke-miterlimit="10" pointer-events="all" style="stroke: rgb(130, 179, 102);"/></g></g><g data-cell-id="nf1OjJ1EspIcu-WVKQ3m-26"><g><path d="M 730 470.61 C 730 464.75 747.91 460 770 460 C 780.61 460 790.78 461.12 798.28 463.11 C 805.79 465.1 810 467.8 810 470.61 L 810 499.39 C 810 505.25 792.09 510 770 510 C 747.91 510 730 505.25 730 499.39 Z" fill="none" stroke="none" pointer-events="all"/><path d="M 810 470.61 C 810 476.47 792.09 481.22 770 481.22 C 747.91 481.22 730 476.47 730 470.61" fill="none" stroke="none" pointer-events="all"/><path d="M 730 470.61 C 728.6 461.72 750.99 455.92 770 460 C 790.26 464.26 806.02 467.23 810 470.61 C 809.67 477.49 804.84 493.26 810 499.39 C 807.34 503.27 789.5 511.27 770 510 C 746.37 512.57 725.69 505.67 730 499.39 C 727.2 494.71 725.01 486.6 730 470.61" fill="#d5e8d4" stroke="none" pointer-events="all" style="fill: rgb(213, 232, 212);"/><path d="M 730 470.61 C 727.83 466.75 751.67 462.51 770 460 M 770 460 C 794.65 457.15 812.69 461.43 810 470.61 M 810 470.61 C 810.81 482 810.88 487.21 810 499.39 M 810 499.39 C 808.98 502.25 794.38 510.5 770 510 M 770 510 C 751.65 506.41 729.64 504.71 730 499.39 M 730 499.39 C 726.67 494.18 731.18 482.74 730 470.61" fill="none" stroke="#82b366" stroke-linejoin="round" stroke-linecap="round" stroke-miterlimit="10" pointer-events="all" style="stroke: rgb(130, 179, 102);"/><path d="M 810 470.61 C 807.83 478.47 795.85 483.73 770 481.22 M 770 481.22 C 750.47 478.37 732.69 473.15 730 470.61" fill="none" stroke="#82b366" stroke-linejoin="round" stroke-linecap="round" stroke-miterlimit="10" pointer-events="all" style="stroke: rgb(130, 179, 102);"/></g></g><g data-cell-id="nf1OjJ1EspIcu-WVKQ3m-27"><g><path d="M 530 290 L 1010 290 L 1100 380 L 1100 520 L 620 520 L 530 430 L 530 290 Z" fill="none" stroke="none" pointer-events="all"/><path d="M 530 290 L 1010 290 L 1100 380 L 620 380 Z" fill="none" stroke="none" pointer-events="all"/><path d="M 530 290 L 620 380 L 620 520 L 530 430 Z" fill="none" stroke="none" pointer-events="all"/><path d="M 620 520 L 620 380 L 530 290 M 620 380 L 1100 380" fill="none" stroke="none" pointer-events="all"/><path d="M 530 290 C 639.21 293.38 746.63 295.56 1010 290 C 1036.89 322.06 1069.62 351.85 1100 380 C 1097.74 418.85 1092.37 468.82 1100 520 C 988.83 515.92 879.64 515.84 620 520 C 580.23 486.11 545.34 454.17 530 430 C 530.56 387.18 528.76 358.72 530 290 C 530 290 530 290 530 290" fill="#dae8fc" stroke="none" pointer-events="all" style="fill: rgb(218, 232, 252);"/><path d="M 530 290 C 648.03 289.62 766.09 289.84 1010 290 M 1010 290 C 1033.16 315.93 1060.15 338.89 1100 380 M 1100 380 C 1098.77 422.02 1097.94 468.44 1100 520 M 1100 520 C 972.44 519.46 843.41 520.92 620 520 M 620 520 C 590.12 488.96 565.95 469.07 530 430 M 530 430 C 527.89 399.71 528.56 373.18 530 290 M 530 290 C 530 290 530 290 530 290" fill="none" stroke="#6c8ebf" stroke-linejoin="round" stroke-linecap="round" stroke-miterlimit="10" pointer-events="all" style="stroke: rgb(108, 142, 191);"/><path d="M 530 290 C 673.95 288.26 821.9 292.8 1010 290 C 1030.35 308.04 1050.83 332.96 1100 380 C 921.27 381.79 736.44 380.54 620 380 C 605.4 357.9 585.06 342.76 530 290" fill-opacity="0.05" fill="#000000" stroke="none" pointer-events="all" style="fill: rgb(0, 0, 0);"/><path d="M 530 290 C 551.41 312.59 583.27 350.46 620 380 C 621.65 410.51 622.59 446.28 620 520 C 589.41 485.24 545.89 448.49 530 430 C 536.45 398.24 536.26 371.91 530 290" fill-opacity="0.1" fill="#000000" stroke="none" pointer-events="all" style="fill: rgb(0, 0, 0);"/><path d="M 620 520 C 618.35 486.09 618.63 452.22 620 380 M 620 380 C 590.75 357.07 565.71 328 530 290 M 620 380 C 775.56 375.76 930.09 376.3 1100 380" fill="none" stroke="#6c8ebf" stroke-linejoin="round" stroke-linecap="round" stroke-miterlimit="10" pointer-events="all" style="stroke: rgb(108, 142, 191);"/></g></g><g data-cell-id="nf1OjJ1EspIcu-WVKQ3m-28"><g><path d="M 560 270.61 C 560 264.75 577.91 260 600 260 C 610.61 260 620.78 261.12 628.28 263.11 C 635.79 265.1 640 267.8 640 270.61 L 640 299.39 C 640 305.25 622.09 310 600 310 C 577.91 310 560 305.25 560 299.39 Z" fill="none" stroke="none" pointer-events="all"/><path d="M 640 270.61 C 640 276.47 622.09 281.22 600 281.22 C 577.91 281.22 560 276.47 560 270.61" fill="none" stroke="none" pointer-events="all"/><path d="M 560 270.61 C 560.61 269.51 576.12 263.58 600 260 C 623.78 257.64 639.36 269.47 640 270.61 C 640.2 277.68 639.01 286.29 640 299.39 C 640.27 303.15 625.4 310.08 600 310 C 582.14 311.49 557.46 301.54 560 299.39 C 554.87 296.46 555.97 285.93 560 270.61" fill="#dae8fc" stroke="none" pointer-events="all" style="fill: rgb(218, 232, 252);"/><path d="M 560 270.61 C 557.83 268.11 575.29 257.94 600 260 M 600 260 C 620.51 263.87 639.34 267.19 640 270.61 M 640 270.61 C 642.06 280.95 635.88 291.57 640 299.39 M 640 299.39 C 641.09 305.77 622.89 311.19 600 310 M 600 310 C 575.6 309.77 557.66 306.11 560 299.39 M 560 299.39 C 558.56 287.48 558.99 275.7 560 270.61" fill="none" stroke="#6c8ebf" stroke-linejoin="round" stroke-linecap="round" stroke-miterlimit="10" pointer-events="all" style="stroke: rgb(108, 142, 191);"/><path d="M 640 270.61 C 637.83 279.83 619.47 279.16 600 281.22 M 600 281.22 C 576.33 285.09 559.34 278.91 560 270.61" fill="none" stroke="#6c8ebf" stroke-linejoin="round" stroke-linecap="round" stroke-miterlimit="10" pointer-events="all" style="stroke: rgb(108, 142, 191);"/></g></g><g data-cell-id="nf1OjJ1EspIcu-WVKQ3m-29"><g><path d="M 680 270.61 C 680 264.75 697.91 260 720 260 C 730.61 260 740.78 261.12 748.28 263.11 C 755.79 265.1 760 267.8 760 270.61 L 760 299.39 C 760 305.25 742.09 310 720 310 C 697.91 310 680 305.25 680 299.39 Z" fill="none" stroke="none" pointer-events="all"/><path d="M 760 270.61 C 760 276.47 742.09 281.22 720 281.22 C 697.91 281.22 680 276.47 680 270.61" fill="none" stroke="none" pointer-events="all"/><path d="M 680 270.61 C 681.62 267.81 699.28 256.21 720 260 C 739.95 259.93 755.42 259.4 760 270.61 C 754.87 277.93 755.49 294.32 760 299.39 C 756.13 303.09 742.75 315.08 720 310 C 699.42 305.35 678.35 305.08 680 299.39 C 678.5 291.73 675.64 280 680 270.61" fill="#dae8fc" stroke="none" pointer-events="all" style="fill: rgb(218, 232, 252);"/><path d="M 680 270.61 C 677.83 260.79 700.1 263.66 720 260 M 720 260 C 738.43 259.23 757.67 262.07 760 270.61 M 760 270.61 C 763.26 276.43 761.95 293.76 760 299.39 M 760 299.39 C 758.15 303.53 742.14 307.54 720 310 M 720 310 C 700.58 311.45 676.67 306.81 680 299.39 M 680 299.39 C 678.36 289.88 676.75 283.7 680 270.61" fill="none" stroke="#6c8ebf" stroke-linejoin="round" stroke-linecap="round" stroke-miterlimit="10" pointer-events="all" style="stroke: rgb(108, 142, 191);"/><path d="M 760 270.61 C 757.83 272.51 744.28 284.88 720 281.22 M 720 281.22 C 694.25 280.45 677.67 273.79 680 270.61" fill="none" stroke="#6c8ebf" stroke-linejoin="round" stroke-linecap="round" stroke-miterlimit="10" pointer-events="all" style="stroke: rgb(108, 142, 191);"/></g></g><g data-cell-id="nf1OjJ1EspIcu-WVKQ3m-30"><g><path d="M 800 270.61 C 800 264.75 817.91 260 840 260 C 850.61 260 860.78 261.12 868.28 263.11 C 875.79 265.1 880 267.8 880 270.61 L 880 299.39 C 880 305.25 862.09 310 840 310 C 817.91 310 800 305.25 800 299.39 Z" fill="none" stroke="none" pointer-events="all"/><path d="M 880 270.61 C 880 276.47 862.09 281.22 840 281.22 C 817.91 281.22 800 276.47 800 270.61" fill="none" stroke="none" pointer-events="all"/><path d="M 800 270.61 C 801.35 263.86 821.73 262.07 840 260 C 865.13 265.53 878.5 261.73 880 270.61 C 877.49 281.32 884.55 287.34 880 299.39 C 874.7 301.76 860.4 313.13 840 310 C 815.7 304.66 795.44 304.51 800 299.39 C 803.25 294.06 802.97 283.53 800 270.61" fill="#dae8fc" stroke="none" pointer-events="all" style="fill: rgb(218, 232, 252);"/><path d="M 800 270.61 C 797.83 267.76 813.94 261.38 840 260 M 840 260 C 860.85 261.16 880.85 261.43 880 270.61 M 880 270.61 C 877.63 277.37 879.52 286.73 880 299.39 M 880 299.39 C 877.44 302.2 861.75 307.14 840 310 M 840 310 C 818.05 308.38 798.92 306.21 800 299.39 M 800 299.39 C 801.95 290.69 803.44 291.38 800 270.61" fill="none" stroke="#6c8ebf" stroke-linejoin="round" stroke-linecap="round" stroke-miterlimit="10" pointer-events="all" style="stroke: rgb(108, 142, 191);"/><path d="M 880 270.61 C 877.83 279.48 858.12 282.6 840 281.22 M 840 281.22 C 816.67 282.38 800.85 273.15 800 270.61" fill="none" stroke="#6c8ebf" stroke-linejoin="round" stroke-linecap="round" stroke-miterlimit="10" pointer-events="all" style="stroke: rgb(108, 142, 191);"/></g></g><g data-cell-id="nf1OjJ1EspIcu-WVKQ3m-31"><g><path d="M 620 330.61 C 620 324.75 637.91 320 660 320 C 670.61 320 680.78 321.12 688.28 323.11 C 695.79 325.1 700 327.8 700 330.61 L 700 359.39 C 700 365.25 682.09 370 660 370 C 637.91 370 620 365.25 620 359.39 Z" fill="none" stroke="none" pointer-events="all"/><path d="M 700 330.61 C 700 336.47 682.09 341.22 660 341.22 C 637.91 341.22 620 336.47 620 330.61" fill="none" stroke="none" pointer-events="all"/><path d="M 620 330.61 C 622.35 322.16 633.7 314.7 660 320 C 681.29 316.62 694.56 322.85 700 330.61 C 703.36 341.57 701.03 355.37 700 359.39 C 701.77 361.7 677.75 366.93 660 370 C 632.98 369.72 616.33 368.04 620 359.39 C 615.67 349.33 622.64 337.6 620 330.61" fill="#dae8fc" stroke="none" pointer-events="all" style="fill: rgb(218, 232, 252);"/><path d="M 620 330.61 C 617.83 328.44 638.75 319.09 660 320 M 660 320 C 678.77 316.52 699.17 324.31 700 330.61 M 700 330.61 C 698.83 340.85 697.6 340.92 700 359.39 M 700 359.39 C 702.49 367.96 681 371.48 660 370 M 660 370 C 635.03 370.06 617.93 366.91 620 359.39 M 620 359.39 C 621.74 355.34 621.2 347.87 620 330.61" fill="none" stroke="#6c8ebf" stroke-linejoin="round" stroke-linecap="round" stroke-miterlimit="10" pointer-events="all" style="stroke: rgb(108, 142, 191);"/><path d="M 700 330.61 C 697.83 340.16 682.93 340.31 660 341.22 M 660 341.22 C 634.59 337.74 619.17 336.03 620 330.61" fill="none" stroke="#6c8ebf" stroke-linejoin="round" stroke-linecap="round" stroke-miterlimit="10" pointer-events="all" style="stroke: rgb(108, 142, 191);"/></g></g><g data-cell-id="nf1OjJ1EspIcu-WVKQ3m-32"><g><path d="M 740 330.61 C 740 324.75 757.91 320 780 320 C 790.61 320 800.78 321.12 808.28 323.11 C 815.79 325.1 820 327.8 820 330.61 L 820 359.39 C 820 365.25 802.09 370 780 370 C 757.91 370 740 365.25 740 359.39 Z" fill="none" stroke="none" pointer-events="all"/><path d="M 820 330.61 C 820 336.47 802.09 341.22 780 341.22 C 757.91 341.22 740 336.47 740 330.61" fill="none" stroke="none" pointer-events="all"/><path d="M 740 330.61 C 743.36 320.45 756.86 318.53 780 320 C 797.45 318.92 821.83 323.97 820 330.61 C 818.02 336.07 817.52 351.88 820 359.39 C 817.63 361.64 806.3 371.94 780 370 C 761.47 374.78 737.21 360.38 740 359.39 C 740.92 355.81 743.92 342.86 740 330.61" fill="#dae8fc" stroke="none" pointer-events="all" style="fill: rgb(218, 232, 252);"/><path d="M 740 330.61 C 737.83 321.12 755.56 316.8 780 320 M 780 320 C 804.7 319.88 817.5 327.19 820 330.61 M 820 330.61 C 820.03 336.32 823.67 343.1 820 359.39 M 820 359.39 C 819.55 365.71 800.26 367.83 780 370 M 780 370 C 760 371.73 736.94 367.61 740 359.39 M 740 359.39 C 742.69 351.99 740.1 344.35 740 330.61" fill="none" stroke="#6c8ebf" stroke-linejoin="round" stroke-linecap="round" stroke-miterlimit="10" pointer-events="all" style="stroke: rgb(108, 142, 191);"/><path d="M 820 330.61 C 817.83 332.84 799.74 338.02 780 341.22 M 780 341.22 C 760.52 341.1 737.5 338.91 740 330.61" fill="none" stroke="#6c8ebf" stroke-linejoin="round" stroke-linecap="round" stroke-miterlimit="10" pointer-events="all" style="stroke: rgb(108, 142, 191);"/></g></g><g data-cell-id="nf1OjJ1EspIcu-WVKQ3m-33"><g><path d="M 860 330.61 C 860 324.75 877.91 320 900 320 C 910.61 320 920.78 321.12 928.28 323.11 C 935.79 325.1 940 327.8 940 330.61 L 940 359.39 C 940 365.25 922.09 370 900 370 C 877.91 370 860 365.25 860 359.39 Z" fill="none" stroke="none" pointer-events="all"/><path d="M 940 330.61 C 940 336.47 922.09 341.22 900 341.22 C 877.91 341.22 860 336.47 860 330.61" fill="none" stroke="none" pointer-events="all"/><path d="M 860 330.61 C 864.37 329.94 880.03 322.36 900 320 C 924.82 321.21 937.9 325.1 940 330.61 C 943.89 341.76 945.2 348.4 940 359.39 C 944.69 361.58 923.64 365.74 900 370 C 878.75 368.64 858.1 363.92 860 359.39 C 864.54 351.09 863.6 348.13 860 330.61" fill="#dae8fc" stroke="none" pointer-events="all" style="fill: rgb(218, 232, 252);"/><path d="M 860 330.61 C 857.83 321.8 880.37 322.52 900 320 M 900 320 C 922.63 323.24 943.83 322.07 940 330.61 M 940 330.61 C 940.08 339.8 940.59 345.28 940 359.39 M 940 359.39 C 936.61 363.47 919.51 372.17 900 370 M 900 370 C 876.98 373.41 863.95 368.31 860 359.39 M 860 359.39 C 863.63 348.63 859.01 340.83 860 330.61" fill="none" stroke="#6c8ebf" stroke-linejoin="round" stroke-linecap="round" stroke-miterlimit="10" pointer-events="all" style="stroke: rgb(108, 142, 191);"/><path d="M 940 330.61 C 937.83 333.52 924.55 343.74 900 341.22 M 900 341.22 C 878.45 344.46 863.83 333.79 860 330.61" fill="none" stroke="#6c8ebf" stroke-linejoin="round" stroke-linecap="round" stroke-miterlimit="10" pointer-events="all" style="stroke: rgb(108, 142, 191);"/></g></g><g data-cell-id="nf1OjJ1EspIcu-WVKQ3m-34"><g><path d="M 920 270.61 C 920 264.75 937.91 260 960 260 C 970.61 260 980.78 261.12 988.28 263.11 C 995.79 265.1 1000 267.8 1000 270.61 L 1000 299.39 C 1000 305.25 982.09 310 960 310 C 937.91 310 920 305.25 920 299.39 Z" fill="none" stroke="none" pointer-events="all"/><path d="M 1000 270.61 C 1000 276.47 982.09 281.22 960 281.22 C 937.91 281.22 920 276.47 920 270.61" fill="none" stroke="none" pointer-events="all"/><path d="M 920 270.61 C 925.37 268.24 943.2 254.99 960 260 C 980.98 263.5 1005.17 266.22 1000 270.61 C 998.55 282.02 1001.69 296.42 1000 299.39 C 1000.55 301.52 980.99 310.74 960 310 C 936.04 313.7 918.98 307.46 920 299.39 C 918.59 286.36 924.88 282.2 920 270.61" fill="#dae8fc" stroke="none" pointer-events="all" style="fill: rgb(218, 232, 252);"/><path d="M 920 270.61 C 917.83 262.48 937.18 260.23 960 260 M 960 260 C 980.56 258.6 1002.15 264.95 1000 270.61 M 1000 270.61 C 1001.28 275.27 998.67 287.46 1000 299.39 M 1000 299.39 C 1001.67 309.23 978.77 308.52 960 310 M 960 310 C 933.96 307.09 922.96 309.01 920 299.39 M 920 299.39 C 923.43 291.04 916.76 288.83 920 270.61" fill="none" stroke="#6c8ebf" stroke-linejoin="round" stroke-linecap="round" stroke-miterlimit="10" pointer-events="all" style="stroke: rgb(108, 142, 191);"/><path d="M 1000 270.61 C 997.83 274.2 981.36 281.45 960 281.22 M 960 281.22 C 936.38 279.82 922.15 276.67 920 270.61" fill="none" stroke="#6c8ebf" stroke-linejoin="round" stroke-linecap="round" stroke-miterlimit="10" pointer-events="all" style="stroke: rgb(108, 142, 191);"/></g></g><g data-cell-id="nf1OjJ1EspIcu-WVKQ3m-35"><g><path d="M 980 330.61 C 980 324.75 997.91 320 1020 320 C 1030.61 320 1040.78 321.12 1048.28 323.11 C 1055.79 325.1 1060 327.8 1060 330.61 L 1060 359.39 C 1060 365.25 1042.09 370 1020 370 C 997.91 370 980 365.25 980 359.39 Z" fill="none" stroke="none" pointer-events="all"/><path d="M 1060 330.61 C 1060 336.47 1042.09 341.22 1020 341.22 C 997.91 341.22 980 336.47 980 330.61" fill="none" stroke="none" pointer-events="all"/><path d="M 980 330.61 C 975.18 326.53 995.16 318.82 1020 320 C 1037.14 314.59 1061.23 327.35 1060 330.61 C 1064.42 336.51 1058.17 341.74 1060 359.39 C 1056.41 361.46 1038.34 364.54 1020 370 C 993.32 367.56 979.87 359.8 980 359.39 C 982.21 352.84 984.56 347.46 980 330.61" fill="#dae8fc" stroke="none" pointer-events="all" style="fill: rgb(218, 232, 252);"/><path d="M 980 330.61 C 977.83 323.16 993.99 317.95 1020 320 M 1020 320 C 1038.48 321.96 1060.48 327.83 1060 330.61 M 1060 330.61 C 1062.49 338.75 1056.74 349.64 1060 359.39 M 1060 359.39 C 1058.73 366.99 1046.02 372.87 1020 370 M 1020 370 C 998.93 368.77 981.98 361.71 980 359.39 M 980 359.39 C 976.37 347.69 983.67 345.31 980 330.61" fill="none" stroke="#6c8ebf" stroke-linejoin="round" stroke-linecap="round" stroke-miterlimit="10" pointer-events="all" style="stroke: rgb(108, 142, 191);"/><path d="M 1060 330.61 C 1057.83 334.88 1038.17 339.17 1020 341.22 M 1020 341.22 C 994.3 343.18 980.48 339.55 980 330.61" fill="none" stroke="#6c8ebf" stroke-linejoin="round" stroke-linecap="round" stroke-miterlimit="10" pointer-events="all" style="stroke: rgb(108, 142, 191);"/></g></g><g data-cell-id="nf1OjJ1EspIcu-WVKQ3m-23"><g><path d="M 490 470.61 C 490 464.75 507.91 460 530 460 C 540.61 460 550.78 461.12 558.28 463.11 C 565.79 465.1 570 467.8 570 470.61 L 570 499.39 C 570 505.25 552.09 510 530 510 C 507.91 510 490 505.25 490 499.39 Z" fill="none" stroke="none" pointer-events="all"/><path d="M 570 470.61 C 570 476.47 552.09 481.22 530 481.22 C 507.91 481.22 490 476.47 490 470.61" fill="none" stroke="none" pointer-events="all"/><path d="M 490 470.61 C 485.59 466.84 512.69 455.63 530 460 C 550.57 457.39 566.62 463.85 570 470.61 C 574.48 477.04 564.18 492.21 570 499.39 C 568.56 503.45 557.46 507.47 530 510 C 503.31 508.59 494.23 506.25 490 499.39 C 485.9 486.48 495.58 482 490 470.61" fill="#d5e8d4" stroke="none" pointer-events="all" style="fill: rgb(213, 232, 212);"/><path d="M 490 470.61 C 487.83 464.71 505.24 461.37 530 460 M 530 460 C 552.87 463.07 569.71 460.79 570 470.61 M 570 470.61 C 568.36 479.58 569.81 488.66 570 499.39 M 570 499.39 C 569.8 508.98 548.61 513.46 530 510 M 530 510 C 504.72 509.38 492.6 502.61 490 499.39 M 490 499.39 C 494.14 490.48 488.77 481.78 490 470.61" fill="none" stroke="#82b366" stroke-linejoin="round" stroke-linecap="round" stroke-miterlimit="10" pointer-events="all" style="stroke: rgb(130, 179, 102);"/><path d="M 570 470.61 C 567.83 476.43 549.42 482.59 530 481.22 M 530 481.22 C 508.69 484.29 489.71 472.51 490 470.61" fill="none" stroke="#82b366" stroke-linejoin="round" stroke-linecap="round" stroke-miterlimit="10" pointer-events="all" style="stroke: rgb(130, 179, 102);"/></g></g><g data-cell-id="nf1OjJ1EspIcu-WVKQ3m-43"><g><path d="M 610 330.61 C 610 324.75 632.39 320 660 320 C 673.26 320 685.98 321.12 695.36 323.11 C 704.73 325.1 710 327.8 710 330.61 L 710 359.39 C 710 365.25 687.61 370 660 370 C 632.39 370 610 365.25 610 359.39 Z" fill="none" stroke="none" pointer-events="all"/><path d="M 710 330.61 C 710 336.47 687.61 341.22 660 341.22 C 632.39 341.22 610 336.47 610 330.61" fill="none" stroke="none" pointer-events="all"/><path d="M 610 330.61 C 611.94 321.84 631.85 317.9 660 320 C 683.38 325.02 709.18 326.34 710 330.61 C 713.3 341.04 715.02 344.9 710 359.39 C 709.62 359.72 685.35 375.21 660 370 C 627.47 368.68 613.16 361.59 610 359.39 C 611.99 355.7 611.62 343.06 610 330.61" fill="#fff2cc" stroke="none" pointer-events="all" style="fill: rgb(255, 242, 204);"/><path d="M 610 330.61 C 607.84 326.89 631.98 323.67 660 320 M 660 320 C 687.91 323.42 709.94 323.34 710 330.61 M 710 330.61 C 712.96 340.01 712.53 349.9 710 359.39 M 710 359.39 C 711.42 365.96 685.93 370.89 660 370 M 660 370 C 633.72 369.45 607.3 366.02 610 359.39 M 610 359.39 C 613.13 352.55 609.24 343.4 610 330.61" fill="none" stroke="#d6b656" stroke-linejoin="round" stroke-linecap="round" stroke-miterlimit="10" pointer-events="all" style="stroke: rgb(214, 182, 86);"/><path d="M 710 330.61 C 707.84 338.61 687.2 344.89 660 341.22 M 660 341.22 C 632.69 344.64 609.94 335.06 610 330.61" fill="none" stroke="#d6b656" stroke-linejoin="round" stroke-linecap="round" stroke-miterlimit="10" pointer-events="all" style="stroke: rgb(214, 182, 86);"/></g></g><g data-cell-id="nf1OjJ1EspIcu-WVKQ3m-36"><g><rect x="580" y="180" width="160" height="170" rx="43.2" ry="43.2" fill="none" stroke="none" pointer-events="all"/><path d="M 623.2 180 C 634.85 182.62 658.32 176.86 696.8 180 C 725.34 179.5 737.39 197.85 740 223.2 C 739.94 256.07 735.09 286.24 740 306.8 C 743.29 335.29 720.3 349.5 696.8 350 C 672.75 351.22 640.47 356.07 623.2 350 C 596.9 349.64 578.01 332.88 580 306.8 C 582.58 273.83 581.89 240.23 580 223.2 C 584.94 195.2 596.32 177.26 623.2 180" fill="#fff2cc" stroke="none" pointer-events="all" style="fill: rgb(255, 242, 204);"/><path d="M 623.2 180 C 644.96 181.99 656.71 178.48 696.8 180 M 623.2 180 C 639.76 180.12 661.1 179.69 696.8 180 M 696.8 180 C 728.67 183.79 739.5 197.59 740 223.2 M 696.8 180 C 724.69 177.7 740.51 195.54 740 223.2 M 740 223.2 C 741.89 239.08 743.01 263.49 740 306.8 M 740 223.2 C 739.01 252.31 739.72 278.41 740 306.8 M 740 306.8 C 738.07 338.26 722.18 350.88 696.8 350 M 740 306.8 C 740.09 334.7 730.06 345.47 696.8 350 M 696.8 350 C 684.32 348.66 667.77 350.86 623.2 350 M 696.8 350 C 674.96 348.42 648.92 347.74 623.2 350 M 623.2 350 C 597.78 347.41 577.96 336.44 580 306.8 M 623.2 350 C 594.9 349.39 576.63 332.62 580 306.8 M 580 306.8 C 576.65 275.76 581.74 252.83 580 223.2 M 580 306.8 C 582.08 276.83 579.53 245.62 580 223.2 M 580 223.2 C 579.91 195.74 595.2 177.32 623.2 180 M 580 223.2 C 578.05 193.63 593.83 181.53 623.2 180" fill="none" stroke="#d6b656" stroke-linejoin="round" stroke-linecap="round" stroke-miterlimit="10" pointer-events="all" style="stroke: rgb(214, 182, 86);"/></g></g><g data-cell-id="nf1OjJ1EspIcu-WVKQ3m-42"><g><path d="M 620 160.61 C 620 154.75 637.91 150 660 150 C 670.61 150 680.78 151.12 688.28 153.11 C 695.79 155.1 700 157.8 700 160.61 L 700 189.39 C 700 195.25 682.09 200 660 200 C 637.91 200 620 195.25 620 189.39 Z" fill="none" stroke="none" pointer-events="all"/><path d="M 700 160.61 C 700 166.47 682.09 171.22 660 171.22 C 637.91 171.22 620 166.47 620 160.61" fill="none" stroke="none" pointer-events="all"/><path d="M 620 160.61 C 620.94 153.55 634.2 155.27 660 150 C 681.7 152.73 703.11 155.22 700 160.61 C 697.44 176.55 697.34 178.38 700 189.39 C 703.76 189.78 682.48 200.21 660 200 C 635.71 204.83 622.28 199.25 620 189.39 C 618.36 179.22 621.95 178.99 620 160.61" fill="#fff2cc" stroke="none" pointer-events="all" style="fill: rgb(255, 242, 204);"/><path d="M 620 160.61 C 617.84 156.21 640.69 147.95 660 150 M 660 150 C 684.46 150.06 701.62 158.46 700 160.61 M 700 160.61 C 701.76 166.54 696.45 177.71 700 189.39 M 700 189.39 C 696.36 198.21 681.16 196.54 660 200 M 660 200 C 634.26 197.77 618.29 195.32 620 189.39 M 620 189.39 C 622.18 180.14 620.34 165.4 620 160.61" fill="none" stroke="#d6b656" stroke-linejoin="round" stroke-linecap="round" stroke-miterlimit="10" pointer-events="all" style="stroke: rgb(214, 182, 86);"/><path d="M 700 160.61 C 697.84 167.93 684.87 169.17 660 171.22 M 660 171.22 C 640.28 171.28 621.62 170.18 620 160.61" fill="none" stroke="#d6b656" stroke-linejoin="round" stroke-linecap="round" stroke-miterlimit="10" pointer-events="all" style="stroke: rgb(214, 182, 86);"/></g></g><g data-cell-id="nf1OjJ1EspIcu-WVKQ3m-44"><g><path d="M 590 320 L 590 210" fill="none" stroke="none" pointer-events="stroke"/><path d="M 590 320 C 589.83 291.17 587.23 264.16 590 210 M 590 320 C 589.48 284.91 587.88 246.09 590 210" fill="none" stroke="#d9cba6" stroke-width="11" stroke-linejoin="round" stroke-linecap="round" stroke-miterlimit="10" pointer-events="stroke" style="stroke: rgb(217, 203, 166);"/></g></g><g data-cell-id="nf1OjJ1EspIcu-WVKQ3m-46"><g><ellipse cx="630" cy="250" rx="10" ry="10" fill="none" stroke="none" pointer-events="all"/><path d="M 628.94 239.02 C 630.98 238.22 631.92 238.1 633.78 239.42 C 635.64 240.74 639.34 244.78 640.11 246.93 C 640.87 249.07 639.35 250.55 638.38 252.29 C 637.4 254.02 635.76 255.73 634.27 257.33 C 632.77 258.92 631.6 261.71 629.41 261.85 C 627.22 261.99 622.44 260.33 621.14 258.17 C 619.83 256.01 621.61 251.32 621.61 248.87 C 621.61 246.43 619.08 245.16 621.15 243.51 C 623.22 241.85 631.22 238.73 634.04 238.93 C 636.86 239.13 637.91 244.07 638.06 244.69 M 628.13 241.5 C 630.3 241.73 632.27 242.46 634.66 243.88 C 637.05 245.3 641.99 248.11 642.46 250.02 C 642.92 251.92 638.78 254.04 637.45 255.32 C 636.11 256.59 636.52 256.91 634.46 257.69 C 632.4 258.47 627.4 260.61 625.08 259.98 C 622.77 259.35 621.01 255.4 620.58 253.92 C 620.15 252.43 622.01 253.24 622.5 251.07 C 622.99 248.91 622.73 243.06 623.51 240.93 C 624.3 238.8 625.74 238.61 627.2 238.31 C 628.67 238.01 632.08 238.63 632.3 239.13" fill="#d6b656" stroke="none" pointer-events="all" style="fill: rgb(214, 182, 86);"/></g></g><g data-cell-id="nf1OjJ1EspIcu-WVKQ3m-47"><g><ellipse cx="690" cy="250" rx="10" ry="10" fill="none" stroke="none" pointer-events="all"/><path d="M 695.52 240.84 C 697.2 242.17 700.59 246.04 701.2 248.17 C 701.8 250.29 700.39 251.55 699.14 253.6 C 697.89 255.65 696.07 259.59 693.68 260.47 C 691.29 261.36 687.15 259.78 684.79 258.91 C 682.43 258.05 680.14 257.33 679.53 255.26 C 678.92 253.2 680.32 248.43 681.11 246.55 C 681.9 244.67 682.87 244.75 684.29 243.98 C 685.71 243.21 686.96 240.76 689.63 241.91 C 692.31 243.06 699.73 247.63 700.33 250.87 C 700.93 254.12 693.83 261.22 693.24 261.39 M 686.57 241.22 C 689.21 241.13 695.57 242.83 697.95 244.16 C 700.32 245.49 700.77 247.8 700.82 249.2 C 700.87 250.6 699.29 250.53 698.24 252.57 C 697.19 254.6 696.45 260.15 694.54 261.4 C 692.63 262.66 688.81 260.81 686.78 260.12 C 684.74 259.42 682.95 258.86 682.32 257.22 C 681.69 255.57 682.62 253 682.99 250.26 C 683.36 247.52 683.05 242.54 684.54 240.77 C 686.03 239 690.99 240.13 691.94 239.63 C 692.89 239.13 690.56 237.91 690.24 237.77" fill="#d6b656" stroke="none" pointer-events="all" style="fill: rgb(214, 182, 86);"/></g></g><g data-cell-id="nf1OjJ1EspIcu-WVKQ3m-48"><g><path d="M 625 300 L 635 310 L 655 310 L 685 310 L 695 300" fill="none" stroke="none" pointer-events="stroke"/><path d="M 625 300 C 627.51 301.02 627.12 304.64 635 310 M 625 300 C 628.21 301.83 629.76 304.05 635 310 M 635 310 C 644.32 308.86 650.65 310.09 655 310 M 635 310 C 640.19 311.36 645.99 309.47 655 310 M 655 310 C 663.21 313.37 667.95 309.73 685 310 M 655 310 C 667.09 312.1 680.22 309.84 685 310 M 685 310 C 688.14 310.25 687.68 303.44 695 300 M 685 310 C 689.36 307.53 693.7 302.24 695 300" fill="none" stroke="#d6b656" stroke-width="8" stroke-linejoin="round" stroke-linecap="round" stroke-miterlimit="10" pointer-events="stroke" style="stroke: rgb(214, 182, 86);"/></g></g></g></g></g></svg>