<?xml version="1.0" encoding="UTF-8"?>
<!DOCTYPE svg PUBLIC "-//W3C//DTD SVG 1.1//EN" "http://www.w3.org/Graphics/SVG/1.1/DTD/svg11.dtd">
<svg xmlns="http://www.w3.org/2000/svg" style="background: transparent; background-color: transparent; color-scheme: light dark;" xmlns:xlink="http://www.w3.org/1999/xlink" version="1.1" width="246px" height="209px" viewBox="-0.5 -0.5 246 209"><defs/><g><g data-cell-id="0"><g data-cell-id="1"><g data-cell-id="3bfi9YXTTogUKcvjeKEH-1"><g><path d="M 190 129 L 208.75 144 L 190 159 Z" fill="none" stroke="none" transform="rotate(-90,199.38,144)" pointer-events="all"/><path d="M 190 129 C 190 129 190 129 190 129 M 190 129 C 190 129 190 129 190 129 M 189.74 135.4 C 191.26 134.31 192.1 132.93 193.02 131.62 M 189.74 135.4 C 190.47 134.1 192.3 133.21 193.02 131.62 M 190.13 141.04 C 190.43 138.84 193.99 136.67 196.04 134.25 M 190.13 141.04 C 192.48 139.35 193.56 136.76 196.04 134.25 M 189.87 147.44 C 191.76 143.93 194.24 143.68 199.06 136.87 M 189.87 147.44 C 192.21 145.44 195.42 140.37 199.06 136.87 M 190.27 153.08 C 190.47 152.37 193.36 146.77 202.73 138.74 M 190.27 153.08 C 195 145.56 200.18 142.28 202.73 138.74 M 190 159.48 C 196.65 152.92 203.52 147.44 205.75 141.37 M 190 159.48 C 194.01 152.95 200.91 147.74 205.75 141.37" fill="none" stroke="#fad7ac" stroke-width="0.5" stroke-linejoin="round" stroke-linecap="round" stroke-miterlimit="10" transform="rotate(-90,199.38,144)" pointer-events="all" style="stroke: rgb(250, 215, 172);"/><path d="M 190 129 C 200.34 134.07 203.02 138.4 208.75 144 M 190 129 C 192.48 134.17 198.58 134.87 208.75 144 M 208.75 144 C 207.7 143.16 201.68 153.55 190 159 M 208.75 144 C 202.22 147.37 196.57 151.33 190 159 M 190 159 C 188.25 153.87 187.17 147.53 190 129 M 190 159 C 190.55 152.36 190.03 141.25 190 129" fill="none" stroke="#b46504" stroke-linejoin="round" stroke-linecap="round" stroke-miterlimit="10" transform="rotate(-90,199.38,144)" pointer-events="all" style="stroke: rgb(180, 101, 4);"/></g></g><g data-cell-id="3bfi9YXTTogUKcvjeKEH-2"><g><path d="M 160 144 L 170 144 L 180 154 L 170 164 L 160 164 L 150 154 Z" fill="none" stroke="none" pointer-events="all"/><path d="M 149.7 154.34 C 149.7 154.34 149.7 154.34 149.7 154.34 M 149.7 154.34 C 149.7 154.34 149.7 154.34 149.7 154.34 M 152.72 156.97 C 156.07 151.54 158.73 147.04 163.87 144.14 M 152.72 156.97 C 155.9 154.71 157.2 152.48 163.87 144.14 M 155.74 159.59 C 155.56 155.88 158.18 156.17 169.52 143.74 M 155.74 159.59 C 159.6 155.55 164.87 149.51 169.52 143.74 M 158.76 162.21 C 159.21 157 165.88 157.43 172.54 146.37 M 158.76 162.21 C 162.34 156.91 164.84 152.98 172.54 146.37 M 161.78 164.84 C 162.86 160.12 166.12 158.66 175.56 148.99 M 161.78 164.84 C 166.7 158.39 170.77 154.4 175.56 148.99 M 167.42 164.44 C 171.86 158.91 171.14 158.3 177.92 152.37 M 167.42 164.44 C 172.03 159.94 175.31 157.61 177.92 152.37" fill="none" stroke="#d0cee2" stroke-width="0.5" stroke-linejoin="round" stroke-linecap="round" stroke-miterlimit="10" pointer-events="all" style="stroke: rgb(208, 206, 226);"/><path d="M 160 144 C 164.33 142.68 168.74 142.08 170 144 M 160 144 C 163.22 143.13 164.7 143.14 170 144 M 170 144 C 173.87 146.86 173.29 146.89 180 154 M 170 144 C 173.5 145.62 174.3 150.52 180 154 M 180 154 C 174.71 159.79 173.08 159.75 170 164 M 180 154 C 176.32 155.86 174.18 161.26 170 164 M 170 164 C 166.5 162.66 165.16 162.49 160 164 M 170 164 C 166.92 164.43 165.87 163.63 160 164 M 160 164 C 157.53 159.39 151.05 158.74 150 154 M 160 164 C 156.48 162.08 154.04 156.48 150 154 M 150 154 C 153.45 152.38 152.31 150.9 160 144 M 150 154 C 152.05 152.43 155.98 149.42 160 144" fill="none" stroke="#56517e" stroke-linejoin="round" stroke-linecap="round" stroke-miterlimit="10" pointer-events="all" style="stroke: rgb(86, 81, 126);"/></g></g><g data-cell-id="3bfi9YXTTogUKcvjeKEH-3"><g><path d="M 188.75 164 L 198.75 164 L 208.75 174 L 198.75 184 L 188.75 184 L 178.75 174 Z" fill="none" stroke="none" pointer-events="all"/><path d="M 178.45 174.34 C 178.45 174.34 178.45 174.34 178.45 174.34 M 178.45 174.34 C 178.45 174.34 178.45 174.34 178.45 174.34 M 181.47 176.97 C 185.75 176.12 186.26 167.89 192.62 164.14 M 181.47 176.97 C 185.83 173.22 186.02 169.13 192.62 164.14 M 184.49 179.59 C 189.5 174.85 191.24 169.05 198.27 163.74 M 184.49 179.59 C 188.9 176.67 193.21 169 198.27 163.74 M 187.51 182.21 C 191.12 180.97 195.21 171.12 201.29 166.37 M 187.51 182.21 C 190.98 174.87 196.96 171.34 201.29 166.37 M 190.53 184.84 C 195.09 184.36 201.3 180.58 204.31 168.99 M 190.53 184.84 C 192.13 182.05 197.31 176.06 204.31 168.99 M 196.17 184.44 C 199.9 182.06 202.22 176.36 206.67 172.37 M 196.17 184.44 C 198.76 181.74 201.58 176.49 206.67 172.37" fill="none" stroke="#d0cee2" stroke-width="0.5" stroke-linejoin="round" stroke-linecap="round" stroke-miterlimit="10" pointer-events="all" style="stroke: rgb(208, 206, 226);"/><path d="M 188.75 164 C 191.94 165.81 195.17 165.41 198.75 164 M 188.75 164 C 191.89 163.22 195.66 164.45 198.75 164 M 198.75 164 C 202.7 164.34 206.51 168.49 208.75 174 M 198.75 164 C 200.55 164.94 202.37 169.28 208.75 174 M 208.75 174 C 202.96 175.38 204.52 182.74 198.75 184 M 208.75 174 C 206.28 176.5 202.35 180.74 198.75 184 M 198.75 184 C 198.36 182.27 194.15 183.9 188.75 184 M 198.75 184 C 194.79 184.38 190.39 183.42 188.75 184 M 188.75 184 C 182.46 181.22 182.03 176.65 178.75 174 M 188.75 184 C 187.48 182.5 183.31 179.21 178.75 174 M 178.75 174 C 179.64 168.9 186.52 170.26 188.75 164 M 178.75 174 C 182.24 173.13 184.4 170.96 188.75 164" fill="none" stroke="#56517e" stroke-linejoin="round" stroke-linecap="round" stroke-miterlimit="10" pointer-events="all" style="stroke: rgb(86, 81, 126);"/></g></g><g data-cell-id="3bfi9YXTTogUKcvjeKEH-4"><g><path d="M 224.38 129 L 234.38 129 L 244.38 139 L 234.38 149 L 224.38 149 L 214.38 139 Z" fill="none" stroke="none" pointer-events="all"/><path d="M 214.08 139.34 C 214.08 139.34 214.08 139.34 214.08 139.34 M 214.08 139.34 C 214.08 139.34 214.08 139.34 214.08 139.34 M 217.1 141.97 C 217.74 136.33 225.13 135.41 228.25 129.14 M 217.1 141.97 C 219.24 136.74 225.12 134.18 228.25 129.14 M 220.12 144.59 C 226.93 141.99 225.03 133.27 233.9 128.74 M 220.12 144.59 C 225.71 138.79 229.07 137.5 233.9 128.74 M 223.14 147.21 C 229.92 141.4 231.42 137.26 236.92 131.37 M 223.14 147.21 C 227.13 141.83 232.6 134.7 236.92 131.37 M 226.16 149.84 C 226.21 145.6 235.36 139.49 239.94 133.99 M 226.16 149.84 C 231.19 144.08 236.24 140.94 239.94 133.99 M 231.8 149.44 C 232.23 146.22 235.51 144.24 242.3 137.37 M 231.8 149.44 C 235.56 145.35 237.94 143.56 242.3 137.37" fill="none" stroke="#d0cee2" stroke-width="0.5" stroke-linejoin="round" stroke-linecap="round" stroke-miterlimit="10" pointer-events="all" style="stroke: rgb(208, 206, 226);"/><path d="M 224.38 129 C 226.42 129.53 232.48 129.33 234.38 129 M 224.38 129 C 227.43 128.71 229.5 129.17 234.38 129 M 234.38 129 C 238.01 132.88 240.56 135.49 244.38 139 M 234.38 129 C 237.7 132.49 237.72 133.44 244.38 139 M 244.38 139 C 243.75 141.63 237.17 145.06 234.38 149 M 244.38 139 C 242.68 140.15 241.79 144.05 234.38 149 M 234.38 149 C 231.11 147.28 226.02 150.72 224.38 149 M 234.38 149 C 231.54 149.33 227.79 148.21 224.38 149 M 224.38 149 C 221.53 144.39 217.83 143.56 214.38 139 M 224.38 149 C 220.53 146.33 218.3 143.34 214.38 139 M 214.38 139 C 218.37 136.07 221.95 128.96 224.38 129 M 214.38 139 C 218.08 136.42 220.47 130.28 224.38 129" fill="none" stroke="#56517e" stroke-linejoin="round" stroke-linecap="round" stroke-miterlimit="10" pointer-events="all" style="stroke: rgb(86, 81, 126);"/></g></g><g data-cell-id="3bfi9YXTTogUKcvjeKEH-7"><g><path d="M 150 164 L 168.75 179 L 150 194 Z" fill="none" stroke="none" transform="rotate(-90,159.38,179)" pointer-events="all"/><path d="M 150 164 C 150 164 150 164 150 164 M 150 164 C 150 164 150 164 150 164 M 149.74 170.4 C 150.93 168.56 151.3 167.29 153.02 166.62 M 149.74 170.4 C 150.51 168.97 151.96 167.99 153.02 166.62 M 150.13 176.04 C 151.08 173.52 154.23 171.59 156.04 169.25 M 150.13 176.04 C 152.3 174.06 153.27 172.6 156.04 169.25 M 149.87 182.44 C 155.53 179.05 158.39 175.85 159.06 171.87 M 149.87 182.44 C 153.6 178.76 157.67 173.52 159.06 171.87 M 150.27 188.08 C 157.17 179.06 160.71 177.86 162.73 173.74 M 150.27 188.08 C 154.1 183.42 154.48 180.98 162.73 173.74 M 150 194.48 C 153.75 190.51 163.21 181.81 165.75 176.37 M 150 194.48 C 156.64 188.62 160.6 182.5 165.75 176.37" fill="none" stroke="#fad7ac" stroke-width="0.5" stroke-linejoin="round" stroke-linecap="round" stroke-miterlimit="10" transform="rotate(-90,159.38,179)" pointer-events="all" style="stroke: rgb(250, 215, 172);"/><path d="M 150 164 C 154.94 172.93 167.49 179.65 168.75 179 M 150 164 C 155.07 168.35 160.68 172.15 168.75 179 M 168.75 179 C 162.9 180.64 159.01 183.19 150 194 M 168.75 179 C 163.7 184.08 155.85 190.18 150 194 M 150 194 C 149.31 181.37 147.96 171.95 150 164 M 150 194 C 149.58 183.68 149.34 173.85 150 164" fill="none" stroke="#b46504" stroke-linejoin="round" stroke-linecap="round" stroke-miterlimit="10" transform="rotate(-90,159.38,179)" pointer-events="all" style="stroke: rgb(180, 101, 4);"/></g></g><g data-cell-id="3bfi9YXTTogUKcvjeKEH-8"><g><path d="M 140 104 L 158.75 119 L 140 134 Z" fill="none" stroke="none" transform="rotate(-90,149.38,119)" pointer-events="all"/><path d="M 140 104 C 140 104 140 104 140 104 M 140 104 C 140 104 140 104 140 104 M 139.74 110.4 C 139.55 110.23 140.51 109.02 143.02 106.62 M 139.74 110.4 C 140.27 109.54 141.16 108.54 143.02 106.62 M 140.13 116.04 C 142.79 112.65 144.48 111.58 146.04 109.25 M 140.13 116.04 C 142.02 114.38 143.08 113.64 146.04 109.25 M 139.87 122.44 C 140.7 120.94 147.35 115.37 149.06 111.87 M 139.87 122.44 C 142.45 120.12 144.81 115.44 149.06 111.87 M 140.27 128.08 C 141.18 124.18 149.92 118.81 152.73 113.74 M 140.27 128.08 C 141.61 125.55 148.36 121.04 152.73 113.74 M 140 134.48 C 146.05 132.86 151.7 121.44 155.75 116.37 M 140 134.48 C 143.82 130.43 150.77 122.75 155.75 116.37" fill="none" stroke="#fad7ac" stroke-width="0.5" stroke-linejoin="round" stroke-linecap="round" stroke-miterlimit="10" transform="rotate(-90,149.38,119)" pointer-events="all" style="stroke: rgb(250, 215, 172);"/><path d="M 140 104 C 150.7 111.16 152.9 118.27 158.75 119 M 140 104 C 144.85 109.63 150.97 112.95 158.75 119 M 158.75 119 C 151.88 125.3 153.04 125.71 140 134 M 158.75 119 C 152.67 123.45 147.08 128.74 140 134 M 140 134 C 138.16 124.78 140.76 111.51 140 104 M 140 134 C 138.49 122.73 140.29 113.45 140 104" fill="none" stroke="#b46504" stroke-linejoin="round" stroke-linecap="round" stroke-miterlimit="10" transform="rotate(-90,149.38,119)" pointer-events="all" style="stroke: rgb(180, 101, 4);"/></g></g><g data-cell-id="3bfi9YXTTogUKcvjeKEH-9"><g><path d="M 130 134 L 140 134 L 150 144 L 140 154 L 130 154 L 120 144 Z" fill="none" stroke="none" pointer-events="all"/><path d="M 119.7 144.34 C 119.7 144.34 119.7 144.34 119.7 144.34 M 119.7 144.34 C 119.7 144.34 119.7 144.34 119.7 144.34 M 122.72 146.97 C 124.47 141.25 130.14 139.52 133.87 134.14 M 122.72 146.97 C 125.1 143.22 130.03 140.72 133.87 134.14 M 125.74 149.59 C 124.97 142.8 134.39 145.14 139.52 133.74 M 125.74 149.59 C 129.44 143.34 134.82 138.75 139.52 133.74 M 128.76 152.21 C 137.5 145.45 136.82 142.7 142.54 136.37 M 128.76 152.21 C 130.69 146.96 136.06 144.19 142.54 136.37 M 131.78 154.84 C 137.51 147.8 142.88 139.75 145.56 138.99 M 131.78 154.84 C 133.72 150.66 137.83 147.21 145.56 138.99 M 137.42 154.44 C 143.55 149.74 147.15 143.93 147.92 142.37 M 137.42 154.44 C 142.12 151.35 143.27 146.06 147.92 142.37" fill="none" stroke="#d0cee2" stroke-width="0.5" stroke-linejoin="round" stroke-linecap="round" stroke-miterlimit="10" pointer-events="all" style="stroke: rgb(208, 206, 226);"/><path d="M 130 134 C 134.33 133.35 138.5 134.14 140 134 M 130 134 C 134.63 134.58 138.18 133.12 140 134 M 140 134 C 140.81 136.19 146.38 140.44 150 144 M 140 134 C 141.63 136.47 145.93 139.47 150 144 M 150 144 C 144.88 149.22 146.55 152.02 140 154 M 150 144 C 148.65 145.98 146.47 147.72 140 154 M 140 154 C 138.3 152.33 132.83 152.81 130 154 M 140 154 C 136.74 153.68 134.24 153.76 130 154 M 130 154 C 128.21 151.22 124.8 151.75 120 144 M 130 154 C 127.73 150.27 124.2 149.12 120 144 M 120 144 C 121.75 141.38 125.49 137.49 130 134 M 120 144 C 122 143.29 124.03 141.43 130 134" fill="none" stroke="#56517e" stroke-linejoin="round" stroke-linecap="round" stroke-miterlimit="10" pointer-events="all" style="stroke: rgb(86, 81, 126);"/></g></g><g data-cell-id="3bfi9YXTTogUKcvjeKEH-10"><g><path d="M 220 154 L 238.75 169 L 220 184 Z" fill="none" stroke="none" transform="rotate(-90,229.38,169)" pointer-events="all"/><path d="M 220 154 C 220 154 220 154 220 154 M 220 154 C 220 154 220 154 220 154 M 219.74 160.4 C 221.79 159.1 221.3 158.01 223.02 156.62 M 219.74 160.4 C 220.76 159.51 221.71 158.65 223.02 156.62 M 220.13 166.04 C 221.51 164.29 224 161.44 226.04 159.25 M 220.13 166.04 C 222.21 163.75 223.08 162.06 226.04 159.25 M 219.87 172.44 C 222.05 171.64 224.95 168.28 229.06 161.87 M 219.87 172.44 C 220.79 170.14 223.22 166.37 229.06 161.87 M 220.27 178.08 C 226.2 174.09 223.52 169.28 232.73 163.74 M 220.27 178.08 C 224.94 173.05 228.82 166.43 232.73 163.74 M 220 184.48 C 226.77 175.67 226.05 173.65 235.75 166.37 M 220 184.48 C 224.52 180.42 228.1 175.6 235.75 166.37" fill="none" stroke="#fad7ac" stroke-width="0.5" stroke-linejoin="round" stroke-linecap="round" stroke-miterlimit="10" transform="rotate(-90,229.38,169)" pointer-events="all" style="stroke: rgb(250, 215, 172);"/><path d="M 220 154 C 225.01 155.03 226.03 160.28 238.75 169 M 220 154 C 224.33 159.1 229.59 161.62 238.75 169 M 238.75 169 C 233.07 170.04 231.33 173.42 220 184 M 238.75 169 C 236.61 172.65 232.64 173.45 220 184 M 220 184 C 217.08 178.94 221.35 163.87 220 154 M 220 184 C 218.89 176.8 220.91 166.65 220 154" fill="none" stroke="#b46504" stroke-linejoin="round" stroke-linecap="round" stroke-miterlimit="10" transform="rotate(-90,229.38,169)" pointer-events="all" style="stroke: rgb(180, 101, 4);"/></g></g><g data-cell-id="3bfi9YXTTogUKcvjeKEH-11"><g><path d="M 130 159 L 140 159 L 150 169 L 140 179 L 130 179 L 120 169 Z" fill="none" stroke="none" pointer-events="all"/><path d="M 119.7 169.34 C 119.7 169.34 119.7 169.34 119.7 169.34 M 119.7 169.34 C 119.7 169.34 119.7 169.34 119.7 169.34 M 122.72 171.97 C 124.39 163.6 128.88 159.81 133.87 159.14 M 122.72 171.97 C 125.34 168.55 128.87 166.72 133.87 159.14 M 125.74 174.59 C 126.36 168.67 129.38 164.44 139.52 158.74 M 125.74 174.59 C 130.25 172.25 132.36 166.4 139.52 158.74 M 128.76 177.21 C 135.52 175.5 135.08 164.28 142.54 161.37 M 128.76 177.21 C 134.32 170.99 139.51 167.59 142.54 161.37 M 131.78 179.84 C 135.57 174.29 133.92 172.38 145.56 163.99 M 131.78 179.84 C 136.43 175.1 140.82 168.79 145.56 163.99 M 137.42 179.44 C 137.12 175.33 139.22 173.51 147.92 167.37 M 137.42 179.44 C 139.77 175.87 145.2 170.14 147.92 167.37" fill="none" stroke="#d0cee2" stroke-width="0.5" stroke-linejoin="round" stroke-linecap="round" stroke-miterlimit="10" pointer-events="all" style="stroke: rgb(208, 206, 226);"/><path d="M 130 159 C 131.6 160.79 135.09 157.77 140 159 M 130 159 C 134.32 159.61 137.41 158.05 140 159 M 140 159 C 142.25 163.15 145.95 163.84 150 169 M 140 159 C 143.82 162.94 149.08 167.64 150 169 M 150 169 C 145.22 169.52 143.05 174.76 140 179 M 150 169 C 147.85 172.97 144.78 175.9 140 179 M 140 179 C 137.43 179.72 134.25 178.81 130 179 M 140 179 C 136.77 179.74 135.78 178.11 130 179 M 130 179 C 127.86 175.37 121.15 169.96 120 169 M 130 179 C 128.48 176.67 124.57 175.96 120 169 M 120 169 C 124.43 169.16 123.17 166.08 130 159 M 120 169 C 123.39 167.79 123.41 165.27 130 159" fill="none" stroke="#56517e" stroke-linejoin="round" stroke-linecap="round" stroke-miterlimit="10" pointer-events="all" style="stroke: rgb(86, 81, 126);"/></g></g><g data-cell-id="3bfi9YXTTogUKcvjeKEH-12"><g><path d="M 171.25 109 L 190 124 L 171.25 139 Z" fill="none" stroke="none" transform="rotate(-90,180.63,124)" pointer-events="all"/><path d="M 171.25 109 C 171.25 109 171.25 109 171.25 109 M 171.25 109 C 171.25 109 171.25 109 171.25 109 M 170.99 115.4 C 172.93 114.56 174.29 112.84 174.27 111.62 M 170.99 115.4 C 171.69 114.51 172.51 113.62 174.27 111.62 M 171.38 121.04 C 172.58 120.92 172.14 119.79 177.29 114.25 M 171.38 121.04 C 174.09 118.27 176.32 116.66 177.29 114.25 M 171.12 127.44 C 174.42 124.81 173.7 122.34 180.31 116.87 M 171.12 127.44 C 174.37 125.76 175.22 121 180.31 116.87 M 171.52 133.08 C 174.43 128.85 177.03 120.45 183.98 118.74 M 171.52 133.08 C 175.75 127.6 178.47 127.28 183.98 118.74 M 171.25 139.48 C 177.77 131.75 180.59 128.65 187 121.37 M 171.25 139.48 C 175.83 130.78 184.53 127.23 187 121.37" fill="none" stroke="#fad7ac" stroke-width="0.5" stroke-linejoin="round" stroke-linecap="round" stroke-miterlimit="10" transform="rotate(-90,180.63,124)" pointer-events="all" style="stroke: rgb(250, 215, 172);"/><path d="M 171.25 109 C 179.8 113.73 184.1 119.78 190 124 M 171.25 109 C 175.39 114.42 177.91 116.96 190 124 M 190 124 C 181.67 127.11 174.05 134.21 171.25 139 M 190 124 C 181.46 129.39 174.25 135.57 171.25 139 M 171.25 139 C 174.01 126.77 170.2 114 171.25 109 M 171.25 139 C 170.75 129.91 168.87 116.85 171.25 109" fill="none" stroke="#b46504" stroke-linejoin="round" stroke-linecap="round" stroke-miterlimit="10" transform="rotate(-90,180.63,124)" pointer-events="all" style="stroke: rgb(180, 101, 4);"/></g></g><g data-cell-id="3bfi9YXTTogUKcvjeKEH-13"><g><path d="M 200 109 L 210 109 L 220 119 L 210 129 L 200 129 L 190 119 Z" fill="none" stroke="none" pointer-events="all"/><path d="M 189.7 119.34 C 189.7 119.34 189.7 119.34 189.7 119.34 M 189.7 119.34 C 189.7 119.34 189.7 119.34 189.7 119.34 M 192.72 121.97 C 196.26 115.95 196.44 118.31 203.87 109.14 M 192.72 121.97 C 194.29 118.52 199.01 112.98 203.87 109.14 M 195.74 124.59 C 195.35 119.78 201.85 114.54 209.52 108.74 M 195.74 124.59 C 200.09 117.88 207.06 113.61 209.52 108.74 M 198.76 127.21 C 203.22 124.9 205.61 117.11 212.54 111.37 M 198.76 127.21 C 201.34 124.63 202.74 121.21 212.54 111.37 M 201.78 129.84 C 207.3 129.04 214.29 119.32 215.56 113.99 M 201.78 129.84 C 206.54 125.79 211.91 120.32 215.56 113.99 M 207.42 129.44 C 211.13 125.22 212.92 119.62 217.92 117.37 M 207.42 129.44 C 209.4 126.29 213.93 124.29 217.92 117.37" fill="none" stroke="#d0cee2" stroke-width="0.5" stroke-linejoin="round" stroke-linecap="round" stroke-miterlimit="10" pointer-events="all" style="stroke: rgb(208, 206, 226);"/><path d="M 200 109 C 203.32 108.64 204.45 110.01 210 109 M 200 109 C 202.15 108.19 205.84 109.07 210 109 M 210 109 C 212.01 114.17 218.84 117.45 220 119 M 210 109 C 214.04 111.97 215.69 115.56 220 119 M 220 119 C 217.88 124.02 214.41 129.07 210 129 M 220 119 C 215.01 124.26 211.19 127.69 210 129 M 210 129 C 207.66 129.74 200.73 128.45 200 129 M 210 129 C 207 129.64 203.31 129.69 200 129 M 200 129 C 197.48 125.37 193.55 125.43 190 119 M 200 129 C 198.15 125.93 194.45 124.99 190 119 M 190 119 C 192.57 114.2 194.03 113.14 200 109 M 190 119 C 192.6 116.38 196.75 110.74 200 109" fill="none" stroke="#56517e" stroke-linejoin="round" stroke-linecap="round" stroke-miterlimit="10" pointer-events="all" style="stroke: rgb(86, 81, 126);"/></g></g><g data-cell-id="remplace"><g/><g data-cell-id="xrxOJ75tc5JvbSGc1m3O-1"><g><path d="M 70 19 L 88.75 34 L 70 49 Z" fill="none" stroke="none" transform="rotate(-90,79.38,34)" pointer-events="all"/><path d="M 70 19 C 70 19 70 19 70 19 M 70 19 C 70 19 70 19 70 19 M 69.74 25.4 C 70.21 24.42 71.82 23.16 73.02 21.62 M 69.74 25.4 C 71.03 24.93 71.38 23.41 73.02 21.62 M 70.13 31.04 C 72.09 30.2 74.35 27.7 76.04 24.25 M 70.13 31.04 C 72.14 29.53 73.99 27.21 76.04 24.25 M 69.87 37.44 C 73.94 33.12 74.22 29.08 79.06 26.87 M 69.87 37.44 C 73.35 34.41 75.91 28.33 79.06 26.87 M 70.27 43.08 C 76.76 39.23 79.48 34.23 82.73 28.74 M 70.27 43.08 C 75.96 36.31 79.98 32.15 82.73 28.74 M 70 49.48 C 72.94 44.34 83.19 38.41 85.75 31.37 M 70 49.48 C 77.34 42.85 82.72 34.05 85.75 31.37" fill="none" stroke="#fad7ac" stroke-width="0.5" stroke-linejoin="round" stroke-linecap="round" stroke-miterlimit="10" transform="rotate(-90,79.38,34)" pointer-events="all" style="stroke: rgb(250, 215, 172);"/><path d="M 70 19 C 71.46 23.29 83.13 27.78 88.75 34 M 70 19 C 76.68 23.11 82.36 28.83 88.75 34 M 88.75 34 C 84.33 36.92 73.95 47.57 70 49 M 88.75 34 C 82.5 38.81 77.56 45.1 70 49 M 70 49 C 68.32 36.85 68.09 30.54 70 19 M 70 49 C 69.37 37.69 71.72 26.97 70 19" fill="none" stroke="#b46504" stroke-linejoin="round" stroke-linecap="round" stroke-miterlimit="10" transform="rotate(-90,79.38,34)" pointer-events="all" style="stroke: rgb(180, 101, 4);"/></g></g><g data-cell-id="xrxOJ75tc5JvbSGc1m3O-3"><g><path d="M 68.75 54 L 78.75 54 L 88.75 64 L 78.75 74 L 68.75 74 L 58.75 64 Z" fill="none" stroke="none" pointer-events="all"/><path d="M 58.45 64.34 C 58.45 64.34 58.45 64.34 58.45 64.34 M 58.45 64.34 C 58.45 64.34 58.45 64.34 58.45 64.34 M 61.47 66.97 C 64.57 63.31 71.73 55.62 72.62 54.14 M 61.47 66.97 C 63.29 63.45 65.84 61.97 72.62 54.14 M 64.49 69.59 C 65.73 65.72 70.81 59.54 78.27 53.74 M 64.49 69.59 C 68.12 66.63 74.83 59.45 78.27 53.74 M 67.51 72.21 C 75.03 69.07 79.18 60.84 81.29 56.37 M 67.51 72.21 C 70.9 67.64 77.78 60.82 81.29 56.37 M 70.53 74.84 C 77.43 74.48 75.93 62.59 84.31 58.99 M 70.53 74.84 C 75.32 68.76 82.53 62.48 84.31 58.99 M 76.17 74.44 C 78.85 70.84 79.69 68.06 86.67 62.37 M 76.17 74.44 C 80.3 70.77 81.7 67.58 86.67 62.37" fill="none" stroke="#d0cee2" stroke-width="0.5" stroke-linejoin="round" stroke-linecap="round" stroke-miterlimit="10" pointer-events="all" style="stroke: rgb(208, 206, 226);"/><path d="M 68.75 54 C 71.3 52.07 74.94 52.78 78.75 54 M 68.75 54 C 72.09 54.04 73.74 54.74 78.75 54 M 78.75 54 C 82.06 54.91 84.52 57.14 88.75 64 M 78.75 54 C 82.06 56.2 85.29 59.33 88.75 64 M 88.75 64 C 83.67 67.49 86.82 70.37 78.75 74 M 88.75 64 C 86.69 66.18 83.25 68.1 78.75 74 M 78.75 74 C 74.71 73.01 72.8 74.87 68.75 74 M 78.75 74 C 74.56 73.59 72.89 74.31 68.75 74 M 68.75 74 C 66.76 70.26 65.69 69.45 58.75 64 M 68.75 74 C 67.38 71.97 64.43 67.74 58.75 64 M 58.75 64 C 60.18 63.26 65.91 58.65 68.75 54 M 58.75 64 C 64.08 60.07 65.75 57.02 68.75 54" fill="none" stroke="#56517e" stroke-linejoin="round" stroke-linecap="round" stroke-miterlimit="10" pointer-events="all" style="stroke: rgb(86, 81, 126);"/></g></g><g data-cell-id="xrxOJ75tc5JvbSGc1m3O-4"><g><path d="M 104.38 19 L 114.38 19 L 124.38 29 L 114.38 39 L 104.38 39 L 94.38 29 Z" fill="none" stroke="none" pointer-events="all"/><path d="M 94.08 29.34 C 94.08 29.34 94.08 29.34 94.08 29.34 M 94.08 29.34 C 94.08 29.34 94.08 29.34 94.08 29.34 M 97.1 31.97 C 101.11 26.77 105.53 28.7 106.94 20.65 M 97.1 31.97 C 99.74 27.55 104.02 24.6 106.94 20.65 M 100.12 34.59 C 102.71 33.22 103.84 25.21 111.93 21.01 M 100.12 34.59 C 103.72 29.53 105.14 25.4 111.93 21.01 M 103.14 37.21 C 105.19 30.05 106.76 27.53 116.92 21.37 M 103.14 37.21 C 107.05 30.6 113.42 24.18 116.92 21.37 M 105.5 40.59 C 107.38 35.76 108.98 29.37 119.94 23.99 M 105.5 40.59 C 111.17 33.92 115.69 29.43 119.94 23.99 M 111.15 40.2 C 112.81 39.68 117.18 30.83 122.95 26.61 M 111.15 40.2 C 113.51 38.09 118.18 31.21 122.95 26.61" fill="none" stroke="#d0cee2" stroke-width="0.5" stroke-linejoin="round" stroke-linecap="round" stroke-miterlimit="10" pointer-events="all" style="stroke: rgb(208, 206, 226);"/><path d="M 104.38 19 C 105.79 19.8 108.26 20.7 114.38 19 M 104.38 19 C 107.63 19.13 111.58 19.05 114.38 19 M 114.38 19 C 117.36 23.44 118.57 24.15 124.38 29 M 114.38 19 C 116.39 20.51 120.64 23.09 124.38 29 M 124.38 29 C 122.46 35.74 115.48 36.7 114.38 39 M 124.38 29 C 120.7 31.83 118.29 35.41 114.38 39 M 114.38 39 C 111.46 38.02 108.67 37.69 104.38 39 M 114.38 39 C 111.3 38.54 108.29 39.1 104.38 39 M 104.38 39 C 103.83 37.09 97.49 32.36 94.38 29 M 104.38 39 C 100.43 35.39 96.58 31.47 94.38 29 M 94.38 29 C 98.9 24.78 101.35 23.01 104.38 19 M 94.38 29 C 98.32 25.36 101.05 20.34 104.38 19" fill="none" stroke="#56517e" stroke-linejoin="round" stroke-linecap="round" stroke-miterlimit="10" pointer-events="all" style="stroke: rgb(86, 81, 126);"/></g></g><g data-cell-id="xrxOJ75tc5JvbSGc1m3O-5"><g><path d="M 30 54 L 48.75 69 L 30 84 Z" fill="none" stroke="none" transform="rotate(-90,39.38,69)" pointer-events="all"/><path d="M 30 54 C 30 54 30 54 30 54 M 30 54 C 30 54 30 54 30 54 M 29.74 60.4 C 30 58.34 31.29 57.82 33.02 56.62 M 29.74 60.4 C 30.39 59.8 31.49 58.22 33.02 56.62 M 30.13 66.04 C 32.92 63.48 34.09 63.1 36.04 59.25 M 30.13 66.04 C 32.5 63.36 34.07 60.75 36.04 59.25 M 29.87 72.44 C 30.99 70.07 35.26 67.79 39.06 61.87 M 29.87 72.44 C 30.99 69.6 34.15 66.44 39.06 61.87 M 30.27 78.08 C 38.88 73.75 36.97 69.16 42.73 63.74 M 30.27 78.08 C 34.92 74.63 39.11 68.81 42.73 63.74 M 30 84.48 C 39 80.85 40.31 72.79 45.75 66.37 M 30 84.48 C 35.9 79.18 37.22 76.17 45.75 66.37" fill="none" stroke="#fad7ac" stroke-width="0.5" stroke-linejoin="round" stroke-linecap="round" stroke-miterlimit="10" transform="rotate(-90,39.38,69)" pointer-events="all" style="stroke: rgb(250, 215, 172);"/><path d="M 30 54 C 37.93 57.7 40.18 63.78 48.75 69 M 30 54 C 36.31 58.73 40.5 60.52 48.75 69 M 48.75 69 C 42.19 72.32 39.8 79.41 30 84 M 48.75 69 C 46.39 70.53 38.48 77.58 30 84 M 30 84 C 31.69 71.52 31.29 59.81 30 54 M 30 84 C 31.79 74.9 30.33 64.37 30 54" fill="none" stroke="#b46504" stroke-linejoin="round" stroke-linecap="round" stroke-miterlimit="10" transform="rotate(-90,39.38,69)" pointer-events="all" style="stroke: rgb(180, 101, 4);"/></g></g><g data-cell-id="xrxOJ75tc5JvbSGc1m3O-6"><g><path d="M 20 -6 L 38.75 9 L 20 24 Z" fill="none" stroke="none" transform="rotate(-90,29.38,9)" pointer-events="all"/><path d="M 20 -6 C 20 -6 20 -6 20 -6 M 20 -6 C 20 -6 20 -6 20 -6 M 19.74 0.4 C 20.61 -0.12 20.5 -0.57 23.02 -3.38 M 19.74 0.4 C 20.3 -0.63 20.84 -1.23 23.02 -3.38 M 20.13 6.04 C 21.3 5.98 24.61 2.86 26.04 -0.75 M 20.13 6.04 C 22.22 3.68 23.88 1.78 26.04 -0.75 M 19.87 12.44 C 21.76 6.36 24.22 7.32 29.06 1.87 M 19.87 12.44 C 24.47 8.85 24.96 4.14 29.06 1.87 M 20.27 18.08 C 22.32 11.27 25.61 10.11 32.73 3.74 M 20.27 18.08 C 26.24 12.96 29.19 8.87 32.73 3.74 M 20 24.48 C 23.3 15.2 28.81 12.41 35.75 6.37 M 20 24.48 C 22.36 20.35 26.66 15.8 35.75 6.37" fill="none" stroke="#fad7ac" stroke-width="0.5" stroke-linejoin="round" stroke-linecap="round" stroke-miterlimit="10" transform="rotate(-90,29.38,9)" pointer-events="all" style="stroke: rgb(250, 215, 172);"/><path d="M 20 -6 C 25.69 -4.07 25.59 2.41 38.75 9 M 20 -6 C 26.09 0.01 30.78 1.32 38.75 9 M 38.75 9 C 31.16 16.98 25.84 21.93 20 24 M 38.75 9 C 31.61 16.9 22.21 22.14 20 24 M 20 24 C 20.54 14.93 24.08 7.38 20 -6 M 20 24 C 19.5 13.95 20.08 3.97 20 -6" fill="none" stroke="#b46504" stroke-linejoin="round" stroke-linecap="round" stroke-miterlimit="10" transform="rotate(-90,29.38,9)" pointer-events="all" style="stroke: rgb(180, 101, 4);"/></g></g><g data-cell-id="xrxOJ75tc5JvbSGc1m3O-9"><g><path d="M 10 49 L 20 49 L 30 59 L 20 69 L 10 69 L 0 59 Z" fill="none" stroke="none" pointer-events="all"/><path d="M -0.3 59.34 C -0.3 59.34 -0.3 59.34 -0.3 59.34 M -0.3 59.34 C -0.3 59.34 -0.3 59.34 -0.3 59.34 M 2.72 61.97 C 3.23 60.44 8.1 53.4 12.56 50.65 M 2.72 61.97 C 5.58 58.86 9.01 55.96 12.56 50.65 M 5.74 64.59 C 8.72 59.44 12.86 61.36 17.55 51.01 M 5.74 64.59 C 7.62 58.66 14.43 55.19 17.55 51.01 M 8.76 67.21 C 10.01 62.27 14.65 56.31 22.54 51.37 M 8.76 67.21 C 10.61 64.73 12.88 58.66 22.54 51.37 M 11.12 70.59 C 19.44 63.39 25.37 54.94 25.56 53.99 M 11.12 70.59 C 13.66 66.12 17.21 61.36 25.56 53.99 M 16.77 70.2 C 22.48 64.01 24.86 60.76 28.57 56.61 M 16.77 70.2 C 20.19 65.62 27.08 58.4 28.57 56.61" fill="none" stroke="#d0cee2" stroke-width="0.5" stroke-linejoin="round" stroke-linecap="round" stroke-miterlimit="10" pointer-events="all" style="stroke: rgb(208, 206, 226);"/><path d="M 10 49 C 13.7 48.61 14.28 50.52 20 49 M 10 49 C 12.83 48.39 16.26 48.41 20 49 M 20 49 C 20.17 51.75 24.39 54.1 30 59 M 20 49 C 23.15 52.33 26.02 54.12 30 59 M 30 59 C 23.59 62.28 19.2 68.25 20 69 M 30 59 C 26.66 62.66 25.8 64.08 20 69 M 20 69 C 18.65 68.07 15.48 68.77 10 69 M 20 69 C 18.5 67.89 14.74 69.66 10 69 M 10 69 C 4.86 68.92 4.47 65.56 0 59 M 10 69 C 7.23 67.56 4.91 62.66 0 59 M 0 59 C 4.28 53.09 8.88 52.54 10 49 M 0 59 C 4.24 55.24 8.62 52.48 10 49" fill="none" stroke="#56517e" stroke-linejoin="round" stroke-linecap="round" stroke-miterlimit="10" pointer-events="all" style="stroke: rgb(86, 81, 126);"/></g></g><g data-cell-id="xrxOJ75tc5JvbSGc1m3O-10"><g><path d="M 51.25 -1 L 70 14 L 51.25 29 Z" fill="none" stroke="none" transform="rotate(-90,60.63,14)" pointer-events="all"/><path d="M 51.25 -1 C 51.25 -1 51.25 -1 51.25 -1 M 51.25 -1 C 51.25 -1 51.25 -1 51.25 -1 M 50.99 5.4 C 52.82 5.33 53.88 2.23 54.27 1.62 M 50.99 5.4 C 51.78 4.17 52.75 2.75 54.27 1.62 M 51.38 11.04 C 52.2 8.45 55.85 4.87 57.29 4.25 M 51.38 11.04 C 52.14 8.74 54.94 7.94 57.29 4.25 M 51.12 17.44 C 54.31 14.83 56.39 11.37 60.31 6.87 M 51.12 17.44 C 53.44 15.52 55.61 13.15 60.31 6.87 M 51.52 23.08 C 57.85 20.03 60.64 13.43 63.98 8.74 M 51.52 23.08 C 54.01 17.04 61.14 14.51 63.98 8.74 M 51.25 29.48 C 58.86 27.21 62.54 17.85 67 11.37 M 51.25 29.48 C 56.16 24.04 57.42 21.54 67 11.37" fill="none" stroke="#fad7ac" stroke-width="0.5" stroke-linejoin="round" stroke-linecap="round" stroke-miterlimit="10" transform="rotate(-90,60.63,14)" pointer-events="all" style="stroke: rgb(250, 215, 172);"/><path d="M 51.25 -1 C 56.85 5.76 67.15 9.96 70 14 M 51.25 -1 C 60.22 2.75 65.77 10.01 70 14 M 70 14 C 67.27 16.53 63.99 25.09 51.25 29 M 70 14 C 65.56 17.32 62 20.3 51.25 29 M 51.25 29 C 48.77 22.37 47.6 16.01 51.25 -1 M 51.25 29 C 52.42 18.9 51.54 10.72 51.25 -1" fill="none" stroke="#b46504" stroke-linejoin="round" stroke-linecap="round" stroke-miterlimit="10" transform="rotate(-90,60.63,14)" pointer-events="all" style="stroke: rgb(180, 101, 4);"/></g></g><g data-cell-id="xrxOJ75tc5JvbSGc1m3O-12"><g><path d="M 38.75 29 L 57.5 44 L 38.75 59 Z" fill="none" stroke="none" transform="rotate(-90,48.13,44)" pointer-events="all"/><path d="M 38.75 29 C 38.75 29 38.75 29 38.75 29 M 38.75 29 C 38.75 29 38.75 29 38.75 29 M 38.49 35.4 C 40.21 33.66 41.12 33.93 41.77 31.62 M 38.49 35.4 C 38.96 34.17 40.81 33.72 41.77 31.62 M 38.88 41.04 C 39.53 40.07 43.84 38.22 44.79 34.25 M 38.88 41.04 C 40.27 38.25 42.63 35.73 44.79 34.25 M 38.62 47.44 C 43.35 43.01 47.42 40.42 47.81 36.87 M 38.62 47.44 C 40.47 45.77 43.86 42.41 47.81 36.87 M 39.02 53.08 C 42.9 49.79 43.37 47.2 51.48 38.74 M 39.02 53.08 C 41.64 50.38 43.81 46.56 51.48 38.74 M 38.75 59.48 C 45.39 50.28 52.61 47.85 54.5 41.37 M 38.75 59.48 C 43.72 53.4 50.11 48.17 54.5 41.37" fill="none" stroke="#fad7ac" stroke-width="0.5" stroke-linejoin="round" stroke-linecap="round" stroke-miterlimit="10" transform="rotate(-90,48.13,44)" pointer-events="all" style="stroke: rgb(250, 215, 172);"/><path d="M 38.75 29 C 47.88 31.46 53.47 36.46 57.5 44 M 38.75 29 C 43.54 33.06 50.34 40.35 57.5 44 M 57.5 44 C 52.12 48.61 42.96 52.89 38.75 59 M 57.5 44 C 51.25 48.31 44.46 56.67 38.75 59 M 38.75 59 C 41.95 45.2 40.7 41.15 38.75 29 M 38.75 59 C 36.53 47.01 39.75 35.92 38.75 29" fill="none" stroke="#b46504" stroke-linejoin="round" stroke-linecap="round" stroke-miterlimit="10" transform="rotate(-90,48.13,44)" pointer-events="all" style="stroke: rgb(180, 101, 4);"/></g></g><g data-cell-id="xrxOJ75tc5JvbSGc1m3O-13"><g><path d="M 104.38 49 L 114.38 49 L 124.38 59 L 114.38 69 L 104.38 69 L 94.38 59 Z" fill="none" stroke="none" pointer-events="all"/><path d="M 94.08 59.34 C 94.08 59.34 94.08 59.34 94.08 59.34 M 94.08 59.34 C 94.08 59.34 94.08 59.34 94.08 59.34 M 97.1 61.97 C 100.99 57.41 99.47 58.07 106.94 50.65 M 97.1 61.97 C 100.21 58.13 100.95 56.47 106.94 50.65 M 100.12 64.59 C 99.81 59.05 102.33 55.05 111.93 51.01 M 100.12 64.59 C 104.83 61.1 108.88 55.91 111.93 51.01 M 103.14 67.21 C 105.84 60.44 107 61.02 116.92 51.37 M 103.14 67.21 C 106.57 63.19 111.94 57.67 116.92 51.37 M 105.5 70.59 C 114.94 63.07 112.87 60.74 119.94 53.99 M 105.5 70.59 C 110.94 65.07 111.39 62.42 119.94 53.99 M 111.15 70.2 C 116.81 64.32 116.63 60.62 122.95 56.61 M 111.15 70.2 C 116.07 64.61 119.46 62.75 122.95 56.61" fill="none" stroke="#d0cee2" stroke-width="0.5" stroke-linejoin="round" stroke-linecap="round" stroke-miterlimit="10" pointer-events="all" style="stroke: rgb(208, 206, 226);"/><path d="M 104.38 49 C 108.08 50.47 113.94 50.3 114.38 49 M 104.38 49 C 108.78 48.69 112.67 49.13 114.38 49 M 114.38 49 C 117.72 55.37 123.12 56.66 124.38 59 M 114.38 49 C 117.14 51.15 121.85 56.29 124.38 59 M 124.38 59 C 123.14 60.86 116.39 64.64 114.38 69 M 124.38 59 C 122.89 60.4 118.88 63.67 114.38 69 M 114.38 69 C 112.95 68.74 111.2 70.28 104.38 69 M 114.38 69 C 110.06 68.77 107.21 68.96 104.38 69 M 104.38 69 C 100.36 64.88 100.23 63.74 94.38 59 M 104.38 69 C 102.45 67 99.31 62.24 94.38 59 M 94.38 59 C 98.28 57.42 99.65 50.97 104.38 49 M 94.38 59 C 97.14 54.28 101.05 51.65 104.38 49" fill="none" stroke="#56517e" stroke-linejoin="round" stroke-linecap="round" stroke-miterlimit="10" pointer-events="all" style="stroke: rgb(86, 81, 126);"/></g></g><g data-cell-id="dZ_jtR7OcNKBFid1YSR7-1"><g><path d="M 172.53 51.81 L 196.2 71.74 L 172.53 91.68 L 172.53 79.6 C 151.15 79.6 133.81 92.77 133.81 109 C 133.81 84.08 151.15 63.88 172.53 63.88 Z" fill="none" stroke="none" transform="rotate(75,165,80.4)" pointer-events="all"/><path d="M 150.71 71.8 C 150.71 71.8 150.71 71.8 150.71 71.8 M 150.71 71.8 C 150.71 71.8 150.71 71.8 150.71 71.8 M 137.98 92.53 C 145.5 83.28 156.16 77.16 159.63 67.63 M 137.98 92.53 C 144.34 81.68 153.88 73.04 159.63 67.63 M 172.75 52.53 C 172.75 52.53 172.75 52.53 172.75 52.53 M 172.75 52.53 C 172.75 52.53 172.75 52.53 172.75 52.53 M 135.09 101.95 C 135.35 101.63 136.07 101.57 136.41 100.44 M 135.09 101.95 C 135.5 101.83 135.84 101.36 136.41 100.44 M 143.62 92.14 C 152.52 84.4 153.83 75.7 166.58 65.72 M 143.62 92.14 C 150.05 86.06 155.33 76.78 166.58 65.72 M 173.14 58.18 C 174.13 56.42 174.45 56.6 175.77 55.16 M 173.14 58.18 C 174.29 57.29 175.04 56.11 175.77 55.16 M 156.48 83.44 C 160.61 78.55 162.97 68.16 179.44 57.03 M 156.48 83.44 C 164.98 72.66 173.66 65.8 179.44 57.03 M 162.78 82.29 C 166.52 73.03 176.11 71.4 182.46 59.65 M 162.78 82.29 C 167.36 77.69 174.38 70.57 182.46 59.65 M 169.74 80.39 C 173.35 69.96 184.71 70.18 185.48 62.28 M 169.74 80.39 C 174.89 73.06 178.11 69.66 185.48 62.28 M 172.75 83.01 C 177.27 76.13 178.44 72.61 188.5 64.9 M 172.75 83.01 C 180.28 78.36 184.89 71.62 188.5 64.9 M 173.15 88.66 C 177.55 86.31 184.67 73.82 191.52 67.53 M 173.15 88.66 C 175.63 82.39 183.49 80.11 191.52 67.53 M 182.73 83.73 C 184.07 76.03 191.3 77.44 194.54 70.15 M 182.73 83.73 C 188.87 79.5 190.49 74.66 194.54 70.15" fill="none" stroke="#dae8fc" stroke-width="0.5" stroke-linejoin="round" stroke-linecap="round" stroke-miterlimit="10" transform="rotate(75,165,80.4)" pointer-events="all" style="stroke: rgb(218, 232, 252);"/><path d="M 172.53 51.81 C 179.21 60.2 180.67 61.06 196.2 71.74 M 172.53 51.81 C 181.9 59.02 189.87 64.61 196.2 71.74 M 196.2 71.74 C 191.56 81.59 181.41 89.4 172.53 91.68 M 196.2 71.74 C 191.49 75.58 185.85 82.24 172.53 91.68 M 172.53 91.68 C 170.47 87 174.4 86.57 172.53 79.6 M 172.53 91.68 C 171.69 89.19 173.26 85.79 172.53 79.6 M 172.53 79.6 C 153.86 83.09 135.5 92.78 133.81 109 M 172.53 79.6 C 154.01 83.59 131.55 95.32 133.81 109 M 133.81 109 C 132.86 84.67 152.76 61.09 172.53 63.89 M 133.81 109 C 132.44 83.3 146.99 65.38 172.53 63.89 M 172.53 63.89 C 172.39 59.19 171.01 55.48 172.53 51.81 M 172.53 63.89 C 172.46 61.97 172.31 58.1 172.53 51.81" fill="none" stroke="#6c8ebf" stroke-linejoin="round" stroke-linecap="round" stroke-miterlimit="10" transform="rotate(75,165,80.4)" pointer-events="all" style="stroke: rgb(108, 142, 191);"/></g></g><g data-cell-id="RaAF7EwpMOphrm_YgsEl-1"><g><path d="M 138.93 145.99 L 175.92 145.99 L 175.92 109 L 183.01 109 L 183.01 145.99 L 220 145.99 L 220 153.08 L 183.01 153.08 L 183.01 190.07 L 175.92 190.07 L 175.92 153.08 L 138.93 153.08 Z" fill="none" stroke="none" transform="rotate(-45,179.46,149.53)" pointer-events="all"/><path d="M 138.93 145.99 C 153.8 148.05 160.4 145.72 175.92 145.99 C 177.28 131.67 176.77 123.09 175.92 109 C 177.53 109.67 182.12 109.4 183.01 109 C 178.12 120.01 183.53 139.94 183.01 145.99 C 190.87 145.28 199.58 147.35 220 145.99 C 218.24 147.94 220.58 153.14 220 153.08 C 210 154.84 200.74 155.64 183.01 153.08 C 181.53 157.45 186.58 173.06 183.01 190.07 C 181.07 191.35 177.66 189.96 175.92 190.07 C 177.47 183.52 175.05 165.54 175.92 153.08 C 167.06 158.66 146.92 153.15 138.93 153.08 C 136.88 153.17 140.17 148.57 138.93 145.99" fill="#fa6800" stroke="none" transform="rotate(-45,179.46,149.53)" pointer-events="all" style="fill: rgb(250, 104, 0);"/><path d="M 138.93 145.99 C 147.73 145.32 162.27 145.84 175.92 145.99 M 138.93 145.99 C 151.8 146.7 164.45 145.63 175.92 145.99 M 175.92 145.99 C 175.57 135.75 174.06 118.77 175.92 109 M 175.92 145.99 C 175.82 136.06 177.23 121.57 175.92 109 M 175.92 109 C 177.6 108.45 181.2 108.41 183.01 109 M 175.92 109 C 177.87 109.35 178.96 108.51 183.01 109 M 183.01 109 C 185.06 120.31 186.42 132.97 183.01 145.99 M 183.01 109 C 184.09 118.55 181.43 130.54 183.01 145.99 M 183.01 145.99 C 192.79 149.76 207.62 150.25 220 145.99 M 183.01 145.99 C 194.33 144.92 205.67 145.25 220 145.99 M 220 145.99 C 219.41 147.52 221.48 150.62 220 153.08 M 220 145.99 C 220.35 148.5 220.07 150.76 220 153.08 M 220 153.08 C 210 150.94 205.29 149.81 183.01 153.08 M 220 153.08 C 209.47 152.44 197.97 152.7 183.01 153.08 M 183.01 153.08 C 182.55 166 186.89 174.81 183.01 190.07 M 183.01 153.08 C 183.35 161.26 182.69 166.47 183.01 190.07 M 183.01 190.07 C 182.25 189.55 179.59 190.83 175.92 190.07 M 183.01 190.07 C 181.63 190.45 179.36 189.26 175.92 190.07 M 175.92 190.07 C 173.57 176.43 174.92 162.06 175.92 153.08 M 175.92 190.07 C 176.63 180.56 176.61 173.44 175.92 153.08 M 175.92 153.08 C 166.32 154.8 162.2 150.04 138.93 153.08 M 175.92 153.08 C 162.55 154.75 146.46 153.43 138.93 153.08 M 138.93 153.08 C 138.92 152.08 137.96 149.72 138.93 145.99 M 138.93 153.08 C 138.4 150.22 138.9 148.13 138.93 145.99" fill="none" stroke="#c73500" stroke-linejoin="round" stroke-linecap="round" stroke-miterlimit="10" transform="rotate(-45,179.46,149.53)" pointer-events="all" style="stroke: rgb(199, 53, 0);"/></g></g></g></g></g></g></svg>